<svg preserveAspectRatio="none" width="100%" height="100%" overflow="visible" style="display: block;" viewBox="0 0 8.64234 9.28768" fill="none" xmlns="http://www.w3.org/2000/svg">
<path id="Vector" d="M2.44815 0.656194C3.8651 0.656194 4.88905 1.93974 4.89626 3.9588C4.88905 5.99949 3.8651 7.27583 2.44815 7.27583C1.02759 7.27583 -0.00717347 5.99949 3.74542e-05 3.9588C-0.00717347 1.93974 1.02759 0.656194 2.44815 0.656194ZM1.25834 3.9588C1.25474 5.3469 1.73787 6.09684 2.44815 6.09684C3.17645 6.09684 3.64516 5.3469 3.64877 3.9588C3.64516 2.58512 3.17645 1.83158 2.44815 1.83158C1.73787 1.83158 1.25474 2.58512 1.25834 3.9588ZM5.97069 9.28768V0H7.27226V3.50451H8.64234V4.58976H7.27226V9.28768H5.97069Z" fill="var(--fill-0, white)"/>
</svg>
