<svg preserveAspectRatio="none" width="100%" height="100%" overflow="visible" style="display: block;" viewBox="0 0 27.972 13.4305" fill="none" xmlns="http://www.w3.org/2000/svg">
<g id="Group">
<path id="Vector" d="M27.6719 0H2.4895C2.26895 0 2.08081 0.160658 2.04558 0.378391L0.00282841 13.1479C-0.0387453 13.41 0.389675 13.5424 0.520033 13.3113C1.9124 10.8486 3.87341 9.28502 7.1986 9.28502H26.3035C26.4916 9.28502 26.6332 9.11309 26.5973 8.92848L25.7679 4.64216L27.9382 0.436876C28.0411 0.237463 27.8967 0 27.6719 0ZM7.42267 7.56289C5.80975 7.56289 4.50265 6.25508 4.50265 4.64286C4.50265 3.03065 5.81046 1.72284 7.42267 1.72284C9.03489 1.72284 10.3427 3.03065 10.3427 4.64286C10.3427 6.25508 9.03489 7.56289 7.42267 7.56289ZM16.4082 3.44427H14.6114L14.6135 4.64357C14.7791 4.91838 15.118 5.20728 15.4372 5.40951C15.6331 5.53353 16.0009 5.77029 16.4082 5.84004V7.3374H16.3075C15.5845 7.3374 14.3281 6.59471 13.7123 5.98731C13.0964 6.59401 11.8401 7.3374 11.1171 7.3374H11.0163V5.84004C11.4236 5.77029 11.7914 5.53353 11.9873 5.40951C12.3065 5.20728 12.6455 4.91767 12.811 4.64357L12.8132 3.44427H11.0163V1.94692H16.4075V3.44427H16.4082ZM22.6978 3.44427H19.1035V5.84075H22.6978V7.33811H17.3066V1.94692H22.6978V3.44427Z" fill="var(--fill-0, white)"/>
<path id="Vector_2" d="M7.4225 6.06483C8.20817 6.06483 8.84516 5.42783 8.84516 4.64216C8.84516 3.85649 8.20817 3.2195 7.4225 3.2195C6.63683 3.2195 5.99983 3.85649 5.99983 4.64216C5.99983 5.42783 6.63683 6.06483 7.4225 6.06483Z" fill="var(--fill-0, white)"/>
</g>
</svg>
