<svg preserveAspectRatio="none" width="100%" height="100%" overflow="visible" style="display: block;" viewBox="0 0 8.28536 9.28409" fill="none" xmlns="http://www.w3.org/2000/svg">
<path id="Vector" d="M7.05229 0V2.21015H8.28536V3.26655H7.05229V5.37575H5.73269V0H7.05229ZM0 4.87459V0.627351H4.17513V1.67294H1.29076V3.8254C3.01417 3.81819 3.9588 3.7605 4.99357 3.54417L5.10894 4.58615C3.96241 4.83493 2.86995 4.87459 0.77157 4.87459H0ZM0.814835 7.40202C0.81123 6.23385 2.05512 5.5416 3.99125 5.53799C5.90575 5.5416 7.1244 6.23385 7.1244 7.40202C7.1244 8.59182 5.90575 9.28768 3.99125 9.28407C2.05512 9.28768 0.81123 8.59182 0.814835 7.40202ZM2.09838 7.40202C2.09477 7.96087 2.77621 8.25291 3.99125 8.25291C5.17384 8.25291 5.85888 7.96087 5.86248 7.40202C5.85888 6.85399 5.17384 6.56916 3.99125 6.57276C2.77621 6.56916 2.09477 6.85399 2.09838 7.40202Z" fill="var(--fill-0, white)"/>
</svg>
