<svg preserveAspectRatio="none" width="100%" height="100%" overflow="visible" style="display: block;" viewBox="0 0 8.48005 8.88386" fill="none" xmlns="http://www.w3.org/2000/svg">
<path id="Vector" d="M8.48005 3.96962V5.00078H0V3.96962H3.60546V3.17641H1.02395V0H7.46331V1.01314H2.32192V2.15607H7.51018V3.17641H4.8818V3.96962H8.48005ZM0.966265 7.17848C0.966265 6.07521 2.18852 5.46228 4.21479 5.46228C6.23024 5.46228 7.44168 6.07521 7.44889 7.17848C7.44168 8.26372 6.23024 8.88026 4.21479 8.88386C2.18852 8.88026 0.966265 8.26372 0.966265 7.17848ZM2.29308 7.17848C2.28586 7.66161 2.93124 7.89236 4.21479 7.88876C5.4767 7.89236 6.14011 7.66161 6.14371 7.17848C6.14011 6.69895 5.4767 6.45378 4.21479 6.45378C2.93124 6.45378 2.28586 6.69895 2.29308 7.17848Z" fill="var(--fill-0, white)"/>
</svg>
