<svg preserveAspectRatio="none" width="100%" height="100%" overflow="visible" style="display: block;" viewBox="0 0 7.87074 9.11101" fill="none" xmlns="http://www.w3.org/2000/svg">
<path id="Vector" d="M7.62557 0V6.67011H6.32039V0H7.62557ZM8.69809e-06 2.92764C-0.00359673 1.56838 1.1141 0.587691 2.53826 0.587691C3.96241 0.587691 5.0729 1.56838 5.0729 2.92764C5.0729 4.30853 3.96241 5.28201 2.53826 5.28201C1.1141 5.28201 -0.00359673 4.30853 8.69809e-06 2.92764ZM1.27274 2.92764C1.26553 3.70281 1.81356 4.14989 2.53826 4.14989C3.24132 4.14989 3.78935 3.70281 3.78935 2.92764C3.78935 2.1741 3.24132 1.71981 2.53826 1.71981C1.81356 1.71981 1.26553 2.1741 1.27274 2.92764ZM1.40614 9.11101V5.99589H2.72214V8.06182H7.87074V9.11101H1.40614Z" fill="var(--fill-0, white)"/>
</svg>
