<svg preserveAspectRatio="none" width="100%" height="100%" overflow="visible" style="display: block;" viewBox="0 0 8.46563 8.88388" fill="none" xmlns="http://www.w3.org/2000/svg">
<path id="Vector" d="M8.46563 3.82179V4.86377H4.86738V5.55241C6.48263 5.6714 7.44168 6.25187 7.44889 7.20732C7.44168 8.28536 6.22303 8.88747 4.21479 8.88386C2.18491 8.88747 0.966262 8.28536 0.966262 7.20732C0.966262 6.24827 1.93253 5.66779 3.58023 5.55241V4.86377H0V3.82179H8.46563ZM0.371363 2.44811C2.08756 2.30029 3.03941 1.66933 3.27737 1.02756H0.767964V0H7.70127V1.02756H5.17024C5.40099 1.67654 6.34562 2.30029 8.10509 2.44811L7.65079 3.46846C5.89493 3.3026 4.71595 2.64281 4.21839 1.73783C3.72805 2.6392 2.56349 3.3026 0.807626 3.46846L0.371363 2.44811ZM2.29307 7.20732C2.28586 7.66161 2.93124 7.90678 4.21479 7.90318C5.4767 7.90678 6.14011 7.66161 6.14371 7.20732C6.14011 6.74582 5.4767 6.51868 4.21479 6.51147C2.93124 6.51868 2.28586 6.74582 2.29307 7.20732Z" fill="var(--fill-0, white)"/>
</svg>
