<svg preserveAspectRatio="none" width="100%" height="100%" overflow="visible" style="display: block;" viewBox="0 0 7.90678 9.29849" fill="none" xmlns="http://www.w3.org/2000/svg">
<path id="Vector" d="M7.88155 0V5.51636H6.58358V3.32424H5.13418V2.26423H6.58358V0H7.88155ZM0 4.4888C1.5143 3.98404 2.21015 2.77621 2.23899 1.61164H0.378574V0.566058H5.4118V1.61164H3.5622C3.59465 2.68968 4.25805 3.77853 5.69663 4.25445L5.05486 5.2784C4.03091 4.94309 3.32784 4.27248 2.92043 3.43961C2.51661 4.38424 1.77389 5.14139 0.674222 5.51997L0 4.4888ZM1.52151 7.51018C1.5179 6.38528 2.73294 5.72187 4.70874 5.72187C6.69174 5.72187 7.90318 6.38528 7.90678 7.51018C7.90318 8.63509 6.69174 9.29489 4.70874 9.29849C2.73294 9.29489 1.5179 8.63509 1.52151 7.51018ZM2.81587 7.51018C2.81226 8.04018 3.47927 8.30699 4.70874 8.30338C5.94181 8.30699 6.61242 8.04018 6.61603 7.51018C6.61242 6.97657 5.94181 6.70977 4.70874 6.70977C3.47927 6.70977 2.81226 6.97657 2.81587 7.51018Z" fill="var(--fill-0, white)"/>
</svg>
