<svg preserveAspectRatio="none" width="100%" height="100%" overflow="visible" style="display: block;" viewBox="0 0 57.9267 64.0929" fill="none" xmlns="http://www.w3.org/2000/svg">
<path id="Vector" d="M9.9793 2.29191L1.49105 5.9337L0.297482 7.47294L0 9.14853L0.547511 10.8367V10.8672L0.708115 13.7411L1.42718 18.6154L0.569411 21.7602L3.75775 26.9305L2.48022 29.6L3.64825 32.1815L5.88209 32.4847L6.87491 33.2848L7.62683 36.6485L6.82016 38.2344L6.73986 46.0777L6.50626 48.2987L6.93331 50.0604L3.68658 52.1898L13.6494 64.0929L15.5019 62.2003L18.046 61.8971L18.2905 61.1006L21.9771 61.0181L27.4157 61.5688L29.5382 62.2631L37.9389 61.7231L40.6472 60.627L50.4093 60.8602L54.3313 59.3945L56.901 58.5262L57.9267 58.3917L57.5598 52.572L56.7933 52.6832L54.2492 53.8923L53.4553 53.4474V51.8777L52.364 49.5886L48.734 49.9527L47.5313 51.0507L45.3029 49.3858L44.5199 44.6874L43.7352 44.4775L40.8553 41.5659L40.6144 39.9118L40.0121 39.1242H36.7343L35.3528 40.2419L33.9183 39.8275L31.084 39.9872L28.2972 37.6388L26.0542 37.5563L25.7933 36.5337L21.8147 33.8732L21.634 32.6246L22.1523 30.7589L28.852 27.2732L28.7005 24.4387L28.9323 23.0699L28.2169 21.0391L28.7681 18.0933L26.3955 13.5833L26.5561 11.3013L25.7129 8.81484L23.5375 6.12028L23.6963 4.25094L23.1232 3.56205L20.1521 3.64099L19.6575 2.66865L19.7177 0.359789C19.5826 0.320321 19.4439 0.26291 19.2961 0.18218C18.6318 -0.178411 18.2558 0.0655729 17.7467 0.318525C16.2994 1.03791 14.8321 1.6981 13.133 1.45233C12.6475 1.38236 12.1328 1.4308 11.7897 1.77704C11.2349 2.33317 10.64 2.37085 9.98842 2.29191H9.9793Z" fill="var(--fill-0, #CFDDEB)"/>
</svg>
