<svg preserveAspectRatio="none" width="100%" height="100%" overflow="visible" style="display: block;" viewBox="0 0 85.2383 76.178" fill="none" xmlns="http://www.w3.org/2000/svg">
<path id="Vector" d="M71.7659 43.6079L68.6451 40.3859L64.8198 38.6636L64.0332 37.5819L54.2547 34.1715L47.4692 31.3783L42.861 31.0553L40.9867 14.0178C40.6472 13.9569 40.4556 13.9228 40.4556 13.9228L29.6258 5.96823C29.6258 5.96823 24.8661 3.62888 19.7487 2.34259C14.6313 1.0563 11.8938 0.00322266 11.8938 0.00322266C11.8938 0.00322266 9.99024 -0.113387 8.20536 1.05629C7.36767 1.60525 3.6811 5.39236 0 9.26199L1.98016 12.4858L3.6519 19.5272L14.6021 48.4122L20.3035 47.4003L22.4571 52.2908L23.3167 55.441L27.6055 60.8517L26.5488 62.2618L27.5197 62.8071L27.8117 64.5329L31.3852 63.6557L37.384 63.4996L47.3104 58.3526L47.6608 56.8887L50.1557 57.5651L54.1799 56.8242L54.5029 60.8768L56.0834 61.0992L59.9068 66.8561L60.2171 69.8306L63.0879 71.3985V75.9804C63.6372 75.9373 64.2121 75.8709 64.7432 76.0737C65.3418 76.3015 65.6867 76.1633 65.997 75.5893C66.4715 74.7066 67.5702 74.2886 67.8749 73.2409C67.9242 73.0741 68.2473 72.8857 68.4498 72.8786C69.5741 72.8355 69.9007 71.8919 70.0668 71.1743C70.2621 70.3275 70.7238 70.1965 71.3425 70.2737C72.6529 70.4351 73.9505 70.6899 75.2518 70.9141C75.4927 70.9554 75.7664 71.0846 75.8084 71.3016C76.0529 72.5198 77.1407 72.9126 77.9857 73.5603C78.462 73.9245 78.9511 73.9532 79.4511 73.7594C79.9822 73.5549 79.7596 73.0454 79.807 72.6525C79.8235 72.5144 79.8253 72.3709 79.807 72.2327C79.6172 70.8083 80.3071 69.9203 81.5883 69.3928C82.2161 69.1345 82.8074 68.7793 83.1578 68.225C83.6013 67.5235 84.2182 67.0194 84.8752 66.5817C85.0029 66.4956 85.1252 66.4059 85.2383 66.3144L71.7659 43.6132V43.6079Z" fill="var(--fill-0, #002C5D)"/>
</svg>
