<svg preserveAspectRatio="none" width="100%" height="100%" overflow="visible" style="display: block;" viewBox="0 0 37.5824 67.3882" fill="none" xmlns="http://www.w3.org/2000/svg">
<path id="Vector" d="M0.446598 16.1465C0.34257 16.1824 0.24585 16.1932 0.156423 16.1914L1.46679 20.9741L4.47264 22.2174L5.67716 25.6134L7.17551 26.932L7.19741 26.9786L9.06624 30.9738L8.52787 32.2978L6.65903 33.8281L6.50936 36.9065L7.77047 38.4996L5.91988 39.1921L4.21713 48.0167L5.55305 50.2771L8.17017 51.1598L10.1978 50.6018L19.7117 57.6558L21.6809 62.2269L23.5789 63.0037L25.331 66.6042L26.791 67.3882L28.7347 64.0101L30.14 61.7066L30.6218 58.3895L34.374 55.2052L36.9656 58.2388L36.7886 57.758L37.5824 53.2372L36.325 49.9919L35.6917 42.5163L33.7791 38.7543L33.9379 36.7164L32.0435 32.2153L31.558 28.3905L31.5708 28.3438L34.8869 16.3905L34.3886 14.1875C34.3083 14.27 34.228 14.3543 34.1496 14.4404C33.7061 13.904 33.4597 13.3102 33.5509 12.6249C33.7207 11.3548 33.6093 10.1385 32.9761 8.99211C32.8666 8.79118 32.8191 8.55438 32.7644 8.32833C32.4067 6.85906 32.3701 6.8483 31.193 7.90316C31.1583 7.93366 31.1237 7.96774 31.089 7.99824C30.0706 8.8755 28.8424 8.50056 28.4846 7.2053C28.2018 6.17914 27.4298 5.65709 26.4662 5.93516C25.9771 6.07509 25.5062 6.35136 25.1631 6.74245C24.1356 7.91572 22.7869 8.49159 21.2958 8.81271C20.814 8.91676 20.2026 9.39037 19.8668 8.83783C19.5584 8.33013 18.8849 8.26196 18.7152 7.68071C18.3885 6.57023 17.7626 5.55842 17.7863 4.33492C17.8155 2.86565 17.226 1.61524 16.0835 0.642896C15.536 0.176459 15.2367 0.199781 14.9173 0.863556C14.5669 1.59371 14.0869 1.76055 13.3131 1.58474C12.1487 1.31923 10.8694 1.45557 9.91672 0.499377C9.75064 0.33433 9.38382 0.348682 9.10641 0.309214C8.5443 0.228485 7.97671 0.183635 7.41642 0.0975238C6.12065 -0.101609 6.13524 -0.101609 5.55853 1.14342C4.93984 2.47814 4.21896 3.71241 2.6476 4.20575C1.39015 4.60043 1.40293 4.6381 1.39563 5.98001C1.39563 6.25987 1.36641 6.54332 1.40109 6.81959C1.50694 7.66994 1.28064 8.38215 0.579822 8.92753C-0.0607662 9.42625 -0.0844926 10.0111 0.0998361 10.7915C0.51777 12.5586 0.647362 14.3669 0.457559 16.1537L0.446598 16.1465Z" fill="var(--fill-0, #DDE1E6)" fill-opacity="0.67"/>
</svg>
