<svg preserveAspectRatio="none" width="100%" height="100%" overflow="visible" style="display: block;" viewBox="0 0 50.7689 38.6981" fill="none" xmlns="http://www.w3.org/2000/svg">
<path id="Vector" d="M12.6311 29.8394C16.4399 29.4878 33.577 35.9228 33.577 35.9228L38.8952 38.6981L50.7689 12.9472L49.8728 12.3821L45.3175 11.3021L39.1489 10.1988L39.0978 10.1576L28.5673 1.36163L25.8717 0L23.3769 0.0735487L17.378 3.29735L13.9889 2.029L12.7096 2.10793L11.8427 1.71146L12.1967 6.78307L14.1367 6.94272L13.9487 9.0686L11.4101 11.564L11.1638 14.6336L9.24382 14.8901L7.24721 15.5449L6.39857 18.426L6.37304 18.4601L2.6901 23.4976L0.682562 24.5597L0 28.2876L1.05488 31.9168L3.64825 32.5196L6.75994 33.7826L6.79826 33.7018C6.79826 33.7018 8.82039 30.1928 12.6292 29.8412L12.6311 29.8394Z" fill="var(--fill-0, #002C5D)"/>
</svg>
