<svg preserveAspectRatio="none" width="100%" height="100%" overflow="visible" style="display: block;" viewBox="0 0 73.2559 72.9956" fill="none" xmlns="http://www.w3.org/2000/svg">
<path id="Vector" d="M72.7916 39.6669C71.9795 39.0425 71.2586 38.3483 70.6381 37.5374C70.315 37.1158 69.857 36.9256 69.5029 37.5266C69.1069 38.2012 68.6159 38.2604 67.9626 37.9105C67.5921 37.7114 67.1669 37.6199 66.7672 37.4836C66.0627 37.245 65.3527 37.0028 64.8308 36.3856C64.0825 35.4994 64.0515 35.5245 63.0842 36.1901C61.7958 37.0763 61.2738 37.0943 60.0236 36.2637C59.7024 36.0502 59.3721 35.8977 58.9852 35.8385C58.4468 35.756 58.0654 35.3721 57.6329 35.094C57.4138 34.9541 57.2496 34.7693 57.381 34.5217C57.7515 33.8238 57.2569 33.3718 56.9156 32.891C56.3918 32.1536 56.3407 31.4307 56.9375 30.7256C57.2295 30.3794 57.3591 30.0026 57.3445 29.5667C57.3244 29.0034 57.6146 28.7092 58.1639 28.6105C58.549 28.5405 59.1075 28.6948 59.113 28.0472C59.1166 27.5879 59.1348 27.1125 58.7844 26.7232C58.549 26.4595 58.0964 26.3591 58.111 25.8962C58.3921 25.6253 58.7388 25.7509 59.0527 25.7294C60.1916 25.6504 60.6077 25.3688 60.5164 24.5328L39.4318 13.3491L42.5307 3.39064L37.1997 0C35.1046 2.64254 33.703 4.82762 32.9985 6.3274C32.2849 7.8487 29.4287 14.2819 26.8098 16.3881C24.1909 18.4942 17.0513 23.1729 12.1712 22.8213C8.34043 22.545 2.38532 21.5494 0 21.135L1.8141 37.6253L6.09197 37.9249L6.12849 37.941L12.945 40.7468L22.8513 44.2021L23.6525 45.3035L27.4449 47.0114L30.6716 50.3411L30.6862 50.3662L44.1148 72.9956C44.6295 72.452 44.9269 71.7864 44.9452 70.9109C47.5477 72.2726 50.0024 72.1219 52.4114 70.6921C52.9316 70.3835 52.9608 70.0588 52.4789 69.7413C51.5719 69.1457 50.6721 68.5285 49.7067 68.0388C48.9384 67.6477 48.7285 67.0969 48.8051 66.3327C48.838 66.008 48.8745 65.6797 48.8672 65.3549C48.8562 64.8365 49.1629 64.6015 49.61 64.4687C50.2287 64.2839 50.809 64.2732 51.3584 64.7019C52.2636 65.4088 53.3458 65.7783 54.4117 66.1676C55.0833 66.4134 55.6673 66.6484 56.2586 65.8465C56.5725 65.4195 57.3208 65.2778 57.8975 65.0661C58.3519 64.8993 58.8009 64.7163 59.1002 64.3503C59.7024 63.613 60.4726 63.073 61.2117 62.4918C61.96 61.9033 62.6097 61.2216 63.0623 60.391C63.4657 59.6501 63.8416 58.9038 64.5078 58.3458C64.6921 58.1916 64.86 57.9637 64.7797 57.7341C64.4786 56.873 65.1903 56.141 65.0462 55.2727C64.9586 54.7471 65.5006 54.374 65.9295 54.0833C66.278 53.8465 66.6722 53.6635 67.0664 53.5093C67.6322 53.2886 68.0556 52.9567 68.1962 52.3539C68.4152 51.4139 69.012 50.8111 69.8825 50.4057C70.4756 50.1276 70.8352 49.6863 70.7987 48.9669C70.7676 48.3354 71.087 47.8151 71.4904 47.3254C72.0178 46.6849 72.2331 45.9619 72.0561 45.1116C71.9028 44.3814 71.9868 43.7069 72.3956 42.9821C72.7168 42.4117 72.7861 41.6725 73.1183 41.0464C73.3902 40.5351 73.2479 40.0131 72.7898 39.6615L72.7916 39.6669Z" fill="var(--fill-0, #CFDDEB)"/>
</svg>
