<svg preserveAspectRatio="none" width="100%" height="100%" overflow="visible" style="display: block;" viewBox="0 0 53.1118 61.6197" fill="none" xmlns="http://www.w3.org/2000/svg">
<path id="Vector (Stroke)" d="M48.5731 0.0199876C47.973 0.394928 47.9033 0.979504 47.6972 1.52477L47.638 1.65683C47.614 1.69899 47.5848 1.73665 47.5492 1.76177L47.3963 1.87384C46.6607 2.44187 46.4032 3.11546 46.6769 4.12958C46.9141 5.01034 46.7739 5.96123 47.4836 6.7344C48.1588 7.4699 48.3815 8.45685 48.7557 9.3592C49.4054 10.9236 49.9347 12.4972 49.8343 14.2176C49.8107 14.6498 50.0026 15.0141 50.2088 15.3962C50.6304 16.1747 51.0937 16.9301 51.382 17.784C51.7653 18.9195 51.8366 20.0085 51.6505 21.2104L51.6057 21.5202C51.3992 23.0706 51.428 24.6556 51.3186 26.223L51.3121 26.4115C51.3153 26.8404 51.4518 27.1811 51.8655 27.4087C52.6045 27.8177 52.751 28.4847 52.6289 29.2147L52.6043 29.3875C52.5022 30.2502 52.6863 31.1243 52.4023 31.9887L52.3706 32.0987C52.2324 32.651 52.4171 33.2161 52.8893 33.6534V33.6477C53.1138 33.8558 53.2015 34.125 52.9954 34.3994C52.7815 34.6866 52.5062 34.6925 52.2255 34.5886L52.105 34.5379C51.8915 34.4374 51.6757 34.3277 51.4932 34.1824C50.3034 33.239 49.201 33.1043 47.9656 34.0425L47.7967 34.1638C47.0091 34.6964 46.2271 34.7667 45.3738 34.57L45.1898 34.5236C44.5109 34.3388 43.8886 34.3656 43.2626 34.6849L43.0065 34.8099C42.4096 35.0849 41.8065 35.235 41.0944 34.954C40.66 34.7836 40.0944 34.7209 39.8115 35.4116C39.6815 35.7317 39.379 35.7197 39.0827 35.6515L38.7948 35.5751C38.6132 35.5249 38.4333 35.4697 38.2544 35.4116L37.7198 35.2303C37.2289 35.0599 36.8128 35.0688 36.4643 35.5387C36.0482 36.1002 35.4846 36.5527 35.2254 37.2326L35.1395 37.4311C34.6771 38.3968 33.6912 38.9608 33.1351 39.8589L32.3068 41.1859C31.4744 42.5107 30.6322 43.8302 29.7973 45.1527C29.5546 45.5384 29.6164 45.9586 29.6566 46.3784C29.704 46.8842 29.6295 47.3846 29.5967 47.8867L29.5657 48.2165C29.3722 49.8422 28.5816 51.1402 27.4011 52.2569L27.2669 52.3904C26.6138 53.0661 26.2528 53.8865 25.9739 54.7561L25.8923 54.9873C25.6883 55.52 25.3972 56.0039 25.1145 56.5C24.9393 56.8103 24.8004 57.0702 24.419 57.0918L24.2963 57.1017C23.0596 57.2316 22.8641 58.2287 22.7616 59.1655L22.7334 59.4689C22.6799 60.1789 22.7167 60.9055 22.8987 61.6197L2.53115 50.8164L5.62077 40.8882L0 37.3133C1.65485 34.8538 4.39183 26.7693 5.65685 22.8808L6.33653 20.7543L9.55026 18.5321C9.55026 18.5321 11.7837 15.3482 15.386 13.4481L15.7389 13.2682C19.308 11.514 18.7998 12.2262 21.7615 12.226L22.4023 12.2153C26.0925 12.0987 28.2352 10.9289 28.2352 10.9289L40.8498 2.03802C42.7423 1.72946 47.5095 0.324712 48.5991 0C48.5918 0.00717595 48.5822 0.0146057 48.5731 0.0199876ZM47.6726 0.610336C45.8662 1.13692 42.5537 2.07547 40.9797 2.34497L28.4256 11.1938L28.4105 11.2045L28.3939 11.2138L28.3932 11.2145C28.3927 11.2147 28.3917 11.2148 28.391 11.2152C28.3894 11.216 28.3871 11.2174 28.3845 11.2188C28.3793 11.2215 28.3721 11.2254 28.3629 11.2302C28.3442 11.2399 28.3171 11.2537 28.2821 11.2709C28.2117 11.3053 28.1083 11.3536 27.974 11.4115C27.7053 11.5273 27.3108 11.6818 26.8 11.8391C25.8423 12.134 24.475 12.4405 22.7601 12.5265L22.4131 12.5401C21.4758 12.5697 20.8229 12.533 20.3127 12.4901C19.7917 12.4464 19.4635 12.4025 19.1222 12.4095C18.556 12.4209 17.9615 12.5756 16.5448 13.2418L15.8853 13.5595C14.0249 14.4734 12.5072 15.7631 11.4515 16.8296C10.9246 17.3619 10.515 17.8361 10.2379 18.1766C10.0995 18.3466 9.99422 18.483 9.92401 18.5763C9.88906 18.6228 9.86267 18.6589 9.84536 18.6827C9.83671 18.6946 9.83 18.7041 9.82588 18.7098C9.82389 18.7126 9.82245 18.715 9.82155 18.7163L9.82083 18.717L9.78692 18.7655L9.73858 18.7983L6.61721 20.957C6.613 20.9705 6.60849 20.9854 6.6035 21.0013C6.57263 21.0996 6.52722 21.244 6.46857 21.4289C6.35113 21.799 6.1811 22.3318 5.96999 22.9808C5.54784 24.2784 4.96128 26.0429 4.30613 27.9106C3.65112 29.7778 2.92632 31.7511 2.22594 33.4643C1.60006 34.9952 0.984131 36.3384 0.45096 37.2126L6.00895 40.7483L2.92511 50.6557L22.4463 61.0108C22.3589 60.3759 22.3668 59.7427 22.4347 59.1305L22.4824 58.7571C22.5402 58.3741 22.6375 57.9704 22.8424 57.6286C23.1344 57.1414 23.6246 56.8104 24.4002 56.767L24.4695 56.7577C24.5305 56.7438 24.5704 56.7161 24.608 56.6777C24.6757 56.6085 24.7325 56.5095 24.8273 56.3415L24.8281 56.3401L25.0705 55.9153C25.3067 55.498 25.5183 55.0971 25.6607 54.6568C25.9644 53.7101 26.376 52.7772 27.1738 52.022L27.396 51.8043C28.481 50.7063 29.1617 49.443 29.2684 47.8653C29.3036 47.328 29.3738 46.8805 29.3297 46.4091L29.2994 46.0936C29.2739 45.7546 29.283 45.3541 29.5181 44.9807L31.1935 42.3366C31.751 41.4559 32.3063 40.5744 32.8552 39.689L32.9814 39.4991C33.2893 39.0659 33.6801 38.7034 34.0125 38.3676C34.4055 37.9706 34.7362 37.5946 34.9173 37.1177L34.9772 36.9749C35.1246 36.6492 35.3282 36.3767 35.5328 36.1333C35.7795 35.8397 35.997 35.6189 36.1988 35.3467L36.2817 35.2439C36.4787 35.0163 36.7098 34.8755 36.9766 34.8248C37.2683 34.7694 37.56 34.8301 37.8287 34.9234L38.3569 35.1018C38.5322 35.1588 38.7074 35.213 38.8836 35.2617L39.1571 35.3345C39.2379 35.3535 39.3092 35.3652 39.3742 35.3652C39.4306 35.3652 39.4557 35.3556 39.4652 35.3502C39.4693 35.3478 39.4868 35.3382 39.5063 35.2903L39.5777 35.1368C39.7561 34.8016 40.0178 34.6081 40.3267 34.5422C40.5708 34.49 40.814 34.5245 41.0215 34.585L41.2156 34.6514L41.2163 34.6521L41.3411 34.6963C41.9614 34.8945 42.4907 34.7125 43.1118 34.3958L43.2453 34.3316C43.9119 34.0306 44.579 34.0195 45.2771 34.2095C45.7407 34.335 46.1608 34.378 46.5607 34.3187C46.9579 34.2598 47.3539 34.0972 47.765 33.7848L48.0139 33.6085C48.5934 33.2262 49.1734 33.0472 49.7665 33.0824C50.4379 33.1222 51.0742 33.4337 51.6988 33.929L51.8186 34.0146C51.9438 34.0967 52.0873 34.1692 52.2457 34.2438L52.3424 34.2845C52.4319 34.3174 52.5006 34.3285 52.5517 34.3244C52.6008 34.3204 52.6598 34.3017 52.7306 34.2067L52.7313 34.2059L52.7631 34.156C52.786 34.1109 52.7851 34.0801 52.7811 34.0589C52.7755 34.0291 52.7567 33.9862 52.7126 33.9347L52.6649 33.8911C52.0794 33.349 51.8522 32.6082 52.0899 31.8874C52.224 31.4787 52.2433 31.0591 52.2428 30.601C52.2424 30.1563 52.2218 29.6553 52.3042 29.1619L52.3222 29.0391C52.3561 28.7584 52.3377 28.5115 52.2609 28.3025C52.1761 28.0717 52.0112 27.8611 51.706 27.6921C51.4099 27.5292 51.2093 27.3085 51.0963 27.0354C50.9873 26.7716 50.9703 26.484 50.9903 26.2002L51.0263 25.5849C51.0991 24.1368 51.0995 22.6164 51.325 21.1612L51.3806 20.7329C51.4751 19.8161 51.402 18.9645 51.1353 18.0895L51.0703 17.8868C50.7936 17.0672 50.3516 16.349 49.9188 15.5496C49.7185 15.1786 49.4766 14.7361 49.5061 14.1998V14.1983L49.5176 13.8921C49.5361 12.5689 49.1769 11.3229 48.6864 10.0645L48.4519 9.48269C48.3552 9.24954 48.2685 9.01211 48.1849 8.78241C48.1005 8.55044 48.019 8.32587 47.9288 8.10783C47.7709 7.7265 47.5922 7.3794 47.3487 7.07918L47.2404 6.95355C46.8278 6.5041 46.6691 6.00576 46.5802 5.53157C46.5368 5.29956 46.5079 5.0607 46.4778 4.84414C46.4546 4.6773 46.4298 4.51839 46.3962 4.36515L46.3594 4.21382C46.2014 3.62827 46.197 3.11033 46.3768 2.6455C46.5539 2.18757 46.8939 1.82245 47.3451 1.50621C47.3465 1.50404 47.3487 1.5014 47.3508 1.49764C47.3621 1.47786 47.3741 1.44985 47.3891 1.41055L47.524 1.01223C47.5659 0.884042 47.6132 0.746726 47.6726 0.610336Z" fill="var(--fill-0, white)"/>
</svg>
