<svg preserveAspectRatio="none" width="100%" height="100%" overflow="visible" style="display: block;" viewBox="0 0 90.9687 74.5563" fill="none" xmlns="http://www.w3.org/2000/svg">
<path id="Vector" d="M43.8372 61.514C44.1 61.4961 44.4832 61.4082 44.6292 61.6593L48.314 59.4868L48.084 57.1026L49.8835 54.1963L52.0097 54.6144L52.4057 57.2102L51.6903 58.3835L51.8965 60.1039L54.3548 60.4502L55.7455 64.3055L55.3969 65.1074L60.2607 74.5563L77.8485 71.8079L78.0803 60.9507L76.6385 57.6426L78.6625 50.9313L84.8256 54.8081L88.994 54.6951L90.9687 53.9811L89.4211 50.5761L88.9758 50.2765L86.2784 45.7538C86.2784 45.7538 78.3449 38.8506 74.4558 36.278C70.5685 33.7036 60.2534 25.7491 54.2234 22.7065C48.1935 19.6639 40.7346 15.5305 37.8784 11.4761C35.1774 7.64238 29.3591 0.742711 28.7313 0C28.6583 0.0287038 28.5798 0.0538104 28.5251 0.0914841C28.4995 0.109424 28.4776 0.129164 28.4649 0.15428C27.8462 1.31858 27.6509 2.71609 26.3971 3.53774C26.1489 3.70099 26.1179 4.21048 26.0248 4.56928C25.9317 4.92808 25.8879 5.29763 25.8204 5.66361C25.5284 7.23335 25.5941 8.74568 26.7457 9.99609C27.1435 10.4284 27.3151 10.8213 27.0851 11.3649C26.8114 12.0107 26.9939 12.4395 27.5943 12.8844C28.2605 13.3778 28.9047 14.0272 28.3462 15.0892C27.3425 14.6551 26.7913 15.1735 26.4099 16.0562C26.2255 16.4832 25.9992 16.885 25.8715 17.3425C25.7529 17.7694 25.4262 18.1623 24.9261 17.8771C24.083 17.3963 23.9662 18.4314 23.3913 18.5086C22.2798 18.6557 22.8784 19.4504 22.9642 19.9204C23.1394 20.8856 22.9478 21.7216 22.4769 22.545C22.1758 22.4033 22.1174 22.1629 21.9823 21.9763C21.5462 21.3807 21.4348 21.4005 20.9548 21.9656C20.6957 22.2705 20.5643 22.5791 20.5825 22.9792C20.6044 23.4438 20.5734 23.912 20.5588 24.3785C20.5515 24.6153 20.5223 24.9077 20.2668 24.9615C19.409 25.1391 19.1024 25.7975 18.71 26.4523C18.4345 26.9116 18.0238 27.3224 17.407 27.4623C16.3229 27.7081 15.4943 28.4724 14.5052 28.9209C14.0526 29.1254 13.7843 29.5308 13.7733 30.0421C13.7551 30.8207 13.3755 31.4647 12.8809 31.9976C12.5505 32.3528 12.5505 32.577 12.7495 32.9609C13.2039 33.84 13.0944 34.1396 12.191 34.2095C11.7293 34.2454 11.5614 34.3889 11.3424 34.7459C10.6616 35.8492 10.021 35.8044 9.37863 34.6634C9.10123 34.1701 8.79645 34.1288 8.40589 34.5163C8.07556 34.8446 7.93685 35.2483 8.08468 35.6698C8.36756 36.4789 8.30004 37.3903 9.11035 38.0505C9.71626 38.5438 9.75824 39.9431 9.25818 40.2032C7.96241 40.8796 7.56455 42.3614 6.37827 43.1059C5.67746 43.5454 5.67563 44.0854 6.18482 44.6775C6.09174 44.76 5.99867 44.8407 5.90559 44.9214C5.32888 44.8497 4.72479 44.6918 4.1718 44.8533C4.09333 44.8766 4.01485 44.9053 3.9382 44.943C3.31404 45.2479 2.75558 45.5152 2.07666 45.1403C1.89598 45.0416 1.62588 45.1152 1.57843 45.2784C1.3722 45.9906 0.726135 46.2293 0.211474 46.6185C-0.0549811 46.8195 -0.0823566 47.2375 0.202349 47.3164C0.998065 47.5389 1.19882 48.3479 1.78283 48.7085C2.23544 48.9866 2.39057 49.3293 2.33399 49.7293C2.22996 50.4541 2.62235 50.7537 3.20453 50.96C3.55494 51.0838 3.99295 51.1107 4.0696 51.5699C4.16815 52.1584 4.63354 52.5315 4.89634 53.0231C5.51686 54.182 5.53511 54.173 6.86738 53.7586C8.61029 53.2168 9.0994 53.398 9.9663 54.9642C10.1524 55.2996 10.282 55.6674 10.7328 55.6979C12.5177 55.8253 14.2205 56.4909 16.0656 56.3725C16.7846 56.3258 17.7282 56.1016 18.3542 56.7905C18.971 57.4686 19.712 57.9494 20.5351 58.3297C20.8983 58.4983 21.1538 58.6921 21.1556 59.1549C21.1592 60.0986 21.6885 60.5937 22.6375 60.7067C22.893 60.7372 23.2215 60.6816 23.4278 61.0996C22.7069 61.6737 22.413 62.368 23.081 63.2327C23.2197 63.4121 23.0901 63.778 23.1139 64.0561C23.1613 64.5656 23.185 65.0841 23.3018 65.5792C23.4643 66.2645 23.7544 66.4098 24.2782 66.008C24.9352 65.5038 25.658 65.2347 26.4427 65.0123C27.9064 64.5961 28.1929 64.1709 27.8608 62.6604C27.7184 62.0109 27.8133 61.6737 28.4357 61.505C28.7915 61.4082 29.0854 61.2593 29.0306 60.8538C28.8992 59.8994 29.6 59.6285 30.2826 59.4491C31.2864 59.1818 32.3212 59.0293 33.3432 58.8266C33.7009 58.7549 33.9765 58.9414 34.2758 59.085C34.7649 59.3164 35.0715 59.7416 35.4621 60.077C36.5607 61.0189 37.7361 61.6647 39.2892 61.6252C40.8058 61.5876 42.3242 61.6163 43.8408 61.5158L43.8372 61.514Z" fill="var(--fill-0, #CFDDEB)"/>
</svg>
