<svg preserveAspectRatio="none" width="100%" height="100%" overflow="visible" style="display: block;" viewBox="0 0 44.1841 45.3479" fill="none" xmlns="http://www.w3.org/2000/svg">
<path id="Vector" d="M22.8038 44.8138C26.4922 43.2925 39.1087 28.5531 39.1087 28.5531C39.1087 28.5531 40.775 23.991 41.4886 22.0015L44.1841 14.3142C43.3665 13.7509 41.7568 13.2737 40.7823 14.0272C40.6545 14.1259 40.3935 14.1671 40.2439 14.1133C39.0686 13.6809 38.3969 14.4882 37.6523 15.1036C37.4388 15.2812 37.3019 15.5431 37.0993 15.7368C36.7763 16.0454 36.4332 16.1082 36.1485 15.6848C35.4933 14.7089 34.6392 13.9016 33.8708 13.0208C33.4547 12.5436 33.2941 12.0089 33.4766 11.3362C33.8927 9.8149 34.1537 8.25234 34.5114 6.71848C34.8363 5.32276 34.8783 3.85707 35.5462 2.52594C35.9477 1.72941 35.5024 1.03513 34.5625 0.739122C33.8982 0.529225 33.5405 0.331888 33.369 0L28.664 2.59052L24.8479 3.7889L15.3212 1.71685L13.7151 6.45476L12.6037 8.01733L10.9356 12.6404L12.0617 13.3508L0 39.5143L3.88366 41.5416L10.5487 44.1141C10.5487 44.1141 19.1173 46.3369 22.8075 44.8156L22.8038 44.8138Z" fill="var(--fill-0, #CFDDEB)"/>
</svg>
