<svg preserveAspectRatio="none" width="100%" height="100%" overflow="visible" style="display: block;" viewBox="0 0 53.667 45.5906" fill="none" xmlns="http://www.w3.org/2000/svg">
<path id="Vector" d="M44.916 32.1375L44.3447 30.2107L45.3193 29.3335L44.8393 24.6189L46.5001 23.686L46.3468 22.5594L46.9162 21.9997L48.7504 22.2257L49.1811 21.1655L51.7562 19.2872L53.0648 19.2118L53.667 18.4422L52.8257 17.4645L53.6287 15.57L50.7397 10.8877L49.7888 7.38585L46.4545 2.72149L44.3338 3.48931L39.9318 3.60951L34.1939 0L32.409 5.92195L33.8234 9.16549V9.21751L33.5807 20.534L15.2281 23.4008L10.0961 13.4316L10.4611 12.5956L9.23469 9.19778L6.69423 8.84077L6.42413 6.58214L7.13589 5.41605L6.81833 3.33144L5.37474 3.04799L3.8417 5.52369L4.08625 8.05321L0 10.4643C0.306606 11.8224 0.974569 13.1535 0.330331 14.6013C0.206229 14.8829 0.0255495 15.222 0.321205 15.518C1.37425 16.5675 1.59873 18.0547 2.36707 19.2603C2.76858 19.8899 3.13177 20.4192 3.95486 20.4766C4.33629 20.5035 4.81627 20.6147 4.83817 21.0399C4.87467 21.7449 5.07178 22.4105 5.17398 23.0958C5.23238 23.4941 5.04805 23.9031 4.68852 24.0412C3.6154 24.452 3.52415 25.5769 2.88721 26.2999C2.73026 26.4793 2.67915 26.7125 2.75763 26.9565C3.43289 29.0734 2.71383 30.8961 1.47828 32.5806C0.989171 33.2462 0.932594 34.084 1.36878 34.5307C2.17362 35.3577 2.04404 36.1542 1.85971 37.0943C1.54216 38.7143 1.62063 38.7842 3.28689 39.1071C3.66468 39.1807 3.8563 39.4713 3.776 39.7727L7.79291 41.1272L7.30379 42.8889L11.6857 45.5906L15.5073 42.8315L17.5258 42.9068L20.0937 39.5144L21.1449 39.8588L25.1946 38.7663L27.1857 39.4713L29.1185 39.0587L30.7811 41.9363L33.5843 41.2025L32.9091 42.2646L33.2266 43.6388L34.6264 43.2943L36.9862 43.8361L38.6014 43.1669L39.6745 44.6272H40.7896L41.7368 41.4752L40.8936 40.1494L42.0488 39.0946L41.6492 37.3616L42.6821 36.6009L44.9142 32.1357L44.916 32.1375Z" fill="var(--fill-0, #DDE1E6)" fill-opacity="0.67"/>
</svg>
