<svg preserveAspectRatio="none" width="100%" height="100%" overflow="visible" style="display: block;" viewBox="0 0 38.2593 49.184" fill="none" xmlns="http://www.w3.org/2000/svg">
<path id="Vector" d="M21.9735 0.574073L18.0241 2.74839L12.9176 1.02257L0.69535 4.62669L1.51114 6.81715L1.50566 6.87097L0.954513 13.1428L2.64085 18.9015L0.0766596 22.6814L0 24.9239L0.715423 28.4437L0.562126 29.7282L2.30868 32.6954L2.07144 34.3333L4.90753 39.134L6.09563 46.1485L6.72711 47.1137L16.241 49.184L19.882 48.0412L24.6599 45.4112C24.6453 45.2318 24.6526 45.0237 24.6727 44.7779C24.7767 43.506 25.129 42.3273 25.8444 41.2581C26.0543 40.9442 26.2386 40.6087 26.1948 40.214C26.1145 39.5036 26.5233 39.1161 27.069 38.7465C27.6165 38.3734 28.1749 38.0343 28.7626 37.724C30.2226 36.9543 31.4016 35.9461 31.5786 34.1772C31.6151 33.8077 31.7356 33.4453 31.7757 33.074C31.9911 31.079 32.8343 29.3191 33.807 27.5933C34.1154 27.0444 34.475 26.786 35.1229 26.725C37.1121 26.5385 37.3311 25.4782 36.8201 23.8851C36.5537 23.0527 36.0974 22.249 35.5846 21.5296C34.9842 20.6847 34.9385 20.0119 35.6485 19.201C36.0372 18.7561 36.3164 18.1946 36.6668 17.6959C37.4425 16.5908 38.2911 15.5036 38.0557 14.0128C38.0137 13.7509 38.105 13.4531 38.1871 13.1876C38.3824 12.5579 38.1743 12.0502 37.6524 11.7255C36.8128 11.2034 36.8749 10.5199 37.207 9.7862C37.5082 9.11884 37.4936 8.473 37.406 7.75002C37.2509 6.4422 36.6468 5.15771 37.2435 3.77634C37.4261 3.35475 37.4206 2.64613 36.7873 2.28554C36.5154 2.12946 36.4789 1.84063 36.4186 1.56256C36.3073 1.04231 35.9897 0.834201 35.4294 0.74809C34.5991 0.620717 33.7851 0.364179 33.0295 0L24.1507 1.64867L21.9716 0.577664L21.9735 0.574073Z" fill="var(--fill-0, #CFDDEB)"/>
</svg>
