<svg preserveAspectRatio="none" width="100%" height="100%" overflow="visible" style="display: block;" viewBox="0 0 16.081 16.081" fill="none" xmlns="http://www.w3.org/2000/svg">
<g id="Group 39697">
<path id="Union" d="M8.04075 0C12.4814 9.40094e-05 16.081 3.5837 16.081 8.00406C16.0809 12.0472 13.0692 15.3892 9.15704 15.9303C9.15704 15.9303 8.48034 16.081 8.04028 16.081C7.60004 16.0811 6.92306 15.9303 6.92306 15.9303C3.01143 15.3888 8.63799e-05 12.0469 0 8.00406C0 3.58364 3.60006 0 8.04075 0Z" fill="var(--fill-0, #2EBE0A)"/>
<path id="Exclude" d="M11.3839 7.42774H11.2199V11.1485H8.81077V9.5923C8.81077 9.16812 8.46518 8.82411 8.03906 8.82411C7.61302 8.8242 7.26773 9.16818 7.26773 9.5923V11.1485H4.78524V7.42774H4.69686L8.04019 4.93225L11.3839 7.42774Z" fill="var(--fill-0, white)"/>
</g>
</svg>
