<svg preserveAspectRatio="none" width="100%" height="100%" overflow="visible" style="display: block;" viewBox="0 0 44.765 51.5617" fill="none" xmlns="http://www.w3.org/2000/svg">
<path id="Vector" d="M44.765 35.991L43.0147 32.925L40.2808 31.5024L39.7352 29.0536L33.2617 27.875L33.3457 24.9023L32.2105 21.5566L32.8584 20.5663L31.7324 19.8038L28.586 13.2109L30.7505 12.1471L31.3363 8.40842L29.1499 7.56525L29.0769 6.2036L21.4246 7.55807L18.9151 8.1142L12.887 6.75257L11.1168 3.90551L5.68909 0.552541L2.21057 1.02616L1.1192 0.0233232C0.874643 -0.0394663 0.688489 0.0269024 0.491385 0.193743C-0.105402 0.697854 -0.182051 1.40649 0.39101 2.28733C0.62644 2.64972 0.59724 2.9852 0.59724 3.34579C0.59724 3.7315 0.617313 4.11361 0.971371 4.34862C1.36375 4.60875 1.45501 5.01778 1.60284 5.40708C3.03914 9.16728 4.70357 12.8144 7.14547 16.0687C7.25498 16.2158 7.41375 16.3917 7.40645 16.5495C7.34988 17.8538 8.47227 18.4458 9.15666 19.2656C9.72972 19.9509 9.83375 19.8666 9.11468 20.3169C8.32627 20.8102 8.25327 21.0937 8.7442 21.9028C9.40852 22.9971 10.1367 23.9641 11.6862 23.32C12.1005 23.1478 12.2884 23.4636 12.3851 23.799C12.4892 24.165 12.2282 24.2888 11.9417 24.3749C11.761 24.4287 11.5584 24.4341 11.3942 24.5148C10.5254 24.9454 10.3046 25.8765 10.9671 26.6102C11.2774 26.9546 11.0967 27.1699 11.0182 27.4767C10.7317 28.6249 11.1368 29.8143 12.1388 30.2072C13.2995 30.6628 13.6225 31.5186 13.7193 32.5806C13.7448 32.8622 13.7211 33.2516 14.0131 33.3054C14.9238 33.474 15.84 33.6929 16.7744 33.6211C16.9916 33.605 17.0846 33.2946 17.1102 33.0524L17.2489 33.0255L17.3858 33.0632C17.5026 33.8615 17.9205 34.554 18.1961 35.2985C18.4206 35.9031 18.5684 36.3946 18.1121 37.0889C17.3438 38.2586 17.9296 39.5108 19.302 39.8606C19.8897 40.0095 20.074 40.3486 20.2 40.7953C20.5029 41.8717 20.9592 42.896 21.2348 43.9868C21.368 44.5124 21.8607 44.882 21.2074 45.4184C20.9282 45.648 20.9793 46.2005 21.2786 46.4445C22.0159 47.0437 22.4101 47.9461 23.2076 48.4753C23.8245 48.8843 24.2826 49.3562 24.2296 50.1796C24.1931 50.7716 24.4742 51.1071 25.1695 51.1214C26.0127 51.1394 26.8431 51.3547 27.6698 51.4802C28.6426 51.6291 29.8635 51.6883 30.4621 50.6102C30.9239 49.7778 31.6174 49.0386 31.6064 47.9533C31.5991 47.3595 32.0682 46.7961 32.6248 46.5109C33.8604 45.8758 35.074 45.1331 36.5833 45.3358C37.8116 45.5009 38.4065 45.117 38.8427 44.0065C38.9942 43.6172 38.9686 43.1597 39.2752 42.835C40.0655 41.999 40.4086 40.9567 40.8776 39.9413C41.3394 38.9403 42.6589 38.4649 43.3104 37.4567C43.6462 36.9382 44.1554 36.4448 44.7175 36.391L44.7631 35.9928L44.765 35.991Z" fill="var(--fill-0, #DDE1E6)" fill-opacity="0.67"/>
</svg>
