<svg preserveAspectRatio="none" width="100%" height="100%" overflow="visible" style="display: block;" viewBox="0 0 16.081 16.081" fill="none" xmlns="http://www.w3.org/2000/svg">
<g id="Group 39697">
<path id="Union" d="M8.04075 0C12.4814 9.40094e-05 16.081 3.5837 16.081 8.00406C16.0809 12.0472 13.0692 15.3892 9.15704 15.9303C9.15704 15.9303 8.48034 16.081 8.04028 16.081C7.60004 16.0811 6.92306 15.9303 6.92306 15.9303C3.01143 15.3888 8.63799e-05 12.0469 0 8.00406C0 3.58364 3.60006 0 8.04075 0Z" fill="var(--fill-0, #2EBE0A)"/>
<path id="Exclude" d="M11.3837 7.42803H11.2197V11.1488H8.81058V9.59258C8.81058 9.16841 8.46499 8.82439 8.03887 8.82439C7.61283 8.82449 7.26754 9.16847 7.26754 9.59258V11.1488H4.78505V7.42803H4.69667L8.04 4.93253L11.3837 7.42803Z" fill="var(--fill-0, white)"/>
</g>
</svg>
