<svg preserveAspectRatio="none" width="100%" height="100%" overflow="visible" style="display: block;" viewBox="0 0 55.2762 79.4083" fill="none" xmlns="http://www.w3.org/2000/svg">
<path id="Vector" d="M8.19988 11.366L8.18346 11.4234L4.86373 23.3875L5.3291 27.0508L7.24356 31.5968L7.08478 33.615L8.97917 37.3411L9.61611 44.8418L10.8973 48.1481L10.1034 52.6743L11.1948 55.6254L7.1213 50.8588L3.89097 53.6018L3.42194 56.8364L1.9674 59.2188L0 62.6399L4.97505 67.5303L6.08649 69.8697L15.7902 79.4083L34.767 73.8111L39.815 75.5171L43.7991 73.3231L46.0639 74.4354L54.1379 72.9356C53.7346 72.7688 53.355 72.7293 52.8111 73.0127C52.0811 73.3966 51.1266 73.2765 50.2871 73.1276C49.3855 72.9679 48.7796 71.7821 49.1811 70.9532C49.4549 70.3881 49.5151 69.8069 49.6593 69.2256C49.9695 67.9788 50.3893 66.8594 51.581 65.9713C53.3312 64.6671 55.169 63.4095 55.2055 60.6988C55.2274 59.0071 55.6089 57.4248 54.3423 56.0183C54.0247 55.6649 53.8605 55.2881 54.5339 55.0926C54.95 54.9724 55.2402 54.6656 55.0869 54.2584C54.8405 53.6018 54.6142 52.9488 54.4883 52.2599C54.4445 52.0177 54.2182 51.8222 53.9736 51.8491C52.8111 51.9729 52.4461 51.0866 52.0008 50.3439C51.7252 49.8865 51.4533 49.4146 50.9094 49.3142C49.6209 49.0756 48.3817 48.8693 47.0458 49.4559C45.5274 50.1233 43.9359 50.9036 42.1437 50.1968C41.7167 50.03 41.4429 49.9062 41.317 49.4003C41.1217 48.6091 40.8662 47.7911 40.4373 47.104C39.9099 46.2608 39.8369 45.5468 40.2548 44.6265C40.775 43.4819 41.5196 42.2387 40.1709 41.0923C40.1088 41.0403 40.1161 40.9165 40.076 40.8322C39.4591 39.5692 39.6033 38.0748 38.8204 36.8549C38.7163 36.6935 38.7547 36.3706 38.8477 36.1768C39.5467 34.7093 40.2786 33.24 41.5178 32.1403C41.9795 31.7313 42.0251 31.473 41.7587 30.9796C41.1382 29.8243 41.4101 28.7335 42.1073 27.6984C42.2898 27.4275 42.4923 27.1692 42.6511 26.8857C42.7679 26.6794 42.3098 23.0197 42.12 22.8887C41.0925 22.1747 41.129 21.0194 40.9155 20.004C40.7932 19.4228 40.6436 18.8935 40.2001 18.5401C39.3478 17.8584 39.2054 17.1408 39.8186 16.2366C39.9647 16.0214 40.003 15.7002 39.9993 15.4293C39.9865 14.7853 40.264 14.2722 40.5998 13.7466C41.0049 13.1133 41.4083 12.4944 41.9321 11.94C42.7661 11.0574 43.0417 10.033 42.6511 8.84183C42.5252 8.45432 42.2222 8.06862 42.3573 7.63806C42.6 6.86664 41.9868 6.6119 41.5378 6.66034C40.8808 6.7321 40.4702 6.47914 40.003 6.15623C39.8314 6.03603 39.5084 5.96427 39.3295 6.04141C38.0995 6.57961 36.8986 6.08267 35.6868 6.00553C33.6117 5.87457 32.962 5.20182 32.9273 3.12259C32.92 2.66692 33.0496 2.17537 32.6645 1.79146C31.5147 0.645099 30.3686 -0.422324 28.4742 0.167898C27.1274 0.587691 25.5943 0.596661 24.565 1.67843C24.0284 2.24175 23.4517 2.37988 22.7929 2.32248C21.9315 2.24892 20.9605 2.45882 20.3218 1.58874C20.1776 1.3914 19.8929 1.4201 19.6556 1.46495C18.8052 1.62462 17.962 1.43625 17.1188 1.39498C16.0293 1.34116 15.8304 1.38243 15.6132 2.37271C15.2974 3.82046 14.1586 4.70489 13.3064 5.77949C13.0271 6.1329 12.538 6.24951 12.0398 6.33204C10.2604 6.62804 8.85143 7.54657 7.60128 8.74674L8.19442 11.3731L8.19988 11.366Z" fill="var(--fill-0, #DDE1E6)" fill-opacity="0.67"/>
</svg>
