<svg preserveAspectRatio="none" width="100%" height="100%" overflow="visible" style="display: block;" viewBox="0 0 75.4324 57.2228" fill="none" xmlns="http://www.w3.org/2000/svg">
<path id="Vector" d="M0 6.42965L0.299298 7.01628L3.19928 6.93914L4.0534 7.9653L3.89462 9.84002L6.00254 12.4503L6.90411 15.1107L6.74716 17.3532L9.13431 21.8902L8.57585 24.8736L9.28943 26.899L9.0467 28.3378L9.21278 31.4306L2.42364 34.963L1.98928 36.5291L2.12616 37.4638L6.08101 40.1082L6.29638 40.9567L8.33858 41.0303L11.1053 43.3624L13.8247 43.21L15.0876 43.5759L16.4034 42.5103H20.1083L20.935 43.5939L21.1704 45.2156L23.8441 47.9192L24.8059 48.1775L25.6089 52.9943L27.3482 54.2932L28.3665 53.3639L32.5112 52.9477L33.7997 55.6495V57.0452L34.1172 57.2228L36.4934 56.0926L37.5355 55.9401L42.3774 52.1009L47.4035 45.5403L47.7357 43.9042L49.7104 43.1525L51.1667 39.8265L52.1066 39.2094L52.3786 38.3608L56.5853 38.795L59.0144 34.7136L59.8667 34.4679L61.0128 34.9343L64.1792 33.8974L65.6612 33.935L66.2908 33.5762L67.9443 30.3668L71.3297 29.9255L74.894 28.3235L75.4324 22.2006L74.644 20.0855L68.2363 21.9763L58.4322 12.339L55.9593 13.8406L54.3113 16.9281L48.5588 23.2913L43.2771 26.8075L42.934 24.0215L41.1071 23.7452L36.7416 24.818L36.6522 23.4887L32.5733 21.2605L31.387 21.5709L27.4832 19.6119L27.1419 18.6054L25.1344 15.2884L25.2822 12.4646L22.9863 12.7552L21.749 11.3757L18.7303 10.2042L14.0656 4.76483L11.8956 4.37015L10.9958 2.76274L6.66503 0C6.53728 0.0771414 6.39493 0.147106 6.23432 0.211689C6.02079 0.294212 5.79266 0.439525 5.66491 0.620718C5.0225 1.52847 3.96032 1.75631 3.02408 2.07026C2.26304 2.325 1.70092 2.58155 1.26657 3.29197C0.890607 3.90551 0.509179 4.2374 0.062045 4.28942L0.00546932 6.43861L0 6.42965Z" fill="var(--fill-0, #CFDDEB)"/>
</svg>
