<svg preserveAspectRatio="none" width="100%" height="100%" overflow="visible" style="display: block;" viewBox="0 0 56.7696 39.4427" fill="none" xmlns="http://www.w3.org/2000/svg">
<path id="Vector" d="M53.698 15.7853L50.8784 15.1323L49.756 11.2716L48.9256 10.8267L47.3341 8.68649L47.4145 6.63238L46.5567 4.81866L45.7391 5.62057L44.4597 5.11646L41.474 5.55778L40.0249 8.15367L35.882 4.08132L33.65 3.76737L31.9071 1.75632L31.0366 2.32681L28.6823 1.52848L26.9686 1.86575L26.536 0.93108L25.1709 0.50411L24.9428 1.92854L23.6087 1.82807L21.8712 0.507701H20.0681L19.1081 0L14.2243 2.98161L15.6241 4.79354L15.5165 5.9668H14.4415L10.6217 9.79697L10.7002 12.366L8.57767 14.612L6.64861 17.2187L3.77964 18.7508L0.923468 19.0539L0 20.7098L2.50943 21.5906L5.60468 25.8029L7.74546 31.5975L9.76759 32.534L25.3589 39.4354C25.3589 39.4354 32.9748 39.552 34.1647 38.8506C35.3546 38.1491 40.472 34.4051 40.472 34.4051L44.5181 32.1823L47.137 28.0885L53.6816 23.643L56.7696 17.0321L53.6944 15.7835L53.698 15.7853Z" fill="var(--fill-0, #CFDDEB)"/>
</svg>
