<svg preserveAspectRatio="none" width="100%" height="100%" overflow="visible" style="display: block;" viewBox="0 0 64.2342 80.1829" fill="none" xmlns="http://www.w3.org/2000/svg">
<path id="Vector" d="M5.65762 72.0041L15.6114 80.1829L24.3734 69.8621L26.8937 70.8362L27.2825 73.2778L30.5603 73.4877L31.3322 71.7404L31.9673 71.5843L32.6846 69.941L33.8763 69.6898L35.9551 68.3766L36.1905 64.9035L40.191 60.6517L45.0748 59.5682L46.5421 56.9005L45.3339 54.841L47.4199 52.4496L48.3671 52.3779L48.5843 51.3051L53.0338 47.6328L53.8733 44.5579L53.1633 39.75L53.0064 36.8958L52.4424 35.152L52.7801 33.2414L54.1251 31.5066L62.2411 28.0263C62.5294 27.1239 63.139 26.5821 63.7339 26.0475C64.2176 25.6116 64.3271 25.1272 64.1628 24.5334C63.7394 23.0103 63.1664 21.5339 62.5258 20.0933C61.9965 18.9021 61.595 17.6535 61.2336 16.4335C60.9635 15.5258 60.8431 14.4458 60.9964 13.4035C61.1041 12.6662 60.9161 11.9109 60.3759 11.3153C59.9671 10.8632 59.8539 10.3465 59.9087 9.75812C60.1112 7.59995 59.3283 5.87773 57.5799 4.54121C56.9868 4.08733 56.5141 3.56169 55.649 3.95278C55.3881 4.07118 54.9665 4.11244 54.6909 3.87564C53.6707 2.99479 52.3293 2.38842 52.2088 0.764866C52.1523 0.00959752 51.7143 -0.168007 51.008 0.151323C50.2725 0.485004 49.537 0.797158 48.7321 0.938883C46.6169 1.31024 45.124 2.48171 44.2134 4.37975C43.9305 4.96997 43.675 5.57275 43.4176 6.17374C43.1056 6.89492 42.5818 7.45823 41.87 7.74347C40.9976 8.09151 40.0906 8.44133 39.1379 8.44851C38.0082 8.45748 37.1432 8.89342 36.3748 9.67021C35.5481 10.5044 34.694 11.3099 33.765 12.0472C33.1774 12.5137 32.5587 12.8169 31.8414 12.8348C30.0292 12.8815 28.2571 13.26 26.4904 13.547C25.1143 13.7713 24.0303 13.5452 23.1032 12.6644C21.8913 11.5108 20.2433 11.0301 18.9986 9.9447C18.8618 9.8245 18.661 9.77606 18.4949 9.68816C18.3234 9.59666 18.15 9.51414 17.9821 9.68098C17.7667 9.89446 17.8361 10.151 18.0113 10.3017C19.2779 11.3978 19.9166 13.1003 21.5537 13.8359C21.8548 13.9704 22.1395 14.1426 22.437 14.2826C23.4791 14.7723 23.4919 14.7723 23.24 15.82C23.032 16.6811 22.8787 17.5691 22.5502 18.3854C22.0373 19.6609 21.8074 20.8773 22.5319 22.1492C22.7582 22.5457 22.7053 22.9457 22.218 23.2148C21.2398 23.7566 20.5736 24.781 19.3582 24.9711C19.0424 25.0196 18.8672 25.2582 19.0297 25.5954C19.5516 26.6772 19.5863 27.985 20.601 28.8372C20.8784 29.0704 20.8839 29.4059 20.9149 29.7342C21.0335 30.929 20.9806 32.0412 19.9422 32.9221C19.4531 33.3365 19.1063 33.8352 19.4293 34.6317C19.7341 35.3816 19.59 36.1871 18.849 36.7774C18.5187 37.0411 18.3435 37.4537 18.2194 37.8609C18.0423 38.4494 17.889 39.0342 17.0568 38.9858C16.7903 38.9696 16.6516 39.2208 16.5951 39.4522C16.2903 40.7134 15.3759 41.77 15.3358 43.1191C15.3194 43.6896 15.1022 44.1991 14.885 44.7229C14.5109 45.6235 14.3539 46.5313 14.4032 47.5574C14.489 49.3532 15.0602 51.0324 15.3486 52.7743C15.4416 53.3341 15.6059 53.7503 14.8485 53.9279C14.332 54.0499 14.186 54.4894 14.0473 54.9756C13.8575 55.6375 14.0856 56.1865 14.3685 56.7157C14.9014 57.7096 15.0985 58.7393 14.8394 59.8283C14.7353 60.266 14.7244 60.7199 14.9325 61.0554C15.4216 61.8429 15.0675 62.2268 14.4835 62.7902C13.6622 63.5849 12.8063 64.4944 13.5746 65.8417C13.7462 66.1413 13.706 66.7997 13.4669 66.8912C12.6274 67.2123 12.1748 68.2905 11.0305 68.0232C10.0377 67.79 9.01568 67.5317 8.02651 68.1416C7.79838 68.2816 7.45163 68.2511 7.19795 68.1004C6.57196 67.7308 5.9624 67.8331 5.29261 68.0053C4.48047 68.2152 3.79425 67.86 3.59533 67.146C3.43655 66.5826 3.29784 65.996 3.66832 65.3932C4.0753 64.7313 4.36001 63.9975 4.70859 63.2745C2.75398 62.8296 2.63901 62.8583 1.78124 64.1913C1.47098 64.6721 1.064 65.047 0.671612 65.4524C0.456258 65.6749 0.229955 65.8884 0 66.1001L5.65579 72.0077L5.65762 72.0041Z" fill="var(--fill-0, #DDE1E6)" fill-opacity="0.67"/>
</svg>
