<svg preserveAspectRatio="none" width="100%" height="100%" overflow="visible" style="display: block;" viewBox="0 0 25.6889 18.1588" fill="none" xmlns="http://www.w3.org/2000/svg">
<path id="Vector (Stroke)" d="M0.091024 1.28129C-0.385237 -0.318858 1.1625 0.0327789 1.1625 0.0327789C1.17814 0.0358489 4.54029 0.696275 6.79624 1.31913C9.05742 1.94343 14.4925 3.85371 17.3487 5.95982L17.3465 5.96196C20.2025 8.06799 24.9641 13.7219 25.5193 14.6966C26.0741 15.6707 25.4407 16.0227 20.9967 17.4256L20.584 17.5512C16.4948 18.7472 13.512 18.1371 10.3274 16.0771L10.0085 15.8665C6.70415 13.6368 3.66019 9.8715 2.96706 7.75942L2.90717 7.56026C2.38701 5.62271 0.7855 3.20433 0.194925 1.59253L0.091024 1.28129ZM0.909243 0.327596C0.792089 0.320821 0.661734 0.328396 0.555692 0.364716C0.458596 0.398008 0.397274 0.448457 0.363042 0.532469C0.323549 0.629587 0.298068 0.825344 0.406334 1.18921L0.505906 1.48688C0.770293 2.20738 1.25192 3.10922 1.76282 4.09669C2.33525 5.20311 2.93742 6.40414 3.22537 7.47674H3.22464C3.48415 8.44009 4.36941 9.89658 5.64106 11.4179C6.90478 12.9297 8.51878 14.467 10.1939 15.5974H10.1932C11.8728 16.7293 13.4645 17.4458 15.1682 17.714C16.8711 17.982 18.7122 17.8064 20.8964 17.1158H20.8972L22.3915 16.6346C23.7083 16.1997 24.5098 15.892 24.9623 15.6217C25.2629 15.4421 25.3358 15.3203 25.3534 15.2541C25.3702 15.1901 25.3615 15.0823 25.2329 14.8565C25.1098 14.6405 24.7261 14.1254 24.1534 13.4209C23.5881 12.7255 22.8551 11.8658 22.0502 10.9703C20.4344 9.1727 18.5492 7.25408 17.1502 6.22252L17.0052 6.11544C15.6163 5.125 13.6465 4.17229 11.7236 3.38427C9.73674 2.57006 7.82529 1.94094 6.70821 1.6325C5.58688 1.32291 4.18519 1.00268 3.06086 0.759472C2.4996 0.638063 2.00868 0.536259 1.6582 0.464654C1.48309 0.42888 1.34313 0.40037 1.24692 0.381135C1.19888 0.37153 1.16159 0.363969 1.13653 0.359005C1.12399 0.356524 1.11402 0.355262 1.10766 0.354009C1.10459 0.353402 1.102 0.352886 1.10045 0.352581L1.09901 0.351867H1.09829L1.08963 0.349725L1.09035 0.350439L1.08891 0.349725C1.08756 0.349443 1.08512 0.348965 1.08169 0.348298C1.07414 0.346827 1.06185 0.344421 1.04561 0.341873C1.0128 0.336729 0.965098 0.33084 0.909243 0.327596Z" fill="var(--fill-0, white)"/>
</svg>
