<svg preserveAspectRatio="none" width="100%" height="100%" overflow="visible" style="display: block;" viewBox="0 0 81.393 55.201" fill="none" xmlns="http://www.w3.org/2000/svg">
<path id="Vector" d="M13.0873 25.3598L16.6571 26.0612L23.0849 31.4432L24.9884 30.975L25.2257 33.5493L39.9847 46.1862L45.9362 47.1226L50.6977 45.0165L58.3154 48.0591L60.458 47.5909L62.6006 48.7606L65.4568 55.079L65.8072 55.201L66.8931 53.2527L69.9099 52.9316L72.5945 51.4982L74.4834 48.9471L76.4782 46.8374L76.3979 44.2594L80.5115 40.1351H81.3419L81.393 39.5933L79.8855 37.6432L80.3618 32.6506L79.3708 31.3499L77.6042 32.507L63.4565 33.1313L59.9871 34.5594L51.8402 31.036L51.3145 28.6231L52.8439 26.5941L51.0536 24.7642L44.4907 23.0545L32.3798 14.2819L22.2125 5.92733L16.5367 0C15.7209 0.762444 14.9543 1.56436 14.7244 2.74839C14.6003 3.38525 14.4543 3.93242 13.6403 3.97727C13.3885 3.99162 13.2552 4.24278 13.1968 4.4742C12.9705 5.35684 12.1529 6.12288 12.7607 7.17774C12.945 7.49707 12.8738 8.01912 12.6785 8.40662C12.434 8.8892 12.4851 9.28567 12.8428 9.68573C13.1074 9.98174 13.2954 10.5128 13.0198 10.6957C12.4705 11.0599 12.1693 11.8098 11.3152 11.7506C9.68729 11.6394 8.09404 11.8618 6.54823 12.3893C6.08832 12.5453 5.60834 12.5758 5.1393 12.522C3.99866 12.3947 2.99306 12.7247 2.01667 13.2558C1.89257 13.3239 1.76664 13.3885 1.63888 13.4495C1.25563 13.6343 0.86142 13.7993 0.476337 13.9787C0.306609 13.9608 0.149653 13.9213 0 13.8657L1.42353 14.8291L13.0873 25.3598Z" fill="var(--fill-0, #DDE1E6)" fill-opacity="0.67"/>
</svg>
