<svg preserveAspectRatio="none" width="100%" height="100%" overflow="visible" style="display: block;" viewBox="0 0 16.081 16.081" fill="none" xmlns="http://www.w3.org/2000/svg">
<g id="Group 39697">
<path id="Union" d="M8.04075 0C12.4814 9.40094e-05 16.081 3.5837 16.081 8.00406C16.0809 12.0472 13.0692 15.3892 9.15704 15.9303C9.15704 15.9303 8.48034 16.081 8.04028 16.081C7.60004 16.0811 6.92306 15.9303 6.92306 15.9303C3.01143 15.3888 8.63799e-05 12.0469 0 8.00406C0 3.58364 3.60006 0 8.04075 0Z" fill="var(--fill-0, #2EBE0A)"/>
<path id="Exclude" d="M11.384 7.42814H11.22V11.1489H8.81085V9.59269C8.81085 9.16852 8.46526 8.82451 8.03914 8.82451C7.6131 8.8246 7.2678 9.16858 7.2678 9.59269V11.1489H4.78532V7.42814H4.69694L8.04027 4.93264L11.384 7.42814Z" fill="var(--fill-0, white)"/>
</g>
</svg>
