<svg preserveAspectRatio="none" width="100%" height="100%" overflow="visible" style="display: block;" viewBox="0 0 90.1933 93.4652" fill="none" xmlns="http://www.w3.org/2000/svg">
<path id="Vector" d="M90.1933 62.0504L87.3518 60.4986L87.0269 57.3897L83.3914 51.9162L81.6394 51.6704L81.3273 47.7685L77.7338 48.4305L75.6259 47.8582L75.3412 49.0458L65.1137 54.3488L59.0527 54.5067L55.0103 55.5006L54.669 53.4824L53.4188 52.7809L54.5832 51.2273L50.4623 46.0301L49.5808 42.8027L47.6043 38.316L41.8809 39.3314L41.8079 39.1412L30.7738 10.0356L29.113 3.03901L27.246 0C23.1944 4.26431 19.2614 8.5035 19.2614 8.5035C19.2614 8.5035 16.6425 10.7262 15.9289 10.8429C15.2153 10.9595 12.9541 12.0125 12.5964 12.5974C12.2387 13.1822 10.0979 16.8079 7.71808 17.0429C5.33823 17.2761 0.102202 17.3927 0.102202 17.3927L0 17.4627V19.7769L0.146001 20.9861L4.06253 23.9551L2.21742 26.429L1.11145 46.3835L1.26475 48.2026L3.2212 52.9746L6.27083 56.9178L6.03175 62.9313L6.98259 64.3342C7.91701 63.552 8.63972 62.5043 9.89535 62.0648C10.2348 61.9464 10.5706 61.5786 11.0524 61.4943C12.9888 61.1606 12.9559 61.1355 13.4505 59.3236C13.6111 58.7316 13.2881 58.3566 13.1001 57.8902C12.5198 56.4514 12.7242 56.1464 14.2627 56.0083C14.6003 55.9778 14.9233 56.0513 15.25 56.0621C16.0001 56.0872 16.7867 56.2218 17.493 55.9419C18.1847 55.6692 18.4183 55.8361 18.5241 56.5267C18.6026 57.0416 18.6482 57.5493 18.5807 58.0534C18.4803 58.7979 18.7158 59.4348 19.1465 60.0107C19.3418 60.2726 19.5461 60.5076 19.6666 60.8287C20.2105 62.2693 21.3967 63.3798 21.8402 64.8849C21.9242 65.172 22.2016 65.4482 22.4607 65.6312C22.8276 65.8896 23.1013 66.2107 23.2546 66.5964C23.501 67.2171 23.8934 67.4754 24.5705 67.3553C25.0468 67.2691 25.5341 67.3176 25.9429 67.5956C26.8554 68.2128 27.6822 67.9831 28.3775 67.2943C28.8009 66.8745 29.1897 66.7202 29.7591 66.9032C30.8504 67.253 31.867 66.7435 32.6882 66.2609C33.4402 65.8178 34.1483 65.5057 34.9914 65.3406C35.7032 65.2007 36.4004 64.8706 36.404 64.0041C36.4058 63.4139 36.6486 63.1609 37.2016 63.0891C37.8002 63.012 38.0283 62.6711 37.844 62.106C37.6797 61.6037 37.8367 61.1983 38.1579 60.8126C38.7565 60.0932 39.0467 59.2751 38.9043 58.3441C38.8277 57.8471 39.1106 57.6408 39.5212 57.5852C40.5359 57.4489 41.2057 58.127 41.8846 58.6813C42.3828 59.0886 41.8572 59.5299 41.7422 59.9497C41.4612 60.9938 41.109 62.0433 42.2222 62.8775C42.3445 62.969 42.4212 63.2237 42.3956 63.3834C42.2405 64.3701 42.7697 65.0141 43.3939 65.6994C44.144 66.5246 44.0673 66.9947 43.3337 67.8934C43.0709 68.2146 42.8555 68.577 42.5781 68.8837C42.0872 69.4237 42.1328 69.8758 42.7387 70.2759C43.5728 70.8248 43.9341 71.6931 44.3429 72.5345C44.4944 72.8448 44.4999 73.1175 44.3959 73.4638C44.0874 74.4881 43.9341 75.5161 44.8174 76.397C45.0364 76.614 45.0164 76.9459 44.8923 77.1935C44.3575 78.2627 44.1385 79.5059 43.1694 80.3347C42.5909 80.8299 42.4796 81.3824 42.6858 82.0893C43.0599 83.3666 43.6695 83.8043 45.1259 83.946C45.8121 84.0124 46.6936 83.781 47.148 84.3748C48.0277 85.523 49.4713 86.1993 49.9622 87.6668C50.0498 87.9287 50.2688 88.1278 50.5462 88.2534C51.4952 88.6911 51.946 89.5056 52.0884 90.4582C52.1815 91.0718 52.4461 91.4216 53.052 91.4593C54.085 91.5238 54.784 92.1051 55.4428 92.8083C56.2768 93.7 56.2513 93.5708 57.5051 93.0882C58.8702 92.5626 60.2153 91.671 61.8268 92.2935C62.137 92.4137 62.4856 92.3616 62.7959 92.2038C63.254 91.9705 63.712 92.08 64.1847 92.1643C64.7998 92.2737 65.3564 92.5231 65.9258 92.7509C66.3182 92.9088 66.8164 93.0828 67.103 92.6559C67.9918 91.3355 69.2547 91.305 70.6125 91.6028C71.286 91.7517 71.4849 91.4324 71.4958 90.8762C71.5013 90.6466 71.4958 90.3865 71.3973 90.1891C71.045 89.4895 71.1564 88.849 71.5232 88.196C71.6564 87.9574 71.8006 87.6506 71.7605 87.4049C71.609 86.4899 71.9776 86.0181 72.8044 85.5642C73.779 85.0314 73.9103 84.1828 73.1767 83.6321C71.9922 82.7405 72.3609 81.5134 72.0762 80.4244C73.8939 79.8665 75.4708 80.4926 77.044 80.8999C78.9548 81.395 80.2104 81.2963 81.0864 79.2458C81.4149 78.4762 81.915 78.0062 82.9242 78.0313C84.0922 78.06 84.7055 77.4052 84.9208 76.2696C85.0157 75.7691 85.1873 75.2416 85.1124 74.7572C84.9427 73.645 85.4136 72.7587 85.983 71.9048C86.4009 71.2769 86.7659 70.6419 86.9959 69.9243C87.0944 69.6139 87.2751 69.2461 87.6164 69.2067C88.4358 69.1134 88.5253 68.5016 88.7041 67.9222C89.0618 66.7632 89.2224 66.5085 90.1842 66.3919V62.0504H90.1933Z" fill="var(--fill-0, #002C5D)"/>
</svg>
