<svg preserveAspectRatio="none" width="100%" height="100%" overflow="visible" style="display: block;" viewBox="0 0 63.3142 40.9854" fill="none" xmlns="http://www.w3.org/2000/svg">
<path id="Vector" d="M58.8501 12.0502L58.2552 11.3488C58.2552 11.3488 51.2343 9.12601 46.9491 6.43503C42.6657 3.74405 33.1445 0 33.1445 0L31.7155 0.235012C31.7155 0.235012 22.7108 2.90447 20.6868 2.67125C20.0334 2.5959 19.0588 2.36089 17.9456 1.9393L18.3033 5.3084L16.8031 5.71744L12.8118 18.0278L12.8994 19.497L6.53363 21.4776L0 31.7805L5.70507 30.7166L9.76212 27.3547L15.8194 26.8129L18.2412 22.5271L22.5885 24.2206L24.4007 23.9784L25.5742 25.2862L28.1859 24.531L30.3814 25.071L33.4292 23.494L38.9864 26.4595L42.1675 24.897L43.6439 23.4456L45.0255 24.513L44.9452 27.1251L45.9051 28.3827L45.1934 33.901L52.322 40.9854L60.5638 40.0095L61.668 20.098L63.3142 17.8914L59.6148 15.0874L59.4433 13.6307V11.6448L58.8501 12.052V12.0502Z" fill="var(--fill-0, #CFDDEB)"/>
</svg>
