<svg preserveAspectRatio="none" width="100%" height="100%" overflow="visible" style="display: block;" viewBox="0 0 70.284 57.0305" fill="none" xmlns="http://www.w3.org/2000/svg">
<path id="Vector" d="M69.2237 33.7682L69.4609 27.7709L66.4788 23.9156L66.466 23.8851L64.4676 19.0163L64.3271 17.3586L55.8936 18.3561L48.4237 10.9344L49.1409 5.37657L48.1974 4.13874L48.2759 1.60204L47.4364 0.954413L46.2136 2.15458L42.7296 3.86605L37.1796 0.904176L34.1975 2.447L31.9491 1.89446L29.1641 2.69996L27.9577 1.35626L26.2787 1.58231L22.2162 0L19.8783 4.13694L13.717 4.68769L9.67999 8.03348L3.39822 9.20675L0 14.5672L7.6615 13.2109L7.74729 14.813L10.0049 15.6848L9.32047 20.0568L7.35855 21.0202L10.2421 27.0623L11.6547 28.0167L10.8736 29.2097L11.9613 32.4156L11.8865 35.0581L18.2668 36.2206L18.8326 38.7645L21.4935 40.1494L23.3933 43.4791L23.3842 43.558L23.3258 44.0514C23.9919 44.3258 23.9372 45.2013 23.8496 45.8794C23.72 46.8823 24.0868 47.5227 24.9811 48.0609C26.6382 49.0566 28.0964 50.3088 29.3174 51.8104C29.5528 52.0992 29.8521 52.3808 29.666 52.8042C29.0473 54.2089 29.801 55.3445 30.4781 56.4424C31.0037 57.2946 32.221 57.1977 32.6609 56.3007C33.0113 55.5867 33.4967 55.2943 34.2468 55.54C35.4404 55.9311 36.4588 55.7876 37.3549 54.8422C37.6615 54.5193 38.1542 54.2251 38.6415 54.4278C39.5705 54.8117 40.4136 54.4027 41.1966 54.1138C41.7824 53.8985 42.2879 53.8017 42.8227 54.008C44.0582 54.4834 45.2591 54.0421 46.4727 53.9416C46.6479 53.9273 46.9253 53.8411 46.9655 53.7245C47.4108 52.4598 48.4748 52.7073 49.453 52.6732C50.4915 52.6356 51.6522 51.4533 51.4843 50.4433C51.3474 49.6163 51.4898 48.7624 51.1886 47.9622C50.9532 47.3397 51.2251 46.9002 51.6851 46.4876C52.7454 45.5386 53.8568 44.6667 55.2201 44.1751C55.8954 43.9311 56.3133 43.5203 56.5451 42.8368C57.0196 41.4375 58.2315 40.5172 59.0199 39.3152C59.259 38.9493 59.7225 38.8542 60.1258 38.7196C61.4527 38.2729 62.7083 37.5787 64.2011 37.7276C64.5881 37.767 65.3144 37.7419 65.3601 37.4028C65.5042 36.3193 66.3547 36.4879 66.9533 36.4933C68.1122 36.5076 69.0631 36.0627 70.0011 35.5191C70.0978 35.4617 70.1928 35.4007 70.284 35.3379L69.2237 33.7736V33.7682Z" fill="var(--fill-0, #002C5D)"/>
</svg>
