<svg preserveAspectRatio="none" width="100%" height="100%" overflow="visible" style="display: block;" viewBox="0 0 42.8336 44.8425" fill="none" xmlns="http://www.w3.org/2000/svg">
<path id="Vector" d="M36.1175 9.02016L38.6305 5.31199L37.0756 0L33.5752 1.57511L30.3759 1.99132L28.7735 5.1003L27.8957 5.59903L26.3626 5.55956L23.1031 6.62878L21.9479 6.15876L21.4515 6.30228L18.9603 10.4876L14.8375 10.0625L14.635 10.6957L13.6714 11.3272L12.1912 14.7089L10.2768 15.439L9.97566 16.9209L4.84363 23.6196L0 27.4588L0.419745 34.1306L1.41988 34.5881L2.67914 34.5109L5.9551 35.738L11.8573 32.5662L14.6003 32.4837L17.4583 33.9297L17.4802 33.9476L27.9833 42.7184L34.0406 43.802L38.4243 44.8425L40.107 40.1817L41.2166 38.6245L42.8336 33.8543L42.1565 32.8192L42.1474 32.769L40.9648 25.7939L38.0885 20.9233L38.3258 19.2854L36.5829 16.3253L36.7453 14.9565L36.0353 11.4582V11.4295L36.1175 9.02016Z" fill="var(--fill-0, #CFDDEB)"/>
</svg>
