<svg preserveAspectRatio="none" width="100%" height="100%" overflow="visible" style="display: block;" viewBox="0 0 16.587 16.587" fill="none" xmlns="http://www.w3.org/2000/svg">
<g id="Group 39697">
<path id="Union" d="M8.29374 0C12.8741 9.69672e-05 16.587 3.69645 16.587 8.2559C16.5869 12.4263 13.4804 15.8734 9.44515 16.4315C9.44515 16.4315 8.74716 16.587 8.29326 16.587C7.83916 16.587 7.14088 16.4315 7.14088 16.4315C3.10618 15.873 8.90977e-05 12.4259 0 8.2559C0 3.69639 3.71333 0 8.29374 0Z" fill="var(--fill-0, #2EBE0A)"/>
<path id="Exclude" d="M12.5892 7.13468H12.3785V11.9151H9.28326V9.91567C9.28326 9.37069 8.83924 8.92871 8.29178 8.92871C7.74441 8.92883 7.30078 9.37077 7.30078 9.91567V11.9151H4.11133V7.13468H3.99778L8.29323 3.92852L12.5892 7.13468Z" fill="var(--fill-0, white)"/>
</g>
</svg>
