<svg preserveAspectRatio="none" width="100%" height="100%" overflow="visible" style="display: block;" viewBox="0 0 53.1119 61.6199" fill="none" xmlns="http://www.w3.org/2000/svg">
<path id="Vector" d="M52.8896 33.6534C52.3859 33.187 52.2088 32.5752 52.4023 31.9886C52.7052 31.0665 52.4753 30.1336 52.6286 29.2151C52.7509 28.4849 52.6049 27.8176 51.8657 27.4085C51.393 27.1484 51.2817 26.7412 51.3182 26.2227C51.435 24.5507 51.3949 22.859 51.6504 21.2103C51.8365 20.0083 51.7654 18.9194 51.3821 17.7838C51.0937 16.9298 50.6302 16.1746 50.2086 15.396C50.0024 15.0139 49.8107 14.6497 49.8345 14.2173C49.9348 12.4969 49.4056 10.9236 48.7559 9.35923C48.3817 8.45685 48.1591 7.47016 47.4838 6.73462C46.7739 5.96141 46.9144 5.0106 46.6771 4.12975C46.3851 3.04798 46.6972 2.3537 47.5495 1.76169C47.6207 1.71145 47.6645 1.611 47.6973 1.52489C47.9036 0.979517 47.9729 0.394674 48.5734 0.0197312C48.5825 0.0143493 48.5916 0.00717595 48.5989 0C47.5094 0.324712 42.7424 1.7294 40.8498 2.03797L28.2351 10.929C28.2351 10.929 26.0926 12.0986 22.4023 12.2152C18.7139 12.3319 19.5461 11.3972 15.7391 13.2683C11.9303 15.1394 9.55041 18.5319 9.55041 18.5319L6.33652 20.7546C6.33652 20.7546 2.20647 34.0337 0 37.3131L5.62112 40.8885L2.53133 50.8165L22.8987 61.6199C22.6907 60.8036 22.6724 59.9712 22.7619 59.1657C22.8677 58.1987 23.0721 57.1672 24.419 57.0918C24.8004 57.0703 24.9391 56.8102 25.1143 56.4998C25.4374 55.9329 25.7713 55.3822 25.9739 54.7561C26.2714 53.8286 26.662 52.9567 27.4011 52.257C28.6604 51.0658 29.4762 49.6683 29.5966 47.8869C29.6295 47.3846 29.7043 46.884 29.6568 46.3781C29.6167 45.9583 29.5547 45.5386 29.7974 45.1529C30.9107 43.3894 32.0367 41.6313 33.1354 39.8588C33.7285 38.9008 34.8108 38.3231 35.225 37.2324C35.4842 36.5525 36.0481 36.1004 36.4642 35.5389C36.8128 35.0688 37.2289 35.0599 37.7199 35.2303C38.0758 35.3541 38.4316 35.4743 38.7948 35.5748C39.158 35.6752 39.638 35.8385 39.8114 35.4115C40.0942 34.7208 40.66 34.7836 41.0944 34.954C41.9083 35.2752 42.5799 35.033 43.2625 34.6849C43.8885 34.3656 44.5108 34.3387 45.1897 34.5235C46.1771 34.7908 47.064 34.728 47.9656 34.0427C49.2012 33.1044 50.3035 33.239 51.4934 34.1826C51.6759 34.3279 51.8913 34.4374 52.1048 34.5378C52.426 34.6885 52.7509 34.728 52.9954 34.3997C53.2016 34.1252 53.1141 33.8561 52.8896 33.648V33.6534Z" fill="var(--fill-0, #DDE1E6)" fill-opacity="0.67"/>
</svg>
