<svg preserveAspectRatio="none" width="100%" height="100%" overflow="visible" style="display: block;" viewBox="0 0 50.2506 26.9618" fill="none" xmlns="http://www.w3.org/2000/svg">
<path id="Vector" d="M5.52439 15.6705L6.62671 16.2535H8.47365L10.2275 17.5865L10.9575 17.6403L11.2039 16.101L13.3301 16.7666L13.6914 17.5452L15.1496 17.2599L17.3981 18.0206L18.4329 17.3443L20.3382 19.5455L22.5502 19.854L26.3408 23.582L27.5909 21.3431L30.9526 20.8479L32.0531 21.2803L33.1409 20.2128L34.3454 22.7657L34.2669 24.7678L35.6923 26.682L36.2142 26.9618L36.8877 23.2788L39.0065 22.1593L42.5964 17.2474L43.4943 14.2012L45.8048 13.4477L47.3524 13.2396L47.5824 10.3836L50.1228 7.88637L50.2506 6.42427L48.3817 6.27178L47.9456 0L47.0075 0.123786L44.4907 0.972338L40.4866 2.46853L30.73 2.23531L28.0435 3.32247L19.464 3.87501L17.3013 3.16639L11.9503 2.6246L8.65432 2.69815L8.42072 3.4606L5.72879 3.78173L3.93295 5.61877L6.04452 9.44892L3.4037 10.4536L2.44373 12.1058L0 12.7409L1.0275 14.0864L0.589483 18.6826L5.52439 15.6705Z" fill="var(--fill-0, #CFDDEB)"/>
</svg>
