<svg preserveAspectRatio="none" width="100%" height="100%" overflow="visible" style="display: block;" viewBox="0 0 52.2891 52.3216" fill="none" xmlns="http://www.w3.org/2000/svg">
<path id="Vector" d="M43.2698 15.9503L44.0509 14.4165L43.372 11.3864L42.6219 10.7819L40.253 10.4607L38.8824 7.4271L40.1417 4.79174L37.187 0L33.0332 3.42652L32.774 4.69487L31.6589 4.77918L29.9361 6.75436L31.1059 8.75107L29.4014 11.8547L24.4464 12.9544L20.6704 16.9693L20.4295 20.5142L18.066 22.0086L17.0367 22.2257L16.3231 23.8582L15.688 24.0143L14.8741 25.8567L10.8517 25.5984L10.4465 23.0473L8.52475 22.3046L0 32.3438L11.8098 40.8975L18.4183 42.6197L20.5956 44.8461L18.9494 47.0276L19.3764 48.983L27.0963 52.3216L30.4508 50.942L44.5473 50.3195L46.429 49.0853L49.0661 48.4L50.0115 46.7764L52.2891 45.9081L50.3729 42.4296L39.899 29.9165L43.3154 27.6776L42.9504 26.1635L43.1913 23.8726L43.2698 15.9503Z" fill="var(--fill-0, #DDE1E6)" fill-opacity="0.67"/>
</svg>
