<svg preserveAspectRatio="none" width="100%" height="100%" overflow="visible" style="display: block;" viewBox="0 0 37.8531 66.1941" fill="none" xmlns="http://www.w3.org/2000/svg">
<path id="Vector" d="M3.06241 36.3637L4.70312 38.5918L7.15049 38.9793L11.213 43.6132L12.1164 46.9249L11.3244 50.1182L12.1018 52.6459L14.3119 62.4213L16.3761 65.1266L19.4877 66.1941L26.2951 55.457L32.4674 53.5375L32.3962 52.3553L32.409 52.3122L36.4971 39.7077L37.8531 39.3381L37.5118 36.1215C35.2707 35.1868 32.6134 33.5202 30.896 30.8992C28.1585 26.7264 25.66 19.902 22.3275 16.5491C18.995 13.1961 1.97651 0.598742 1.3414 0.209447C0.706285 -0.179849 0.388734 0.092844 0.388734 0.092844L0.155124 1.61953L1.86153 5.37614L5.3437 10.245L5.35465 10.2863L6.2982 13.763L9.28031 18.596L8.49737 20.4438L9.40077 21.4951L8.41707 22.7527L7.02822 22.8334L4.68487 24.5431L4.16291 25.824L2.19004 25.5818L1.96556 25.8025L2.12981 27.0152L0.45808 27.9535L0.930764 32.5963L0 33.4341L0.481807 35.0594L3.05876 36.3637H3.06241Z" fill="var(--fill-0, #CFDDEB)"/>
</svg>
