<svg preserveAspectRatio="none" width="100%" height="100%" overflow="visible" style="display: block;" viewBox="0 0 70.7915 42.7233" fill="none" xmlns="http://www.w3.org/2000/svg">
<path id="Vector" d="M46.6134 27.4749C46.7375 27.9342 47.0915 28.3539 47.5168 28.0651C48.15 27.6364 48.7103 28.0687 49.2907 27.9808C49.3874 28.0723 49.486 28.1656 49.5809 28.2571C49.2761 28.9101 48.3763 29.1595 48.3033 29.9793L48.4001 30.0672L51.8238 29.6008L57.5034 33.1098L59.2262 35.8797L64.9404 37.1696L67.2436 36.6583L70.7915 31.0611L67.6414 29.9811L65.4222 27.0713L65.4112 27.0192L63.192 17.2007L62.3817 14.5726L63.1756 11.3703L62.3342 8.28641L58.4633 3.87322L55.9922 3.48212L54.3004 1.18582L51.9589 0L49.7433 4.43115L48.8728 5.0734L49.2651 6.7723L48.1993 7.74465L48.9439 8.91431L47.8288 12.6261H46.0878L45.0986 11.2788L43.6988 11.8582L41.2989 11.3075L39.5249 11.7434L39.0504 9.68753L39.169 9.50274L37.2108 10.0158L35.5409 7.12212L33.8253 7.48989L31.8488 6.79023L27.8064 7.88099L26.9541 7.60112L24.4446 10.9164L22.3367 10.8375L18.3837 13.6917L13.4032 10.6222L13.8667 8.952L10.1436 7.69621C9.94289 7.84152 9.69651 7.91327 9.45378 7.97965C8.90627 8.13214 8.35694 8.25771 7.8222 8.4694C7.24366 8.69903 6.94801 9.0686 7.07758 9.64447C7.38054 10.9792 6.66878 12.1561 6.5392 13.419C6.4881 13.916 6.24537 14.2604 5.79641 14.5295C5.10289 14.9475 4.73059 15.57 4.82366 16.4096C4.85469 16.6859 4.89484 17.0644 4.59371 17.1559C3.53884 17.4788 2.70662 18.7794 1.35609 17.8932C1.14074 17.7533 0.877934 17.8412 0.764781 18.0941C0.244646 19.2441 -0.562021 20.3797 0.582278 21.6211C0.815882 21.8741 0.792156 22.2293 0.863332 22.545C0.912608 22.7621 1.00751 23.0581 1.17541 23.1442C2.13903 23.643 2.8289 24.5956 3.87099 24.897C4.83826 25.1768 5.61938 25.819 6.583 26.0487C7.64152 26.3016 7.53567 27.1322 7.6835 27.909C7.83315 28.6948 7.26374 28.8491 6.81113 29.1487C6.61585 29.2797 6.43882 29.4949 6.22529 29.538C4.75431 29.8358 4.56998 30.8189 4.77074 32.046C4.83826 32.4586 4.77621 32.9017 4.90214 33.291C5.2635 34.4069 4.89849 35.3989 4.45683 36.3856C4.30718 36.7175 4.12467 37.0153 3.70492 37.1606C2.21386 37.6755 1.7357 39.0533 1.13526 40.2822C0.801282 40.9639 1.27032 41.4537 1.89265 41.7174C2.36534 41.9183 2.83072 42.0403 3.17201 42.5031C3.42569 42.8458 3.86187 42.7794 4.11007 42.3668C4.53896 41.6564 5.01712 40.9657 5.3511 40.2122C5.6212 39.6023 6.21252 39.7296 6.31107 39.9718C6.802 41.1684 7.33491 40.4293 7.90433 40.1099C8.32226 39.8767 8.80772 39.8337 9.28223 39.796C9.95019 39.7422 10.6054 39.857 11.2679 39.9144C12.1202 39.988 12.9451 40.0436 13.4889 39.1017C13.8485 38.4828 14.542 38.377 15.2574 38.6012C16.1699 38.8883 16.6262 39.5341 16.7138 40.7163C16.7704 41.4752 17.0295 41.6941 17.7796 41.5631C18.0023 41.5236 18.2067 41.3801 18.4257 41.3029C19.382 40.9639 20.3091 40.388 21.3457 41.172C21.6304 41.3873 22.0812 41.3406 22.459 41.2527C23.3879 41.0392 24.107 41.2689 24.6928 42.06C25.0487 42.5408 25.5597 42.4385 25.7495 41.8878C25.901 41.4519 25.9631 40.9782 25.9996 40.5154C26.1237 38.9815 26.224 37.4459 26.3244 35.9102C26.4212 34.4141 26.976 33.9871 28.4196 34.3297C28.6495 34.3835 28.8667 34.502 29.0985 34.536C30.261 34.7029 31.3104 34.6957 32.1317 33.5834C32.5314 33.0398 32.8307 32.4927 33.0752 31.8917C33.3344 31.253 33.7012 30.6825 34.4714 30.6664C35.3711 30.6467 35.7982 30.1013 36.2271 29.4465C36.8439 28.5064 37.5101 27.5969 38.1908 26.6999C38.5577 26.2173 38.9537 25.7222 39.6271 25.6289C41.8226 25.3257 42.6895 23.616 43.7481 22.0553C44.3795 22.4284 44.4051 22.4356 44.197 23.0922C43.8393 24.2242 44.2134 25.2593 44.5748 26.3034C44.7299 26.7519 45.0183 27.1125 45.5129 26.8955C46.2046 26.5923 46.4546 26.8811 46.6134 27.4713V27.4749Z" fill="var(--fill-0, #DDE1E6)" fill-opacity="0.67"/>
</svg>
