<svg preserveAspectRatio="none" width="100%" height="100%" overflow="visible" style="display: block;" viewBox="0 0 54.7602 73.0752" fill="none" xmlns="http://www.w3.org/2000/svg">
<path id="Vector" d="M0.242716 29.8437C0.949005 31.4655 1.68085 33.0747 2.88538 34.4148C3.12081 34.6767 3.2522 34.944 3.223 35.2974C3.19015 35.6867 3.35259 36.0276 3.54604 36.3541C4.2213 37.5022 4.10085 38.5786 3.25951 39.594C3.05328 39.8434 2.68097 40.0856 2.84705 40.421C3.22665 41.1835 3.03503 42.2455 4.04427 42.685C4.3746 42.8286 4.66844 43.1264 4.58266 43.4367C4.2797 44.5508 4.55711 45.9268 3.68474 46.8022L7.97905 49.5417L8.82587 51.054L10.9393 51.4379L15.6369 56.9167L18.6482 58.0846L19.7907 59.3584L22.4133 59.0265L22.2435 62.2862L24.2018 65.5207L24.4956 66.3872L28.049 68.1704L29.2444 67.8565L33.734 70.3089L33.8033 71.3207L37.6888 70.3663L39.9884 70.7143L40.2786 73.0752L44.8357 70.0398L50.5079 63.768L52.1924 60.6159L54.7602 59.057L53.7619 56.9526L48.7394 52.0156L46.9545 51.0594L45.2153 47.484L43.3045 46.7018L41.3079 42.0697L32.0969 35.24L30.1569 35.7728L27.2186 34.7825L25.6983 32.2082L27.4869 22.9386L28.9688 22.3843L28.007 21.1698L28.1749 17.6966L30.1149 16.1071L30.5292 15.0917L28.7699 11.3333L27.2533 9.9986L26.0779 6.68869L23.052 5.43649L21.6084 0.165756C21.5409 0.147817 21.4734 0.135259 21.4058 0.135259C20.4295 0.137053 19.3107 -0.437023 18.5953 0.766742C18.4803 0.960493 18.2175 0.973051 17.9547 0.903085C16.4892 0.511996 15.2208 1.23856 13.8958 1.63144C13.7425 1.67629 13.6275 1.8826 13.5217 2.0333C12.8647 2.97514 11.3827 4.36369 10.2895 4.99158C9.90993 5.20865 9.60516 5.4921 9.88256 5.86884C10.5177 6.73534 10.4246 7.70768 10.4702 8.67464C10.4867 9.03702 10.5086 9.42632 10.8206 9.71156C10.9995 9.87661 11.0926 10.0757 11.0634 10.3341C10.8973 11.8051 11.1163 13.2798 11.1948 14.7383C11.2532 15.7932 10.4775 16.7817 11.0433 17.8383C11.0853 17.9155 10.8553 18.1379 10.7458 18.2886C10.0267 19.2843 8.95179 19.5928 7.80567 19.7974C6.71065 19.9929 6.37849 20.2315 6.32009 21.159C6.26534 22.0129 5.90946 22.7861 5.82551 23.6239C5.75433 24.3505 5.35829 24.9282 4.79253 25.4C4.3235 25.7929 3.88732 26.2216 3.41463 26.6109C2.81054 27.1096 2.25756 27.5779 1.34505 27.6461C0.047444 27.7429 -0.215368 28.3206 0.151464 29.5782C0.177014 29.6679 0.206215 29.7576 0.242716 29.8419V29.8437Z" fill="var(--fill-0, #DDE1E6)" fill-opacity="0.67"/>
</svg>
