<svg preserveAspectRatio="none" width="100%" height="100%" overflow="visible" style="display: block;" viewBox="0 0 16.081 16.081" fill="none" xmlns="http://www.w3.org/2000/svg">
<g id="Group 39697">
<path id="Union" d="M8.04075 0C12.4814 9.40094e-05 16.081 3.5837 16.081 8.00406C16.0809 12.0472 13.0692 15.3892 9.15704 15.9303C9.15704 15.9303 8.48034 16.081 8.04028 16.081C7.60004 16.0811 6.92306 15.9303 6.92306 15.9303C3.01143 15.3888 8.63799e-05 12.0469 0 8.00406C0 3.58364 3.60006 0 8.04075 0Z" fill="var(--fill-0, #2EBE0A)"/>
<path id="Exclude" d="M11.3846 7.06756H11.2206V10.789H8.81103V9.23252C8.81103 8.80827 8.46537 8.46419 8.03917 8.46419C7.61306 8.46428 7.2677 8.80833 7.2677 9.23252V10.789H4.78476V7.06756H4.69636L8.0403 4.57161L11.3846 7.06756Z" fill="var(--fill-0, white)"/>
</g>
</svg>
