<svg preserveAspectRatio="none" width="100%" height="100%" overflow="visible" style="display: block;" viewBox="0 0 56.9665 27.3708" fill="none" xmlns="http://www.w3.org/2000/svg">
<g id="Group">
<path id="Vector" d="M56.3553 0H5.07C4.62084 0 4.23768 0.327412 4.16593 0.771142L0.0057624 26.7947C-0.0789047 27.3289 0.793597 27.5988 1.05908 27.1278C3.89471 22.1089 7.88841 18.9224 14.6603 18.9224H53.5685C53.9516 18.9224 54.2401 18.572 54.1669 18.1958L52.4778 9.46049L56.8977 0.890332C57.1073 0.483938 56.8131 0 56.3553 0ZM15.1167 15.4128C11.8319 15.4128 9.1699 12.7475 9.1699 9.46193C9.1699 6.17632 11.8333 3.51107 15.1167 3.51107C18.4 3.51107 21.0635 6.17632 21.0635 9.46193C21.0635 12.7475 18.4 15.4128 15.1167 15.4128ZM33.4163 7.01926H29.7569L29.7612 9.46336C30.0985 10.0234 30.7887 10.6122 31.4388 11.0243C31.8377 11.2771 32.5868 11.7596 33.4163 11.9017V14.9533H33.211C31.7387 14.9533 29.18 13.4397 27.9258 12.2019C26.6716 13.4383 24.1129 14.9533 22.6406 14.9533H22.4354V11.9017C23.2648 11.7596 24.0139 11.2771 24.4128 11.0243C25.0629 10.6122 25.7532 10.022 26.0904 9.46336L26.0947 7.01926H22.4354V3.96772H33.4148V7.01926H33.4163ZM46.2254 7.01926H38.9053V11.9032H46.2254V14.9547H35.2459V3.96772H46.2254V7.01926Z" fill="var(--fill-0, white)"/>
<path id="Vector_2" d="M15.1167 12.3599C16.7168 12.3599 18.014 11.0617 18.014 9.46053C18.014 7.85937 16.7168 6.56121 15.1167 6.56121C13.5166 6.56121 12.2194 7.85937 12.2194 9.46053C12.2194 11.0617 13.5166 12.3599 15.1167 12.3599Z" fill="var(--fill-0, white)"/>
</g>
</svg>
