<svg preserveAspectRatio="none" width="100%" height="100%" overflow="visible" style="display: block;" viewBox="0 0 152.467 47.5634" fill="none" xmlns="http://www.w3.org/2000/svg">
<g id="Group 2776">
<path id="Star 1" d="M12.2231 23.6146C12.5185 22.685 13.8338 22.685 14.1292 23.6146L15.9129 29.2282C16.0448 29.6434 16.4303 29.9254 16.8659 29.9254H22.6847C23.648 29.9254 24.0543 31.1536 23.2811 31.7281L18.5354 35.254C18.1927 35.5086 18.0495 35.9527 18.1787 36.3595L19.9823 42.0359C20.2763 42.9611 19.2122 43.7204 18.4329 43.1414L13.7725 39.6789C13.4185 39.4158 12.9339 39.4158 12.5798 39.6789L7.91945 43.1414C7.14015 43.7204 6.07603 42.9611 6.37002 42.0359L8.17358 36.3595C8.30286 35.9527 8.15959 35.5086 7.81692 35.254L3.07123 31.7281C2.29799 31.1536 2.70431 29.9254 3.66761 29.9254H9.4864C9.92203 29.9254 10.3075 29.6434 10.4394 29.2282L12.2231 23.6146Z" fill="var(--fill-0, #FFD700)"/>
<path id="Star 2" d="M43.518 8.17972C43.8165 7.25668 45.1224 7.25668 45.421 8.17972L47.2567 13.8558C47.3901 14.2685 47.7744 14.5481 48.2081 14.5481H54.1584C55.126 14.5481 55.5295 15.7853 54.748 16.3558L49.9261 19.8754C49.5773 20.1301 49.4313 20.5799 49.5642 20.9909L51.4041 26.68C51.7023 27.6021 50.6459 28.3668 49.8631 27.7954L45.0591 24.2888C44.7078 24.0324 44.2312 24.0324 43.8799 24.2888L39.0759 27.7954C38.2931 28.3668 37.2366 27.6021 37.5349 26.68L39.3748 20.9909C39.5077 20.5799 39.3617 20.1301 39.0129 19.8754L34.191 16.3558C33.4094 15.7853 33.813 14.5481 34.7806 14.5481H40.7308C41.1646 14.5481 41.5489 14.2685 41.6823 13.8558L43.518 8.17972Z" fill="var(--fill-0, #FFD700)"/>
<path id="Star 3" d="M75.2836 2.8864C75.5852 1.96986 76.8817 1.96986 77.1834 2.8864L79.0711 8.62289C79.2061 9.03309 79.5892 9.3103 80.021 9.3103H86.1027C87.0745 9.3103 87.4752 10.5564 86.6856 11.1229L81.7874 14.6365C81.4324 14.8912 81.2838 15.3467 81.4204 15.7617L83.2965 21.4626C83.5989 22.3817 82.5499 23.1518 81.7637 22.5878L76.8164 19.0388C76.4679 18.7889 75.999 18.7889 75.6506 19.0388L70.7032 22.5878C69.917 23.1518 68.868 22.3817 69.1705 21.4626L71.0465 15.7617C71.1831 15.3467 71.0345 14.8912 70.6795 14.6365L65.7814 11.1229C64.9917 10.5564 65.3925 9.3103 66.3643 9.3103H72.4459C72.8778 9.3103 73.2608 9.03309 73.3958 8.62289L75.2836 2.8864Z" fill="var(--fill-0, #FFD700)"/>
<path id="Star 4" d="M107.046 8.17972C107.344 7.25668 108.65 7.25668 108.949 8.17972L110.785 13.8558C110.918 14.2685 111.302 14.5481 111.736 14.5481H117.686C118.654 14.5481 119.057 15.7853 118.276 16.3558L113.454 19.8754C113.105 20.1301 112.959 20.5799 113.092 20.9909L114.932 26.68C115.23 27.6021 114.174 28.3668 113.391 27.7954L108.587 24.2888C108.236 24.0324 107.759 24.0324 107.408 24.2888L102.604 27.7954C101.821 28.3668 100.765 27.6021 101.063 26.68L102.903 20.9909C103.036 20.5799 102.89 20.1301 102.541 19.8754L97.7189 16.3558C96.9373 15.7853 97.3409 14.5481 98.3085 14.5481H104.259C104.692 14.5481 105.077 14.2685 105.21 13.8558L107.046 8.17972Z" fill="var(--fill-0, #FFD700)"/>
<path id="Star 5" d="M138.338 23.6146C138.633 22.685 139.948 22.685 140.244 23.6146L142.028 29.2282C142.159 29.6434 142.545 29.9254 142.981 29.9254H148.799C149.763 29.9254 150.169 31.1536 149.396 31.7281L144.65 35.254C144.307 35.5086 144.164 35.9527 144.293 36.3595L146.097 42.0359C146.391 42.9611 145.327 43.7204 144.548 43.1414L139.887 39.6789C139.533 39.4158 139.048 39.4158 138.694 39.6789L134.034 43.1414C133.255 43.7204 132.191 42.9611 132.485 42.0359L134.288 36.3595C134.417 35.9527 134.274 35.5086 133.932 35.254L129.186 31.7281C128.413 31.1536 128.819 29.9254 129.782 29.9254H135.601C136.037 29.9254 136.422 29.6434 136.554 29.2282L138.338 23.6146Z" fill="var(--fill-0, #FFD700)"/>
</g>
</svg>
