<svg preserveAspectRatio="none" width="100%" height="100%" overflow="visible" style="display: block;" viewBox="0 0 45.9765 43.7246" fill="none" xmlns="http://www.w3.org/2000/svg">
<g id="Group 39731">
<path id="Vector" d="M40.5695 35.5737C40.6758 38.0063 38.8673 40.2217 36.6793 40.2936C34.5157 40.3641 32.3493 40.323 30.1843 40.3068C30.134 40.3068 30.0721 40.2804 30.0146 40.2393V42.1331C30.111 42.0861 30.2288 42.0729 30.3769 42.0744C32.3234 42.0876 34.2714 42.0876 36.2179 42.0803C39.5847 42.0671 42.1077 39.3995 42.2184 35.7278C42.2256 35.4738 42.2788 35.3256 42.4426 35.2169C41.8216 35.3725 41.1129 35.4944 40.5709 35.5751L40.5695 35.5737Z" fill="var(--fill-0, #C6CEDA)"/>
<path id="Vector_2" d="M2.90594 18.5774C3.01959 16.9794 3.26875 13.8144 3.6097 12.8175C5.89584 6.12304 10.4841 1.93884 17.2449 0.377947C18.1395 0.171118 19.1682 0.0595193 20.3004 0.0446394C20.7142 0.0401755 21.128 0.0327356 21.5418 0.0252957C22.1188 0.0148798 22.7031 0.00446394 23.2844 0C23.8571 0.00446394 24.4413 0.0148798 25.0111 0.0252957C25.4321 0.0327356 25.846 0.0401755 26.2598 0.0446394C27.3934 0.0595193 28.4206 0.171118 29.3152 0.377947C36.0775 1.93884 40.6643 6.12453 42.9504 12.8175C43.2914 13.8144 43.5405 16.9794 43.6542 18.5774L40.606 18.2709C40.7794 14.6819 39.3092 10.6138 36.7754 7.75834C34.3406 5.0145 31.1409 3.5652 27.523 3.5652C26.6954 3.5652 24.8071 3.46253 23.8993 3.41343C23.4316 3.38813 23.3267 3.38218 23.2801 3.38218C23.2334 3.38218 23.1271 3.38813 22.6579 3.41343C21.7501 3.46253 19.8633 3.5652 19.0356 3.5652C15.4177 3.5652 12.218 5.01599 9.78328 7.75834C7.24945 10.6138 5.77927 14.6819 5.95266 18.2709L2.90448 18.5774H2.90594Z" fill="var(--fill-0, #C6CEDA)"/>
<path id="Vector_3" d="M9.04577 26.3705C9.04577 28.8795 9.0472 31.3884 9.04577 33.8959C9.04433 35.5226 8.37154 36.3433 7.00438 36.311C5.88737 36.286 4.74305 36.3521 3.6591 36.0922C1.5674 35.5931 0.0694281 33.3483 0.0334882 30.8115C-0.00820198 27.8459 -0.0139524 24.8774 0.0334882 21.9133C0.0823665 18.9272 2.14819 16.5239 4.65967 16.4403C5.51935 16.4109 6.38047 16.4226 7.24159 16.4314C8.29966 16.4417 8.99689 17.2477 9.04002 18.5176C9.06014 19.1034 9.04433 19.6892 9.04577 20.2749C9.04577 22.3082 9.04577 24.3401 9.04577 26.3734V26.3705Z" fill="var(--fill-0, #00418B)"/>
<path id="Vector_4" d="M36.9308 26.3705C36.9308 28.8795 36.9294 31.3884 36.9308 33.8959C36.9322 35.5226 37.605 36.3433 38.9722 36.311C40.0892 36.286 41.2335 36.3521 42.3175 36.0922C44.4092 35.5931 45.9071 33.3483 45.9431 30.8115C45.9848 27.8459 45.9905 24.8774 45.9431 21.9133C45.8942 18.9272 43.8284 16.5239 41.3169 16.4403C40.4572 16.4109 39.5961 16.4226 38.735 16.4314C37.6769 16.4417 36.9797 17.2477 36.9365 18.5176C36.9164 19.1034 36.9322 19.6892 36.9308 20.2749C36.9308 22.3082 36.9308 24.3401 36.9308 26.3734V26.3705Z" fill="var(--fill-0, #00418B)"/>
<path id="Vector_5" d="M28.3689 38.6744H21.7588C20.3932 38.6744 19.2862 39.8049 19.2862 41.1995C19.2862 42.5941 20.3932 43.7246 21.7588 43.7246H28.3689C29.7345 43.7246 30.8416 42.5941 30.8416 41.1995C30.8416 39.8049 29.7345 38.6744 28.3689 38.6744Z" fill="var(--fill-0, #C6CEDA)"/>
</g>
</svg>
