<svg preserveAspectRatio="none" width="100%" height="100%" overflow="visible" style="display: block;" viewBox="0 0 29.468 29.468" fill="none" xmlns="http://www.w3.org/2000/svg">
<g id="Group">
<path id="Vector" d="M23.3505 2.66282L26.7713 6.08361" stroke="var(--stroke-0, #282D33)" stroke-width="2.07754"/>
<g id="Vector_2">
<path d="M3.46154 22.5531L24.4994 1.51524C25.1347 0.879947 26.1691 0.879947 26.8044 1.51524L27.9528 2.66365C28.5881 3.29894 28.5881 4.33332 27.9528 4.96861L6.91492 26.0065" fill="var(--fill-0, #00418B)"/>
<path d="M3.46154 22.5531L24.4994 1.51524C25.1347 0.879947 26.1691 0.879947 26.8044 1.51524L27.9528 2.66365C28.5881 3.29894 28.5881 4.33332 27.9528 4.96861L6.91492 26.0065" stroke="var(--stroke-0, #00418B)" stroke-width="2.07754"/>
</g>
<path id="Vector_3" d="M23.5056 2.5089L26.959 5.96227L27.9526 4.96861C28.5879 4.33332 28.5879 3.29894 27.9526 2.66365L26.8042 1.51524C26.1689 0.879947 25.1345 0.879947 24.4993 1.51524L23.5056 2.5089Z" fill="var(--fill-0, #CACACA)" stroke="var(--stroke-0, #CACACA)" stroke-width="2.07754"/>
<path id="Vector_4" d="M3.00541 21.9666L0 29.4679L7.50131 26.4625L3.00541 21.9666Z" fill="var(--fill-0, #CACACA)"/>
<path id="Vector_5" d="M3.67328 27.9938L1.46605 25.7947L0 29.468L3.67328 27.9938Z" fill="var(--fill-0, #00418B)"/>
</g>
</svg>
