<svg preserveAspectRatio="none" width="100%" height="100%" overflow="visible" style="display: block;" viewBox="0 0 33.0552 45.0062" fill="none" xmlns="http://www.w3.org/2000/svg">
<g id="Group 3439">
<path id="Vector" d="M28.7595 41.5849C28.9404 41.8489 29.2398 42.0066 29.5597 42.0066H32.0852C32.6209 42.0066 33.0552 41.5723 33.0552 41.0366V0.970006C33.0552 0.434287 32.6209 0 32.0852 0H3.97516C3.43944 0 3.00515 0.434286 3.00515 0.970004V3.70017C3.00515 3.89589 3.06436 4.08703 3.17499 4.24848L28.7595 41.5849Z" fill="var(--fill-0, #CACED7)"/>
<path id="Vector_2" d="M32.0849 0C32.6206 0 33.0549 0.45785 33.0549 0.993569C33.0533 41.2167 32.9556 40.0063 33.0549 40.0063C31.9531 40.0063 31.0516 39.1062 31.0516 38.006V11.574C31.0516 11.3165 30.9492 11.0695 30.767 10.8876L22.1503 2.28391C21.9685 2.10231 21.722 2.00032 21.4649 2.00032H7.01157C6.41505 2.00032 5.61277 1.65971 5.22974 0.934783C4.97947 0.461116 5.44252 0 5.97824 0H32.0849Z" fill="var(--fill-0, #D1D5DD)"/>
<path id="Vector_3" d="M29.7654 10.7166C29.9476 10.8985 30.05 11.1455 30.05 11.403V44.0361C30.05 44.5719 29.6157 45.0061 29.08 45.0061H0.970005C0.434287 45.0061 0 44.5719 0 44.0361V3.96952C0 3.4338 0.434286 2.99951 0.970004 2.99951H21.6353C21.8923 2.99951 22.1388 3.10151 22.3207 3.2831L29.7654 10.7166Z" fill="var(--fill-0, #E6EAF1)"/>
<path id="Vector_4" d="M29.7652 10.7166C29.9474 10.8985 30.0498 11.1455 30.0498 11.403V42.0358C30.0498 42.5715 29.6155 43.0058 29.0798 43.0058H8.01309C4.69757 43.0058 2.00309 40.3154 2.00309 37.0049V3.96952C2.00309 3.4338 2.43737 2.99951 2.97309 2.99951H21.6351C21.8921 2.99951 22.1386 3.10151 22.3205 3.2831L29.7652 10.7166Z" fill="var(--fill-0, #E6EAF1)"/>
<path id="Vector_5" d="M30.0496 11.0008H22.0362V2.99951L30.0496 11.0008Z" fill="var(--fill-0, #C0C5CD)"/>
</g>
</svg>
