<svg preserveAspectRatio="none" width="100%" height="100%" overflow="visible" style="display: block;" viewBox="0 0 37.7553 50.0006" fill="none" xmlns="http://www.w3.org/2000/svg">
<g id="Group 39733">
<path id="Union" d="M20.9616 24.7561C21.4291 24.7562 21.7788 25.1102 21.779 25.4973V27.7912C21.779 28.2153 21.4292 28.5655 20.9616 28.5656H20.1804L21.3376 37.0393L26.5222 25.2502L26.5261 25.2463C26.5374 25.2488 26.549 25.2516 26.5603 25.2541L26.5622 25.2502C28.0212 25.5731 29.3899 26.1141 30.6218 26.8332C30.6647 26.8582 30.7071 26.884 30.7497 26.9094C30.8486 26.9685 30.9466 27.0286 31.0437 27.09C31.0741 27.1093 31.1042 27.1292 31.1345 27.1486C31.2292 27.2098 31.3238 27.2709 31.4167 27.3342C31.5034 27.3931 31.5885 27.4541 31.6735 27.5148C31.6967 27.5314 31.7199 27.5479 31.7429 27.5647C31.8454 27.6389 31.9466 27.7143 32.0466 27.7912C32.069 27.8085 32.0917 27.8255 32.114 27.843C32.9456 28.4915 33.6861 29.2318 34.3161 30.049C34.3363 30.0751 34.3557 30.1019 34.3757 30.1281C34.4429 30.2169 34.5093 30.3062 34.5739 30.3967C34.604 30.4387 34.6333 30.4813 34.6628 30.5236C34.7137 30.597 34.764 30.6708 34.8132 30.7453C34.8667 30.826 34.9189 30.9075 34.9704 30.9895C34.9886 31.0185 35.0072 31.0472 35.0251 31.0764C35.758 32.2655 36.2762 33.5826 36.5261 34.9904C36.5191 34.9949 36.5116 34.9986 36.5046 35.0031C36.5276 35.1384 36.5501 35.2744 36.5681 35.4113L37.7351 45.6457C37.9669 47.8328 36.1771 49.7397 33.7653 49.8098C30.0202 49.9435 24.4489 50.0059 18.8776 50.0002C13.3061 50.0059 7.73419 49.9435 3.98897 49.8098C1.57735 49.7395 -0.211598 47.8327 0.0202167 45.6457L1.18721 35.4113C1.2052 35.2744 1.22672 35.1384 1.24971 35.0031C1.24295 34.9988 1.23597 34.9948 1.2292 34.9904C1.47757 33.5913 1.98977 32.2812 2.71553 31.0979C2.74735 31.0457 2.78053 30.9943 2.81319 30.9426C2.85395 30.8784 2.89519 30.8146 2.93721 30.7512C2.98766 30.6747 3.03922 30.599 3.09151 30.5236C3.12104 30.4813 3.15028 30.4387 3.18037 30.3967C3.24499 30.3062 3.31137 30.2169 3.37862 30.1281C3.39858 30.1019 3.418 30.0751 3.43819 30.049C4.06812 29.2318 4.80876 28.4915 5.64033 27.843C5.66284 27.8254 5.68606 27.8087 5.70869 27.7912C5.80416 27.7178 5.89997 27.6445 5.99776 27.5734C6.03132 27.549 6.06549 27.5253 6.09932 27.5012C6.18204 27.4423 6.26501 27.3835 6.34932 27.3264C6.44676 27.2601 6.54575 27.1959 6.64522 27.132C6.66263 27.1209 6.6795 27.1089 6.69697 27.0979C6.8117 27.025 6.9283 26.9546 7.04561 26.885C7.06947 26.8708 7.09292 26.856 7.1169 26.842C8.35294 26.1182 9.72766 25.5745 11.1931 25.2502L11.194 25.2541C11.2056 25.2515 11.2176 25.2488 11.2292 25.2463L11.2331 25.2502L16.4157 37.0373L17.5749 28.5656H16.7937C16.326 28.5656 15.9763 28.2153 15.9763 27.7912V25.4973C15.9765 25.1101 16.3261 24.7561 16.7937 24.7561H20.9616Z" fill="var(--fill-0, #203A72)"/>
<path id="Vector" d="M23.163 21.8292C24.487 20.6617 25.4792 18.9766 26.1196 17.0844C26.5075 17.6032 27.0953 17.0809 27.1678 16.5962C27.1608 15.8555 28.5689 12.5068 26.989 12.6195C26.982 12.6502 26.9773 12.6672 26.9773 12.6672L25.9559 13.474C25.9559 13.474 25.6334 11.2825 25.3787 9.02501C24.979 5.48973 22.7621 5.13018 22.7621 5.13018C22.3321 5.51363 18.9209 5.99835 15.4385 6.14399C11.9642 6.2885 11.9058 13.4649 11.9058 13.4649L10.84 12.6263C10.84 12.6263 10.8225 12.591 10.7921 12.5227C10.7956 12.5705 10.798 12.6183 10.8015 12.6672C10.7863 12.6377 10.7781 12.6195 10.7781 12.6195C9.17828 12.4943 10.5946 15.8475 10.5876 16.5962C10.6601 17.0809 11.2502 17.6044 11.637 17.0821C12.2774 18.9755 13.2696 20.6617 14.5948 21.8292C15.8487 22.7759 17.3141 23.3197 18.8777 23.3197C20.4413 23.3197 21.9067 22.7759 23.1618 21.8292H23.163Z" fill="var(--fill-0, #E6EAF1)"/>
<path id="Vector_2" d="M26.6456 13.058C26.658 13.0315 26.6659 13.0165 26.6659 13.0165C26.6693 13.0165 26.6726 13.0165 26.6771 13.0165C26.8617 12.2396 29.1736 2.05903 23.2307 2.90982C23.2307 2.90982 22.1974 -1.96631 14.8284 0.905803C7.44131 3.78484 10.6424 11.9036 11.0769 12.9183C10.1494 -1.44222 27.689 -1.41336 26.6456 13.0592V13.058Z" fill="var(--fill-0, #203A72)"/>
<path id="Vector_3" d="M12.0711 13.9831C12.0711 13.9831 12.1281 6.44335 15.519 6.29031C18.9179 6.13727 22.2472 5.62792 22.6669 5.22499C22.6669 5.22499 24.8306 5.60281 25.2206 9.3177C25.4693 11.6887 25.7841 13.9927 25.7841 13.9927L26.7809 13.145C26.7809 13.145 26.7855 13.127 26.7923 13.0948C26.7889 13.0948 26.7855 13.0948 26.7809 13.0948C26.7809 13.0948 26.7729 13.1103 26.7604 13.1378C27.8166 -1.85087 10.0443 -1.88195 10.9841 12.9919C11.0138 13.0625 11.0309 13.1007 11.0309 13.1007L12.0711 13.9819V13.9831Z" fill="var(--fill-0, #203A72)"/>
</g>
</svg>
