<svg preserveAspectRatio="none" width="100%" height="100%" overflow="visible" style="display: block;" viewBox="0 0 20.1227 22.5484" fill="none" xmlns="http://www.w3.org/2000/svg">
<path id="Vector" d="M17.128 0V5.36782H20.1227V7.93351H17.128V13.0561H13.923V0H17.128ZM0 11.839V1.52365H10.1402V4.06308H3.13488V9.29079C7.32055 9.27328 9.61479 9.13317 12.1279 8.60777L12.4082 11.1384C9.62354 11.7426 6.97028 11.839 1.87392 11.839H0ZM1.979 17.9774C1.97024 15.1402 4.99128 13.4589 9.6936 13.4502C14.3434 13.4589 17.3031 15.1402 17.3031 17.9774C17.3031 20.8671 14.3434 22.5571 9.6936 22.5483C4.99128 22.5571 1.97024 20.8671 1.979 17.9774ZM5.09636 17.9774C5.0876 19.3346 6.74261 20.0439 9.6936 20.0439C12.5658 20.0439 14.2295 19.3346 14.2383 17.9774C14.2295 16.6464 12.5658 15.9546 9.6936 15.9633C6.74261 15.9546 5.0876 16.6464 5.09636 17.9774Z" fill="var(--fill-0, white)"/>
</svg>
