<svg preserveAspectRatio="none" width="100%" height="100%" overflow="visible" style="display: block;" viewBox="0 0 20.9897 22.5571" fill="none" xmlns="http://www.w3.org/2000/svg">
<path id="Vector" d="M5.94585 1.59371C9.3872 1.59371 11.8741 4.71107 11.8916 9.61478C11.8741 14.571 9.3872 17.6709 5.94585 17.6709C2.49573 17.6709 -0.0174223 14.571 9.09654e-05 9.61478C-0.0174223 4.71107 2.49573 1.59371 5.94585 1.59371ZM3.05616 9.61478C3.0474 12.9861 4.22079 14.8075 5.94585 14.8075C7.71469 14.8075 8.85305 12.9861 8.86181 9.61478C8.85305 6.27851 7.71469 4.44837 5.94585 4.44837C4.22079 4.44837 3.0474 6.27851 3.05616 9.61478ZM14.5011 22.5571V0H17.6622V8.51145H20.9897V11.1472H17.6622V22.5571H14.5011Z" fill="var(--fill-0, white)"/>
</svg>
