<svg preserveAspectRatio="none" width="100%" height="100%" overflow="visible" style="display: block;" viewBox="0 0 67.936 32.6188" fill="none" xmlns="http://www.w3.org/2000/svg">
<g id="Group">
<path id="Vector" d="M67.207 0H6.04627C5.51062 0 5.05368 0.390191 4.96811 0.919003L0.00686939 31.9323C-0.0941011 32.569 0.946408 32.8907 1.26301 32.3294C4.64467 26.3482 9.40739 22.5506 17.4833 22.5506H63.8835C64.3405 22.5506 64.6845 22.1331 64.5972 21.6847L62.5829 11.2745L67.8539 1.06105C68.1038 0.57673 67.7529 0 67.207 0ZM18.0275 18.3681C14.1102 18.3681 10.9356 15.1918 10.9356 11.2762C10.9356 7.36058 14.1119 4.18429 18.0275 4.18429C21.9431 4.18429 25.1194 7.36058 25.1194 11.2762C25.1194 15.1918 21.9431 18.3681 18.0275 18.3681ZM39.8509 8.36515H35.4869L35.492 11.2779C35.8942 11.9453 36.7173 12.647 37.4926 13.1381C37.9684 13.4393 38.8617 14.0144 39.8509 14.1838V17.8204H39.6061C37.8503 17.8204 34.7989 16.0167 33.3032 14.5415C31.8074 16.0149 28.7561 17.8204 27.0002 17.8204H26.7555V14.1838C27.7447 14.0144 28.638 13.4393 29.1138 13.1381C29.889 12.647 30.7122 11.9436 31.1143 11.2779L31.1195 8.36515H26.7555V4.7285H39.8491V8.36515H39.8509ZM55.1265 8.36515H46.3968V14.1855H55.1265V17.8221H42.0328V4.7285H55.1265V8.36515Z" fill="var(--fill-0, white)"/>
<path id="Vector_2" d="M18.027 14.7298C19.9352 14.7298 21.4823 13.1827 21.4823 11.2746C21.4823 9.36639 19.9352 7.81931 18.027 7.81931C16.1189 7.81931 14.5718 9.36639 14.5718 11.2746C14.5718 13.1827 16.1189 14.7298 18.027 14.7298Z" fill="var(--fill-0, white)"/>
</g>
</svg>
