<svg preserveAspectRatio="none" width="100%" height="100%" overflow="visible" style="display: block;" viewBox="0 0 19.2033 22.5834" fill="none" xmlns="http://www.w3.org/2000/svg">
<path id="Vector" d="M19.142 0V13.3976H15.9896V8.07362H12.4694V5.49917H15.9896V0H19.142ZM0 10.902C3.67779 9.67608 5.36782 6.74261 5.43787 3.91421H0.919447V1.37479H13.1437V3.91421H8.65156C8.73037 6.53245 10.3416 9.17695 13.8355 10.3328L12.2768 12.8197C9.78992 12.0053 8.08237 10.3766 7.09287 8.35383C6.11213 10.6481 4.30826 12.487 1.63749 13.4064L0 10.902ZM3.6953 18.2401C3.68654 15.508 6.63753 13.8968 11.4362 13.8968C16.2523 13.8968 19.1945 15.508 19.2033 18.2401C19.1945 20.9721 16.2523 22.5746 11.4362 22.5834C6.63753 22.5746 3.68654 20.9721 3.6953 18.2401ZM6.83893 18.2401C6.83018 19.5273 8.45015 20.1753 11.4362 20.1665C14.4309 20.1753 16.0597 19.5273 16.0684 18.2401C16.0597 16.9441 14.4309 16.2961 11.4362 16.2961C8.45015 16.2961 6.83018 16.9441 6.83893 18.2401Z" fill="var(--fill-0, white)"/>
</svg>
