<svg preserveAspectRatio="none" width="100%" height="100%" overflow="visible" style="display: block;" viewBox="0 0 20.5606 21.5764" fill="none" xmlns="http://www.w3.org/2000/svg">
<path id="Vector" d="M20.5606 9.28203V11.8127H11.8215V13.4852C15.7444 13.7742 18.0737 15.184 18.0912 17.5045C18.0737 20.1227 15.114 21.5851 10.2365 21.5763C5.30652 21.5851 2.34677 20.1227 2.34677 17.5045C2.34677 15.1752 4.69356 13.7654 8.69534 13.4852V11.8127H0V9.28203H20.5606ZM0.901934 5.94575C5.07009 5.58673 7.38185 4.05432 7.95979 2.49564H1.86516V0H18.7042V2.49564H12.557C13.1174 4.07183 15.4117 5.58673 19.6849 5.94575L18.5816 8.42388C14.3171 8.02108 11.4537 6.41861 10.2453 4.2207C9.05436 6.40986 6.22597 8.02108 1.96149 8.42388L0.901934 5.94575ZM5.56922 17.5045C5.5517 18.6078 7.11915 19.2033 10.2365 19.1945C13.3013 19.2033 14.9126 18.6078 14.9213 17.5045C14.9126 16.3837 13.3013 15.832 10.2365 15.8145C7.11915 15.832 5.5517 16.3837 5.56922 17.5045Z" fill="var(--fill-0, white)"/>
</svg>
