<svg preserveAspectRatio="none" width="100%" height="100%" overflow="visible" style="display: block;" viewBox="0 0 20.5956 21.5763" fill="none" xmlns="http://www.w3.org/2000/svg">
<path id="Vector" d="M20.5956 9.64105V12.1455H0V9.64105H8.75663V7.7146H2.48688V0H18.1262V2.46061H5.63927V5.23647H18.2401V7.7146H11.8565V9.64105H20.5956ZM2.34678 17.4345C2.34678 14.7549 5.31528 13.2663 10.2365 13.2663C15.1315 13.2663 18.0737 14.7549 18.0912 17.4345C18.0737 20.0702 15.1315 21.5676 10.2365 21.5763C5.31528 21.5676 2.34678 20.0702 2.34678 17.4345ZM5.56922 17.4345C5.55171 18.6078 7.11914 19.1683 10.2365 19.1595C13.3013 19.1683 14.9126 18.6078 14.9213 17.4345C14.9126 16.2698 13.3013 15.6744 10.2365 15.6744C7.11914 15.6744 5.55171 16.2698 5.56922 17.4345Z" fill="var(--fill-0, white)"/>
</svg>
