<svg preserveAspectRatio="none" width="100%" height="100%" overflow="visible" style="display: block;" viewBox="0 0 19.1158 22.128" fill="none" xmlns="http://www.w3.org/2000/svg">
<path id="Vector" d="M18.5203 0V16.1998H15.3504V0H18.5203ZM2.11251e-05 7.11039C-0.00873543 3.80914 2.70582 1.42733 6.16469 1.42733C9.62356 1.42733 12.3206 3.80914 12.3206 7.11039C12.3206 10.4642 9.62356 12.8285 6.16469 12.8285C2.70582 12.8285 -0.00873543 10.4642 2.11251e-05 7.11039ZM3.09112 7.11039C3.0736 8.99306 4.40461 10.0789 6.16469 10.0789C7.87224 10.0789 9.20324 8.99306 9.20324 7.11039C9.20324 5.28025 7.87224 4.17692 6.16469 4.17692C4.40461 4.17692 3.0736 5.28025 3.09112 7.11039ZM3.4151 22.128V14.5623H6.61128V19.5798H19.1158V22.128H3.4151Z" fill="var(--fill-0, white)"/>
</svg>
