<svg preserveAspectRatio="none" width="100%" height="100%" overflow="visible" style="display: block;" viewBox="0 0 97.5481 97.6087" fill="none" xmlns="http://www.w3.org/2000/svg">
<path id="Vector" d="M80.7221 29.7562L82.1793 26.8947L80.9127 21.242L79.5134 20.1141L75.0941 19.5151L72.5372 13.8556L74.8864 8.93923L69.3742 0L61.6251 6.39234L61.1416 8.75852L59.0614 8.91581L55.8473 12.6006L58.0297 16.3256L54.8498 22.1155L45.606 24.1671L38.5617 31.6572L38.1122 38.2704L33.7031 41.0583L31.7829 41.4632L30.4517 44.5088L29.2668 44.7999L27.7483 48.2371L20.2444 47.7551L19.4885 42.996L15.9034 41.6105L0 60.339L22.0318 76.2964L34.3602 79.5093L38.4221 83.6627L35.351 87.7324L36.1477 91.3804L50.5496 97.6087L56.8075 95.035L83.1054 93.8737L86.6156 91.5711L91.5354 90.2927L93.2991 87.2638L97.5481 85.644L93.9732 79.1546L74.4336 55.8108L80.8072 51.6341L80.1263 48.8094L80.5757 44.5355L80.7221 29.7562Z" fill="var(--fill-0, #DDE1E6)" fill-opacity="0.67"/>
</svg>
