<svg preserveAspectRatio="none" width="100%" height="100%" overflow="visible" style="display: block;" viewBox="0 0 131.118 106.393" fill="none" xmlns="http://www.w3.org/2000/svg">
<path id="Vector" d="M129.14 62.9964L129.583 51.8081L124.02 44.6159L123.996 44.559L120.268 35.4758L120.006 32.3834L104.272 34.2442L90.3369 20.3986L91.675 10.0303L89.9147 7.72103L90.0612 2.98869L88.495 1.78051L86.2138 4.01948L79.7143 7.21232L69.3606 1.68679L63.7973 4.56501L59.6027 3.53421L54.4071 5.03691L52.1566 2.53018L49.0243 2.95188L41.4454 0L37.084 7.71768L25.5897 8.74513L18.0585 14.9869L6.33955 17.1757L0 27.1758L14.2929 24.6457L14.453 27.6343L18.6646 29.2609L17.3878 37.417L13.7278 39.2142L19.1072 50.4861L21.7424 52.2666L20.2852 54.4922L22.3144 60.4729L22.1748 65.4027L34.0776 67.5714L35.1331 72.3172L40.0972 74.9009L43.6415 81.1125L43.6244 81.2597L43.5155 82.1801C44.7582 82.6922 44.6561 84.3254 44.4926 85.5904C44.2509 87.4613 44.9352 88.6561 46.6036 89.6601C49.695 91.5176 52.4154 93.8537 54.6931 96.6549C55.1323 97.1937 55.6907 97.7192 55.3434 98.509C54.1892 101.13 55.5954 103.248 56.8585 105.296C57.8391 106.886 60.11 106.705 60.9305 105.032C61.5842 103.7 62.4899 103.154 63.8892 103.613C66.1159 104.342 68.0157 104.075 69.6874 102.311C70.2594 101.709 71.1787 101.16 72.0877 101.538C73.8207 102.254 75.3937 101.491 76.8543 100.952C77.9472 100.551 78.8903 100.37 79.8879 100.755C82.1929 101.642 84.4332 100.818 86.6973 100.631C87.0242 100.604 87.5417 100.443 87.6166 100.226C88.4473 97.8664 90.4323 98.3283 92.2572 98.2647C94.1945 98.1944 96.3598 95.9889 96.0466 94.1047C95.7913 92.5618 96.0568 90.9687 95.4951 89.476C95.0558 88.3147 95.5632 87.4948 96.4211 86.725C98.3993 84.9546 100.473 83.328 103.016 82.411C104.276 81.9558 105.055 81.1894 105.488 79.9143C106.373 77.3038 108.634 75.5869 110.105 73.3446C110.551 72.6619 111.415 72.4845 112.168 72.2335C114.643 71.4001 116.986 70.1049 119.771 70.3827C120.492 70.4563 121.847 70.4095 121.933 69.7769C122.202 67.7555 123.788 68.0701 124.905 68.0801C127.067 68.1069 128.841 67.2769 130.591 66.2628C130.771 66.1557 130.948 66.0419 131.118 65.9248L129.14 63.0064V62.9964Z" fill="var(--fill-0, #002C5D)"/>
</svg>
