<svg preserveAspectRatio="none" width="100%" height="100%" overflow="visible" style="display: block;" viewBox="0 0 105.907 73.5824" fill="none" xmlns="http://www.w3.org/2000/svg">
<path id="Vector" d="M100.176 29.4483L94.9162 28.2301L92.8223 21.0278L91.2732 20.1978L88.3043 16.2051L88.4541 12.373L86.8539 8.98946L85.3286 10.4855L82.9419 9.54501L77.3718 10.3683L74.6685 15.2111L66.9398 7.61392L62.7759 7.02823L59.5244 3.27651L57.9003 4.34078L53.5083 2.85146L50.3113 3.48066L49.5043 1.73698L46.9576 0.940443L46.532 3.59778L44.0432 3.41037L40.8019 0.947143H37.4381L35.6472 0L26.5362 5.56234L29.1476 8.9426L28.9468 11.1314H26.9414L19.8153 18.2768L19.9617 23.0693L16.0021 27.2595L12.4033 32.1224L7.05112 34.9805L1.72278 35.5461L0 38.6352L4.68146 40.2785L10.4558 48.1367L14.4496 58.9468L18.2219 60.6938L47.3083 73.5688C47.3083 73.5688 61.5161 73.7864 63.736 72.4778C65.9559 71.1692 75.5026 64.1845 75.5026 64.1845L83.0509 60.0378L87.9366 52.4005L100.146 44.1072L105.907 31.7743L100.17 29.4449L100.176 29.4483Z" fill="var(--fill-0, #CFDDEB)"/>
</svg>
