<svg preserveAspectRatio="none" width="100%" height="100%" overflow="visible" style="display: block;" viewBox="0 0 102.158 136.326" fill="none" xmlns="http://www.w3.org/2000/svg">
<path id="Vector" d="M0.452799 55.6749C1.77042 58.7004 3.13572 61.7025 5.38282 64.2025C5.82203 64.6912 6.06716 65.1898 6.01268 65.8491C5.9514 66.5754 6.25442 67.2113 6.61532 67.8204C7.87506 69.9623 7.65035 71.9704 6.08078 73.8647C5.69605 74.3299 5.00149 74.7817 5.31131 75.4075C6.01949 76.8299 5.662 78.8112 7.5448 79.6312C8.16105 79.8989 8.70921 80.4545 8.54919 81.0335C7.98401 83.1118 8.50153 85.6788 6.87408 87.312L14.8853 92.4225L16.4651 95.2439L20.4078 95.9601L29.1715 106.181L34.7892 108.36L36.9206 110.736L41.8131 110.117L41.4965 116.198L45.1497 122.232L45.6979 123.849L52.3268 127.175L54.5569 126.59L62.9325 131.165L63.0619 133.052L70.3104 131.272L74.6004 131.921L75.1417 136.326L83.6433 130.663L94.2251 118.962L97.3676 113.082L102.158 110.174L100.296 106.248L90.9259 97.0377L87.5961 95.2539L84.3514 88.5838L80.7867 87.1246L77.062 78.4832L59.8784 65.742L56.2592 66.736L50.7777 64.8886L47.9416 60.086L51.2782 42.7932L54.0428 41.759L52.2485 39.4933L52.5617 33.0139L56.1809 30.0487L56.9538 28.1544L53.6717 21.1429L50.8424 18.6529L48.6497 12.4781L43.0048 10.1421L40.3116 0.309227C40.1857 0.275759 40.0597 0.252333 39.9337 0.252333C38.1122 0.255679 36.0251 -0.81529 34.6905 1.4304C34.476 1.79185 33.9857 1.81528 33.4954 1.68475C30.7614 0.955155 28.3952 2.3106 25.9234 3.04354C25.6374 3.12721 25.4229 3.51209 25.2254 3.79322C23.9997 5.55028 21.2351 8.14068 19.1957 9.31206C18.4875 9.71701 17.9189 10.2458 18.4364 10.9486C19.6213 12.5651 19.4476 14.3791 19.5328 16.183C19.5634 16.859 19.6042 17.5853 20.1865 18.1174C20.5201 18.4253 20.6938 18.7968 20.6393 19.2788C20.3295 22.0231 20.738 24.7742 20.8844 27.4951C20.9934 29.463 19.5464 31.3071 20.6018 33.2783C20.6801 33.4222 20.2511 33.8372 20.0468 34.1184C18.7054 35.9758 16.7 36.5515 14.5619 36.933C12.5191 37.2978 11.8994 37.7429 11.7904 39.4732C11.6883 41.0663 11.0244 42.5087 10.8678 44.0717C10.735 45.4271 9.99617 46.5048 8.94072 47.385C8.06571 48.1179 7.25199 48.9178 6.37017 49.644C5.24321 50.5745 4.2116 51.448 2.50925 51.5751C0.0885092 51.7559 -0.401781 52.8335 0.282564 55.1796C0.33023 55.347 0.384705 55.5143 0.452799 55.6716V55.6749Z" fill="var(--fill-0, #DDE1E6)" fill-opacity="0.67"/>
</svg>
