<svg preserveAspectRatio="none" width="100%" height="100%" overflow="visible" style="display: block;" viewBox="0 0 93.7451 50.2987" fill="none" xmlns="http://www.w3.org/2000/svg">
<path id="Vector" d="M10.306 29.2341L12.3625 30.3218H15.808L19.0799 32.8084L20.4418 32.9088L20.9015 30.0373L24.8679 31.279L25.5421 32.7315L28.2624 32.1993L32.457 33.6184L34.3875 32.3566L37.942 36.4631L42.0685 37.0388L49.1401 43.9934L51.4723 39.8166L57.7437 38.8929L59.7967 39.6994L61.826 37.7081L64.0731 42.4706L63.9267 46.2056L66.5857 49.7766L67.5595 50.2987L68.8158 43.4278L72.7687 41.3394L79.4657 32.1759L81.1408 26.4931L85.4512 25.0874L88.3384 24.6992L88.7674 19.3711L93.5067 14.7124L93.7451 11.9848L90.2586 11.7003L89.4449 0L87.6949 0.230928L82.9998 1.81395L75.5299 4.60517L57.3284 4.17009L52.3166 6.19823L36.3111 7.22903L32.2766 5.90707L22.294 4.89633L16.1451 5.03354L15.7093 6.45592L10.6874 7.05501L7.33713 10.4821L11.2764 17.6275L6.34978 19.5017L4.5589 22.584L0 23.7688L1.91685 26.2789L1.09971 34.8533L10.306 29.2341Z" fill="var(--fill-0, #CFDDEB)"/>
</svg>
