<svg preserveAspectRatio="none" width="100%" height="100%" overflow="visible" style="display: block;" viewBox="0 0 79.9083 83.656" fill="none" xmlns="http://www.w3.org/2000/svg">
<path id="Vector" d="M67.379 16.8276L72.0673 9.9098L69.1665 0L62.6363 2.93846L56.6678 3.71491L53.6785 9.51488L52.0408 10.4453L49.1809 10.3717L43.1001 12.3663L40.9449 11.4895L40.0188 11.7572L35.3714 19.5652L27.6802 18.7721L27.3023 19.9535L25.5046 21.1315L22.7434 27.4402L19.1718 28.8023L18.6101 31.5668L9.03605 44.0636L0 51.2257L0.783056 63.6724L2.64887 64.5258L4.99808 64.3819L11.1095 66.6711L22.1203 60.754L27.2376 60.6001L32.5694 63.2976L32.6102 63.331L52.2043 79.6934L63.5045 81.7149L71.6825 83.656L74.8217 74.9611L76.8918 72.0561L79.9083 63.157L78.6452 61.2259L78.6281 61.1322L76.4219 48.1199L71.0561 39.0334L71.4987 35.9778L68.2472 30.4557L68.5502 27.9021L67.2258 21.3759V21.3223L67.379 16.8276Z" fill="var(--fill-0, #CFDDEB)"/>
</svg>
