<svg preserveAspectRatio="none" width="100%" height="100%" overflow="visible" style="display: block;" viewBox="0 0 83.5114 96.1911" fill="none" xmlns="http://www.w3.org/2000/svg">
<path id="Vector" d="M83.5113 67.143L80.2462 61.4234L75.146 58.7694L74.128 54.201L62.0515 52.0022L62.2081 46.4566L60.0904 40.2149L61.2991 38.3674L59.1984 36.9451L53.3287 24.6457L57.3666 22.661L58.4596 15.6863L54.3807 14.1134L54.2445 11.5731L39.9686 14.1L35.2872 15.1375L24.0414 12.5973L20.7389 7.28594L10.6133 1.03079L4.12394 1.91435L2.08792 0.0435106C1.63169 -0.0736265 1.28441 0.0501878 0.916704 0.361438C-0.196633 1.30188 -0.339626 2.62387 0.72945 4.26714C1.16866 4.94319 1.11418 5.56904 1.11418 6.24175C1.11418 6.9613 1.15163 7.67415 1.81214 8.11258C2.54415 8.59786 2.7144 9.36094 2.99018 10.0872C5.66968 17.102 8.77476 23.906 13.3303 29.9771C13.5345 30.2515 13.8307 30.5795 13.8171 30.874C13.7116 33.3071 15.8055 34.4116 17.0822 35.941C18.1513 37.2195 18.3454 37.0622 17.0039 37.9022C15.5331 38.8226 15.3969 39.3514 16.3128 40.8608C17.5521 42.9023 18.9106 44.7062 21.8011 43.5047C22.574 43.1834 22.9247 43.7725 23.1051 44.3983C23.2992 45.0811 22.8123 45.312 22.2778 45.4726C21.9407 45.573 21.5628 45.5831 21.2564 45.7337C19.6357 46.5369 19.2238 48.2739 20.4597 49.6427C21.0385 50.2853 20.7014 50.6869 20.555 51.2592C20.0205 53.4012 20.7763 55.6201 22.6455 56.353C24.8109 57.2031 25.4135 58.7995 25.594 60.7808C25.6417 61.3062 25.5974 62.0325 26.1421 62.1329C27.8411 62.4475 29.5503 62.8558 31.2935 62.7219C31.6986 62.6918 31.8722 62.1128 31.9199 61.661L32.1787 61.6108L32.434 61.6811C32.6519 63.1704 33.4316 64.4623 33.9457 65.8512C34.3645 66.979 34.6403 67.896 33.7891 69.1912C32.3557 71.3733 33.4486 73.7094 36.009 74.362C37.1053 74.6398 37.4491 75.2723 37.6841 76.1057C38.2492 78.1138 39.1004 80.0247 39.6145 82.0596C39.8631 83.0402 40.7824 83.7296 39.5635 84.7303C39.0426 85.1587 39.1379 86.1895 39.6963 86.6447C41.0718 87.7625 41.8072 89.4459 43.295 90.4332C44.4458 91.1963 45.3004 92.0765 45.2016 93.6127C45.1336 94.7171 45.6579 95.3429 46.9551 95.3697C48.528 95.4032 50.0772 95.8048 51.6195 96.0391C53.4342 96.3168 55.712 96.4273 56.8287 94.4159C57.6901 92.863 58.9839 91.4841 58.9634 89.4593C58.9498 88.3515 59.8248 87.3006 60.8633 86.7685C63.1683 85.5837 65.4324 84.1982 68.2481 84.5764C70.5394 84.8843 71.6494 84.1681 72.4631 82.0964C72.7457 81.3702 72.698 80.5167 73.27 79.911C74.7442 78.3514 75.3843 76.4069 76.2593 74.5126C77.1207 72.6451 79.5823 71.7582 80.7978 69.8773C81.4243 68.9101 82.3742 67.9897 83.4228 67.8893L83.5079 67.1464L83.5113 67.143Z" fill="var(--fill-0, #DDE1E6)" fill-opacity="0.67"/>
</svg>
