<svg preserveAspectRatio="none" width="100%" height="100%" overflow="visible" style="display: block;" viewBox="0 0 118.116 76.4604" fill="none" xmlns="http://www.w3.org/2000/svg">
<path id="Vector" d="M109.788 22.4803L108.678 21.1717C108.678 21.1717 95.5802 17.025 87.5859 12.0049C79.5951 6.98472 61.8328 0 61.8328 0L59.1669 0.438427C59.1669 0.438427 42.3681 5.41843 38.5923 4.98335C37.3734 4.84279 35.5553 4.40436 33.4784 3.61786L34.1457 9.9031L31.3471 10.6662L23.901 33.6317L24.0644 36.3727L12.1888 40.0676L0 59.2881L10.6431 57.3035L18.2117 51.0316L29.5119 50.0209L34.03 42.0254L42.14 45.1848L45.5208 44.733L47.7101 47.1728L52.5822 45.7638L56.678 46.7712L62.3639 43.8294L72.7312 49.3616L78.6656 46.4466L81.42 43.739L83.9974 45.7304L83.8475 50.6032L85.6384 52.9493L84.3106 63.244L97.6094 76.4604L112.985 74.6398L115.045 37.4939L118.116 33.3774L111.215 28.1464L110.894 25.4288V21.7239L109.788 22.4836V22.4803Z" fill="var(--fill-0, #CFDDEB)"/>
</svg>
