<svg preserveAspectRatio="none" width="100%" height="100%" overflow="visible" style="display: block;" viewBox="0 0 159.017 142.114" fill="none" xmlns="http://www.w3.org/2000/svg">
<path id="Vector" d="M133.883 81.3528L128.061 75.3419L120.925 72.129L119.457 70.1109L101.215 63.7487L88.5563 58.5378L79.9594 57.9353L76.4628 26.151C75.8295 26.0372 75.472 25.9737 75.472 25.9737L55.2685 11.134C55.2685 11.134 46.389 6.76986 36.8423 4.37022C27.2955 1.97058 22.1885 0.00601204 22.1885 0.00601204C22.1885 0.00601204 18.6373 -0.21153 15.3075 1.97057C13.7448 2.99468 6.86728 10.0597 0 17.2787L3.69409 23.2929L6.81281 36.429L27.241 90.3154L37.8773 88.4278L41.8949 97.5511L43.4985 103.428L51.4995 113.522L49.5282 116.153L51.3395 117.17L51.8842 120.39L58.5506 118.753L69.7419 118.462L88.26 108.86L88.9138 106.129L93.568 107.391L101.075 106.008L101.678 113.569L104.626 113.984L111.759 124.724L112.338 130.273L117.694 133.198V141.745C118.719 141.665 119.791 141.541 120.782 141.919C121.899 142.344 122.542 142.087 123.121 141.016C124.006 139.369 126.056 138.589 126.624 136.635C126.716 136.324 127.319 135.972 127.697 135.959C129.794 135.878 130.403 134.118 130.713 132.779C131.078 131.2 131.939 130.955 133.093 131.099C135.538 131.4 137.959 131.876 140.386 132.294C140.835 132.371 141.346 132.612 141.424 133.017C141.881 135.289 143.91 136.022 145.486 137.231C146.375 137.91 147.287 137.963 148.22 137.602C149.211 137.22 148.796 136.27 148.884 135.537C148.915 135.279 148.918 135.012 148.884 134.754C148.53 132.097 149.817 130.44 152.207 129.456C153.378 128.974 154.482 128.311 155.135 127.277C155.963 125.969 157.113 125.028 158.339 124.212C158.577 124.051 158.805 123.884 159.017 123.713L133.883 81.3628V81.3528Z" fill="var(--fill-0, #002C5D)"/>
</svg>
