<svg width="615" height="494" viewBox="0 0 615 494" fill="none" xmlns="http://www.w3.org/2000/svg">
<path d="M326.864 437.239L327.307 426.05L321.743 418.858L321.72 418.801L317.991 409.718L317.729 406.626L301.996 408.486L288.061 394.641L289.399 384.272L287.639 381.963L287.785 377.231L286.219 376.023L283.938 378.262L277.438 381.455L267.084 375.929L261.521 378.807L257.326 377.776L252.131 379.279L249.88 376.772L246.748 377.194L239.169 374.242L234.808 381.96L223.313 382.987L215.782 389.229L204.063 391.418L197.724 401.418L212.017 398.888L212.177 401.877L216.388 403.503L215.112 411.659L211.452 413.456L216.831 424.728L219.466 426.509L218.009 428.734L220.038 434.715L219.899 439.645L231.801 441.814L232.857 446.559L237.821 449.143L241.365 455.355L241.348 455.502L241.239 456.422C242.482 456.934 242.38 458.568 242.216 459.833C241.975 461.703 242.659 462.898 244.327 463.902C247.419 465.76 250.139 468.096 252.417 470.897C252.856 471.436 253.414 471.961 253.067 472.751C251.913 475.372 253.319 477.49 254.582 479.538C255.563 481.128 257.834 480.947 258.654 479.274C259.308 477.942 260.214 477.397 261.613 477.855C263.84 478.585 265.739 478.317 267.411 476.553C267.983 475.951 268.902 475.402 269.811 475.78C271.544 476.496 273.117 475.733 274.578 475.194C275.671 474.793 276.614 474.612 277.612 474.997C279.917 475.884 282.157 475.06 284.421 474.873C284.748 474.846 285.265 474.686 285.34 474.468C286.171 472.109 288.156 472.57 289.981 472.507C291.918 472.437 294.084 470.231 293.77 468.347C293.515 466.804 293.781 465.211 293.219 463.718C292.78 462.557 293.287 461.737 294.145 460.967C296.123 459.197 298.196 457.57 300.74 456.653C302 456.198 302.779 455.432 303.212 454.157C304.097 451.546 306.358 449.829 307.828 447.587C308.274 446.904 309.139 446.727 309.892 446.476C312.367 445.642 314.709 444.347 317.494 444.625C318.216 444.699 319.571 444.652 319.656 444.019C319.925 441.998 321.512 442.312 322.629 442.322C324.791 442.349 326.564 441.519 328.314 440.505C328.495 440.398 328.672 440.284 328.842 440.167L326.864 437.249V437.239Z" fill="#002C5D"/>
<path d="M267.056 399C275.34 399 282.056 405.686 282.056 413.932C282.056 421.475 276.437 427.709 269.139 428.719C269.139 428.719 267.876 429 267.055 429C266.234 429 264.971 428.719 264.971 428.719C257.674 427.709 252.056 421.474 252.056 413.932C252.056 405.685 258.772 399 267.056 399Z" fill="#2EBE0A"/>
<path d="M273.293 412.858H272.987V419.799H268.492V416.896C268.492 416.104 267.848 415.463 267.053 415.463C266.258 415.463 265.614 416.105 265.614 416.896V419.799H260.983V412.858H260.818L267.055 408.202L273.293 412.858Z" fill="white"/>
<path d="M248.845 434.855H255.595V435.635C255.595 436.55 255.595 437.87 255.265 439.565L253.66 439.385C253.93 438.02 253.975 437 253.99 436.175H248.845V434.855ZM250.63 437.9H252.25V440.555C253.63 440.495 255.025 440.39 256.315 440.21L256.42 441.38C253.66 441.89 250.525 441.95 248.215 441.95L248.035 440.63C248.815 440.63 249.7 440.63 250.63 440.6V437.9ZM257.095 433.85H258.745V438.035H260.47V439.385H258.745V443.87H257.095V433.85ZM250.03 442.97H251.665V445.625H259.18V446.945H250.03V442.97ZM264.73 434.615C266.77 434.615 268.3 435.95 268.3 437.84C268.3 439.73 266.77 441.065 264.73 441.065C262.69 441.065 261.16 439.73 261.16 437.84C261.16 435.95 262.69 434.615 264.73 434.615ZM264.73 436.01C263.605 436.01 262.765 436.715 262.765 437.84C262.765 438.98 263.605 439.685 264.73 439.685C265.855 439.685 266.695 438.98 266.695 437.84C266.695 436.715 265.855 436.01 264.73 436.01ZM269.8 433.865H271.45V437.105H273.31V438.47H271.45V441.695H269.8V433.865ZM262.645 442.31H271.45V447.215H269.8V443.63H262.645V442.31ZM280.976 437.03H283.241V433.865H284.891V441.605H283.241V438.38H280.976V437.03ZM276.086 442.19H284.891V447.05H276.086V442.19ZM283.286 443.48H277.706V445.745H283.286V443.48ZM274.241 434.6H281.411V435.92H278.666V436.025C278.666 437.66 279.731 439.31 281.786 440L280.961 441.305C279.491 440.795 278.456 439.775 277.871 438.5C277.301 439.91 276.191 441.035 274.616 441.59L273.776 440.27C275.891 439.565 277.001 437.81 277.001 436.04V435.92H274.241V434.6Z" fill="white"/>
<path d="M314.634 353.631L313.524 352.322C313.524 352.322 300.426 348.175 292.432 343.155C284.441 338.135 266.679 331.15 266.679 331.15L264.013 331.589C264.013 331.589 247.214 336.569 243.439 336.134C242.22 335.993 240.402 335.555 238.325 334.768L238.992 341.053L236.193 341.817L228.747 364.782L228.911 367.523L217.035 371.218L204.846 390.439L215.489 388.454L223.058 382.182L234.358 381.171L238.876 373.176L246.986 376.335L250.367 375.883L252.556 378.323L257.429 376.914L261.524 377.922L267.21 374.98L277.578 380.512L283.512 377.597L286.266 374.889L288.844 376.881L288.694 381.754L290.485 384.1L289.157 394.394L302.456 407.611L317.831 405.79L319.891 368.644L322.962 364.528L316.061 359.297L315.741 356.579V352.874L314.634 353.634V353.631Z" fill="#CFDDEB"/>
<path d="M299.932 263.878L301.988 264.965H305.434L308.706 267.452L310.068 267.552L310.527 264.681L314.494 265.923L315.168 267.375L317.888 266.843L322.083 268.262L324.013 267L327.568 271.107L331.694 271.682L338.766 278.637L341.098 274.46L347.37 273.536L349.423 274.343L351.452 272.352L353.699 277.114L353.553 280.849L356.212 284.42L357.185 284.942L358.442 278.071L362.395 275.983L369.092 266.819L370.767 261.137L375.077 259.731L377.964 259.343L378.393 254.015L383.133 249.356L383.371 246.628L379.885 246.344L379.071 234.644L377.321 234.874L372.626 236.458L365.156 239.249L346.954 238.814L341.943 240.842L325.937 241.873L321.903 240.551L311.92 239.54L305.771 239.677L305.335 241.099L300.313 241.699L296.963 245.126L300.902 252.271L295.976 254.145L294.185 257.228L289.626 258.412L291.543 260.922L290.726 269.497L299.932 263.878Z" fill="#CFDDEB"/>
<path d="M282.759 195.908L284.216 193.046L282.95 187.393L281.551 186.265L277.131 185.666L274.574 180.007L276.924 175.091L271.411 166.151L263.662 172.544L263.179 174.91L261.098 175.067L257.884 178.752L260.067 182.477L256.887 188.267L247.643 190.318L240.599 197.809L240.149 204.422L235.74 207.21L233.82 207.615L232.489 210.66L231.304 210.951L229.785 214.388L222.281 213.906L221.526 209.147L217.94 207.762L202.037 226.49L224.069 242.448L236.397 245.661L240.459 249.814L237.388 253.884L238.185 257.532L252.587 263.76L258.845 261.186L285.142 260.025L288.653 257.723L293.573 256.444L295.336 253.415L299.585 251.795L296.01 245.306L276.471 221.962L282.844 217.785L282.163 214.961L282.613 210.687L282.759 195.908Z" fill="#DDE1E6" fill-opacity="0.67"/>
<path d="M234.891 224.972H237.789V220.758H238.825V233.036H237.789V225.826H234.891V224.972ZM231.979 221.836H233.029V224.076C233.029 226.288 234.457 228.528 236.207 229.354L235.591 230.208C234.205 229.494 233.057 228.01 232.511 226.26C231.979 228.108 230.817 229.676 229.445 230.418L228.787 229.578C230.537 228.696 231.979 226.344 231.979 224.076V221.836ZM249.59 220.772H250.598V233.022H249.59V226.582H247.798V232.378H246.818V221.052H247.798V225.7H249.59V220.772ZM240.686 222.27H245.222V223.138H241.722V229.088C243.402 229.088 244.578 229.018 245.908 228.738L246.034 229.606C244.564 229.914 243.332 229.97 241.47 229.97H240.686V222.27ZM251.646 227.072H262.748V227.926H257.806V230.446H256.742V227.926H251.646V227.072ZM253.088 221.36H261.306V225.63H253.088V221.36ZM260.27 222.2H254.11V224.776H260.27V222.2ZM253.074 229.242H254.124V231.888H261.516V232.756H253.074V229.242ZM264.51 221.584H272.7V222.648C272.7 223.81 272.7 225.07 272.35 226.848H274.17V227.73H269.144V233.05H268.08V227.73H263.096V226.848H271.286C271.664 225.098 271.664 223.796 271.664 222.648V222.438H264.51V221.584Z" fill="#456482"/>
<path d="M381.563 288.521C388.669 287.865 420.639 299.87 420.639 299.87L430.56 305.048L452.711 257.008L451.04 255.954L442.541 253.939L431.034 251.881L430.938 251.804L411.293 235.395L406.264 232.854L401.61 232.992L390.419 239.006L384.096 236.64L381.71 236.787L380.092 236.047L380.753 245.509L384.372 245.806L384.021 249.772L379.285 254.428L378.826 260.154L375.244 260.633L371.519 261.854L369.936 267.229L369.888 267.293L363.018 276.691L359.273 278.672L357.999 285.626L359.967 292.397L364.805 293.521L370.61 295.878L370.682 295.727C370.682 295.727 374.454 289.181 381.56 288.525L381.563 288.521Z" fill="#002C5D"/>
<path d="M421.947 30.5954L421.916 30.7025L415.723 53.0221L416.591 59.8563L420.163 68.337L419.866 72.1021L423.401 79.0534L424.589 93.0462L426.979 99.2143L425.498 107.658L427.534 113.164L419.935 104.271L413.908 109.389L413.033 115.423L410.32 119.867L406.649 126.25L415.931 135.373L418.004 139.737L436.107 157.532L471.509 147.09L480.926 150.273L488.359 146.18L492.584 148.255L507.646 145.457C506.894 145.145 506.186 145.072 505.171 145.601C503.809 146.317 502.029 146.093 500.463 145.815C498.781 145.517 497.65 143.305 498.399 141.759C498.91 140.704 499.022 139.62 499.291 138.536C499.87 136.21 500.653 134.121 502.876 132.465C506.142 130.031 509.57 127.685 509.638 122.628C509.679 119.472 510.391 116.521 508.028 113.897C507.435 113.237 507.129 112.535 508.385 112.17C509.162 111.945 509.703 111.373 509.417 110.613C508.957 109.389 508.535 108.17 508.3 106.885C508.218 106.433 507.796 106.069 507.34 106.119C505.171 106.35 504.49 104.696 503.66 103.311C503.145 102.457 502.638 101.577 501.624 101.39C499.22 100.945 496.908 100.56 494.416 101.654C491.583 102.899 488.614 104.355 485.271 103.036C484.474 102.725 483.963 102.494 483.728 101.55C483.364 100.074 482.887 98.5483 482.087 97.2665C481.103 95.6935 480.967 94.3615 481.747 92.6446C482.717 90.5094 484.106 88.1901 481.59 86.0515C481.475 85.9544 481.488 85.7235 481.413 85.5662C480.262 83.2101 480.531 80.4222 479.071 78.1464C478.877 77.8452 478.948 77.2428 479.122 76.8813C480.426 74.1436 481.791 71.4026 484.103 69.3511C484.964 68.588 485.049 68.1061 484.552 67.1857C483.395 65.0304 483.902 62.9955 485.203 61.0644C485.543 60.5591 485.921 60.0771 486.217 59.5484C486.435 59.1635 485.581 52.3361 485.226 52.0917C483.31 50.7597 483.378 48.6044 482.979 46.7101C482.751 45.6258 482.472 44.6385 481.645 43.9791C480.055 42.7074 479.789 41.3687 480.933 39.6819C481.206 39.2803 481.277 38.6812 481.27 38.1758C481.246 36.9743 481.764 36.0172 482.39 35.0366C483.146 33.8552 483.899 32.7005 484.876 31.6664C486.432 30.0198 486.946 28.1087 486.217 25.8865C485.982 25.1636 485.417 24.444 485.669 23.6408C486.122 22.2017 484.978 21.7264 484.14 21.8168C482.915 21.9507 482.149 21.4788 481.277 20.8764C480.957 20.6521 480.354 20.5183 480.021 20.6622C477.726 21.6662 475.486 20.7391 473.225 20.5952C469.354 20.3509 468.142 19.0959 468.077 15.217C468.063 14.3669 468.305 13.4499 467.587 12.7337C465.442 10.5951 463.304 8.60373 459.77 9.70482C457.257 10.488 454.397 10.5047 452.477 12.5228C451.476 13.5737 450.4 13.8314 449.171 13.7243C447.564 13.5871 445.752 13.9787 444.561 12.3555C444.292 11.9873 443.761 12.0409 443.318 12.1245C441.731 12.4224 440.158 12.071 438.585 11.994C436.553 11.8936 436.182 11.9706 435.777 13.818C435.188 16.5189 433.063 18.1688 431.473 20.1735C430.952 20.8329 430.04 21.0504 429.11 21.2043C425.791 21.7566 423.162 23.4701 420.83 25.7091L421.937 30.6088L421.947 30.5954Z" fill="#DDE1E6" fill-opacity="0.67"/>
<path d="M446.622 188.162L451.31 181.244L448.409 171.334L441.879 174.272L435.91 175.049L432.921 180.849L431.284 181.779L428.424 181.706L422.343 183.7L420.188 182.823L419.262 183.091L414.614 190.899L406.923 190.106L406.545 191.287L404.747 192.466L401.986 198.774L398.415 200.136L397.853 202.901L388.279 215.398L379.243 222.56L380.026 235.006L381.892 235.86L384.241 235.716L390.352 238.005L401.363 232.088L406.48 231.934L411.812 234.632L411.853 234.665L431.447 251.027L442.747 253.049L450.925 254.99L454.064 246.295L456.134 243.39L459.151 234.491L457.888 232.56L457.871 232.466L455.665 219.454L450.299 210.367L450.741 207.312L447.49 201.79L447.793 199.236L446.468 192.71V192.656L446.622 188.162Z" fill="#CFDDEB"/>
<path d="M247.909 310.526C242.581 306.597 232.441 303.033 228.223 301.868C224.005 300.703 217.713 299.468 217.713 299.468C217.713 299.468 214.826 298.812 215.714 301.798C216.603 304.78 219.933 309.656 220.968 313.511C222.006 317.367 227.852 324.713 234.215 329.007C240.582 333.298 246.428 334.536 254.715 331.915C263.006 329.298 264.187 328.642 263.152 326.825C262.117 325.008 253.234 314.459 247.906 310.529L247.909 310.526Z" fill="#DDE1E6" fill-opacity="0.67"/>
<path d="M215.714 301.798C214.826 298.812 217.713 299.468 217.713 299.468C217.742 299.474 224.014 300.706 228.223 301.868C232.441 303.033 242.581 306.597 247.909 310.526L247.905 310.53C253.233 314.458 262.116 325.006 263.152 326.824C264.187 328.642 263.005 329.298 254.715 331.916L253.945 332.15C246.316 334.381 240.752 333.243 234.811 329.4L234.216 329.007C228.051 324.847 222.373 317.823 221.08 313.883L220.968 313.511C219.997 309.897 217.01 305.385 215.908 302.378L215.714 301.798ZM217.241 300.018C217.022 300.006 216.779 300.02 216.581 300.088C216.4 300.15 216.285 300.244 216.222 300.401C216.148 300.582 216.1 300.947 216.302 301.626L216.488 302.181C216.981 303.525 217.88 305.208 218.833 307.05C219.901 309.114 221.024 311.354 221.561 313.355H221.56C222.044 315.153 223.696 317.87 226.068 320.708C228.426 323.528 231.437 326.396 234.562 328.505H234.56C237.694 330.617 240.663 331.953 243.841 332.454C247.018 332.954 250.453 332.626 254.528 331.338H254.529L257.317 330.44C259.773 329.629 261.269 329.055 262.113 328.55C262.674 328.215 262.81 327.988 262.842 327.864C262.874 327.745 262.857 327.544 262.618 327.123C262.388 326.72 261.672 325.759 260.604 324.445C259.549 323.147 258.182 321.544 256.68 319.873C253.666 316.519 250.149 312.94 247.539 311.016L247.268 310.816C244.677 308.968 241.003 307.191 237.415 305.721C233.709 304.202 230.143 303.028 228.059 302.453C225.967 301.875 223.352 301.278 221.254 300.824C220.207 300.598 219.292 300.408 218.638 300.274C218.311 300.207 218.05 300.154 217.871 300.118C217.781 300.1 217.711 300.086 217.665 300.077C217.641 300.072 217.623 300.07 217.611 300.068C217.605 300.067 217.6 300.066 217.597 300.065L217.595 300.064H217.593L217.577 300.06L217.578 300.061L217.576 300.06C217.573 300.059 217.569 300.058 217.562 300.057C217.548 300.054 217.525 300.05 217.495 300.045C217.434 300.035 217.345 300.024 217.241 300.018Z" fill="white"/>
<path d="M172.965 334.758L176.025 338.915L180.591 339.638L188.17 348.283L189.855 354.461L188.378 360.418L189.828 365.134L193.951 383.37L197.802 388.417L203.607 390.408L216.306 370.378L227.821 366.797L227.688 364.591L227.712 364.511L235.339 340.997L237.868 340.307L237.232 334.306C233.051 332.563 228.093 329.454 224.89 324.564C219.783 316.779 215.122 304.048 208.905 297.793C202.688 291.538 170.939 268.037 169.754 267.311C168.569 266.584 167.977 267.093 167.977 267.093L167.541 269.941L170.724 276.949L177.22 286.033L177.241 286.11L179.001 292.596L184.564 301.612L183.104 305.059L184.789 307.02L182.954 309.366L180.363 309.517L175.991 312.706L175.018 315.096L171.337 314.644L170.918 315.056L171.225 317.318L168.106 319.069L168.988 327.73L167.251 329.293L168.15 332.325L172.958 334.758H172.965Z" fill="#CFDDEB"/>
<path d="M488.386 147.206L481.019 151.262L471.492 148.042L448.691 154.766L450.213 158.853L450.203 158.953L449.174 170.653L452.32 181.396L447.537 188.448L447.394 192.632L448.728 199.198L448.442 201.594L451.701 207.13L451.258 210.185L456.549 219.141L458.766 232.227L459.944 234.028L477.692 237.89L484.485 235.758L493.398 230.852C493.371 230.517 493.385 230.129 493.422 229.67C493.616 227.297 494.273 225.099 495.608 223.104C495.999 222.518 496.343 221.892 496.261 221.156C496.112 219.831 496.874 219.108 497.892 218.418C498.914 217.722 499.956 217.09 501.052 216.511C503.776 215.075 505.975 213.194 506.305 209.894C506.373 209.205 506.598 208.529 506.673 207.836C507.075 204.114 508.648 200.831 510.463 197.612C511.038 196.587 511.709 196.105 512.917 195.992C516.628 195.644 517.037 193.666 516.084 190.694C515.587 189.141 514.735 187.641 513.779 186.299C512.659 184.723 512.573 183.468 513.898 181.955C514.623 181.125 515.144 180.078 515.798 179.147C517.245 177.086 518.828 175.058 518.389 172.276C518.31 171.788 518.481 171.232 518.634 170.737C518.998 169.562 518.61 168.615 517.636 168.009C516.07 167.035 516.186 165.76 516.805 164.391C517.367 163.146 517.34 161.942 517.177 160.593C516.887 158.153 515.76 155.757 516.874 153.18C517.214 152.393 517.204 151.071 516.022 150.399C515.515 150.107 515.447 149.569 515.335 149.05C515.127 148.079 514.535 147.691 513.489 147.53C511.94 147.293 510.422 146.814 509.012 146.135L492.448 149.21L488.383 147.212L488.386 147.206Z" fill="#CFDDEB"/>
<path d="M473.922 315.366C480.803 312.528 504.339 285.031 504.339 285.031C504.339 285.031 507.448 276.52 508.779 272.809L513.808 258.468C512.283 257.417 509.28 256.526 507.462 257.932C507.223 258.116 506.736 258.193 506.457 258.093C504.265 257.286 503.012 258.792 501.622 259.94C501.224 260.272 500.969 260.76 500.591 261.122C499.988 261.697 499.348 261.814 498.817 261.025C497.595 259.204 496.001 257.698 494.568 256.055C493.792 255.164 493.492 254.167 493.833 252.912C494.609 250.074 495.096 247.159 495.763 244.297C496.369 241.694 496.447 238.959 497.693 236.476C498.443 234.99 497.612 233.695 495.858 233.143C494.619 232.751 493.952 232.383 493.632 231.764L484.854 236.596L477.735 238.832L459.963 234.967L456.966 243.805L454.893 246.72L451.781 255.345L453.882 256.67L431.38 305.48L438.625 309.262L451.059 314.061C451.059 314.061 467.044 318.208 473.929 315.369L473.922 315.366Z" fill="#CFDDEB"/>
<path d="M364.49 294.375L359.229 293.157L357.136 285.955L355.586 285.125L352.618 281.132L352.767 277.3L351.167 273.916L349.642 275.412L347.255 274.472L341.685 275.295L338.982 280.138L331.253 272.541L327.089 271.955L323.838 268.203L322.214 269.268L317.822 267.778L314.624 268.407L313.818 266.664L311.271 265.867L310.845 268.525L308.356 268.337L305.115 265.874H301.751L299.96 264.927L290.849 270.489L293.461 273.869L293.26 276.058H291.255L284.129 283.204L284.275 287.996L280.315 292.186L276.717 297.049L271.364 299.907L266.036 300.473L264.313 303.562L268.995 305.205L274.769 313.063L278.763 323.874L282.535 325.621L311.622 338.496C311.622 338.496 325.829 338.713 328.049 337.405C330.269 336.096 339.816 329.111 339.816 329.111L347.364 324.965L352.25 317.327L364.459 309.034L370.22 296.701L364.483 294.372L364.49 294.375Z" fill="#CFDDEB"/>
<path d="M356.752 30.1222C356.558 30.1891 356.377 30.2092 356.211 30.2059L358.655 39.1284L364.263 41.4477L366.51 47.7831L369.305 50.243L369.346 50.33L372.832 57.7833L371.828 60.2532L368.341 63.108L368.062 68.8511L370.415 71.823L366.963 73.1149L363.786 89.5777L366.278 93.7946L371.161 95.4412L374.943 94.4003L392.692 107.56L396.366 116.087L399.906 117.537L403.175 124.254L405.899 125.716L409.525 119.414L412.146 115.117L413.045 108.929L420.045 102.988L424.88 108.648L424.55 107.751L426.031 99.3168L423.685 93.2625L422.503 79.3164L418.935 72.2983L419.232 68.4963L415.697 60.0993L414.792 52.9639L414.816 52.8769L421.002 30.5774L420.072 26.4675C419.923 26.6215 419.773 26.7788 419.626 26.9394C418.799 25.9387 418.339 24.8309 418.51 23.5525C418.826 21.183 418.619 18.9138 417.437 16.7752C417.233 16.4004 417.144 15.9586 417.042 15.5369C416.375 12.7959 416.307 12.7759 414.111 14.7438C414.046 14.8007 413.981 14.8642 413.917 14.9211C412.017 16.5577 409.726 15.8582 409.058 13.4419C408.531 11.5275 407.09 10.5536 405.293 11.0723C404.38 11.3334 403.502 11.8488 402.862 12.5784C400.945 14.7672 398.429 15.8415 395.647 16.4406C394.748 16.6347 393.608 17.5182 392.981 16.4874C392.406 15.5403 391.15 15.4131 390.833 14.3288C390.223 12.2571 389.056 10.3695 389.1 8.08702C389.154 5.34601 388.055 3.01331 385.923 1.19936C384.902 0.329194 384.344 0.372702 383.748 1.61101C383.094 2.97315 382.199 3.2844 380.755 2.95641C378.583 2.46109 376.196 2.71544 374.419 0.931614C374.109 0.62371 373.425 0.650484 372.907 0.576855C371.859 0.42625 370.8 0.342581 369.754 0.181936C367.337 -0.189556 367.364 -0.189556 366.288 2.13311C365.134 4.62311 363.789 6.92569 360.858 7.84605C358.512 8.58234 358.536 8.65263 358.522 11.156C358.522 11.6781 358.468 12.2069 358.533 12.7223C358.73 14.3087 358.308 15.6373 357 16.6548C355.805 17.5852 355.761 18.6762 356.105 20.1321C356.885 23.4286 357.126 26.8022 356.772 30.1356L356.752 30.1222Z" fill="#DDE1E6" fill-opacity="0.67"/>
<path d="M167.276 332.597L166.21 329.002L168.029 327.366L167.133 318.57L170.231 316.83L169.945 314.728L171.008 313.684L174.429 314.106L175.233 312.128L180.037 308.624L182.478 308.483L183.602 307.047L182.032 305.223L183.53 301.689L178.141 292.954L176.367 286.421L170.146 277.72L166.19 279.152L157.978 279.376L147.273 272.643L143.944 283.69L146.582 289.741V289.838L146.13 310.95L111.892 316.298L102.318 297.7L102.999 296.14L100.711 289.802L95.9715 289.135L95.4676 284.922L96.7954 282.746L96.203 278.858L93.5099 278.329L90.6499 282.947L91.1062 287.666L83.483 292.164C84.055 294.698 85.3011 297.181 84.0993 299.882C83.8678 300.407 83.5307 301.04 84.0823 301.592C86.0468 303.55 86.4656 306.325 87.8989 308.574C88.648 309.748 89.3255 310.736 90.861 310.843C91.5726 310.893 92.468 311.1 92.5089 311.894C92.577 313.209 92.9447 314.451 93.1354 315.729C93.2443 316.472 92.9004 317.235 92.2297 317.493C90.2277 318.259 90.0575 320.358 88.8693 321.706C88.5765 322.041 88.4811 322.476 88.6275 322.931C89.8873 326.88 88.5458 330.281 86.2408 333.423C85.3284 334.665 85.2228 336.228 86.0366 337.061C87.538 338.604 87.2963 340.09 86.9524 341.844C86.36 344.866 86.5064 344.997 89.6149 345.599C90.3197 345.736 90.6772 346.278 90.5274 346.841L98.0211 349.367L97.1086 352.654L105.283 357.694L112.413 352.547L116.178 352.687L120.969 346.359L122.93 347.001L130.485 344.963L134.199 346.278L137.805 345.509L140.907 350.877L146.136 349.508L144.877 351.489L145.469 354.053L148.08 353.41L152.483 354.421L155.496 353.173L157.498 355.897H159.578L161.345 350.017L159.772 347.543L161.927 345.576L161.182 342.343L163.109 340.924L167.273 332.593L167.276 332.597Z" fill="#DDE1E6" fill-opacity="0.67"/>
<path d="M501.916 382.966L496.094 376.955L488.957 373.742L487.49 371.724L469.248 365.362L456.589 360.151L447.992 359.549L444.496 327.764C443.862 327.651 443.505 327.587 443.505 327.587L423.301 312.747C423.301 312.747 414.422 308.383 404.875 305.984C395.328 303.584 390.221 301.619 390.221 301.619C390.221 301.619 386.67 301.402 383.34 303.584C381.777 304.608 374.9 311.673 368.033 318.892L371.727 324.906L374.846 338.042L395.274 391.929L405.91 390.041L409.928 399.164L411.531 405.041L419.532 415.135L417.561 417.766L419.372 418.783L419.917 422.003L426.583 420.366L437.775 420.075L456.293 410.473L456.946 407.742L461.601 409.004L469.108 407.622L469.711 415.182L472.659 415.597L479.792 426.337L480.371 431.886L485.726 434.811V443.359C486.751 443.278 487.824 443.154 488.814 443.533C489.931 443.958 490.575 443.7 491.154 442.629C492.039 440.982 494.088 440.203 494.657 438.248C494.749 437.937 495.352 437.585 495.729 437.572C497.827 437.492 498.436 435.731 498.746 434.393C499.11 432.813 499.972 432.569 501.126 432.712C503.57 433.014 505.991 433.489 508.419 433.907C508.868 433.984 509.379 434.225 509.457 434.63C509.913 436.903 511.943 437.636 513.519 438.844C514.408 439.523 515.32 439.577 516.253 439.215C517.244 438.834 516.828 437.883 516.917 437.15C516.948 436.893 516.951 436.625 516.917 436.367C516.563 433.71 517.85 432.053 520.24 431.069C521.411 430.587 522.514 429.925 523.168 428.89C523.995 427.582 525.146 426.641 526.372 425.825C526.61 425.664 526.838 425.497 527.049 425.326L501.916 382.976V382.966Z" fill="#002C5D"/>
<path d="M421 335C429.285 335 436 341.686 436 349.932C436 357.475 430.381 363.709 423.083 364.719C423.083 364.719 421.821 365 421 365C420.178 365 418.915 364.719 418.915 364.719C411.618 363.709 406 357.474 406 349.932C406 341.685 412.716 335 421 335Z" fill="#2EBE0A"/>
<path d="M427.239 348.185H426.933V355.127H422.437V352.223C422.437 351.432 421.793 350.79 420.997 350.79C420.202 350.79 419.558 351.432 419.558 352.223V355.127H414.926V348.185H414.761L421 343.528L427.239 348.185Z" fill="white"/>
<path d="M404.394 369.805H406.254V372.97H408.054V374.53H406.254V377.62H404.394V369.805ZM395.604 376.435C398.559 375.61 400.254 374.05 400.524 372.19H396.219V370.705H402.564C402.564 374.305 400.314 376.81 396.369 377.92L395.604 376.435ZM397.419 380.53C397.419 378.85 399.219 377.8 401.919 377.8C404.619 377.8 406.404 378.85 406.404 380.53C406.404 382.225 404.619 383.275 401.919 383.275C399.219 383.275 397.419 382.225 397.419 380.53ZM399.249 380.53C399.249 381.37 400.254 381.805 401.919 381.805C403.569 381.805 404.574 381.37 404.574 380.53C404.574 379.69 403.569 379.24 401.919 379.24C400.254 379.24 399.249 379.69 399.249 380.53ZM417.19 369.82H419.065V372.67H420.865V374.2H419.065V377.395H417.19V369.82ZM409.045 376.675V370.45H410.905V375.16C412.525 375.115 414.28 374.965 416.11 374.62L416.335 376.12C414.13 376.57 412.075 376.675 410.17 376.675H409.045ZM410.335 383.11V378.025H419.065V383.11H410.335ZM412.18 381.64H417.235V379.48H412.18V381.64ZM423.415 378.385H432.565V383.275H430.69V379.87H423.415V378.385ZM421.495 373.84C421.495 371.92 423.025 370.51 425.035 370.51C426.13 370.51 427.09 370.93 427.735 371.635H430.69V369.82H432.565V377.77H430.69V376.06H427.72C427.075 376.75 426.115 377.155 425.035 377.155C423.025 377.155 421.495 375.775 421.495 373.84ZM423.265 373.84C423.265 374.935 424.015 375.58 425.035 375.58C426.04 375.58 426.805 374.935 426.805 373.84C426.805 372.745 426.04 372.115 425.035 372.115C424.015 372.115 423.265 372.745 423.265 373.84ZM428.5 374.56H430.69V373.135H428.5C428.545 373.36 428.575 373.6 428.575 373.84C428.575 374.095 428.545 374.335 428.5 374.56ZM441.415 372.925H443.5V369.82H445.375V377.605H443.5V374.455H441.415V372.925ZM434.08 376.15C436.24 375.43 437.245 373.705 437.275 371.995H434.59V370.525H441.805V371.995H439.165C439.195 373.57 440.155 375.19 442.225 375.895L441.325 377.35C439.84 376.855 438.835 375.88 438.25 374.665C437.665 376.015 436.6 377.095 435.01 377.62L434.08 376.15ZM436.435 383.11V378.145H445.375V383.11H436.435ZM438.265 381.64H443.545V379.6H438.265V381.64Z" fill="white"/>
<path d="M484.805 435.34L479.504 432.445L478.898 426.645L472.116 416.434L468.847 415.976L468.265 408.697L461.561 409.932L457.629 408.864L457.098 411.08L438.018 420.973L426.711 421.267L419.169 423.121L418.533 419.356L416.201 418.048L418.373 415.149L410.685 405.454L409.04 399.433L405.353 391.062L394.676 392.957L394.54 392.602L373.955 338.304L370.857 325.251L367.374 319.582C359.815 327.537 352.478 335.446 352.478 335.446C352.478 335.446 347.592 339.592 346.261 339.81C344.93 340.027 340.712 341.992 340.044 343.083C339.377 344.174 335.383 350.938 330.943 351.376C326.504 351.812 316.736 352.029 316.736 352.029L316.545 352.16V356.477L316.817 358.733L324.124 364.272L320.682 368.887L318.618 406.113L318.904 409.507L322.554 418.409L328.243 425.765L327.797 436.984L329.571 439.601C331.315 438.142 332.663 436.187 335.005 435.367C335.638 435.146 336.265 434.46 337.164 434.303C340.776 433.68 340.715 433.633 341.638 430.253C341.937 429.149 341.335 428.449 340.984 427.579C339.901 424.895 340.283 424.326 343.153 424.068C343.783 424.011 344.385 424.149 344.995 424.169C346.394 424.216 347.861 424.467 349.179 423.945C350.469 423.436 350.905 423.747 351.103 425.036C351.249 425.996 351.334 426.943 351.208 427.884C351.021 429.273 351.46 430.461 352.264 431.535C352.628 432.024 353.009 432.462 353.234 433.061C354.249 435.749 356.462 437.82 357.289 440.628C357.446 441.164 357.963 441.679 358.447 442.021C359.131 442.502 359.642 443.102 359.928 443.821C360.387 444.979 361.119 445.461 362.382 445.237C363.271 445.076 364.18 445.166 364.943 445.685C366.645 446.836 368.187 446.408 369.485 445.123C370.275 444.34 371 444.052 372.062 444.393C374.098 445.046 375.994 444.095 377.527 443.195C378.929 442.369 380.25 441.786 381.823 441.478C383.151 441.217 384.452 440.601 384.458 438.985C384.462 437.884 384.915 437.412 385.946 437.278C387.063 437.134 387.489 436.498 387.145 435.444C386.838 434.507 387.131 433.751 387.73 433.031C388.847 431.689 389.389 430.163 389.123 428.426C388.98 427.499 389.508 427.114 390.274 427.01C392.167 426.756 393.416 428.021 394.683 429.055C395.612 429.815 394.632 430.638 394.417 431.421C393.893 433.369 393.236 435.327 395.313 436.883C395.541 437.054 395.684 437.529 395.636 437.827C395.347 439.668 396.334 440.869 397.499 442.148C398.898 443.687 398.755 444.564 397.386 446.241C396.896 446.84 396.494 447.516 395.977 448.088C395.061 449.096 395.146 449.939 396.276 450.685C397.832 451.709 398.506 453.329 399.269 454.899C399.552 455.478 399.562 455.987 399.368 456.633C398.792 458.544 398.506 460.461 400.154 462.105C400.563 462.509 400.525 463.129 400.294 463.59C399.296 465.585 398.888 467.904 397.08 469.451C396 470.374 395.793 471.405 396.177 472.724C396.875 475.107 398.013 475.923 400.73 476.188C402.01 476.312 403.654 475.88 404.502 476.988C406.143 479.13 408.836 480.391 409.752 483.129C409.915 483.618 410.324 483.989 410.842 484.223C412.612 485.04 413.453 486.559 413.719 488.337C413.892 489.481 414.386 490.134 415.516 490.204C417.443 490.325 418.747 491.409 419.976 492.721C421.532 494.384 421.485 494.143 423.824 493.243C426.37 492.262 428.88 490.599 431.886 491.76C432.465 491.985 433.115 491.887 433.694 491.593C434.548 491.158 435.403 491.362 436.285 491.519C437.432 491.723 438.471 492.189 439.533 492.614C440.265 492.908 441.194 493.233 441.729 492.436C443.387 489.973 445.743 489.916 448.276 490.472C449.533 490.75 449.904 490.154 449.924 489.116C449.934 488.688 449.924 488.203 449.74 487.835C449.083 486.529 449.291 485.334 449.975 484.116C450.224 483.671 450.493 483.099 450.418 482.64C450.135 480.933 450.823 480.053 452.365 479.207C454.183 478.213 454.429 476.63 453.06 475.602C450.85 473.939 451.538 471.65 451.007 469.618C454.398 468.577 457.34 469.745 460.274 470.505C463.839 471.429 466.182 471.245 467.816 467.419C468.429 465.983 469.362 465.107 471.244 465.153C473.423 465.207 474.567 463.985 474.969 461.867C475.146 460.933 475.466 459.949 475.327 459.046C475.01 456.971 475.888 455.317 476.951 453.724C477.73 452.553 478.411 451.368 478.84 450.029C479.024 449.45 479.361 448.764 479.998 448.691C481.527 448.517 481.693 447.375 482.027 446.294C482.694 444.132 482.994 443.657 484.788 443.44V435.34H484.805Z" fill="#002C5D"/>
<path d="M357 363C365.285 363 372 369.686 372 377.932C372 385.475 366.381 391.709 359.083 392.719C359.083 392.719 357.821 393 357 393C356.178 393 354.915 392.719 354.915 392.719C347.618 391.709 342 385.474 342 377.932C342 369.685 348.716 363 357 363Z" fill="#2EBE0A"/>
<path d="M363.237 376.857H362.932V383.798H358.437V380.895C358.437 380.103 357.792 379.462 356.997 379.462C356.203 379.462 355.559 380.104 355.559 380.895V383.798H350.927V376.857H350.762L357 372.201L363.237 376.857Z" fill="white"/>
<path d="M340.994 397.82H342.854V407.63H340.994V397.82ZM331.679 404.33C333.914 403.565 334.889 401.69 334.889 399.875V398.555H336.779V399.875C336.779 401.645 337.754 403.385 339.929 404.105L338.984 405.59C337.469 405.065 336.434 404.06 335.849 402.77C335.264 404.15 334.184 405.26 332.624 405.815L331.679 404.33ZM333.944 411.02V406.7H335.804V409.52H343.199V411.02H333.944ZM346.035 398.18H347.895V401.465H355.305V402.95H351.525V404.585H356.67V406.07H344.52V404.585H349.68V402.95H346.035V398.18ZM345.96 411.02V406.925H347.805V409.52H355.41V411.02H345.96ZM366.69 397.82H368.565V408.065H366.69V405.545H364.905V404.06H366.69V402.68H364.905V401.195H366.69V397.82ZM357.36 400.715V399.26H360.21V397.775H362.085V399.26H364.755V400.715H357.36ZM357.99 403.865C357.99 402.305 359.31 401.225 361.14 401.225C362.985 401.225 364.275 402.305 364.275 403.865C364.275 405.41 362.985 406.49 361.14 406.49C359.31 406.49 357.99 405.41 357.99 403.865ZM359.685 411.02V407.225H361.545V409.52H368.85V411.02H359.685ZM359.76 403.865C359.76 404.615 360.33 405.05 361.14 405.05C361.95 405.05 362.52 404.615 362.52 403.865C362.52 403.085 361.95 402.65 361.14 402.65C360.33 402.65 359.76 403.085 359.76 403.865ZM377.415 400.925H379.5V397.82H381.375V405.605H379.5V402.455H377.415V400.925ZM370.08 404.15C372.24 403.43 373.245 401.705 373.275 399.995H370.59V398.525H377.805V399.995H375.165C375.195 401.57 376.155 403.19 378.225 403.895L377.325 405.35C375.84 404.855 374.835 403.88 374.25 402.665C373.665 404.015 372.6 405.095 371.01 405.62L370.08 404.15ZM372.435 411.11V406.145H381.375V411.11H372.435ZM374.265 409.64H379.545V407.6H374.265V409.64Z" fill="white"/>
<path d="M614.047 280.935C613.107 280.065 612.777 278.924 613.138 277.83C613.703 276.109 613.274 274.369 613.56 272.656C613.788 271.293 613.516 270.048 612.137 269.285C611.255 268.8 611.048 268.04 611.116 267.073C611.334 263.954 611.259 260.798 611.735 257.722C612.083 255.48 611.95 253.448 611.235 251.33C610.697 249.737 609.832 248.328 609.046 246.875C608.661 246.162 608.303 245.483 608.348 244.677C608.535 241.467 607.548 238.532 606.336 235.613C605.638 233.93 605.222 232.089 603.962 230.717C602.638 229.275 602.9 227.501 602.458 225.858C601.913 223.839 602.495 222.544 604.085 221.44C604.218 221.346 604.299 221.159 604.361 220.998C604.745 219.981 604.875 218.89 605.995 218.19C606.012 218.18 606.029 218.167 606.043 218.153C604.01 218.759 595.117 221.38 591.586 221.955L568.053 238.542C568.053 238.542 564.056 240.724 557.172 240.942C550.291 241.159 551.843 239.415 544.741 242.906C537.635 246.397 533.196 252.726 533.196 252.726L527.2 256.872C527.2 256.872 519.495 281.645 515.379 287.763L525.865 294.433L520.101 312.954L558.098 333.108C557.71 331.586 557.675 330.033 557.842 328.53C558.04 326.726 558.421 324.802 560.934 324.661C561.645 324.621 561.904 324.136 562.231 323.557C562.834 322.499 563.457 321.472 563.835 320.304C564.39 318.573 565.118 316.947 566.497 315.642C568.846 313.419 570.368 310.812 570.593 307.489C570.654 306.552 570.794 305.618 570.705 304.674C570.63 303.891 570.515 303.108 570.967 302.388C573.044 299.098 575.145 295.819 577.195 292.512C578.301 290.725 580.32 289.647 581.093 287.612C581.577 286.344 582.629 285.5 583.405 284.453C584.055 283.576 584.831 283.559 585.747 283.877C586.411 284.108 587.075 284.332 587.753 284.52C588.43 284.707 589.326 285.012 589.649 284.215C590.177 282.927 591.232 283.044 592.043 283.362C593.561 283.961 594.814 283.509 596.087 282.86C597.255 282.264 598.416 282.214 599.683 282.559C601.525 283.057 603.179 282.94 604.861 281.662C607.166 279.911 609.223 280.162 611.443 281.923C611.783 282.194 612.185 282.398 612.583 282.585C613.182 282.867 613.788 282.94 614.245 282.328C614.629 281.816 614.466 281.314 614.047 280.925V280.935Z" fill="#DDE1E6" fill-opacity="0.67"/>
<path d="M605.995 218.191C604.875 218.89 604.745 219.981 604.36 220.998L604.25 221.244C604.205 221.323 604.151 221.393 604.084 221.44L603.799 221.649C602.427 222.709 601.947 223.965 602.457 225.857C602.9 227.5 602.638 229.274 603.962 230.717C605.222 232.089 605.637 233.93 606.335 235.613C607.547 238.532 608.535 241.467 608.347 244.677C608.303 245.483 608.661 246.163 609.046 246.876C609.833 248.328 610.697 249.737 611.235 251.33C611.95 253.449 612.083 255.48 611.736 257.722L611.652 258.3C611.267 261.193 611.321 264.15 611.116 267.074L611.104 267.425C611.11 268.226 611.365 268.861 612.137 269.286C613.515 270.049 613.789 271.293 613.561 272.655L613.515 272.977C613.324 274.587 613.668 276.217 613.138 277.83L613.079 278.035C612.821 279.065 613.166 280.12 614.047 280.936V280.925C614.465 281.313 614.629 281.815 614.245 282.327C613.845 282.863 613.332 282.874 612.808 282.68L612.584 282.586C612.185 282.398 611.783 282.193 611.442 281.922C609.222 280.162 607.166 279.911 604.861 281.661L604.546 281.888C603.077 282.881 601.618 283.012 600.026 282.645L599.683 282.559C598.416 282.214 597.255 282.264 596.088 282.86L595.61 283.093C594.496 283.606 593.371 283.886 592.043 283.362C591.232 283.044 590.177 282.927 589.649 284.216C589.407 284.813 588.842 284.79 588.29 284.663L587.753 284.52C587.414 284.427 587.078 284.324 586.744 284.216L585.747 283.877C584.831 283.559 584.055 283.576 583.405 284.453C582.629 285.5 581.577 286.344 581.094 287.613L580.934 287.983C580.071 289.784 578.232 290.837 577.194 292.512L575.649 294.988C574.096 297.459 572.525 299.921 570.967 302.388C570.514 303.108 570.63 303.891 570.705 304.675C570.793 305.618 570.654 306.552 570.593 307.489L570.535 308.104C570.174 311.137 568.699 313.558 566.497 315.641L566.247 315.89C565.028 317.151 564.355 318.681 563.834 320.304L563.682 320.735C563.302 321.729 562.759 322.631 562.231 323.557C561.905 324.136 561.645 324.621 560.934 324.661L560.705 324.68C558.398 324.922 558.033 326.782 557.842 328.53L557.789 329.096C557.689 330.42 557.758 331.776 558.098 333.108L520.101 312.954L525.865 294.432L515.379 287.763C518.466 283.175 523.572 268.093 525.932 260.839L527.2 256.872L533.195 252.726C533.195 252.726 537.362 246.786 544.082 243.241L544.741 242.906C551.399 239.633 550.451 240.962 555.976 240.962L557.171 240.942C564.056 240.724 568.053 238.542 568.053 238.542L591.586 221.955C595.117 221.38 604.01 218.759 606.043 218.153C606.029 218.167 606.012 218.181 605.995 218.191ZM604.315 219.292C600.945 220.274 594.765 222.025 591.829 222.528L568.408 239.036L568.38 239.056L568.349 239.073L568.348 239.075C568.347 239.075 568.345 239.075 568.344 239.076C568.341 239.077 568.337 239.08 568.332 239.082C568.322 239.088 568.309 239.095 568.291 239.104C568.256 239.122 568.206 239.148 568.141 239.18C568.009 239.244 567.816 239.334 567.566 239.442C567.065 239.658 566.329 239.946 565.376 240.24C563.589 240.79 561.038 241.362 557.839 241.522L557.192 241.547C555.443 241.603 554.225 241.534 553.273 241.454C552.301 241.373 551.689 241.291 551.052 241.304C549.996 241.325 548.887 241.614 546.244 242.857L545.014 243.449C541.543 245.154 538.712 247.56 536.742 249.55C535.759 250.543 534.995 251.428 534.478 252.063C534.22 252.38 534.024 252.634 533.893 252.808C533.827 252.895 533.778 252.962 533.746 253.007C533.73 253.029 533.717 253.047 533.71 253.057C533.706 253.063 533.703 253.067 533.702 253.069L533.7 253.071L533.637 253.161L533.547 253.223L527.724 257.25C527.716 257.275 527.707 257.303 527.698 257.332C527.64 257.516 527.556 257.785 527.446 258.13C527.227 258.821 526.91 259.815 526.516 261.025C525.729 263.446 524.634 266.738 523.412 270.222C522.19 273.705 520.838 277.387 519.532 280.583C518.364 283.439 517.215 285.944 516.22 287.575L526.589 294.171L520.836 312.654L557.254 331.972C557.091 330.788 557.105 329.606 557.232 328.464L557.321 327.768C557.429 327.053 557.61 326.3 557.993 325.662C558.537 324.754 559.452 324.136 560.899 324.055L561.028 324.038C561.142 324.012 561.216 323.96 561.286 323.889C561.413 323.759 561.519 323.575 561.696 323.261L561.697 323.259L562.149 322.466C562.59 321.688 562.985 320.94 563.25 320.118C563.817 318.352 564.585 316.612 566.073 315.203L566.488 314.797C568.512 312.749 569.782 310.392 569.981 307.449C570.046 306.446 570.177 305.611 570.095 304.732L570.039 304.143C569.991 303.511 570.008 302.764 570.446 302.067L573.572 297.134C574.612 295.491 575.648 293.847 576.672 292.195L576.907 291.841C577.482 291.033 578.211 290.357 578.831 289.73C579.564 288.989 580.181 288.288 580.519 287.398L580.631 287.132C580.906 286.524 581.286 286.016 581.667 285.562C582.127 285.014 582.533 284.602 582.91 284.094L583.064 283.903C583.432 283.478 583.863 283.215 584.361 283.121C584.905 283.017 585.449 283.131 585.95 283.305L586.936 283.638C587.263 283.744 587.59 283.845 587.918 283.936L588.428 284.072C588.579 284.107 588.712 284.129 588.834 284.129C588.939 284.129 588.986 284.111 589.003 284.101C589.011 284.097 589.044 284.079 589.08 283.989L589.213 283.703C589.546 283.077 590.034 282.717 590.61 282.594C591.066 282.496 591.519 282.561 591.907 282.673L592.269 282.797L592.27 282.799L592.503 282.881C593.66 283.251 594.648 282.911 595.806 282.321L596.055 282.201C597.299 281.639 598.543 281.618 599.846 281.973C600.711 282.207 601.494 282.287 602.24 282.177C602.981 282.067 603.72 281.763 604.487 281.181L604.951 280.852C606.032 280.138 607.114 279.805 608.221 279.87C609.473 279.945 610.661 280.526 611.826 281.45L612.049 281.609C612.283 281.762 612.551 281.898 612.846 282.037L613.026 282.113C613.193 282.174 613.321 282.195 613.417 282.187C613.508 282.18 613.618 282.145 613.751 281.968L613.752 281.966L613.811 281.873C613.854 281.789 613.852 281.731 613.845 281.692C613.834 281.636 613.799 281.556 613.717 281.46L613.628 281.379C612.536 280.368 612.112 278.986 612.555 277.641C612.806 276.878 612.841 276.096 612.841 275.241C612.84 274.411 612.801 273.477 612.955 272.556L612.989 272.327C613.052 271.804 613.018 271.343 612.874 270.953C612.716 270.523 612.408 270.13 611.839 269.814C611.287 269.51 610.912 269.099 610.702 268.589C610.498 268.097 610.467 267.561 610.504 267.031L610.571 265.883C610.707 263.182 610.708 260.345 611.128 257.631L611.232 256.832C611.408 255.121 611.272 253.533 610.774 251.9L610.653 251.522C610.137 249.993 609.312 248.653 608.505 247.162C608.131 246.47 607.68 245.644 607.735 244.644V244.641L607.757 244.07C607.791 241.601 607.121 239.277 606.206 236.929L605.768 235.844C605.588 235.409 605.426 234.966 605.27 234.537C605.113 234.105 604.961 233.686 604.793 233.279C604.498 232.568 604.165 231.92 603.71 231.36L603.508 231.126C602.739 230.287 602.442 229.357 602.277 228.473C602.196 228.04 602.142 227.594 602.086 227.19C602.042 226.879 601.996 226.583 601.933 226.297L601.865 226.014C601.57 224.922 601.562 223.956 601.897 223.089C602.228 222.234 602.862 221.553 603.704 220.963C603.706 220.959 603.71 220.954 603.714 220.947C603.735 220.91 603.758 220.858 603.786 220.785L604.037 220.042C604.116 219.803 604.204 219.546 604.315 219.292Z" fill="white"/>
<path d="M240.413 455.539L237.148 449.819L232.047 447.165L231.029 442.597L218.953 440.398L219.11 434.852L216.992 428.61L218.2 426.763L216.1 425.341L210.23 413.041L214.268 411.057L215.361 404.082L211.282 402.509L211.146 399.969L196.87 402.495L192.189 403.533L180.943 400.993L177.64 395.681L167.515 389.426L161.025 390.31L158.989 388.439C158.533 388.322 158.186 388.446 157.818 388.757C156.705 389.697 156.562 391.019 157.631 392.663C158.07 393.339 158.016 393.965 158.016 394.637C158.016 395.357 158.053 396.07 158.714 396.508C159.446 396.993 159.616 397.756 159.892 398.483C162.571 405.498 165.676 412.302 170.232 418.373C170.436 418.647 170.732 418.975 170.718 419.27C170.613 421.703 172.707 422.807 173.984 424.337C175.053 425.615 175.247 425.458 173.905 426.298C172.434 427.218 172.298 427.747 173.214 429.256C174.453 431.298 175.812 433.102 178.703 431.9C179.475 431.579 179.826 432.168 180.007 432.794C180.201 433.477 179.714 433.708 179.179 433.868C178.842 433.969 178.464 433.979 178.158 434.129C176.537 434.932 176.125 436.669 177.361 438.038C177.94 438.681 177.603 439.082 177.456 439.655C176.922 441.797 177.678 444.016 179.547 444.749C181.712 445.599 182.315 447.195 182.495 449.176C182.543 449.702 182.499 450.428 183.044 450.528C184.742 450.843 186.452 451.251 188.195 451.117C188.6 451.087 188.774 450.508 188.821 450.056L189.08 450.006L189.335 450.077C189.553 451.566 190.333 452.858 190.847 454.247C191.266 455.375 191.542 456.292 190.69 457.587C189.257 459.769 190.35 462.105 192.91 462.757C194.007 463.035 194.351 463.668 194.585 464.501C195.151 466.509 196.002 468.42 196.516 470.455C196.764 471.436 197.684 472.125 196.465 473.126C195.944 473.554 196.039 474.585 196.598 475.04C197.973 476.158 198.709 477.841 200.196 478.829C201.347 479.592 202.202 480.472 202.103 482.008C202.035 483.113 202.559 483.738 203.856 483.765C205.429 483.799 206.979 484.2 208.521 484.435C210.336 484.712 212.613 484.823 213.73 482.811C214.591 481.258 215.885 479.88 215.865 477.855C215.851 476.747 216.726 475.696 217.765 475.164C220.07 473.979 222.334 472.594 225.149 472.972C227.441 473.28 228.551 472.564 229.364 470.492C229.647 469.766 229.599 468.912 230.171 468.306C231.646 466.747 232.286 464.802 233.161 462.908C234.022 461.041 236.484 460.154 237.699 458.273C238.326 457.306 239.276 456.385 240.324 456.285L240.409 455.542L240.413 455.539Z" fill="#DDE1E6" fill-opacity="0.67"/>
<path d="M581.238 362.503C579.723 361.338 578.378 360.043 577.22 358.53C576.617 357.743 575.763 357.389 575.102 358.51C574.364 359.768 573.448 359.879 572.229 359.226C571.538 358.855 570.744 358.684 569.999 358.429C568.685 357.984 567.36 357.533 566.386 356.381C564.99 354.728 564.933 354.775 563.128 356.016C560.724 357.67 559.751 357.703 557.418 356.154C556.819 355.755 556.203 355.471 555.481 355.361C554.477 355.207 553.765 354.49 552.958 353.972C552.55 353.711 552.243 353.366 552.488 352.904C553.18 351.602 552.257 350.759 551.62 349.862C550.643 348.486 550.548 347.137 551.661 345.822C552.206 345.176 552.448 344.473 552.42 343.66C552.383 342.609 552.924 342.06 553.949 341.876C554.667 341.746 555.709 342.034 555.719 340.825C555.726 339.969 555.76 339.082 555.107 338.356C554.667 337.864 553.823 337.676 553.85 336.813C554.375 336.307 555.021 336.542 555.607 336.501C557.732 336.354 558.508 335.829 558.338 334.269L519.003 313.405L524.784 294.827L514.839 288.502C510.931 293.432 508.316 297.508 507.002 300.306C505.67 303.144 500.342 315.146 495.456 319.075C490.57 323.004 477.251 331.732 468.147 331.076C461.001 330.561 449.891 328.703 445.441 327.93L448.825 358.694L456.806 359.253L456.874 359.283L469.591 364.517L488.071 370.963L489.566 373.018L496.641 376.204L502.661 382.416L502.688 382.463L527.74 424.679C528.7 423.665 529.255 422.423 529.289 420.79C534.144 423.33 538.723 423.049 543.217 420.382C544.188 419.806 544.242 419.2 543.343 418.608C541.651 417.497 539.973 416.345 538.172 415.432C536.738 414.702 536.347 413.675 536.49 412.249C536.551 411.643 536.619 411.031 536.605 410.425C536.585 409.458 537.157 409.019 537.991 408.772C539.145 408.427 540.228 408.407 541.253 409.207C542.942 410.525 544.961 411.215 546.949 411.941C548.202 412.4 549.291 412.838 550.394 411.342C550.98 410.545 552.376 410.281 553.452 409.886C554.3 409.575 555.137 409.234 555.696 408.551C556.819 407.175 558.256 406.168 559.635 405.084C561.031 403.986 562.243 402.714 563.087 401.164C563.84 399.782 564.541 398.39 565.784 397.349C566.128 397.061 566.441 396.636 566.291 396.208C565.729 394.601 567.057 393.236 566.788 391.616C566.625 390.636 567.636 389.939 568.436 389.397C569.086 388.955 569.822 388.614 570.557 388.326C571.613 387.915 572.402 387.295 572.665 386.171C573.073 384.417 574.187 383.293 575.811 382.536C576.917 382.018 577.588 381.194 577.52 379.852C577.462 378.674 578.058 377.704 578.81 376.79C579.794 375.595 580.196 374.246 579.866 372.66C579.58 371.298 579.736 370.039 580.499 368.687C581.098 367.623 581.227 366.244 581.847 365.076C582.354 364.122 582.089 363.148 581.234 362.492L581.238 362.503Z" fill="#CFDDEB"/>
<path d="M158.005 384.507C158.237 385.364 158.897 386.147 159.691 385.608C160.872 384.808 161.917 385.615 163 385.451C163.18 385.621 163.364 385.795 163.541 385.966C162.973 387.184 161.294 387.649 161.158 389.179L161.338 389.343L167.726 388.473L178.321 395.019L181.535 400.186L192.195 402.593L196.492 401.639L203.111 391.197L197.234 389.182L193.094 383.754L193.074 383.657L188.933 365.34L187.422 360.437L188.903 354.463L187.333 348.71L180.112 340.477L175.502 339.747L172.346 335.463L167.978 333.251L163.844 341.518L162.22 342.716L162.952 345.885L160.964 347.699L162.353 349.881L160.273 356.806H157.025L155.179 354.292L152.568 355.373L148.091 354.346L144.781 355.159L143.896 351.324L144.117 350.979L140.464 351.936L137.349 346.538L134.148 347.224L130.461 345.919L122.92 347.953L121.33 347.431L116.648 353.616L112.716 353.469L105.341 358.794L96.0498 353.067L96.9146 349.951L89.969 347.609C89.5945 347.88 89.1349 348.014 88.6821 348.137C87.6606 348.422 86.6358 348.656 85.6383 349.051C84.559 349.479 84.0074 350.169 84.2491 351.243C84.8143 353.733 83.4865 355.929 83.2447 358.285C83.1494 359.212 82.6966 359.854 81.859 360.357C80.5652 361.136 79.8707 362.298 80.0443 363.864C80.1022 364.379 80.1771 365.086 79.6153 365.256C77.6474 365.859 76.0949 368.285 73.5754 366.632C73.1736 366.371 72.6834 366.535 72.4723 367.007C71.5019 369.152 69.9971 371.27 72.1318 373.586C72.5676 374.058 72.5233 374.721 72.6561 375.31C72.7481 375.715 72.9251 376.267 73.2383 376.428C75.036 377.358 76.323 379.135 78.2671 379.698C80.0716 380.22 81.5288 381.418 83.3265 381.846C85.3012 382.318 85.1037 383.868 85.3795 385.317C85.6587 386.783 84.5964 387.07 83.752 387.629C83.3877 387.874 83.0575 388.275 82.6591 388.356C79.9149 388.911 79.5711 390.745 79.9456 393.034C80.0716 393.804 79.9558 394.631 80.1907 395.357C80.8649 397.439 80.1839 399.29 79.36 401.13C79.0808 401.749 78.7403 402.305 77.9572 402.576C75.1756 403.537 74.2836 406.107 73.1634 408.399C72.5404 409.671 73.4154 410.585 74.5764 411.077C75.4582 411.452 76.3264 411.679 76.9631 412.543C77.4363 413.182 78.2501 413.058 78.7131 412.288C79.5132 410.963 80.4052 409.675 81.0283 408.269C81.5322 407.131 82.6353 407.369 82.8192 407.82C83.735 410.053 84.7292 408.674 85.7915 408.078C86.5711 407.643 87.4768 407.563 88.362 407.492C89.6081 407.392 90.8304 407.606 92.0663 407.713C93.6563 407.851 95.1953 407.954 96.2099 406.197C96.8806 405.043 98.1744 404.845 99.509 405.264C101.211 405.799 102.063 407.004 102.226 409.209C102.332 410.625 102.815 411.033 104.214 410.789C104.63 410.715 105.011 410.448 105.42 410.304C107.204 409.671 108.933 408.597 110.867 410.059C111.398 410.461 112.239 410.374 112.944 410.21C114.677 409.812 116.018 410.24 117.111 411.716C117.775 412.613 118.729 412.422 119.083 411.395C119.365 410.582 119.481 409.698 119.549 408.835C119.781 405.973 119.968 403.108 120.155 400.243C120.336 397.452 121.371 396.656 124.064 397.295C124.493 397.395 124.898 397.616 125.33 397.68C127.499 397.991 129.457 397.978 130.989 395.903C131.735 394.889 132.293 393.868 132.749 392.747C133.233 391.555 133.917 390.491 135.354 390.461C137.032 390.424 137.829 389.407 138.629 388.185C139.78 386.431 141.023 384.734 142.292 383.061C142.977 382.161 143.716 381.237 144.972 381.063C149.068 380.497 150.685 377.308 152.66 374.396C153.838 375.092 153.885 375.106 153.497 376.331C152.83 378.442 153.528 380.374 154.202 382.321C154.492 383.158 155.029 383.831 155.952 383.426C157.243 382.86 157.709 383.399 158.005 384.5V384.507Z" fill="#DDE1E6" fill-opacity="0.67"/>
<path d="M182.738 210.67L201.307 225.928L217.653 206.674L222.355 208.491L223.08 213.046L229.195 213.438L230.635 210.178L231.82 209.887L233.158 206.821L235.381 206.353L239.259 203.903L239.699 197.424L247.162 189.492L256.273 187.47L259.01 182.494L256.756 178.652L260.648 174.19L262.415 174.056L262.82 172.055L271.121 165.204L272.687 159.468L271.362 150.498L271.07 145.174L270.017 141.921L270.647 138.356L273.157 135.12L288.297 128.627C288.835 126.944 289.972 125.933 291.082 124.936C291.985 124.123 292.189 123.219 291.882 122.111C291.093 119.27 290.023 116.515 288.828 113.828C287.841 111.606 287.092 109.276 286.418 107C285.914 105.307 285.689 103.292 285.975 101.348C286.176 99.9722 285.825 98.5632 284.818 97.4521C284.055 96.6087 283.844 95.6448 283.946 94.5471C284.324 90.5209 282.863 87.308 279.602 84.8146C278.495 83.9679 277.613 82.9873 276 83.7169C275.513 83.9378 274.726 84.0148 274.212 83.573C272.309 81.9297 269.806 80.7985 269.582 77.7697C269.476 76.3607 268.659 76.0293 267.341 76.6251C265.969 77.2476 264.597 77.8299 263.096 78.0943C259.15 78.7871 256.365 80.9725 254.666 84.5134C254.138 85.6145 253.661 86.739 253.181 87.8602C252.599 89.2056 251.622 90.2565 250.294 90.7886C248.667 91.4379 246.974 92.0905 245.197 92.1039C243.09 92.1206 241.476 92.9339 240.042 94.3831C238.5 95.9393 236.907 97.442 235.174 98.8175C234.077 99.6877 232.923 100.253 231.585 100.287C228.204 100.374 224.898 101.08 221.603 101.615C219.035 102.034 217.013 101.612 215.283 99.9688C213.023 97.8169 209.948 96.9199 207.626 94.8951C207.371 94.6709 206.996 94.5805 206.687 94.4165C206.367 94.2458 206.043 94.0919 205.73 94.4031C205.328 94.8014 205.458 95.28 205.784 95.5611C208.147 97.606 209.339 100.782 212.393 102.154C212.955 102.405 213.486 102.727 214.041 102.988C215.985 103.901 216.009 103.901 215.539 105.856C215.151 107.462 214.865 109.119 214.252 110.642C213.295 113.021 212.866 115.29 214.218 117.663C214.64 118.403 214.541 119.149 213.632 119.651C211.807 120.662 210.565 122.573 208.297 122.928C207.708 123.018 207.381 123.463 207.684 124.092C208.658 126.11 208.723 128.55 210.616 130.14C211.133 130.575 211.143 131.201 211.201 131.813C211.423 134.042 211.324 136.117 209.387 137.761C208.474 138.534 207.827 139.464 208.43 140.95C208.998 142.349 208.729 143.852 207.347 144.953C206.731 145.445 206.404 146.215 206.172 146.974C205.842 148.072 205.556 149.163 204.004 149.073C203.507 149.043 203.248 149.511 203.142 149.943C202.574 152.296 200.868 154.267 200.793 156.784C200.762 157.848 200.357 158.798 199.952 159.776C199.254 161.456 198.961 163.149 199.053 165.064C199.213 168.414 200.279 171.546 200.817 174.796C200.991 175.84 201.297 176.617 199.884 176.948C198.92 177.176 198.648 177.996 198.389 178.903C198.035 180.137 198.461 181.162 198.989 182.149C199.983 184.003 200.35 185.924 199.867 187.956C199.673 188.772 199.652 189.619 200.041 190.245C200.953 191.714 200.293 192.43 199.203 193.481C197.671 194.964 196.074 196.661 197.508 199.174C197.828 199.733 197.753 200.961 197.307 201.132C195.74 201.731 194.896 203.742 192.761 203.244C190.909 202.809 189.003 202.327 187.157 203.465C186.732 203.726 186.085 203.669 185.611 203.388C184.444 202.698 183.307 202.889 182.057 203.21C180.542 203.602 179.262 202.939 178.891 201.607C178.594 200.556 178.336 199.462 179.027 198.337C179.786 197.102 180.317 195.733 180.967 194.385C177.321 193.555 177.107 193.608 175.506 196.095C174.928 196.992 174.168 197.691 173.436 198.448C173.035 198.863 172.612 199.261 172.183 199.656L182.735 210.677L182.738 210.67Z" fill="#DDE1E6" fill-opacity="0.67"/>
<path d="M223.006 149.24H234.066V150.094H223.006V149.24ZM224.448 151.2H225.498V153.888H232.848V154.756H224.448V151.2ZM228.536 143.192C231.154 143.192 232.834 144.102 232.834 145.628C232.834 147.154 231.154 148.064 228.536 148.064C225.918 148.064 224.238 147.154 224.238 145.628C224.238 144.102 225.918 143.192 228.536 143.192ZM228.536 144.06C226.59 144.06 225.316 144.648 225.316 145.628C225.316 146.608 226.59 147.21 228.536 147.21C230.496 147.21 231.756 146.608 231.756 145.628C231.756 144.648 230.496 144.06 228.536 144.06ZM241.358 144.984H243.43V142.772H244.48V150.346H243.43V148.036H241.358V147.154H243.43V145.838H241.358V144.984ZM234.806 143.696H241.246V144.578H240V148.54C240.574 148.498 241.12 148.456 241.652 148.386L241.708 149.17C239.342 149.548 236.57 149.576 234.582 149.576L234.47 148.694L236.038 148.68V144.578H234.806V143.696ZM240.476 150.598C243.01 150.598 244.536 151.396 244.536 152.782C244.536 154.182 243.01 154.994 240.476 154.994C237.928 154.994 236.402 154.182 236.402 152.782C236.402 151.396 237.928 150.598 240.476 150.598ZM240.476 151.424C238.572 151.424 237.438 151.942 237.438 152.782C237.438 153.65 238.572 154.182 240.476 154.182C242.352 154.182 243.5 153.65 243.5 152.782C243.5 151.942 242.352 151.424 240.476 151.424ZM237.074 148.666L238.978 148.596V144.578H237.074V148.666ZM247.292 143.584H255.482V144.648C255.482 145.81 255.482 147.07 255.132 148.848H256.952V149.73H251.926V155.05H250.862V149.73H245.878V148.848H254.068C254.446 147.098 254.446 145.796 254.446 144.648V144.438H247.292V143.584Z" fill="#456482"/>
<path d="M289.581 129.068L273.746 135.862L271.519 138.733L270.964 141.859L271.986 145.008V145.065L272.286 150.427L273.627 159.52L272.027 165.387L277.975 175.032L275.591 180.012L277.77 184.828L281.938 185.394L283.79 186.887L285.193 193.162L283.688 196.12L283.538 210.752L283.102 214.896L283.899 218.182L277.842 222.155L296.428 244.361L299.884 240.83L304.63 240.264L305.086 238.778L311.964 238.624L322.11 239.652L326.07 240.947L341.741 239.94L346.794 237.895L365.006 238.33L372.322 235.596L377.116 233.976L379.03 233.725L378.345 222.868L376.915 223.075L372.169 225.331L370.688 224.501V221.573L368.652 217.302L361.88 217.981L359.637 220.03L355.479 216.924L354.019 208.159L352.555 207.767L347.182 202.335L346.733 199.25L345.609 197.78H339.494L336.917 199.865L334.241 199.092L328.953 199.39L323.754 195.009L319.57 194.855L319.083 192.948L311.661 187.984L311.324 185.655L312.291 182.174L324.789 175.671L324.507 170.384L324.939 167.83L323.605 164.041L324.633 158.546L320.207 150.132L320.506 145.875L318.933 141.237L314.875 136.21L315.171 132.722L314.102 131.437L308.559 131.584L307.637 129.77L307.749 125.463C307.497 125.39 307.238 125.282 306.962 125.132C305.723 124.459 305.022 124.914 304.072 125.386C301.372 126.728 298.634 127.96 295.465 127.501C294.559 127.371 293.599 127.461 292.959 128.107C291.924 129.145 290.814 129.215 289.598 129.068H289.581Z" fill="#CFDDEB"/>
<path d="M315.326 85.3263C316.643 88.3518 318.009 91.3539 320.256 93.8539C320.695 94.3425 320.94 94.8412 320.885 95.5005C320.824 96.2268 321.127 96.8626 321.488 97.4718C322.748 99.6137 322.523 101.622 320.954 103.516C320.569 103.981 319.874 104.433 320.184 105.059C320.892 106.481 320.535 108.463 322.418 109.283C323.034 109.55 323.582 110.106 323.422 110.685C322.857 112.763 323.374 115.33 321.747 116.963L329.758 122.074L331.338 124.895L335.281 125.611L344.044 135.833L349.662 138.011L351.793 140.387L356.686 139.768L356.369 145.849L360.023 151.884L360.571 153.5L367.2 156.827L369.43 156.241L377.805 160.816L377.935 162.704L385.183 160.923L389.473 161.573L390.015 165.977L398.516 160.314L409.098 148.614L412.24 142.734L417.031 139.825L415.168 135.899L405.799 126.689L402.469 124.905L399.224 118.235L395.66 116.776L391.935 108.135L374.751 95.3934L371.132 96.3874L365.65 94.54L362.814 89.7374L366.151 72.4446L368.916 71.4104L367.121 69.1446L367.435 62.6653L371.054 59.7L371.827 57.8058L368.544 50.7943L365.715 48.3043L363.523 42.1295L357.878 39.7934L355.184 29.9606C355.058 29.9271 354.932 29.9037 354.807 29.9037C352.985 29.907 350.898 28.8361 349.563 31.0818C349.349 31.4432 348.858 31.4666 348.368 31.3361C345.634 30.6065 343.268 31.962 340.796 32.6949C340.51 32.7786 340.296 33.1635 340.098 33.4446C338.873 35.2016 336.108 37.7921 334.068 38.9634C333.36 39.3684 332.792 39.8972 333.309 40.6C334.494 42.2165 334.32 44.0304 334.406 45.8344C334.436 46.5104 334.477 47.2367 335.059 47.7688C335.393 48.0767 335.567 48.4482 335.512 48.9301C335.202 51.6745 335.611 54.4255 335.757 57.1465C335.866 59.1144 334.419 60.9584 335.475 62.9297C335.553 63.0736 335.124 63.4886 334.92 63.7697C333.578 65.6272 331.573 66.2028 329.435 66.5844C327.392 66.9492 326.772 67.3943 326.663 69.1246C326.561 70.7176 325.897 72.1601 325.741 73.723C325.608 75.0785 324.869 76.1561 323.814 77.0363C322.939 77.7693 322.125 78.5692 321.243 79.2954C320.116 80.2258 319.084 81.0993 317.382 81.2265C314.961 81.4072 314.471 82.4849 315.155 84.831C315.203 84.9983 315.258 85.1657 315.326 85.323V85.3263Z" fill="#DDE1E6" fill-opacity="0.67"/>
<path d="M308.553 129.569L309.111 130.663L314.521 130.52L316.115 132.434L315.819 135.931L319.751 140.801L321.433 145.764L321.14 149.948L325.594 158.412L324.552 163.977L325.883 167.756L325.43 170.44L325.74 176.21L313.074 182.8L312.264 185.721L312.519 187.465L319.897 192.398L320.299 193.981L324.109 194.118L329.271 198.469L334.344 198.185L336.7 198.867L339.154 196.879H346.066L347.608 198.901L348.048 201.926L353.035 206.97L354.83 207.452L356.328 216.438L359.572 218.861L361.472 217.127L369.204 216.351L371.608 221.391V223.995L372.2 224.326L376.633 222.218L378.577 221.933L387.61 214.771L396.987 202.532L397.606 199.48L401.29 198.078L404.007 191.873L405.761 190.721L406.268 189.138L414.116 189.948L418.647 182.334L420.237 181.876L422.376 182.746L428.283 180.812L431.047 180.882L432.222 180.212L435.307 174.225L441.622 173.402L448.272 170.413L449.276 158.991L447.805 155.045L435.851 158.572L417.561 140.593L412.948 143.395L409.873 149.154L399.142 161.025L389.289 167.585L388.649 162.388L385.24 161.872L377.096 163.873L376.93 161.394L369.32 157.237L367.107 157.816L359.824 154.161L359.188 152.284L355.443 146.095L355.718 140.828L351.435 141.37L349.127 138.796L343.495 136.611L334.793 126.463L330.745 125.727L329.066 122.728L320.987 117.574C320.749 117.718 320.483 117.849 320.183 117.969C319.785 118.123 319.359 118.394 319.121 118.732C317.923 120.426 315.941 120.851 314.195 121.436C312.775 121.912 311.726 122.39 310.916 123.716C310.214 124.86 309.503 125.479 308.669 125.576L308.563 129.586L308.553 129.569Z" fill="#CFDDEB"/>
<path d="M165.083 247.586L171.743 248.895L183.734 258.935L187.285 258.062L187.728 262.864L215.262 286.439L226.364 288.186L235.247 284.257L249.458 289.933L253.456 289.06L257.453 291.242L262.781 303.029L263.435 303.257L265.461 299.622L271.089 299.023L276.097 296.349L279.621 291.59L283.342 287.654L283.192 282.845L290.866 275.15H292.416L292.511 274.14L289.699 270.502L290.587 261.188L288.739 258.761L285.443 260.92L259.05 262.085L252.577 264.749L237.379 258.176L236.398 253.674L239.251 249.889L235.911 246.475L223.668 243.286L201.074 226.92L182.107 211.334L171.518 200.276C169.996 201.699 168.566 203.195 168.137 205.404C167.906 206.592 167.633 207.612 166.115 207.696C165.645 207.723 165.396 208.191 165.287 208.623C164.865 210.27 163.34 211.699 164.474 213.667C164.818 214.263 164.685 215.236 164.321 215.959C163.864 216.86 163.96 217.599 164.627 218.346C165.121 218.898 165.471 219.888 164.957 220.23C163.932 220.909 163.371 222.308 161.777 222.198C158.74 221.99 155.768 222.405 152.884 223.389C152.026 223.68 151.131 223.737 150.256 223.637C148.128 223.399 146.252 224.015 144.43 225.006C144.199 225.133 143.964 225.253 143.726 225.367C143.011 225.712 142.275 226.02 141.557 226.354C141.24 226.321 140.947 226.247 140.668 226.144L143.324 227.941L165.083 247.586Z" fill="#DDE1E6" fill-opacity="0.67"/>
<path d="M81.7805 290.971C82.2708 290.938 82.9857 290.774 83.2581 291.243L90.1322 287.19L89.7032 282.742L93.0603 277.32L97.0267 278.1L97.7655 282.943L96.4309 285.131L96.8156 288.341L101.402 288.987L103.996 296.179L103.346 297.675L112.419 315.303L145.23 310.175L145.663 289.921L142.973 283.749L146.749 271.229L158.247 278.461L166.023 278.25L169.707 276.918L166.82 270.566L165.989 270.007L160.957 261.57C160.957 261.57 146.157 248.692 138.901 243.892C131.649 239.09 112.406 224.25 101.157 218.574C89.9075 212.898 75.9925 205.187 70.6641 197.623C65.6252 190.471 54.771 177.599 53.5998 176.214C53.4636 176.267 53.3172 176.314 53.215 176.385C53.1674 176.418 53.1265 176.455 53.1027 176.502C51.9485 178.674 51.5842 181.281 49.2452 182.814C48.7821 183.118 48.7242 184.069 48.5506 184.738C48.377 185.407 48.2952 186.097 48.1693 186.78C47.6245 189.708 47.7471 192.529 49.8955 194.862C50.6377 195.669 50.9577 196.402 50.5287 197.416C50.018 198.621 50.3585 199.42 51.4786 200.25C52.7214 201.171 53.9232 202.382 52.8814 204.364C51.0088 203.554 49.9806 204.521 49.269 206.168C48.9251 206.964 48.5029 207.714 48.2646 208.567C48.0433 209.364 47.4339 210.097 46.501 209.564C44.928 208.668 44.7101 210.599 43.6376 210.743C41.5642 211.017 42.6809 212.5 42.8409 213.376C43.1678 215.177 42.8103 216.737 41.9319 218.273C41.3701 218.008 41.2611 217.56 41.0092 217.212C40.1955 216.101 39.9878 216.138 39.0923 217.192C38.6089 217.761 38.3637 218.336 38.3978 219.083C38.4386 219.95 38.3808 220.823 38.3535 221.693C38.3399 222.135 38.2854 222.68 37.8088 222.781C36.2086 223.112 35.6366 224.34 34.9046 225.562C34.3905 226.419 33.6244 227.185 32.4736 227.446C30.4512 227.905 28.9055 229.331 27.0601 230.167C26.2158 230.549 25.7153 231.305 25.6948 232.259C25.6608 233.711 24.9526 234.913 24.0299 235.907C23.4137 236.57 23.4137 236.988 23.7848 237.704C24.6326 239.344 24.4283 239.903 22.743 240.034C21.8816 240.1 21.5683 240.368 21.1598 241.034C19.8898 243.092 18.6948 243.009 17.4963 240.88C16.9788 239.96 16.4102 239.883 15.6816 240.606C15.0654 241.218 14.8066 241.971 15.0824 242.758C15.6101 244.267 15.4841 245.967 16.9958 247.199C18.1262 248.119 18.2045 250.73 17.2716 251.215C14.8543 252.477 14.1121 255.241 11.899 256.63C10.5916 257.45 10.5882 258.458 11.5381 259.562C11.3645 259.716 11.1908 259.867 11.0172 260.017C9.9413 259.883 8.81434 259.589 7.78272 259.89C7.63631 259.933 7.48991 259.987 7.34692 260.057C6.18251 260.626 5.14067 261.125 3.87412 260.425C3.53706 260.241 3.03316 260.379 2.94464 260.683C2.55991 262.012 1.35464 262.457 0.394516 263.183C-0.10257 263.558 -0.153641 264.338 0.377493 264.485C1.86194 264.9 2.23646 266.409 3.32596 267.082C4.17033 267.601 4.45973 268.24 4.35418 268.986C4.16012 270.339 4.89213 270.897 5.97823 271.282C6.63193 271.513 7.44906 271.563 7.59205 272.42C7.77591 273.518 8.64411 274.214 9.13438 275.131C10.292 277.293 10.326 277.276 12.8115 276.503C16.063 275.493 16.9754 275.831 18.5926 278.752C18.9399 279.378 19.1817 280.064 20.0226 280.121C23.3524 280.359 26.529 281.6 29.9712 281.38C31.3126 281.293 33.0728 280.874 34.2406 282.159C35.3914 283.424 36.7737 284.321 38.3093 285.031C38.9868 285.346 39.4635 285.707 39.4669 286.57C39.4737 288.331 40.461 289.255 42.2315 289.465C42.7081 289.522 43.321 289.419 43.7057 290.198C42.3609 291.269 41.8127 292.565 43.0588 294.178C43.3176 294.512 43.0758 295.195 43.1201 295.714C43.2086 296.664 43.2529 297.632 43.4708 298.555C43.7738 299.834 44.3152 300.105 45.2923 299.355C46.518 298.415 47.8663 297.913 49.3303 297.498C52.0609 296.721 52.5954 295.928 51.9757 293.11C51.7102 291.898 51.8872 291.269 53.0482 290.955C53.7121 290.774 54.2603 290.496 54.1582 289.74C53.913 287.959 55.2204 287.454 56.4938 287.119C58.3664 286.621 60.2968 286.336 62.2035 285.958C62.8708 285.824 63.3849 286.172 63.9433 286.44C64.8557 286.872 65.4277 287.665 66.1563 288.291C68.2059 290.048 70.3986 291.253 73.296 291.179C76.1253 291.109 78.958 291.162 81.7873 290.975L81.7805 290.971Z" fill="#CFDDEB"/>
<path d="M407 232.854C415.285 232.854 422 239.539 422 247.786C422 255.328 416.381 261.563 409.083 262.572C409.083 262.572 407.821 262.853 407 262.854C406.178 262.854 404.915 262.572 404.915 262.572C397.618 261.562 392 255.328 392 247.786C392 239.539 398.716 232.854 407 232.854Z" fill="#2EBE0A"/>
<path d="M413.237 246.71H412.932V253.651H408.437V250.748C408.437 249.957 407.792 249.315 406.997 249.315C406.203 249.315 405.559 249.957 405.559 250.748V253.651H400.927V246.71H400.762L407 242.055L413.237 246.71Z" fill="white"/>
<path d="M384.859 268.379H386.749V269.519C386.749 271.319 387.664 272.969 389.779 273.644L388.804 275.114C387.379 274.619 386.419 273.689 385.849 272.489C385.249 273.869 384.169 274.964 382.564 275.519L381.604 274.019C383.869 273.269 384.859 271.454 384.859 269.594V268.379ZM383.809 278.504C383.809 276.869 385.564 275.894 388.399 275.894C391.234 275.894 392.989 276.869 392.989 278.504C392.989 280.154 391.234 281.129 388.399 281.129C385.564 281.129 383.809 280.154 383.809 278.504ZM385.654 278.504C385.654 279.284 386.614 279.674 388.399 279.674C390.184 279.674 391.129 279.284 391.129 278.504C391.129 277.724 390.184 277.349 388.399 277.349C386.614 277.349 385.654 277.724 385.654 278.504ZM388.579 271.664V270.149H391.069V267.674H392.944V275.549H391.069V271.664H388.579ZM394.52 274.019H399.68V272.864H395.99V268.244H405.215V269.714H397.85V271.394H405.29V272.864H401.51V274.019H406.67V275.504H394.52V274.019ZM395.9 278.654C395.9 277.094 397.655 276.179 400.55 276.179C403.46 276.179 405.215 277.094 405.215 278.654C405.215 280.244 403.46 281.129 400.55 281.129C397.655 281.129 395.9 280.244 395.9 278.654ZM397.775 278.654C397.775 279.374 398.735 279.704 400.55 279.704C402.38 279.704 403.325 279.374 403.325 278.654C403.325 277.949 402.38 277.604 400.55 277.604C398.735 277.604 397.775 277.949 397.775 278.654ZM407.765 268.964H415.31V270.494H412.505V271.349C412.505 273.539 413.63 275.849 415.85 276.779L414.83 278.264C413.285 277.589 412.19 276.254 411.575 274.619C410.975 276.389 409.88 277.859 408.305 278.594L407.24 277.124C409.46 276.119 410.6 273.629 410.6 271.349V270.494H407.765V268.964ZM416.6 281.129V267.674H418.475V281.129H416.6ZM427.415 270.779H429.5V267.674H431.375V275.459H429.5V272.309H427.415V270.779ZM420.08 274.004C422.24 273.284 423.245 271.559 423.275 269.849H420.59V268.379H427.805V269.849H425.165C425.195 271.424 426.155 273.044 428.225 273.749L427.325 275.204C425.84 274.709 424.835 273.734 424.25 272.519C423.665 273.869 422.6 274.949 421.01 275.474L420.08 274.004ZM422.435 280.964V275.999H431.375V280.964H422.435ZM424.265 279.494H429.545V277.454H424.265V279.494Z" fill="white"/>
<path d="M354.448 111.772H355.498V114.978H357.332V115.86H355.498V119.122H354.448V111.772ZM352.194 112.682C352.194 115.804 350.01 118.086 346.482 119.136L346.034 118.282C348.988 117.414 350.85 115.706 351.06 113.55H346.566V112.682H352.194ZM351.676 119.276C354.098 119.276 355.638 120.172 355.638 121.642C355.638 123.112 354.098 123.994 351.676 123.994C349.24 123.994 347.7 123.112 347.7 121.642C347.7 120.172 349.24 119.276 351.676 119.276ZM351.676 120.116C349.898 120.116 348.736 120.69 348.736 121.642C348.736 122.566 349.898 123.154 351.676 123.154C353.468 123.154 354.616 122.566 354.616 121.642C354.616 120.69 353.468 120.116 351.676 120.116ZM357.442 117.778H368.502V118.646H363.49V120.116H367.13V124.022H366.094V120.97H358.674V120.116H362.44V118.646H357.442V117.778ZM358.926 112.066H359.962V113.48H366.01V112.066H367.06V116.616H358.926V112.066ZM359.962 114.306V115.776H366.01V114.306H359.962ZM370.292 112.584H378.482V113.648C378.482 114.81 378.482 116.07 378.132 117.848H379.952V118.73H374.926V124.05H373.862V118.73H368.878V117.848H377.068C377.446 116.098 377.446 114.796 377.446 113.648V113.438H370.292V112.584Z" fill="#456482"/>
<path d="M378.434 65.752H386.68V66.62H379.484V70.512H386.82V71.38H383.054V74.572H388.108V75.454H377.006V74.572H382.018V71.38H378.434V65.752ZM388.442 70.946H393.454V69.588H389.926V65.094H390.962V66.48H397.01V65.094H398.06V69.588H394.49V70.946H399.502V71.8H388.442V70.946ZM393.972 72.724C396.576 72.724 398.144 73.508 398.144 74.866C398.144 76.238 396.576 76.994 393.972 76.994C391.354 76.994 389.786 76.238 389.786 74.866C389.786 73.508 391.354 72.724 393.972 72.724ZM393.972 73.55C392.012 73.55 390.85 74.026 390.85 74.866C390.85 75.692 392.012 76.196 393.972 76.196C395.918 76.196 397.094 75.692 397.094 74.866C397.094 74.026 395.918 73.55 393.972 73.55ZM390.962 67.306V68.748H397.01V67.306H390.962ZM401.292 65.584H409.482V66.648C409.482 67.81 409.482 69.07 409.132 70.848H410.952V71.73H405.926V77.05H404.862V71.73H399.878V70.848H408.068C408.446 69.098 408.446 67.796 408.446 66.648V66.438H401.292V65.584Z" fill="#456482"/>
<path d="M442.392 104.822H443.442V109.358H450.834V110.226H447.068V113.544H452.108V114.412H441.006V113.544H446.018V110.226H442.392V104.822ZM461.374 103.772H462.424V113.096H461.374V111.794H458.868V111.024H461.374V103.772ZM454.122 112.186H455.172V114.874H462.732V115.742H454.122V112.186ZM452.358 109.456C454.626 109.456 457.664 109.428 460.282 109.106L460.352 109.862C459.26 110.044 458.112 110.156 456.992 110.212V112.648H455.942V110.268C454.71 110.324 453.534 110.338 452.512 110.338L452.358 109.456ZM456.348 104.276C458.14 104.276 459.358 105.116 459.358 106.404C459.358 107.706 458.14 108.532 456.348 108.532C454.556 108.532 453.338 107.706 453.338 106.404C453.338 105.116 454.556 104.276 456.348 104.276ZM456.348 105.06C455.172 105.06 454.332 105.592 454.332 106.404C454.332 107.216 455.172 107.734 456.348 107.734C457.538 107.734 458.35 107.216 458.35 106.404C458.35 105.592 457.538 105.06 456.348 105.06ZM465.292 104.584H473.482V105.648C473.482 106.81 473.482 108.07 473.132 109.848H474.952V110.73H469.926V116.05H468.862V110.73H463.878V109.848H472.068C472.446 108.098 472.446 106.796 472.446 105.648V105.438H465.292V104.584Z" fill="#456482"/>
<path d="M195.524 250.004H201.11V257.9H195.524V250.004ZM200.088 250.858H196.546V257.046H200.088V250.858ZM203.364 248.772H204.414V253.7H206.444V254.582H204.414V261.022H203.364V248.772ZM206.442 258.6H211.44V255.744H207.464V254.89H209.354V250.816H207.436V249.962H216.494V250.816H214.562V254.89H216.48V255.744H212.476V258.6H217.544V259.482H206.442V258.6ZM210.418 254.89H213.526V250.816H210.418V254.89ZM219.292 249.584H227.482V250.648C227.482 251.81 227.482 253.07 227.132 254.848H228.952V255.73H223.926V261.05H222.862V255.73H217.878V254.848H226.068C226.446 253.098 226.446 251.796 226.446 250.648V250.438H219.292V249.584Z" fill="#456482"/>
<path d="M298.006 302.862H300.764V301.112C299.784 300.72 299.238 300.104 299.238 299.278C299.238 297.836 300.89 297.01 303.536 297.01C306.182 297.01 307.834 297.836 307.834 299.278C307.834 300.104 307.288 300.72 306.322 301.098V302.862H309.066V303.702H298.006V302.862ZM303.536 304.668C306.154 304.668 307.722 305.452 307.722 306.824C307.722 308.224 306.154 309.008 303.536 309.008C300.918 309.008 299.35 308.224 299.35 306.824C299.35 305.452 300.918 304.668 303.536 304.668ZM303.536 305.48C301.576 305.48 300.4 305.984 300.4 306.824C300.4 307.692 301.576 308.182 303.536 308.182C305.482 308.182 306.658 307.692 306.658 306.824C306.658 305.984 305.482 305.48 303.536 305.48ZM303.536 297.822C301.562 297.822 300.316 298.368 300.316 299.278C300.316 300.174 301.562 300.72 303.536 300.72C305.51 300.72 306.756 300.174 306.756 299.278C306.756 298.368 305.51 297.822 303.536 297.822ZM301.8 302.862H305.286V301.392C304.768 301.476 304.18 301.532 303.536 301.532C302.892 301.532 302.318 301.49 301.8 301.392V302.862ZM312.494 297.5H313.516V299.068C313.516 300.776 314.79 302.344 316.568 302.974L316.036 303.8C314.65 303.296 313.572 302.246 313.04 300.944C312.536 302.414 311.43 303.548 309.988 304.122L309.414 303.282C311.262 302.61 312.494 300.958 312.494 299.04V297.5ZM317.884 296.758H318.934V300.538H320.768V301.42H318.934V305.816H317.884V296.758ZM311.374 304.948H312.424V307.874H319.494V308.742H311.374V304.948ZM322.292 297.584H330.482V298.648C330.482 299.81 330.482 301.07 330.132 302.848H331.952V303.73H326.926V309.05H325.862V303.73H320.878V302.848H329.068C329.446 301.098 329.446 299.796 329.446 298.648V298.438H322.292V297.584Z" fill="#456482"/>
<path d="M116.436 322.5C118.27 322.5 119.614 323.676 119.614 325.384C119.614 327.092 118.27 328.254 116.436 328.254C114.588 328.254 113.258 327.092 113.258 325.384C113.258 323.676 114.588 322.5 116.436 322.5ZM116.436 323.396C115.19 323.396 114.28 324.208 114.28 325.384C114.28 326.56 115.19 327.372 116.436 327.372C117.682 327.372 118.606 326.56 118.606 325.384C118.606 324.208 117.682 323.396 116.436 323.396ZM121.448 321.772H122.498V323.634H124.304V324.516H122.498V326.238H124.304V327.12H122.498V329.038H121.448V321.772ZM118.62 329.43C121.098 329.43 122.624 330.27 122.624 331.712C122.624 333.154 121.098 333.994 118.62 333.994C116.128 333.994 114.602 333.154 114.602 331.712C114.602 330.27 116.128 329.43 118.62 329.43ZM118.62 330.284C116.772 330.284 115.624 330.816 115.624 331.712C115.624 332.608 116.772 333.154 118.62 333.154C120.454 333.154 121.588 332.608 121.588 331.712C121.588 330.816 120.454 330.284 118.62 330.284ZM133.444 321.786H134.494V331.124H133.444V328.478H131.302V327.624H133.444V325.902H131.302V325.048H133.444V321.786ZM124.442 323.284H127.41V321.758H128.46V323.284H131.33V324.138H124.442V323.284ZM127.914 324.838C129.552 324.838 130.686 325.762 130.686 327.176C130.686 328.562 129.552 329.5 127.914 329.5C126.29 329.5 125.156 328.562 125.156 327.176C125.156 325.762 126.29 324.838 127.914 324.838ZM127.914 325.664C126.864 325.664 126.15 326.294 126.15 327.176C126.15 328.072 126.864 328.674 127.914 328.674C128.978 328.674 129.692 328.072 129.692 327.176C129.692 326.294 128.978 325.664 127.914 325.664ZM126.64 330.312H127.69V332.874H134.788V333.742H126.64V330.312ZM137.292 322.584H145.482V323.648C145.482 324.81 145.482 326.07 145.132 327.848H146.952V328.73H141.926V334.05H140.862V328.73H135.878V327.848H144.068C144.446 326.098 144.446 324.796 144.446 323.648V323.438H137.292V322.584Z" fill="#456482"/>
<path d="M110.42 366.584H118.61V367.648C118.61 368.81 118.61 370.07 118.26 371.848H120.08V372.73H115.054V378.05H113.99V372.73H109.006V371.848H117.196C117.574 370.098 117.574 368.796 117.574 367.648V367.438H110.42V366.584ZM120.442 375.614H125.454V373.262H121.842V369.51H129.122V367.536H121.814V366.682H130.158V370.35H122.878V372.408H130.438V373.262H126.49V375.614H131.544V376.482H120.442V375.614ZM133.292 366.584H141.482V367.648C141.482 368.81 141.482 370.07 141.132 371.848H142.952V372.73H137.926V378.05H136.862V372.73H131.878V371.848H140.068C140.446 370.098 140.446 368.796 140.446 367.648V367.438H133.292V366.584Z" fill="#456482"/>
<path d="M196.434 447.43H204.652V448.326C204.652 449.292 204.652 450.412 204.316 451.952H206.108V452.82H195.006V451.952H203.28C203.63 450.412 203.63 449.292 203.63 448.326V448.298H196.434V447.43ZM196.378 454.528H204.708V458.868H196.378V454.528ZM203.686 455.368H197.4V458.014H203.686V455.368ZM206.778 448.438H209.536V446.856H210.572V448.438H213.316V449.278H210.572V449.684C210.572 451.336 211.86 452.778 213.652 453.352L213.134 454.178C211.734 453.716 210.614 452.736 210.068 451.462C209.55 452.834 208.444 453.884 207.002 454.402L206.47 453.576C208.276 452.96 209.536 451.434 209.536 449.684V449.278H206.778V448.438ZM212.882 450.552H215.444V446.786H216.494V455.928H215.444V451.434H212.882V450.552ZM208.696 455.102H209.746V457.874H216.844V458.742H208.696V455.102ZM219.292 447.584H227.482V448.648C227.482 449.81 227.482 451.07 227.132 452.848H228.952V453.73H223.926V459.05H222.862V453.73H217.878V452.848H226.068C226.446 451.098 226.446 449.796 226.446 448.648V448.438H219.292V447.584Z" fill="#456482"/>
<path d="M549.448 268.772H550.498V271.978H552.332V272.86H550.498V276.122H549.448V268.772ZM547.194 269.682C547.194 272.804 545.01 275.086 541.482 276.136L541.034 275.282C543.988 274.414 545.85 272.706 546.06 270.55H541.566V269.682H547.194ZM546.676 276.276C549.098 276.276 550.638 277.172 550.638 278.642C550.638 280.112 549.098 280.994 546.676 280.994C544.24 280.994 542.7 280.112 542.7 278.642C542.7 277.172 544.24 276.276 546.676 276.276ZM546.676 277.116C544.898 277.116 543.736 277.69 543.736 278.642C543.736 279.566 544.898 280.154 546.676 280.154C548.468 280.154 549.616 279.566 549.616 278.642C549.616 277.69 548.468 277.116 546.676 277.116ZM552.456 274.848H557.454V273.406H553.856V269.346H562.13V270.2H554.892V272.538H562.214V273.406H558.49V274.848H563.516V275.702H552.456V274.848ZM557.972 276.612C560.576 276.612 562.158 277.41 562.158 278.81C562.158 280.224 560.576 281.008 557.972 281.008C555.354 281.008 553.786 280.224 553.786 278.81C553.786 277.41 555.354 276.612 557.972 276.612ZM557.972 277.438C556.026 277.438 554.836 277.942 554.836 278.81C554.836 279.692 556.026 280.182 557.972 280.182C559.918 280.182 561.094 279.692 561.094 278.81C561.094 277.942 559.918 277.438 557.972 277.438ZM565.292 269.584H573.482V270.648C573.482 271.81 573.482 273.07 573.132 274.848H574.952V275.73H569.926V281.05H568.862V275.73H563.878V274.848H572.068C572.446 273.098 572.446 271.796 572.446 270.648V270.438H565.292V269.584Z" fill="#456482"/>
<path d="M327.724 255.526H338.798V256.394H333.772V257.71C336.082 257.808 337.44 258.578 337.44 259.866C337.44 261.224 335.872 261.994 333.254 261.994C330.622 261.994 329.068 261.224 329.068 259.866C329.068 258.578 330.412 257.808 332.722 257.71V256.394H327.724V255.526ZM328.354 253.902C330.454 253.678 332.526 252.6 332.596 251.2H328.746V250.346H337.804V251.2H333.954C334.024 252.6 336.054 253.678 338.168 253.902L337.776 254.756C335.802 254.504 333.926 253.608 333.268 252.236C332.596 253.622 330.72 254.504 328.746 254.756L328.354 253.902ZM330.132 259.866C330.132 260.692 331.322 261.168 333.254 261.168C335.186 261.168 336.362 260.692 336.362 259.866C336.362 259.012 335.186 258.55 333.254 258.55C331.322 258.55 330.132 259.012 330.132 259.866ZM340.574 250.57H348.764V251.634C348.764 252.81 348.764 254.084 348.414 255.848H350.234V256.716H345.208V262.036H344.144V256.716H339.16V255.848H347.35C347.728 254.098 347.728 252.782 347.728 251.634V251.424H340.574V250.57Z" fill="#456482"/>
<path d="M400.801 216.777H405.799V215.321H402.201V211.261H410.475V212.115H403.251V214.453H410.559V215.321H406.835V216.777H411.861V217.631H400.801V216.777ZM402.131 220.739C402.131 219.339 403.699 218.527 406.317 218.527C408.935 218.527 410.503 219.339 410.503 220.739C410.503 222.153 408.935 222.937 406.317 222.937C403.699 222.937 402.131 222.153 402.131 220.739ZM403.195 220.739C403.195 221.607 404.385 222.111 406.317 222.111C408.249 222.111 409.425 221.607 409.425 220.739C409.425 219.871 408.249 219.381 406.317 219.381C404.385 219.381 403.195 219.871 403.195 220.739ZM421.604 210.687H422.626V222.965H421.604V216.525H419.812V222.321H418.818V210.981H419.812V215.629H421.604V210.687ZM412.686 219.913V212.213H417.236V213.067H413.736V219.017C415.402 219.017 416.578 218.961 417.922 218.653L418.034 219.549C416.564 219.857 415.332 219.913 413.484 219.913H412.686ZM423.646 216.987H434.748V217.855H429.806V220.361H428.742V217.855H423.646V216.987ZM425.074 222.685V219.185H426.124V221.803H433.516V222.685H425.074ZM425.088 215.573V211.289H433.306V215.573H425.088ZM426.124 214.705H432.256V212.129H426.124V214.705ZM436.51 211.499H444.7V212.563C444.7 213.739 444.7 215.013 444.35 216.777H446.17V217.645H441.144V222.965H440.08V217.645H435.096V216.777H443.286C443.664 215.027 443.664 213.711 443.664 212.563V212.353H436.51V211.499Z" fill="#456482"/>
<path d="M462.006 191.526H473.066V192.38H468.054V193.738C470.364 193.836 471.722 194.578 471.722 195.866C471.722 197.224 470.154 197.994 467.536 197.994C464.918 197.994 463.35 197.224 463.35 195.866C463.35 194.578 464.708 193.836 467.004 193.738V192.38H462.006V191.526ZM467.536 194.536C465.576 194.536 464.4 195.012 464.4 195.866C464.4 196.706 465.576 197.182 467.536 197.182C469.482 197.182 470.658 196.706 470.658 195.866C470.658 195.012 469.482 194.536 467.536 194.536ZM463.028 186.36H472.072V187.2H468.222C468.278 188.614 470.322 189.692 472.45 189.916L472.058 190.756C470.084 190.504 468.208 189.622 467.55 188.25C466.878 189.622 465.002 190.504 463.028 190.756L462.636 189.916C464.75 189.692 466.808 188.614 466.864 187.2H463.028V186.36ZM481.898 185.772H482.948V188.866H484.782V189.748H482.948V193.164H481.898V185.772ZM473.974 186.528H479.476V189.832H475.038V191.582C477.194 191.582 478.776 191.512 480.68 191.176L480.778 192.044C478.832 192.38 477.194 192.45 474.954 192.45H474.002V189.006H478.44V187.41H473.974V186.528ZM479.042 193.57C481.534 193.57 483.046 194.382 483.046 195.768C483.046 197.182 481.534 198.008 479.042 198.008C476.55 198.008 475.024 197.182 475.024 195.768C475.024 194.382 476.55 193.57 479.042 193.57ZM479.042 194.382C477.18 194.382 476.046 194.914 476.046 195.768C476.046 196.664 477.18 197.182 479.042 197.182C480.904 197.182 482.024 196.664 482.024 195.768C482.024 194.914 480.904 194.382 479.042 194.382ZM486.292 186.584H494.482V187.648C494.482 188.81 494.482 190.07 494.132 191.848H495.952V192.73H490.926V198.05H489.862V192.73H484.878V191.848H493.068C493.446 190.098 493.446 188.796 493.446 187.648V187.438H486.292V186.584Z" fill="#456482"/>
<path d="M356.142 181.472H357.192V182.718C357.192 184.454 358.424 185.994 360.202 186.61L359.614 187.436C358.27 186.946 357.22 185.952 356.688 184.678C356.17 186.12 355.05 187.254 353.58 187.814L353.02 186.946C354.868 186.288 356.142 184.636 356.142 182.746V181.472ZM354.994 190.698C354.994 189.242 356.548 188.388 359.068 188.388C361.588 188.388 363.128 189.242 363.128 190.698C363.128 192.168 361.588 193.008 359.068 193.008C356.548 193.008 354.994 192.168 354.994 190.698ZM356.044 190.698C356.044 191.608 357.192 192.154 359.068 192.154C360.93 192.154 362.078 191.608 362.078 190.698C362.078 189.788 360.93 189.256 359.068 189.256C357.192 189.256 356.044 189.788 356.044 190.698ZM359.32 184.286V183.39H362.022V180.772H363.086V188.038H362.022V184.286H359.32ZM364.442 186.778H375.516V187.646H370.49V189.13H374.144V193.036H373.08V189.984H365.688V189.13H369.44V187.646H364.442V186.778ZM365.912 185.63V181.066H366.962V182.48H373.01V181.066H374.074V185.63H365.912ZM366.962 184.762H373.01V183.306H366.962V184.762ZM377.292 181.57H385.482V182.634C385.482 183.81 385.482 185.084 385.132 186.848H386.952V187.716H381.926V193.036H380.862V187.716H375.878V186.848H384.068C384.446 185.098 384.446 183.782 384.446 182.634V182.424H377.292V181.57Z" fill="#456482"/>
<path d="M188.02 333.357H193.018V331.901H189.42V327.841H197.694V328.695H190.47V331.033H197.778V331.901H194.054V333.357H199.08V334.211H188.02V333.357ZM189.35 337.319C189.35 335.919 190.918 335.107 193.536 335.107C196.154 335.107 197.722 335.919 197.722 337.319C197.722 338.733 196.154 339.517 193.536 339.517C190.918 339.517 189.35 338.733 189.35 337.319ZM190.414 337.319C190.414 338.187 191.604 338.691 193.536 338.691C195.468 338.691 196.644 338.187 196.644 337.319C196.644 336.451 195.468 335.961 193.536 335.961C191.604 335.961 190.414 336.451 190.414 337.319ZM199.722 328.149H206.288V329.031H203.558V329.535C203.558 331.187 204.748 332.671 206.526 333.315L205.994 334.155C204.622 333.665 203.558 332.657 203.04 331.383C202.508 332.769 201.402 333.861 199.974 334.379L199.4 333.553C201.22 332.909 202.494 331.313 202.494 329.549V329.031H199.722V328.149ZM200.996 336.199V335.317H208.948V339.559H207.87V336.199H200.996ZM207.87 334.659V327.281H208.948V330.529H210.768V331.439H208.948V334.659H207.87ZM212.292 328.079H220.482V329.143C220.482 330.319 220.482 331.593 220.132 333.357H221.952V334.225H216.926V339.545H215.862V334.225H210.878V333.357H219.068C219.446 331.607 219.446 330.291 219.446 329.143V328.933H212.292V328.079Z" fill="#456482"/>
<path d="M506.772 343.971H507.822V345.777H512.848V346.645H501.774V345.777H506.772V343.971ZM502.446 343.733C504.574 343.439 506.772 342.081 506.772 340.429V339.869H507.836V340.429C507.836 342.081 510.034 343.439 512.162 343.733L511.756 344.587C509.908 344.265 508.074 343.299 507.304 341.885C506.548 343.313 504.714 344.279 502.852 344.587L502.446 343.733ZM503.118 349.795C503.118 348.451 504.672 347.667 507.304 347.667C509.936 347.667 511.49 348.451 511.49 349.795C511.49 351.153 509.936 351.895 507.304 351.895C504.672 351.895 503.118 351.153 503.118 349.795ZM504.182 349.795C504.182 350.607 505.358 351.083 507.304 351.083C509.25 351.083 510.412 350.607 510.412 349.795C510.412 348.969 509.25 348.507 507.304 348.507C505.358 348.507 504.182 348.969 504.182 349.795ZM513.364 341.003H520.196V341.871H518.852V347.821C519.51 347.765 520.154 347.709 520.77 347.625L520.826 348.423C518.278 348.829 515.352 348.871 513.196 348.871L513.056 347.975H514.708V341.871H513.364V341.003ZM515.744 347.961C516.416 347.947 517.116 347.919 517.816 347.877V341.871H515.744V347.961ZM521.54 351.951V339.673H522.604V344.587H524.634V345.497H522.604V351.951H521.54ZM526.061 340.471H534.251V341.535C534.251 342.711 534.251 343.985 533.901 345.749H535.721V346.617H530.695V351.937H529.631V346.617H524.647V345.749H532.837C533.215 343.999 533.215 342.683 533.215 341.535V341.325H526.061V340.471Z" fill="#456482"/>
<path d="M496.593 362.569C496.593 360.793 497.133 359.137 498.045 357.697H499.017C497.985 359.113 497.385 360.781 497.385 362.569C497.385 364.357 497.985 366.025 499.017 367.441H498.045C497.133 366.001 496.593 364.345 496.593 362.569ZM504.218 357.985C506.438 357.985 508.034 359.065 508.034 360.721C508.034 362.281 506.642 363.313 504.662 363.445V365.677H508.994V366.445H499.478V365.677H503.762V363.445C501.794 363.301 500.414 362.269 500.414 360.721C500.414 359.065 502.01 357.985 504.218 357.985ZM501.29 360.721C501.29 361.933 502.538 362.725 504.218 362.725C505.91 362.725 507.134 361.933 507.134 360.721C507.134 359.521 505.91 358.717 504.218 358.717C502.538 358.717 501.29 359.521 501.29 360.721ZM510.042 357.817H517.746V358.561H516.138V361.009H517.71V361.729H510.09V361.009H511.662V358.561H510.042V357.817ZM509.166 363.649V362.893H518.658V363.649H509.166ZM510.402 367.549V364.633H511.302V366.793H517.59V367.549H510.402ZM512.574 361.009H515.226V358.561H512.574V361.009ZM526.906 357.265H527.782V367.789H526.906V357.265ZM518.998 361.801C518.998 359.569 519.874 358.165 521.218 358.165C522.118 358.165 522.814 358.777 523.174 359.845H524.854V357.517H525.706V367.249H524.854V363.781H523.174C522.814 364.849 522.118 365.461 521.218 365.461C519.874 365.461 518.998 364.045 518.998 361.801ZM519.826 361.801C519.826 363.517 520.378 364.609 521.218 364.609C522.094 364.609 522.634 363.517 522.634 361.801C522.634 360.097 522.094 359.017 521.218 359.017C520.378 359.017 519.826 360.097 519.826 361.801ZM523.366 363.025H524.854V360.589H523.366C523.426 360.961 523.462 361.369 523.462 361.801C523.462 362.245 523.426 362.653 523.366 363.025ZM534.147 360.013H536.271V357.277H537.183V363.541H536.271V360.769H534.147V360.013ZM528.603 362.713C530.151 362.149 531.255 360.721 531.255 359.209V358.813H528.891V358.057H534.495V358.813H532.167V359.197C532.167 360.565 533.223 361.873 534.735 362.425L534.279 363.145C533.103 362.713 532.191 361.837 531.735 360.757C531.291 361.993 530.319 362.977 529.071 363.445L528.603 362.713ZM530.247 365.821C530.247 364.597 531.579 363.877 533.739 363.877C535.899 363.877 537.219 364.597 537.219 365.821C537.219 367.057 535.899 367.777 533.739 367.777C531.579 367.777 530.247 367.057 530.247 365.821ZM531.135 365.821C531.135 366.589 532.131 367.057 533.739 367.057C535.335 367.057 536.319 366.589 536.319 365.821C536.319 365.041 535.335 364.585 533.739 364.585C532.131 364.585 531.135 365.041 531.135 365.821ZM540.943 362.569C540.943 364.345 540.415 366.001 539.503 367.441H538.531C539.563 366.025 540.151 364.357 540.151 362.569C540.151 360.781 539.563 359.113 538.531 357.697H539.503C540.415 359.137 540.943 360.793 540.943 362.569Z" fill="#456482"/>
<path d="M70.9335 237.659H71.9975V240.865H73.8175V241.775H71.9975V245.023H70.9335V237.659ZM62.5335 244.183C65.4595 243.329 67.3495 241.593 67.5595 239.465H63.0515V238.583H68.6935C68.6935 241.705 66.5095 244.001 62.9815 245.051L62.5335 244.183ZM64.1855 247.543C64.1855 246.073 65.7535 245.177 68.1755 245.177C70.5835 245.177 72.1375 246.073 72.1375 247.543C72.1375 249.013 70.5835 249.909 68.1755 249.909C65.7535 249.909 64.1855 249.013 64.1855 247.543ZM65.2215 247.543C65.2215 248.467 66.3835 249.041 68.1755 249.041C69.9535 249.041 71.1015 248.467 71.1015 247.543C71.1015 246.605 69.9535 246.031 68.1755 246.031C66.3835 246.031 65.2215 246.605 65.2215 247.543ZM80.0738 241.873H82.9718V237.659H84.0218V249.951H82.9718V242.741H80.0738V241.873ZM73.9558 246.479C75.7338 245.583 77.1478 243.245 77.1478 240.977V238.737H78.2118V240.977C78.2118 243.189 79.6398 245.429 81.3898 246.255L80.7598 247.109C79.3878 246.395 78.2398 244.925 77.6938 243.175C77.1618 245.009 76.0138 246.591 74.6278 247.333L73.9558 246.479ZM86.7922 238.471H94.9822V239.535C94.9822 240.711 94.9822 241.985 94.6322 243.749H96.4522V244.617H91.4262V249.937H90.3622V244.617H85.3782V243.749H93.5682C93.9462 241.999 93.9462 240.683 93.9462 239.535V239.325H86.7922V238.471Z" fill="#456482"/>
<path d="M57.3242 260.569C57.3242 258.793 57.8642 257.137 58.7762 255.697H59.7482C58.7162 257.113 58.1162 258.781 58.1162 260.569C58.1162 262.357 58.7162 264.025 59.7482 265.441H58.7762C57.8642 264.001 57.3242 262.345 57.3242 260.569ZM64.9493 255.985C67.1693 255.985 68.7653 257.065 68.7653 258.721C68.7653 260.281 67.3733 261.313 65.3933 261.445V263.677H69.7253V264.445H60.2093V263.677H64.4933V261.445C62.5253 261.301 61.1453 260.269 61.1453 258.721C61.1453 257.065 62.7413 255.985 64.9493 255.985ZM62.0213 258.721C62.0213 259.933 63.2693 260.725 64.9493 260.725C66.6413 260.725 67.8653 259.933 67.8653 258.721C67.8653 257.521 66.6413 256.717 64.9493 256.717C63.2693 256.717 62.0213 257.521 62.0213 258.721ZM70.7736 255.817H78.4776V256.561H76.8696V259.009H78.4416V259.729H70.8216V259.009H72.3936V256.561H70.7736V255.817ZM69.8976 261.649V260.893H79.3896V261.649H69.8976ZM71.1336 265.549V262.633H72.0336V264.793H78.3216V265.549H71.1336ZM73.3056 259.009H75.9576V256.561H73.3056V259.009ZM87.6379 255.265H88.5139V265.789H87.6379V255.265ZM79.7299 259.801C79.7299 257.569 80.6059 256.165 81.9499 256.165C82.8499 256.165 83.5459 256.777 83.9059 257.845H85.5859V255.517H86.4379V265.249H85.5859V261.781H83.9059C83.5459 262.849 82.8499 263.461 81.9499 263.461C80.6059 263.461 79.7299 262.045 79.7299 259.801ZM80.5579 259.801C80.5579 261.517 81.1099 262.609 81.9499 262.609C82.8259 262.609 83.3659 261.517 83.3659 259.801C83.3659 258.097 82.8259 257.017 81.9499 257.017C81.1099 257.017 80.5579 258.097 80.5579 259.801ZM84.0979 261.025H85.5859V258.589H84.0979C84.1579 258.961 84.1939 259.369 84.1939 259.801C84.1939 260.245 84.1579 260.653 84.0979 261.025ZM94.8781 258.013H97.0021V255.277H97.9141V261.541H97.0021V258.769H94.8781V258.013ZM89.3341 260.713C90.8821 260.149 91.9861 258.721 91.9861 257.209V256.813H89.6221V256.057H95.2261V256.813H92.8981V257.197C92.8981 258.565 93.9541 259.873 95.4661 260.425L95.0101 261.145C93.8341 260.713 92.9221 259.837 92.4661 258.757C92.0221 259.993 91.0501 260.977 89.8021 261.445L89.3341 260.713ZM90.9781 263.821C90.9781 262.597 92.3101 261.877 94.4701 261.877C96.6301 261.877 97.9501 262.597 97.9501 263.821C97.9501 265.057 96.6301 265.777 94.4701 265.777C92.3101 265.777 90.9781 265.057 90.9781 263.821ZM91.8661 263.821C91.8661 264.589 92.8621 265.057 94.4701 265.057C96.0661 265.057 97.0501 264.589 97.0501 263.821C97.0501 263.041 96.0661 262.585 94.4701 262.585C92.8621 262.585 91.8661 263.041 91.8661 263.821ZM101.674 260.569C101.674 262.345 101.146 264.001 100.234 265.441H99.2624C100.294 264.025 100.882 262.357 100.882 260.569C100.882 258.781 100.294 257.113 99.2624 255.697H100.234C101.146 257.137 101.674 258.793 101.674 260.569Z" fill="#456482"/>
<path d="M456.678 274.556H462.712V275.214C462.712 275.956 462.712 277.076 462.404 278.518L461.354 278.434C461.648 277.118 461.676 276.152 461.676 275.424H456.678V274.556ZM455.922 279.68C456.72 279.68 457.616 279.68 458.554 279.652V277.202H459.604V279.624C460.962 279.568 462.348 279.484 463.608 279.316L463.692 280.086C461.144 280.492 458.26 280.576 456.062 280.576L455.922 279.68ZM457.532 283.782C457.532 282.396 459.072 281.584 461.578 281.584C464.084 281.584 465.624 282.396 465.624 283.782C465.624 285.182 464.084 286.008 461.578 286.008C459.072 286.008 457.532 285.182 457.532 283.782ZM458.596 283.782C458.596 284.65 459.744 285.14 461.578 285.14C463.426 285.14 464.56 284.65 464.56 283.782C464.56 282.928 463.426 282.424 461.578 282.424C459.744 282.424 458.596 282.928 458.596 283.782ZM464.448 281.43V273.758H465.526V277.132H467.29V278.042H465.526V281.43H464.448ZM467.904 274.808H474.624V275.676H471.824V276.404C471.824 278.07 473.14 279.554 474.932 280.156L474.4 280.996C472.986 280.506 471.852 279.484 471.306 278.196C470.774 279.596 469.626 280.702 468.184 281.234L467.638 280.38C469.458 279.736 470.746 278.154 470.746 276.404V275.676H467.904V274.808ZM469.64 285.756V281.92H470.69V284.874H477.858V285.756H469.64ZM476.402 282.76V273.786H477.466V282.76H476.402ZM480.292 274.57H488.482V275.634C488.482 276.81 488.482 278.084 488.132 279.848H489.952V280.716H484.926V286.036H483.862V280.716H478.878V279.848H487.068C487.446 278.098 487.446 276.782 487.446 275.634V275.424H480.292V274.57Z" fill="#456482"/>
<path d="M305.004 214.126H306.054V215.904H311.08V216.758H300.006V215.904H305.004V214.126ZM300.636 213.874C302.736 213.65 304.808 212.6 304.878 211.2H301.028V210.346H310.086V211.2H306.236C306.306 212.586 308.35 213.65 310.45 213.874L310.072 214.728C308.084 214.476 306.208 213.594 305.536 212.236C304.878 213.594 303.002 214.476 301.014 214.728L300.636 213.874ZM301.35 219.908C301.35 218.55 302.904 217.794 305.536 217.794C308.168 217.794 309.722 218.55 309.722 219.908C309.722 221.252 308.168 221.994 305.536 221.994C302.904 221.994 301.35 221.252 301.35 219.908ZM302.414 219.908C302.414 220.706 303.59 221.182 305.536 221.182C307.482 221.182 308.644 220.706 308.644 219.908C308.644 219.082 307.482 218.62 305.536 218.62C303.59 218.62 302.414 219.082 302.414 219.908ZM311.442 219.628H316.44V217.29H312.842V213.524H320.108V211.564H312.814V210.682H321.172V214.378H313.892V216.422H321.452V217.29H317.49V219.628H322.544V220.51H311.442V219.628ZM324.292 210.57H332.482V211.634C332.482 212.81 332.482 214.084 332.132 215.848H333.952V216.716H328.926V222.036H327.862V216.716H322.878V215.848H331.068C331.446 214.098 331.446 212.782 331.446 211.634V211.424H324.292V210.57Z" fill="#456482"/>
<path d="M251.612 353.514C252.648 353.514 253.53 353.906 254.09 354.564H257.254V352.772H258.332V360.038H257.254V358.274H254.076C253.516 358.918 252.634 359.31 251.612 359.31C249.792 359.31 248.462 358.12 248.462 356.412C248.462 354.704 249.792 353.514 251.612 353.514ZM249.47 356.412C249.47 357.574 250.366 358.414 251.612 358.414C252.83 358.414 253.74 357.574 253.74 356.412C253.74 355.236 252.83 354.424 251.612 354.424C250.366 354.424 249.47 355.236 249.47 356.412ZM250.24 362.656C250.24 361.2 251.78 360.332 254.314 360.332C256.834 360.332 258.374 361.2 258.374 362.656C258.374 364.14 256.834 365.008 254.314 365.008C251.78 365.008 250.24 364.14 250.24 362.656ZM251.276 362.656C251.276 363.594 252.438 364.154 254.314 364.154C256.176 364.154 257.338 363.594 257.338 362.656C257.338 361.732 256.176 361.172 254.314 361.172C252.438 361.172 251.276 361.732 251.276 362.656ZM254.594 355.418C254.706 355.726 254.762 356.062 254.762 356.412C254.762 356.762 254.706 357.098 254.594 357.392H257.254V355.418H254.594ZM259.702 358.624H270.762V359.506H259.702V358.624ZM261.032 362.81C261.032 361.396 262.6 360.598 265.218 360.598C267.836 360.598 269.404 361.396 269.404 362.81C269.404 364.21 267.836 364.994 265.218 364.994C262.6 364.994 261.032 364.21 261.032 362.81ZM261.102 357.434V353.276H269.376V354.144H262.152V356.566H269.46V357.434H261.102ZM262.096 362.81C262.096 363.664 263.286 364.168 265.218 364.168C267.15 364.168 268.326 363.664 268.326 362.81C268.326 361.928 267.15 361.438 265.218 361.438C263.286 361.438 262.096 361.928 262.096 362.81ZM271.124 362.614H276.108V359.758H272.132V358.89H274.036V354.844H272.104V353.948H281.176V354.844H279.258V358.89H281.162V359.758H277.158V362.614H282.226V363.51H271.124V362.614ZM275.1 358.89H278.194V354.844H275.1V358.89ZM283.975 353.57H292.165V354.634C292.165 355.81 292.165 357.084 291.815 358.848H293.635V359.716H288.609V365.036H287.545V359.716H282.561V358.848H290.751C291.129 357.098 291.129 355.782 291.129 354.634V354.424H283.975V353.57Z" fill="#456482"/>
</svg>
