<svg preserveAspectRatio="none" width="100%" height="100%" overflow="visible" style="display: block;" viewBox="0 0 103.121 148.14" fill="none" xmlns="http://www.w3.org/2000/svg">
<path id="Vector" d="M15.2973 21.2038L15.2667 21.3109L9.07354 43.6305L9.94171 50.4647L13.5132 58.9454L13.217 62.7105L16.7511 69.6618L17.9394 83.6546L20.3295 89.8227L18.8484 98.2667L20.8844 103.772L13.2852 94.8797L7.25881 99.9969L6.38381 106.031L3.67028 110.476L0 116.858L9.28122 125.981L11.3547 130.345L29.4575 148.14L64.8596 137.698L74.277 140.881L81.7094 136.788L85.9347 138.863L100.997 136.065C100.245 135.754 99.5364 135.68 98.5218 136.209C97.16 136.925 95.3793 136.701 93.8131 136.423C92.1312 136.125 91.0009 133.913 91.7499 132.367C92.2606 131.313 92.3729 130.228 92.6419 129.144C93.2207 126.818 94.0038 124.73 96.2271 123.073C99.4922 120.64 102.921 118.294 102.989 113.237C103.03 110.081 103.741 107.129 101.378 104.505C100.786 103.846 100.48 103.143 101.736 102.778C102.512 102.554 103.053 101.982 102.767 101.222C102.308 99.9969 101.886 98.7787 101.651 97.4936C101.569 97.0417 101.147 96.6769 100.691 96.7271C98.5218 96.9581 97.8409 95.3048 97.0101 93.9192C96.496 93.0658 95.9887 92.1856 94.9741 91.9981C92.5704 91.553 90.2586 91.1681 87.7664 92.2625C84.9337 93.5075 81.9648 94.9634 78.6213 93.6448C77.8246 93.3335 77.314 93.1026 77.079 92.1588C76.7147 90.6829 76.2381 89.1567 75.4379 87.8749C74.454 86.3019 74.3178 84.9699 75.0975 83.253C76.0678 81.1178 77.4569 78.7985 74.9409 76.6599C74.8251 76.5628 74.8387 76.3319 74.7638 76.1746C73.613 73.8185 73.882 71.0306 72.4214 68.7548C72.2273 68.4536 72.2988 67.8511 72.4725 67.4897C73.7765 64.752 75.1418 62.011 77.4536 59.9595C78.3149 59.1964 78.4 58.7144 77.903 57.7941C76.7454 55.6388 77.2527 53.6039 78.5533 51.6728C78.8937 51.1675 79.2716 50.6855 79.5679 50.1568C79.7858 49.7719 78.9312 42.9445 78.5771 42.7001C76.6602 41.3681 76.7283 39.2128 76.33 37.3185C76.1019 36.2342 75.8227 35.2469 74.9954 34.5875C73.4054 33.3158 73.1398 31.9771 74.2838 30.2903C74.5561 29.8887 74.6276 29.2896 74.6208 28.7842C74.597 27.5827 75.1145 26.6256 75.741 25.645C76.4968 24.4636 77.2493 23.3089 78.2264 22.2748C79.7824 20.6281 80.2965 18.7171 79.5679 16.4949C79.3329 15.772 78.7678 15.0524 79.0197 14.2492C79.4725 12.8101 78.3285 12.3348 77.491 12.4252C76.2653 12.5591 75.4992 12.0872 74.6276 11.4848C74.3076 11.2605 73.705 11.1267 73.3713 11.2706C71.0765 12.2746 68.8362 11.3475 66.5755 11.2036C62.7044 10.9593 61.4923 9.70427 61.4276 5.82536C61.414 4.97528 61.6557 4.05826 60.9373 3.34205C58.7924 1.20346 56.6542 -0.787867 53.1202 0.313222C50.6075 1.09637 47.7475 1.1131 45.8273 3.13121C44.8263 4.18209 43.7504 4.4398 42.5213 4.3327C40.9143 4.19548 39.103 4.58705 37.9113 2.96387C37.6424 2.59572 37.1112 2.64927 36.6686 2.73294C35.082 3.0308 33.509 2.67939 31.9361 2.60242C29.9035 2.50201 29.5324 2.57899 29.1272 4.42641C28.5382 7.12726 26.4137 8.77722 24.8237 10.7819C24.3028 11.4413 23.3903 11.6588 22.4608 11.8127C19.1412 12.365 16.5128 14.0785 14.1806 16.3175L15.2871 21.2172L15.2973 21.2038Z" fill="var(--fill-0, #DDE1E6)" fill-opacity="0.67"/>
</svg>
