<svg preserveAspectRatio="none" width="100%" height="100%" overflow="visible" style="display: block;" viewBox="0 0 30 30" fill="none" xmlns="http://www.w3.org/2000/svg">
<g id="Group 39697">
<path id="Union" d="M15.0004 0C23.2846 0.000175379 30 6.68557 30 14.932C29.9998 22.4748 24.3812 28.7094 17.0829 29.7187C17.0829 29.7187 15.8205 30 14.9996 30C14.1783 30 12.9153 29.7187 12.9153 29.7187C5.61798 28.7086 0.000161146 22.4741 0 14.932C0 6.68546 6.7161 0 15.0004 0Z" fill="var(--fill-0, #2EBE0A)"/>
<path id="Exclude" d="M21.2386 13.1848H20.9326V20.1274H16.4374V17.2236C16.4374 16.4322 15.7926 15.7903 14.9975 15.7903C14.2025 15.7905 13.5583 16.4323 13.5583 17.2236V20.1274H8.92619V13.1848H8.76129L14.9996 8.52847L21.2386 13.1848Z" fill="var(--fill-0, white)"/>
</g>
</svg>
