<svg preserveAspectRatio="none" width="100%" height="100%" overflow="visible" style="display: block;" viewBox="0 0 108.065 119.569" fill="none" xmlns="http://www.w3.org/2000/svg">
<path id="Vector" d="M18.6169 4.27568L2.78164 11.0696L0.554968 13.9412L0 17.067L1.02141 20.2164V20.2733L1.32103 25.6348L2.66248 34.728L1.06227 40.5949L7.01027 50.2403L4.62698 55.2203L6.806 60.0363L10.9733 60.6019L12.8255 62.0945L14.2282 68.3697L12.7234 71.3283L12.5736 85.9604L12.1378 90.1037L12.9345 93.3902L6.8775 97.3629L25.4638 119.569L28.9195 116.038L33.6657 115.472L34.1219 113.986L40.9994 113.832L51.1454 114.86L55.1051 116.155L70.7769 115.148L75.8295 113.103L94.0413 113.538L101.358 110.804L106.152 109.184L108.065 108.933L107.381 98.0757L105.951 98.2832L101.205 100.539L99.7237 99.7089V96.7805L97.6877 92.51L90.9158 93.1894L88.672 95.2377L84.5149 92.1318L83.0543 83.3666L81.5903 82.9751L76.2176 77.5433L75.7682 74.4575L74.6447 72.9883H68.5298L65.9525 75.0733L63.2764 74.3002L57.9889 74.5981L52.7899 70.2172L48.6055 70.0632L48.1187 68.1556L40.6964 63.1923L40.3593 60.8629L41.3263 57.3823L53.8249 50.8795L53.5423 45.5916L53.9747 43.038L52.6401 39.2495L53.6683 33.7541L49.2422 25.3403L49.5418 21.0832L47.9688 16.4445L43.9104 11.4177L44.2066 7.93035L43.1376 6.64519L37.5947 6.79245L36.672 4.9785L36.7844 0.671204C36.5324 0.597575 36.2737 0.490472 35.9979 0.339867C34.7586 -0.332835 34.0572 0.12233 33.1073 0.594225C30.4074 1.93628 27.67 3.1679 24.5002 2.70939C23.5946 2.57886 22.6344 2.66923 21.9944 3.31515C20.9593 4.35265 19.8494 4.42293 18.6339 4.27568H18.6169Z" fill="var(--fill-0, #CFDDEB)"/>
</svg>
