<svg preserveAspectRatio="none" width="100%" height="100%" overflow="visible" style="display: block;" viewBox="0 0 71.3748 91.7552" fill="none" xmlns="http://www.w3.org/2000/svg">
<path id="Vector" d="M40.9926 1.07096L33.6248 5.12726L24.0985 1.90766L1.29721 8.63134L2.8191 12.7178L2.80888 12.8182L1.78069 24.5185L4.92664 35.2616L0.143012 42.3133L0 46.4968L1.33466 53.0631L1.04867 55.4594L4.30696 60.995L3.86437 64.0506L9.15525 73.0066L11.3717 86.0925L12.5498 87.8931L30.2985 91.7552L37.0908 89.6233L46.0043 84.7169C45.9771 84.3823 45.9907 83.9941 46.0282 83.5355C46.2223 81.1627 46.8794 78.9639 48.214 76.9692C48.6056 76.3835 48.9494 75.7576 48.8677 75.0213C48.7179 73.696 49.4806 72.9731 50.4986 72.2837C51.52 71.5876 52.5618 70.955 53.6581 70.376C56.3819 68.9403 58.5813 67.0594 58.9116 63.7594C58.9797 63.07 59.2044 62.394 59.2793 61.7012C59.6811 57.9796 61.254 54.6964 63.0687 51.4768C63.6441 50.4526 64.3148 49.9707 65.5235 49.8569C69.2346 49.5089 69.6432 47.5309 68.6899 44.559C68.1928 43.0061 67.3416 41.5067 66.3849 40.1647C65.2648 38.5883 65.1796 37.3333 66.5041 35.8206C67.2293 34.9905 67.7502 33.943 68.4039 33.0126C69.8509 30.951 71.4341 28.9229 70.9949 26.1417C70.9165 25.653 71.0868 25.0975 71.24 24.6022C71.6043 23.4274 71.2162 22.4803 70.2424 21.8745C68.6763 20.9006 68.792 19.6255 69.4117 18.2567C69.9734 17.0117 69.9462 15.8068 69.7828 14.4581C69.4934 12.0183 68.3664 9.62198 69.4798 7.04496C69.8202 6.25847 69.81 4.93649 68.6286 4.26379C68.1213 3.97262 68.0532 3.43379 67.9408 2.91504C67.7332 1.94447 67.1407 1.55625 66.0955 1.3956C64.5463 1.15798 63.0279 0.679396 61.6183 0L45.0544 3.07569L40.9892 1.07766L40.9926 1.07096Z" fill="var(--fill-0, #CFDDEB)"/>
</svg>
