<svg preserveAspectRatio="none" width="100%" height="100%" overflow="visible" style="display: block;" viewBox="0 0 168.26 174.364" fill="none" xmlns="http://www.w3.org/2000/svg">
<path id="Vector" d="M168.26 115.758L162.959 112.863L162.353 107.063L155.571 96.8524L152.302 96.3939L151.72 89.1146L145.016 90.3496L141.084 89.282L140.553 91.4975L121.473 101.391L110.166 101.685L102.625 103.539L101.988 99.7741L99.6556 98.4655L101.828 95.5672L94.14 85.8716L92.4955 79.8507L88.8082 71.4805L78.1311 73.3747L77.9949 73.02L57.4101 18.7219L54.3118 5.66944L50.8288 0C43.2704 7.95529 35.9332 15.8637 35.9332 15.8637C35.9332 15.8637 31.0475 20.0104 29.7162 20.2279C28.385 20.4455 24.1666 22.41 23.4993 23.5011C22.8319 24.5921 18.8382 31.356 14.3985 31.7944C9.95874 32.2295 0.190662 32.447 0.190662 32.447L0 32.5775V36.8949L0.272372 39.1506L7.57887 44.6895L4.13672 49.3047L2.07347 86.5309L2.35946 89.9245L6.00931 98.8269L11.6986 106.183L11.2525 117.402L13.0264 120.019C14.7696 118.56 16.1178 116.605 18.4603 115.785C19.0936 115.564 19.72 114.878 20.6189 114.721C24.2313 114.098 24.17 114.051 25.0927 110.671C25.3923 109.567 24.7896 108.867 24.439 107.997C23.3563 105.313 23.7376 104.744 26.6078 104.486C27.2376 104.429 27.8402 104.567 28.4497 104.587C29.849 104.634 31.3164 104.885 32.6341 104.363C33.9244 103.854 34.3603 104.165 34.5577 105.454C34.7041 106.414 34.7893 107.361 34.6633 108.302C34.476 109.691 34.9152 110.879 35.7187 111.953C36.083 112.442 36.4644 112.88 36.6891 113.479C37.7037 116.167 39.9167 118.238 40.7441 121.046C40.9007 121.582 41.4182 122.097 41.9016 122.438C42.586 122.92 43.0967 123.519 43.3827 124.239C43.8424 125.397 44.5744 125.879 45.8375 125.655C46.7261 125.494 47.6352 125.584 48.3978 126.103C50.1002 127.254 51.6425 126.826 52.9397 125.541C53.7296 124.758 54.4548 124.47 55.5171 124.811C57.5531 125.464 59.4495 124.513 60.9816 123.613C62.3843 122.787 63.7054 122.204 65.2783 121.896C66.6062 121.635 67.9068 121.019 67.9136 119.403C67.917 118.302 68.3698 117.83 69.4014 117.696C70.5182 117.552 70.9438 116.916 70.5999 115.862C70.2935 114.925 70.5863 114.169 71.1855 113.449C72.3022 112.107 72.8436 110.581 72.578 108.844C72.435 107.917 72.9628 107.532 73.7288 107.428C75.6218 107.174 76.8714 108.439 78.1379 109.473C79.0674 110.233 78.0868 111.056 77.8723 111.839C77.348 113.787 76.6909 115.745 78.7678 117.301C78.9959 117.472 79.1389 117.947 79.0912 118.245C78.8018 120.086 79.7892 121.287 80.9536 122.566C82.3529 124.105 82.2099 124.982 80.8412 126.659C80.3509 127.258 79.9492 127.934 79.4317 128.506C78.5158 129.514 78.601 130.357 79.7313 131.103C81.2873 132.127 81.9614 133.747 82.724 135.317C83.0066 135.896 83.0168 136.405 82.8228 137.05C82.2474 138.962 81.9614 140.879 83.6092 142.522C84.0178 142.927 83.9804 143.547 83.7488 144.008C82.7513 146.003 82.3427 148.322 80.5348 149.869C79.4555 150.792 79.2478 151.823 79.6326 153.142C80.3305 155.525 81.4677 156.341 84.1847 156.606C85.4648 156.73 87.1093 156.298 87.957 157.406C89.5981 159.548 92.2912 160.809 93.2071 163.547C93.3705 164.036 93.7791 164.407 94.2966 164.641C96.067 165.458 96.908 166.977 97.1736 168.755C97.3472 169.899 97.8409 170.552 98.9712 170.622C100.898 170.742 102.202 171.827 103.431 173.139C104.987 174.802 104.94 174.561 107.279 173.661C109.825 172.68 112.335 171.017 115.341 172.178C115.92 172.402 116.57 172.305 117.149 172.011C118.004 171.576 118.858 171.78 119.74 171.937C120.887 172.141 121.926 172.607 122.988 173.032C123.72 173.326 124.65 173.651 125.184 172.854C126.842 170.391 129.198 170.334 131.731 170.89C132.988 171.168 133.359 170.572 133.379 169.534C133.389 169.106 133.379 168.621 133.195 168.252C132.538 166.947 132.746 165.752 133.43 164.534C133.679 164.089 133.948 163.517 133.873 163.058C133.59 161.351 134.278 160.471 135.82 159.625C137.638 158.631 137.884 157.047 136.515 156.02C134.305 154.357 134.993 152.067 134.462 150.036C137.853 148.995 140.795 150.163 143.729 150.923C147.294 151.847 149.637 151.663 151.271 147.837C151.884 146.401 152.817 145.525 154.699 145.571C156.878 145.625 158.022 144.403 158.424 142.285C158.601 141.351 158.921 140.367 158.782 139.464C158.465 137.389 159.343 135.735 160.406 134.142C161.185 132.971 161.866 131.786 162.295 130.447C162.479 129.868 162.816 129.182 163.453 129.109C164.982 128.935 165.148 127.793 165.482 126.712C166.149 124.55 166.449 124.075 168.243 123.858V115.758H168.26Z" fill="var(--fill-0, #002C5D)"/>
</svg>
