<svg preserveAspectRatio="none" width="100%" height="100%" overflow="visible" style="display: block;" viewBox="0 0 100.119 85.0516" fill="none" xmlns="http://www.w3.org/2000/svg">
<path id="Vector" d="M83.7931 59.9542L82.7274 56.3597L84.5455 54.7231L83.6501 45.9278L86.7484 44.1875L86.4624 42.0857L87.5246 41.0415L90.9464 41.4632L91.7499 39.4853L96.5539 35.9812L98.9951 35.8406L100.119 34.4049L98.549 32.5809L100.047 29.0467L94.6575 20.3116L92.8836 13.7787L86.6633 5.07707L82.707 6.50948L74.4948 6.73373L63.7905 0L60.4607 11.0477L63.0993 17.0987V17.1957L62.6465 38.3072L28.4088 43.6554L18.8348 25.0573L19.5157 23.4977L17.2278 17.1589L12.4884 16.4929L11.9845 12.2793L13.3124 10.1039L12.72 6.21497L10.0268 5.68619L7.16689 10.3047L7.62312 15.0237L0 19.5218C0.57199 22.0553 1.81811 24.5386 0.61625 27.2394C0.38473 27.7649 0.047664 28.3974 0.599225 28.9496C2.56374 30.9075 2.98252 33.682 4.4159 35.931C5.16493 37.1057 5.84247 38.093 7.37799 38.2001C8.08957 38.2503 8.98501 38.4578 9.02586 39.251C9.09396 40.5663 9.46166 41.8079 9.65233 43.0864C9.76128 43.8294 9.4174 44.5924 8.74668 44.8501C6.74471 45.6166 6.57448 47.715 5.38624 49.0637C5.09343 49.3984 4.9981 49.8335 5.1445 50.2887C6.40424 54.2379 5.06279 57.6382 2.75781 60.7808C1.84535 62.0225 1.7398 63.5854 2.55353 64.4188C4.055 65.9616 3.81327 67.4476 3.46939 69.2013C2.87697 72.2234 3.02338 72.354 6.13187 72.9564C6.83664 73.0936 7.19413 73.6358 7.04433 74.198L14.5381 76.7249L13.6256 80.0114L21.8003 85.0516L28.9297 79.9043L32.6953 80.0448L37.4858 73.7161L39.4469 74.3587L47.0019 72.3205L50.7164 73.6358L54.322 72.866L57.4237 78.2343L62.6533 76.8654L61.3936 78.8467L61.986 81.4104L64.5974 80.7678L68.9997 81.7785L72.0128 80.5302L74.0148 83.2544H76.0951L77.8621 77.3741L76.2891 74.9008L78.4443 72.9329L77.6987 69.7L79.6257 68.2809L83.7897 59.9508L83.7931 59.9542Z" fill="var(--fill-0, #DDE1E6)" fill-opacity="0.67"/>
</svg>
