<svg preserveAspectRatio="none" width="100%" height="100%" overflow="visible" style="display: block;" viewBox="0 0 140.723 106.752" fill="none" xmlns="http://www.w3.org/2000/svg">
<path id="Vector" d="M0 11.9948L0.558355 13.0892L5.96843 12.9453L7.56183 14.8597L7.26562 18.3571L11.198 23.2266L12.88 28.1899L12.5872 32.3733L17.0405 40.8373L15.9987 46.403L17.3299 50.1815L16.8771 52.8656L17.1869 58.6355L4.52143 65.2253L3.71111 68.147L3.96646 69.8907L11.3444 74.8238L11.7462 76.4069L15.5561 76.5441L20.7176 80.8949L25.7906 80.6104L28.1467 81.2931L30.6014 79.3052H37.513L39.0553 81.3266L39.4945 84.3521L44.4824 89.3957L46.2767 89.8776L47.7747 98.8637L51.0194 101.287L52.9192 99.5532L60.6514 98.7767L63.0551 103.817V106.421L63.6475 106.752L68.0804 104.644L70.0245 104.359L79.0571 97.197L88.4337 84.9579L89.0533 81.9056L92.7373 80.5033L95.4542 74.2984L97.2076 73.1471L97.7149 71.5641L105.563 72.374L110.094 64.7601L111.684 64.3016L113.823 65.1717L119.73 63.2373L122.494 63.3076L123.669 62.6382L126.754 56.6509L133.069 55.8275L139.719 52.8389L140.723 41.4163L139.252 37.4705L127.298 40.998L109.008 23.0191L104.395 25.8204L101.32 31.5802L90.5889 43.4512L80.7357 50.0108L80.0956 44.8133L76.6875 44.2979L68.5434 46.2993L68.3766 43.8193L60.7671 39.6626L58.554 40.2416L51.2714 36.5869L50.6347 34.7094L46.8895 28.5212L47.1653 23.2534L42.8822 23.7956L40.5738 21.2219L34.9424 19.0365L26.24 8.88903L22.1918 8.15274L20.5133 5.15403L12.434 0C12.1956 0.143911 11.9301 0.274433 11.6305 0.394917C11.2321 0.548869 10.8065 0.819957 10.5682 1.15798C9.36973 2.85145 7.38818 3.27648 5.64157 3.86217C4.22181 4.33741 3.17316 4.81601 2.36284 6.14133C1.66147 7.28593 0.9499 7.90508 0.115748 8.00214L0.0102033 12.0116L0 11.9948Z" fill="var(--fill-0, #CFDDEB)"/>
</svg>
