<svg preserveAspectRatio="none" width="100%" height="100%" overflow="visible" style="display: block;" viewBox="0 0 136.663 136.177" fill="none" xmlns="http://www.w3.org/2000/svg">
<path id="Vector" d="M135.796 74.0006C134.281 72.8359 132.937 71.5407 131.779 70.028C131.176 69.2415 130.322 68.8867 129.661 70.0079C128.922 71.2662 128.007 71.3767 126.788 70.7241C126.097 70.3526 125.303 70.1819 124.558 69.9275C123.243 69.4824 121.919 69.0306 120.945 67.8793C119.549 66.226 119.491 66.2729 117.687 67.5145C115.283 69.1678 114.309 69.2013 111.977 67.6517C111.378 67.2535 110.762 66.969 110.04 66.8586C109.036 66.7046 108.324 65.9884 107.517 65.4696C107.108 65.2086 106.802 64.8639 107.047 64.402C107.738 63.1001 106.816 62.2567 106.179 61.3598C105.202 59.9843 105.107 58.6355 106.22 57.3203C106.765 56.6743 107.006 55.9715 106.979 55.1582C106.942 54.1073 107.483 53.5585 108.508 53.3744C109.226 53.2439 110.268 53.5317 110.278 52.3235C110.285 51.4667 110.319 50.5798 109.665 49.8536C109.226 49.3616 108.382 49.1742 108.409 48.3107C108.933 47.8054 109.58 48.0396 110.166 47.9995C112.29 47.8522 113.067 47.3268 112.896 45.7672L73.562 24.9034L79.3432 6.32541L69.398 0C65.4895 4.9298 62.8746 9.00618 61.5604 11.8041C60.2292 14.6421 54.9008 26.6437 50.0151 30.5728C45.1293 34.5019 31.8101 43.2303 22.706 42.5743C15.5595 42.0589 4.44994 40.2015 0 39.4284L3.38429 70.1919L11.3649 70.7508L11.433 70.781L24.1496 76.0153L42.6303 82.4612L44.1249 84.5161L51.1999 87.7023L57.2194 93.9139L57.2466 93.9608L82.2985 136.177C83.2586 135.163 83.8135 133.921 83.8476 132.288C88.7027 134.828 93.282 134.547 97.7762 131.88C98.7466 131.304 98.801 130.698 97.9022 130.106C96.2101 128.995 94.5315 127.844 92.7304 126.93C91.297 126.2 90.9055 125.173 91.0485 123.747C91.1098 123.141 91.1779 122.529 91.1643 121.923C91.1438 120.956 91.7159 120.517 92.55 120.27C93.7042 119.925 94.7869 119.905 95.8117 120.705C97.5004 122.023 99.5194 122.713 101.508 123.439C102.761 123.898 103.85 124.336 104.953 122.84C105.539 122.044 106.935 121.779 108.011 121.384C108.858 121.073 109.696 120.732 110.254 120.049C111.378 118.673 112.815 117.666 114.194 116.582C115.59 115.484 116.802 114.212 117.646 112.663C118.398 111.28 119.1 109.888 120.343 108.847C120.686 108.559 121 108.134 120.85 107.706C120.288 106.099 121.616 104.734 121.347 103.114C121.184 102.134 122.195 101.437 122.995 100.895C123.645 100.453 124.381 100.112 125.116 99.8243C126.171 99.4127 126.961 98.7935 127.223 97.669C127.632 95.9153 128.745 94.7907 130.369 94.0344C131.476 93.5156 132.147 92.6923 132.079 91.3502C132.021 90.1722 132.617 89.2016 133.369 88.2879C134.353 87.0931 134.755 85.7444 134.424 84.158C134.138 82.7959 134.295 81.5375 135.058 80.1854C135.657 79.1211 135.786 77.7422 136.406 76.5742C136.913 75.6204 136.648 74.6465 135.793 73.9905L135.796 74.0006Z" fill="var(--fill-0, #CFDDEB)"/>
</svg>
