<svg preserveAspectRatio="none" width="100%" height="100%" overflow="visible" style="display: block;" viewBox="0 0 47.924 33.8762" fill="none" xmlns="http://www.w3.org/2000/svg">
<path id="Vector (Stroke)" d="M0.16981 2.39032C-0.718679 -0.594845 2.16871 0.0611508 2.16871 0.0611508C2.19788 0.0668779 8.47014 1.29894 12.6787 2.4609C16.8971 3.62556 27.0365 7.1893 32.3648 11.1184L32.3608 11.1224C37.6888 15.0512 46.5718 25.599 47.6076 27.4172C48.6426 29.2345 47.4609 29.8911 39.1705 32.5083L38.4006 32.7427C30.7719 34.9739 25.2074 33.8356 19.2663 29.9927L18.6714 29.5999C12.5069 25.4402 6.82827 18.4158 5.5352 14.4756L5.42348 14.1041C4.4531 10.4895 1.46539 5.97784 0.363642 2.97094L0.16981 2.39032ZM1.69624 0.611148C1.47768 0.598508 1.2345 0.612639 1.03667 0.680397C0.855534 0.742504 0.741135 0.836619 0.677274 0.993349C0.603597 1.17453 0.556061 1.53972 0.758038 2.21852L0.943794 2.77385C1.43702 4.11798 2.33553 5.80042 3.28863 7.64259C4.35654 9.70667 5.47991 11.9473 6.01709 13.9482H6.01574C6.49987 15.7454 8.15137 18.4626 10.5237 21.3006C12.8812 24.121 15.8922 26.989 19.0173 29.0978H19.016C22.1494 31.2094 25.1187 32.546 28.2971 33.0463C31.474 33.5464 34.9086 33.2188 38.9834 31.9304H38.9848L41.7724 31.0328C44.229 30.2213 45.7243 29.6473 46.5685 29.1431C47.1293 28.808 47.2653 28.5808 47.298 28.4572C47.3294 28.3379 47.3131 28.1367 47.0732 27.7155C46.8437 27.3125 46.1278 26.3516 45.0595 25.0374C44.0049 23.74 42.6374 22.1363 41.1358 20.4656C38.1215 17.1121 34.6044 13.5329 31.9947 11.6084L31.7241 11.4087C29.133 9.56096 25.4583 7.78363 21.871 6.31354C18.1644 4.79457 14.5985 3.62092 12.5145 3.04552C10.4226 2.46796 7.80769 1.87056 5.71019 1.41683C4.66313 1.19034 3.7473 1.00042 3.09345 0.866837C2.76678 0.800098 2.50568 0.746911 2.3262 0.711026C2.23658 0.693109 2.16701 0.679002 2.12025 0.669743C2.09687 0.665114 2.07827 0.66276 2.06641 0.660421C2.06067 0.65929 2.05584 0.658327 2.05295 0.657758L2.05025 0.656426H2.04891L2.03276 0.652431L2.0341 0.653763L2.03141 0.652431C2.0289 0.651904 2.02435 0.651013 2.01795 0.649768C2.00386 0.647024 1.98094 0.642536 1.95065 0.637782C1.88944 0.628185 1.80044 0.6172 1.69624 0.611148Z" fill="var(--fill-0, white)"/>
</svg>
