<svg preserveAspectRatio="none" width="100%" height="100%" overflow="visible" style="display: block;" viewBox="0 0 70.112 125.716" fill="none" xmlns="http://www.w3.org/2000/svg">
<path id="Vector" d="M0.833151 30.1222C0.639083 30.1891 0.458646 30.2092 0.291815 30.2059L2.73637 39.1284L8.34394 41.4477L10.591 47.7831L13.3863 50.243L13.4271 50.33L16.9135 57.7833L15.9092 60.2532L12.4228 63.108L12.1436 68.8511L14.4962 71.823L11.0438 73.1149L7.86728 89.5777L10.3595 93.7946L15.2419 95.4412L19.0245 94.4003L36.7732 107.56L40.4468 116.087L43.9877 117.537L47.2562 124.254L49.98 125.716L53.606 119.414L56.2277 115.117L57.1265 108.929L64.1266 102.988L68.9612 108.648L68.631 107.751L70.112 99.3168L67.7662 93.2625L66.5847 79.3164L63.0166 72.2983L63.3128 68.4963L59.7787 60.0993L58.8731 52.9639L58.8969 52.8769L65.0833 30.5774L64.1538 26.4675C64.004 26.6215 63.8542 26.7788 63.7078 26.9394C62.8804 25.9387 62.4208 24.8309 62.591 23.5525C62.9077 21.183 62.7 18.9138 61.5185 16.7752C61.3143 16.4004 61.2258 15.9586 61.1236 15.5369C60.4563 12.7959 60.3882 12.7759 58.1921 14.7438C58.1275 14.8007 58.0628 14.8642 57.9981 14.9211C56.0983 16.5577 53.8069 15.8582 53.1396 13.4419C52.6119 11.5275 51.1717 10.5536 49.374 11.0723C48.4615 11.3334 47.5831 11.8488 46.943 12.5784C45.0262 14.7672 42.5101 15.8415 39.7284 16.4406C38.8296 16.6347 37.6891 17.5182 37.0626 16.4874C36.4872 15.5403 35.2308 15.4131 34.9142 14.3288C34.3048 12.2571 33.137 10.3695 33.1812 8.08702C33.2357 5.34601 32.136 3.01331 30.0046 1.19936C28.9832 0.329194 28.4249 0.372702 27.829 1.61101C27.1753 2.97315 26.2799 3.2844 24.8363 2.95641C22.6641 2.46109 20.2774 2.71544 18.5001 0.931614C18.1903 0.62371 17.506 0.650484 16.9885 0.576855C15.9398 0.42625 14.881 0.342581 13.8357 0.181936C11.4184 -0.189556 11.4456 -0.189556 10.3697 2.13311C9.21553 4.62311 7.87069 6.92569 4.93924 7.84605C2.5934 8.58234 2.61724 8.65262 2.60362 11.156C2.60362 11.6781 2.54911 12.2069 2.6138 12.7223C2.81128 14.3087 2.38909 15.6373 1.08169 16.6548C-0.113363 17.5852 -0.157625 18.6762 0.186249 20.1321C0.965926 23.4286 1.20769 26.8022 0.853599 30.1356L0.833151 30.1222Z" fill="var(--fill-0, #DDE1E6)" fill-opacity="0.67"/>
</svg>
