<svg preserveAspectRatio="none" width="100%" height="100%" overflow="visible" style="display: block;" viewBox="0 0 99.0831 114.955" fill="none" xmlns="http://www.w3.org/2000/svg">
<path id="Vector" d="M98.6683 62.7821C97.7286 61.912 97.3983 60.7707 97.7592 59.6764C98.3244 57.9561 97.8954 56.2158 98.1814 54.5022C98.4095 53.1401 98.1371 51.8951 96.7582 51.132C95.8764 50.6467 95.6687 49.887 95.7368 48.9198C95.9547 45.8006 95.8798 42.6446 96.3564 39.5689C96.7037 37.3266 96.571 35.2951 95.856 33.1766C95.318 31.5835 94.4532 30.1745 93.6667 28.722C93.282 28.0091 92.9245 27.3298 92.9688 26.5232C93.156 23.3136 92.1687 20.3785 90.9566 17.4601C90.2586 15.7767 89.8433 13.936 88.5835 12.5638C87.2591 11.1213 87.5212 9.34753 87.0786 7.70426C86.5339 5.68616 87.1161 4.39095 88.7061 3.28652C88.8389 3.19281 88.9206 3.0054 88.9818 2.84476C89.3666 1.82734 89.496 0.736286 90.6161 0.0368096C90.6332 0.0267693 90.6502 0.0133871 90.6638 0C88.6312 0.605766 79.7381 3.22629 76.2074 3.80193L52.6741 20.3885C52.6741 20.3885 48.677 22.5706 41.7927 22.7882C34.9118 23.0057 36.4643 21.2621 29.3621 24.7527C22.2565 28.2434 17.8168 34.5722 17.8168 34.5722L11.8211 38.7188C11.8211 38.7188 4.11628 63.4917 0 69.6096L10.4865 76.2797L4.72232 94.8007L42.7188 114.955C42.3306 113.432 42.2966 111.879 42.4634 110.377C42.6609 108.573 43.0423 106.648 45.5549 106.508C46.2665 106.468 46.5252 105.982 46.8521 105.403C47.4547 104.346 48.0778 103.318 48.4557 102.15C49.0107 100.42 49.7393 98.7935 51.1182 97.4882C53.4674 95.266 54.9893 92.6588 55.2141 89.3355C55.2753 88.3984 55.4149 87.4646 55.3264 86.5208C55.2515 85.7377 55.1357 84.9545 55.5886 84.235C57.6654 80.9451 59.7661 77.6653 61.8158 74.3587C62.9223 72.5715 64.9413 71.4938 65.7141 69.459C66.1976 68.1905 67.2497 67.3472 68.0259 66.2996C68.6762 65.4228 69.4525 65.406 70.3684 65.724C71.0323 65.9549 71.6962 66.1791 72.3737 66.3666C73.0512 66.554 73.9467 66.8585 74.2702 66.062C74.7979 64.7735 75.8534 64.8906 76.6637 65.2086C78.1822 65.8076 79.4351 65.3558 80.7085 64.7065C81.8763 64.1108 83.0373 64.0606 84.3038 64.4053C86.1457 64.904 87.8004 64.7869 89.4823 63.5084C91.7873 61.758 93.8438 62.009 96.0636 63.7694C96.4041 64.0405 96.8059 64.2447 97.2042 64.4321C97.8034 64.7132 98.4095 64.7869 98.8657 64.1744C99.2504 63.6624 99.087 63.1603 98.6683 62.7721V62.7821Z" fill="var(--fill-0, #DDE1E6)" fill-opacity="0.67"/>
</svg>
