<svg preserveAspectRatio="none" width="100%" height="100%" overflow="visible" style="display: block;" viewBox="0 0 30 30" fill="none" xmlns="http://www.w3.org/2000/svg">
<g id="Group 39697">
<path id="Union" d="M15.0004 0C23.2846 0.000175379 30 6.68557 30 14.932C29.9998 22.4748 24.3812 28.7094 17.0829 29.7187C17.0829 29.7187 15.8205 30 14.9996 30C14.1783 30 12.9153 29.7187 12.9153 29.7187C5.61798 28.7086 0.000161146 22.4741 0 14.932C0 6.68546 6.7161 0 15.0004 0Z" fill="var(--fill-0, #2EBE0A)"/>
<path id="Exclude" d="M21.2369 13.8572H20.931V20.7985H16.4366V17.8953C16.4366 17.104 15.7919 16.4622 14.997 16.4622C14.2022 16.4624 13.558 17.1041 13.558 17.8953V20.7985H8.92681V13.8572H8.76194L14.9991 9.20176L21.2369 13.8572Z" fill="var(--fill-0, white)"/>
</g>
</svg>
