<svg preserveAspectRatio="none" width="100%" height="100%" overflow="visible" style="display: block;" viewBox="0 0 132.065 79.7025" fill="none" xmlns="http://www.w3.org/2000/svg">
<path id="Vector" d="M86.9597 51.2559C87.1912 52.1126 87.8517 52.8958 88.645 52.3569C89.8264 51.557 90.8716 52.3636 91.9543 52.1996C92.1348 52.3703 92.3186 52.5444 92.4957 52.7151C91.9271 53.9333 90.2486 54.3985 90.1124 55.928L90.2929 56.0919L96.6801 55.2218L107.276 61.7681L110.49 66.9355L121.15 69.3418L125.446 68.388L132.065 57.9461L126.189 55.9313L122.048 50.5028L122.028 50.4058L117.888 32.0889L116.376 27.1858L117.857 21.2119L116.288 15.4587L109.066 7.2257L104.456 6.49608L101.3 2.21221L96.932 0L92.7987 8.26654L91.1747 9.46469L91.9067 12.6341L89.9183 14.448L91.3075 16.6301L89.2272 23.5546H85.9791L84.1337 21.0412L81.5223 22.1222L77.0452 21.0947L73.7358 21.908L72.8506 18.0726L73.0719 17.7279L69.4186 18.685L66.3033 13.2867L63.1029 13.9728L59.4156 12.6675L51.8742 14.7024L50.2842 14.1803L45.6027 20.3651L41.6703 20.2179L34.2957 25.5426L25.0043 19.8162L25.8691 16.7004L18.9235 14.3577C18.549 14.6288 18.0893 14.7626 17.6365 14.8864C16.6151 15.1709 15.5903 15.4052 14.5927 15.8001C13.5134 16.2285 12.9619 16.918 13.2036 17.9923C13.7688 20.4823 12.4409 22.6778 12.1992 25.0339C12.1039 25.961 11.6511 26.6035 10.8135 27.1055C9.51971 27.8853 8.82515 29.0467 8.99879 30.6129C9.05667 31.1283 9.13158 31.8345 8.5698 32.0052C6.60188 32.6076 5.04934 35.034 2.52986 33.3807C2.1281 33.1197 1.63783 33.2837 1.42674 33.7556C0.4564 35.9008 -1.04848 38.0194 1.08627 40.3353C1.52207 40.8072 1.47781 41.4699 1.61059 42.0589C1.70252 42.4639 1.87956 43.0161 2.1928 43.1767C3.99048 44.1072 5.27745 45.8843 7.22154 46.4466C9.02603 46.9686 10.4832 48.1668 12.2809 48.5952C14.2557 49.0671 14.0582 50.6166 14.334 52.0658C14.6131 53.5316 13.5509 53.8195 12.7065 54.3784C12.3422 54.6227 12.012 55.0243 11.6136 55.1047C8.86942 55.6602 8.52554 57.4942 8.90006 59.7834C9.02603 60.5532 8.91027 61.3798 9.1452 62.1061C9.81933 64.1878 9.13839 66.0385 8.31445 67.8793C8.03526 68.4984 7.69479 69.054 6.91171 69.3251C4.13007 70.2856 3.23804 72.856 2.11789 75.1485C1.49483 76.4203 2.36984 77.3339 3.53084 77.8259C4.41266 78.2008 5.28086 78.4283 5.91754 79.2918C6.39079 79.931 7.20452 79.8072 7.66756 79.0375C8.46766 77.7121 9.35969 76.4236 9.98275 75.018C10.4866 73.8801 11.5898 74.1177 11.7736 74.5695C12.6895 76.8018 13.6837 75.4229 14.7459 74.8272C15.5256 74.3921 16.4313 74.3118 17.3165 74.2415C18.5626 74.1411 19.7849 74.3553 21.0208 74.4624C22.6108 74.5996 24.1497 74.7034 25.1643 72.9463C25.835 71.7917 27.1288 71.5942 28.4635 72.0126C30.1658 72.5481 31.017 73.7529 31.1804 75.9584C31.286 77.3741 31.7694 77.7824 33.1688 77.5381C33.5841 77.4645 33.9655 77.1967 34.374 77.0528C36.1581 76.4203 37.8877 75.3459 39.8216 76.8085C40.3527 77.2101 41.1937 77.1231 41.8984 76.9591C43.6314 76.5608 44.9729 76.9892 46.0658 78.4651C46.7297 79.3621 47.683 79.1713 48.0371 78.1438C48.3197 77.3306 48.4354 76.447 48.5035 75.5836C48.7351 72.7221 48.9223 69.8572 49.1096 66.9924C49.29 64.2012 50.3251 63.4046 53.0182 64.0439C53.4472 64.1443 53.8523 64.3652 54.2847 64.4288C56.4535 64.74 58.4112 64.7266 59.9433 62.6516C60.689 61.6375 61.2473 60.6168 61.7036 59.4956C62.187 58.3042 62.8714 57.2399 64.3082 57.2098C65.9867 57.1729 66.7834 56.1555 67.5835 54.934C68.7343 53.1803 69.977 51.4834 71.247 49.81C71.9313 48.9098 72.6701 47.9861 73.9265 47.812C78.0223 47.2464 79.6395 44.0569 81.6143 41.1452C82.7923 41.8414 82.84 41.8548 82.4518 43.0797C81.7845 45.1915 82.4825 47.1226 83.1566 49.0704C83.446 49.9071 83.9839 50.5798 84.9066 50.1749C86.197 49.6093 86.6634 50.1481 86.9597 51.2492V51.2559Z" fill="var(--fill-0, #DDE1E6)" fill-opacity="0.67"/>
</svg>
