<svg preserveAspectRatio="none" width="100%" height="100%" overflow="visible" style="display: block;" viewBox="0 0 169.707 139.089" fill="none" xmlns="http://www.w3.org/2000/svg">
<path id="Vector" d="M81.7805 114.758C82.2708 114.724 82.9857 114.56 83.2581 115.029L90.1322 110.976L89.7032 106.528L93.0603 101.106L97.0267 101.886L97.7656 106.729L96.4309 108.917L96.8156 112.127L101.402 112.773L103.996 119.965L103.346 121.461L112.419 139.089L145.23 133.961L145.663 113.707L142.973 107.535L146.749 95.0149L158.247 102.247L166.023 102.036L169.707 100.704L166.82 94.3523L165.989 93.7934L160.957 85.3562C160.957 85.3562 146.157 72.4778 138.901 67.6785C131.649 62.8759 112.406 48.0363 101.157 42.3601C89.9075 36.684 75.9925 28.973 70.6641 21.4093C65.6252 14.2573 54.771 1.38557 53.5998 0C53.4636 0.0535484 53.3172 0.100386 53.215 0.170668C53.1674 0.204136 53.1265 0.240963 53.1027 0.287818C51.9485 2.45988 51.5842 5.06701 49.2452 6.59983C48.7821 6.90439 48.7242 7.85487 48.5506 8.52423C48.377 9.19358 48.2953 9.88301 48.1693 10.5658C47.6245 13.4942 47.7471 16.3155 49.8955 18.6482C50.6377 19.4548 50.9577 20.1877 50.5287 21.2018C50.018 22.4067 50.3585 23.2065 51.4787 24.0365C52.7214 24.9569 53.9232 26.1684 52.8814 28.1497C51.0088 27.3398 49.9806 28.307 49.269 29.9536C48.9251 30.7502 48.5029 31.4998 48.2646 32.3533C48.0433 33.1498 47.4339 33.8827 46.501 33.3506C44.928 32.4537 44.7101 34.3848 43.6376 34.5287C41.5642 34.8031 42.6809 36.2857 42.8409 37.1626C43.1678 38.9632 42.8103 40.5228 41.9319 42.0589C41.3701 41.7945 41.2611 41.3461 41.0092 40.998C40.1955 39.8869 39.9878 39.9237 39.0923 40.9779C38.6089 41.5469 38.3637 42.1225 38.3978 42.8688C38.4386 43.7357 38.3808 44.6092 38.3535 45.4793C38.3399 45.9211 38.2854 46.4666 37.8088 46.567C36.2086 46.8984 35.6366 48.1266 34.9046 49.3482C34.3905 50.205 33.6244 50.9714 32.4736 51.2324C30.4512 51.6909 28.9055 53.1167 27.0601 53.9534C26.2158 54.3349 25.7153 55.0913 25.6948 56.0451C25.6608 57.4976 24.9526 58.6991 24.0299 59.6931C23.4137 60.3557 23.4137 60.7741 23.7848 61.4903C24.6326 63.1302 24.4283 63.6891 22.743 63.8196C21.8816 63.8866 21.5684 64.1543 21.1598 64.8203C19.8898 66.8786 18.6948 66.7949 17.4963 64.6664C16.9788 63.746 16.4102 63.669 15.6816 64.392C15.0654 65.0044 14.8066 65.7574 15.0824 66.5439C15.6101 68.0533 15.4841 69.7535 16.9958 70.9851C18.1262 71.9055 18.2045 74.516 17.2716 75.0012C14.8543 76.263 14.1121 79.0274 11.899 80.4163C10.5916 81.2363 10.5882 82.2437 11.5381 83.3481C11.3645 83.502 11.1908 83.6526 11.0172 83.8033C9.9413 83.6694 8.81434 83.3749 7.78272 83.6761C7.63631 83.7196 7.48991 83.7731 7.34692 83.8434C6.18251 84.4124 5.14067 84.911 3.87412 84.2116C3.53706 84.0275 3.03316 84.1647 2.94464 84.4693C2.55991 85.7979 1.35464 86.2431 0.394516 86.9693C-0.10257 87.3441 -0.153641 88.1239 0.377493 88.2712C1.86194 88.6862 2.23646 90.1956 3.32596 90.8683C4.17033 91.387 4.45973 92.0263 4.35418 92.7726C4.16012 94.1247 4.89213 94.6836 5.97823 95.0685C6.63193 95.2994 7.44906 95.3496 7.59205 96.2064C7.77591 97.3041 8.64411 98.0003 9.13438 98.9173C10.292 101.079 10.326 101.063 12.8115 100.289C16.063 99.2787 16.9754 99.6168 18.5926 102.538C18.9399 103.164 19.1817 103.85 20.0226 103.907C23.3524 104.145 26.529 105.387 29.9712 105.166C31.3126 105.079 33.0728 104.66 34.2406 105.946C35.3914 107.211 36.7737 108.108 38.3093 108.817C38.9868 109.132 39.4635 109.493 39.4669 110.357C39.4737 112.117 40.461 113.041 42.2315 113.252C42.7081 113.308 43.321 113.205 43.7057 113.984C42.3609 115.055 41.8127 116.351 43.0588 117.964C43.3176 118.298 43.0758 118.981 43.1201 119.5C43.2086 120.45 43.2529 121.418 43.4708 122.341C43.7738 123.62 44.3152 123.891 45.2923 123.141C46.518 122.201 47.8663 121.699 49.3303 121.284C52.0609 120.507 52.5954 119.714 51.9757 116.896C51.7102 115.685 51.8872 115.055 53.0482 114.741C53.7121 114.56 54.2603 114.282 54.1582 113.526C53.913 111.745 55.2204 111.24 56.4938 110.905C58.3664 110.407 60.2968 110.122 62.2035 109.744C62.8708 109.61 63.3849 109.958 63.9433 110.226C64.8557 110.658 65.4277 111.451 66.1563 112.077C68.2059 113.834 70.3986 115.039 73.296 114.965C76.1253 114.895 78.958 114.948 81.7873 114.761L81.7805 114.758Z" fill="var(--fill-0, #CFDDEB)"/>
</svg>
