<svg width="24" height="24" viewBox="0 0 24 24" fill="none" xmlns="http://www.w3.org/2000/svg">
<path d="M12.0003 0C18.6277 0.000140303 24 5.34846 24 11.9456C23.9999 17.9798 19.505 22.9675 13.6663 23.775C13.6663 23.775 12.6564 24 11.9997 24C11.3426 24 10.3323 23.775 10.3323 23.775C4.49438 22.9669 0.000128917 17.9793 0 11.9456C0 5.34837 5.37288 0 12.0003 0Z" fill="#2EBE0A"/>
<path d="M18.2154 10.3236H17.9106V17.2404H13.4321V14.3475C13.4321 13.559 12.7896 12.9194 11.9975 12.9194C11.2055 12.9196 10.5636 13.5591 10.5636 14.3475V17.2404H5.94872V10.3236H5.78442L11.9996 5.68457L18.2154 10.3236Z" fill="white"/>
</svg>
