<svg preserveAspectRatio="none" width="100%" height="100%" overflow="visible" style="display: block;" viewBox="0 0 94.7119 72.1933" fill="none" xmlns="http://www.w3.org/2000/svg">
<path id="Vector" d="M23.5639 55.6669C30.6695 55.0109 62.6397 67.0158 62.6397 67.0158L72.561 72.1933L94.7119 24.1537L93.0403 23.0994L84.5421 21.0847L73.0342 19.0264L72.9389 18.9494L53.2938 2.54019L48.265 0L43.6108 0.137209L32.4196 6.15138L26.097 3.7852L23.7103 3.93246L22.0931 3.19282L22.7536 12.6542L26.3728 12.952L26.0221 16.9179L21.2862 21.5733L20.8266 27.2997L17.2448 27.7782L13.5201 28.9998L11.9369 34.3747L11.8892 34.4383L5.01853 43.8361L1.27335 45.8174L0 52.772L1.96793 59.5425L6.80599 60.667L12.611 63.0231L12.6825 62.8725C12.6825 62.8725 16.4549 56.3262 23.5605 55.6703L23.5639 55.6669Z" fill="var(--fill-0, #002C5D)"/>
</svg>
