<svg preserveAspectRatio="none" width="100%" height="100%" overflow="visible" style="display: block;" viewBox="0 0 30 30" fill="none" xmlns="http://www.w3.org/2000/svg">
<g id="Group 39697">
<path id="Union" d="M15.0004 0C23.2846 0.000175379 30 6.68557 30 14.932C29.9998 22.4748 24.3812 28.7094 17.0829 29.7187C17.0829 29.7187 15.8205 30 14.9996 30C14.1783 30 12.9153 29.7187 12.9153 29.7187C5.61798 28.7086 0.000161146 22.4741 0 14.932C0 6.68546 6.7161 0 15.0004 0Z" fill="var(--fill-0, #2EBE0A)"/>
<path id="Exclude" d="M21.2374 13.857H20.9315V20.7983H16.4371V17.8951C16.4371 17.1038 15.7924 16.462 14.9974 16.462C14.2026 16.4622 13.5585 17.1039 13.5585 17.8951V20.7983H8.92726V13.857H8.76239L14.9995 9.20156L21.2374 13.857Z" fill="var(--fill-0, white)"/>
</g>
</svg>
