<svg preserveAspectRatio="none" width="100%" height="100%" overflow="visible" style="display: block;" viewBox="0 0 70.6169 123.488" fill="none" xmlns="http://www.w3.org/2000/svg">
<path id="Vector" d="M5.71309 67.8383L8.77392 71.995L13.3396 72.7179L20.9185 81.3626L22.6038 87.5408L21.1262 93.498L22.5766 98.2136L26.6997 116.45L30.5504 121.497L36.3554 123.488L49.0549 103.458L60.5696 99.877L60.4368 97.6714L60.4607 97.5911L68.0872 74.0767L70.6169 73.3873L69.9802 67.3865C65.7992 65.6428 60.842 62.5337 57.6382 57.644C52.5311 49.8594 47.8701 37.1283 41.6531 30.8732C35.4361 24.618 3.68728 1.11698 2.50245 0.390733C1.31761 -0.335517 0.725203 0.173205 0.725203 0.173205L0.289391 3.02131L3.47279 10.0295L9.96895 19.1126L9.98938 19.1896L11.7496 25.6756L17.3129 34.6918L15.8523 38.139L17.5376 40.1002L15.7025 42.4463L13.1115 42.5969L8.73986 45.7864L7.76612 48.176L4.08564 47.7242L3.66686 48.1358L3.97328 50.3983L0.854573 52.1486L1.73639 60.8101L0 62.373L0.898836 65.4052L5.70627 67.8383H5.71309Z" fill="var(--fill-0, #CFDDEB)"/>
</svg>
