<svg preserveAspectRatio="none" width="100%" height="100%" overflow="visible" style="display: block;" viewBox="0 0 82.4278 84.5989" fill="none" xmlns="http://www.w3.org/2000/svg">
<path id="Vector" d="M42.5417 83.6024C49.4226 80.7644 72.9593 53.2673 72.9593 53.2673C72.9593 53.2673 76.0678 44.7564 77.3991 41.0449L82.4278 26.7039C80.9025 25.653 77.8995 24.7628 76.0814 26.1684C75.8431 26.3525 75.3562 26.4295 75.0771 26.3291C72.8844 25.5225 71.6315 27.0286 70.2424 28.1765C69.844 28.5078 69.5886 28.9964 69.2107 29.3579C68.6081 29.9335 67.968 30.0507 67.4369 29.2609C66.2146 27.4402 64.6212 25.9342 63.1878 24.2909C62.4116 23.4007 62.1119 22.4033 62.4524 21.1483C63.2287 18.3102 63.7156 15.3952 64.3829 12.5337C64.9889 9.92989 65.0672 7.19557 66.3134 4.71227C67.0624 3.2263 66.2316 1.93109 64.4782 1.37887C63.2389 0.987297 62.5716 0.619153 62.2515 0L53.4742 4.83274L46.355 7.06839L28.5824 3.20287L25.5863 12.0417L23.5128 14.9567L20.4009 23.5814L22.5017 24.9067L0 73.7161L7.24517 77.4979L19.6791 82.2972C19.6791 82.2972 35.6642 86.4439 42.5485 83.6058L42.5417 83.6024Z" fill="var(--fill-0, #CFDDEB)"/>
</svg>
