<svg preserveAspectRatio="none" width="100%" height="100%" overflow="visible" style="display: block;" viewBox="0 0 119.832 149.585" fill="none" xmlns="http://www.w3.org/2000/svg">
<path id="Vector" d="M10.5546 134.327L29.1238 149.585L45.4698 130.331L50.1717 132.149L50.8969 136.704L57.0117 137.095L58.4519 133.835L59.6368 133.544L60.9748 130.479L63.1981 130.01L67.076 127.56L67.5152 121.081L74.9783 113.149L84.0893 111.127L86.8267 106.151L84.5728 102.309L88.4644 97.8475L90.2314 97.7136L90.6366 95.7123L98.9372 88.8614L100.503 83.125L99.179 74.1557L98.8862 68.831L97.8341 65.5779L98.464 62.0136L100.973 58.7772L116.114 52.2845C116.652 50.6011 117.789 49.5903 118.899 48.593C119.801 47.7797 120.006 46.8761 119.699 45.7683C118.909 42.9269 117.84 40.1725 116.645 37.4851C115.658 35.2628 114.909 32.9334 114.235 30.6576C113.731 28.9642 113.506 26.9494 113.792 25.0049C113.993 23.6294 113.642 22.2204 112.634 21.1093C111.872 20.2659 111.661 19.302 111.763 18.2043C112.141 14.1781 110.68 10.9652 107.418 8.47186C106.312 7.62513 105.43 6.64452 103.816 7.37412C103.329 7.59501 102.543 7.67198 102.029 7.2302C100.125 5.58694 97.623 4.45573 97.3983 1.4269C97.2928 0.0179047 96.4756 -0.313425 95.158 0.2823C93.7859 0.904801 92.4138 1.48714 90.9124 1.75153C86.9663 2.44432 84.1813 4.62976 82.4823 8.17065C81.9546 9.27174 81.4779 10.3963 80.9979 11.5174C80.4157 12.8628 79.4385 13.9137 78.1107 14.4459C76.4832 15.0951 74.7911 15.7477 73.0138 15.7611C70.9063 15.7779 69.2925 16.5911 67.8591 18.0403C66.3168 19.5965 64.7234 21.0992 62.9904 22.4748C61.8941 23.3449 60.7399 23.9105 59.4018 23.944C56.021 24.031 52.715 24.7372 49.4193 25.2727C46.8521 25.691 44.8297 25.2693 43.1001 23.6261C40.8394 21.4741 37.7649 20.5771 35.4429 18.5523C35.1876 18.3281 34.8131 18.2378 34.5033 18.0738C34.1832 17.9031 33.8598 17.7491 33.5465 18.0604C33.1448 18.4586 33.2742 18.9372 33.601 19.2183C35.9639 21.2632 37.1555 24.4393 40.2095 25.8115C40.7713 26.0625 41.3024 26.3838 41.8574 26.6448C43.8015 27.5585 43.8253 27.5585 43.3555 29.513C42.9674 31.1195 42.6813 32.7761 42.0685 34.2989C41.1118 36.6785 40.6828 38.9476 42.0345 41.3205C42.4566 42.0601 42.3579 42.8064 41.4488 43.3084C39.6239 44.3192 38.3812 46.2302 36.1137 46.5849C35.5247 46.6753 35.1978 47.1204 35.5008 47.7496C36.4746 49.7677 36.5393 52.2075 38.4323 53.7972C38.9498 54.2323 38.96 54.8582 39.0179 55.4706C39.2392 57.6996 39.1405 59.7746 37.2032 61.4179C36.2907 62.191 35.6438 63.1214 36.2465 64.6073C36.815 66.0063 36.5461 67.509 35.1638 68.6101C34.5475 69.102 34.2207 69.8718 33.9891 70.6315C33.6589 71.7293 33.3729 72.8203 31.8204 72.73C31.3233 72.6998 31.0645 73.1684 30.959 73.6001C30.3904 75.9529 28.6846 77.9241 28.6097 80.4409C28.5791 81.5052 28.1739 82.4557 27.7687 83.4329C27.0708 85.113 26.778 86.8065 26.8699 88.7208C27.0299 92.071 28.0956 95.2035 28.6335 98.4533C28.8072 99.4975 29.1136 100.274 27.7007 100.605C26.7371 100.833 26.4647 101.653 26.206 102.56C25.8519 103.795 26.2775 104.819 26.8052 105.806C27.7994 107.66 28.1671 109.581 27.6836 111.613C27.4896 112.429 27.4691 113.276 27.8573 113.902C28.7697 115.371 28.1092 116.087 27.0197 117.138C25.4876 118.621 23.8908 120.318 25.3242 122.831C25.6442 123.39 25.5693 124.618 25.1233 124.789C23.5571 125.388 22.7128 127.4 20.578 126.901C18.7259 126.466 16.8192 125.984 14.9739 127.122C14.5483 127.383 13.9014 127.326 13.4281 127.045C12.2603 126.355 11.1232 126.546 9.87364 126.867C8.35854 127.259 7.07838 126.596 6.70727 125.264C6.41106 124.213 6.15229 123.119 6.84344 121.994C7.60269 120.76 8.13383 119.391 8.78413 118.042C5.13769 117.212 4.9232 117.265 3.32299 119.752C2.74419 120.649 1.98494 121.349 1.25293 122.105C0.851173 122.52 0.428992 122.918 0 123.313L10.5512 134.334L10.5546 134.327Z" fill="var(--fill-0, #DDE1E6)" fill-opacity="0.67"/>
</svg>
