<svg preserveAspectRatio="none" width="100%" height="100%" overflow="visible" style="display: block;" viewBox="0 0 151.843 102.98" fill="none" xmlns="http://www.w3.org/2000/svg">
<path id="Vector" d="M24.4151 47.31L31.0747 48.6186L43.0661 58.6589L46.6172 57.7854L47.0598 62.588L74.5936 86.1627L85.6963 87.9097L94.5792 83.9806L108.79 89.6568L112.788 88.7833L116.785 90.9653L122.113 102.753L122.767 102.98L124.792 99.3457L130.42 98.7466L135.429 96.0725L138.953 91.3134L142.674 87.3776L142.524 82.5683L150.198 74.8741H151.747L151.843 73.8633L149.031 70.2254L149.919 60.9113L148.07 58.4849L144.775 60.6436L118.381 61.8082L111.909 64.4723L96.7105 57.8992L95.73 53.3978L98.5831 49.6126L95.2431 46.1989L82.9998 43.0094L60.4062 26.6437L41.4386 11.0577L30.85 0C29.3281 1.42238 27.8981 2.91839 27.4691 5.12726C27.2376 6.31537 26.9652 7.33612 25.4467 7.41979C24.9769 7.44657 24.7283 7.91512 24.6194 8.34686C24.1972 9.99347 22.6719 11.4225 23.8057 13.3904C24.1495 13.9862 24.0168 14.9601 23.6525 15.683C23.1962 16.5833 23.2916 17.3229 23.9589 18.0692C24.4526 18.6215 24.8032 19.6121 24.2891 19.9535C23.2643 20.6329 22.7025 22.0318 21.1091 21.9214C18.0721 21.7139 15.0998 22.1289 12.2161 23.1128C11.3581 23.404 10.4626 23.4609 9.58764 23.3605C7.4597 23.1229 5.58371 23.7387 3.7622 24.7293C3.53068 24.8565 3.29575 24.977 3.05742 25.0908C2.34244 25.4355 1.60702 25.7434 0.888632 26.0781C0.571995 26.0446 0.279185 25.971 0 25.8672L2.65567 27.6645L24.4151 47.31Z" fill="var(--fill-0, #DDE1E6)" fill-opacity="0.67"/>
</svg>
