<svg preserveAspectRatio="none" width="100%" height="100%" overflow="visible" style="display: block;" viewBox="0 0 99.0828 114.955" fill="none" xmlns="http://www.w3.org/2000/svg">
<path id="Vector (Stroke)" d="M90.6156 0.0372879C89.4961 0.73676 89.3662 1.82731 88.9815 2.84454L88.8712 3.0909C88.8265 3.16955 88.772 3.23981 88.7056 3.28666L88.4202 3.49574C87.048 4.55544 86.5676 5.81204 87.0782 7.70395C87.5208 9.34704 87.2591 11.121 88.5831 12.5634C89.8428 13.9355 90.2583 15.7767 90.9562 17.4601C92.1683 20.3785 93.1558 23.3141 92.9686 26.5237C92.9245 27.33 93.2825 28.0096 93.6672 28.7224C94.4536 30.1747 95.318 31.584 95.8559 33.1769C96.5708 35.2953 96.7039 37.3269 96.3566 39.5691L96.2732 40.1471C95.8879 43.0394 95.9417 45.9964 95.7374 48.9204L95.7253 49.272C95.7314 50.0722 95.9861 50.7077 96.7577 51.1324C98.1364 51.8953 98.4098 53.1397 98.1819 54.5016L98.1361 54.8239C97.9455 56.4333 98.2891 58.0639 97.7592 59.6767L97.7 59.8817C97.4422 60.9121 97.7869 61.9664 98.6678 62.7822V62.7716C99.0865 63.1597 99.2501 63.6619 98.8657 64.1739C98.4666 64.7096 97.953 64.7207 97.4294 64.5268L97.2046 64.4322C96.8063 64.2448 96.4036 64.0401 96.0632 63.769C93.8435 62.009 91.787 61.7579 89.4823 63.508L89.1673 63.7344C87.6979 64.7279 86.2391 64.8592 84.6472 64.4921L84.304 64.4056C83.0375 64.0609 81.8764 64.1109 80.7086 64.7065L80.2308 64.9396C79.1174 65.4526 77.9921 65.7327 76.6637 65.2086C75.8534 64.8906 74.7981 64.7737 74.2704 66.0622C74.0278 66.6593 73.4636 66.637 72.9109 66.5097L72.3738 66.3672C72.035 66.2735 71.6993 66.1706 71.3656 66.0622L70.3682 65.724C69.4525 65.4061 68.6762 65.4227 68.026 66.2993C67.2497 67.3468 66.1983 68.191 65.7148 69.4594L65.5546 69.8296C64.6919 71.6311 62.8526 72.6833 61.8153 74.3588L60.27 76.8344C58.7172 79.306 57.146 81.7675 55.5884 84.2348C55.1356 84.9543 55.251 85.7382 55.3259 86.5213C55.4143 87.4649 55.2755 88.3983 55.2142 89.3352L55.1563 89.9505C54.7953 92.9832 53.3204 95.4046 51.1181 97.4879L50.8677 97.737C49.6494 98.9975 48.9759 100.528 48.4556 102.15L48.3035 102.582C47.9228 103.576 47.3798 104.478 46.8524 105.404C46.5256 105.983 46.2664 106.467 45.5548 106.508L45.326 106.526C43.0188 106.768 42.6542 108.629 42.4629 110.376L42.4104 110.942C42.3105 112.267 42.3791 113.622 42.7187 114.955L4.72199 94.8005L10.4858 76.2791L0 69.6099C3.0872 65.0215 8.19319 49.9395 10.5531 42.6854L11.8211 38.7182L17.8165 34.5726C17.8165 34.5726 21.9832 28.6329 28.7035 25.0881L29.3617 24.7525C36.02 21.48 35.0721 22.8087 40.5973 22.8082L41.7926 22.7882C48.6769 22.5707 52.6742 20.3885 52.6742 20.3885L76.2074 3.80204C79.7381 3.22639 88.6315 0.605766 90.6641 0C90.6505 0.0133871 90.6327 0.0272476 90.6156 0.0372879ZM88.9358 1.13861C85.5659 2.12098 79.3861 3.87191 76.4497 4.37467L53.0295 20.8826L53.0012 20.9025L52.9703 20.9199L52.9689 20.9212C52.9681 20.9217 52.9662 20.9218 52.9649 20.9225C52.962 20.9241 52.9577 20.9266 52.9528 20.9292C52.9431 20.9343 52.9297 20.9415 52.9124 20.9505C52.8775 20.9686 52.827 20.9944 52.7617 21.0264C52.6304 21.0907 52.4375 21.1807 52.1869 21.2887C51.6857 21.5048 50.9497 21.793 49.9968 22.0864C48.2101 22.6366 45.6593 23.2084 42.4602 23.3689L41.8128 23.3942C40.0642 23.4495 38.8462 23.3809 37.8944 23.301C36.9224 23.2194 36.3101 23.1376 35.6734 23.1505C34.6171 23.1719 33.5081 23.4604 30.8652 24.7032L29.6349 25.2959C26.1642 27.0009 23.3327 29.407 21.3634 31.3964C20.3804 32.3894 19.6162 33.2742 19.0993 33.9094C18.8412 34.2266 18.6447 34.481 18.5138 34.6551C18.4486 34.7418 18.3993 34.8091 18.367 34.8536C18.3509 34.8758 18.3384 34.8934 18.3307 34.9042C18.327 34.9094 18.3243 34.9138 18.3226 34.9161L18.3213 34.9175L18.258 35.008L18.1678 35.0693L12.3447 39.0964C12.3369 39.1215 12.3285 39.1493 12.3192 39.179C12.2616 39.3624 12.1769 39.6318 12.0675 39.9766C11.8484 40.6672 11.5312 41.6612 11.1373 42.8718C10.3498 45.2926 9.25553 48.5843 8.03331 52.0686C6.81135 55.5521 5.4592 59.2332 4.15261 62.4293C2.98499 65.2854 1.83595 67.7911 0.84129 69.4221L11.21 76.0181L5.45694 94.5009L41.8747 113.819C41.7118 112.634 41.7264 111.453 41.8532 110.311L41.942 109.615C42.05 108.9 42.2313 108.147 42.6137 107.509C43.1585 106.6 44.0729 105.983 45.5198 105.902L45.6491 105.884C45.763 105.858 45.8373 105.807 45.9075 105.735C46.0338 105.606 46.1398 105.421 46.3167 105.108L46.318 105.105L46.7703 104.313C47.211 103.534 47.6057 102.786 47.8714 101.965C48.438 100.199 49.2058 98.4587 50.6941 97.0498L51.1087 96.6436C53.1327 94.5953 54.4026 92.2385 54.6017 89.2953C54.6673 88.2928 54.7984 87.458 54.7161 86.5786L54.6596 85.9899C54.612 85.3576 54.629 84.6105 55.0675 83.9138L58.193 78.9811C59.2331 77.338 60.2691 75.6937 61.293 74.0418L61.5286 73.6876C62.1029 72.8794 62.832 72.2032 63.4521 71.5768C64.1853 70.8361 64.8022 70.1346 65.1401 69.245L65.2518 68.9787C65.5268 68.371 65.9066 67.8627 66.2882 67.4086C66.7485 66.8609 67.1543 66.4489 67.5307 65.941L67.6855 65.7493C68.0529 65.3248 68.484 65.0621 68.9817 64.9675C69.526 64.8642 70.0701 64.9773 70.5714 65.1513L71.5567 65.4843C71.8838 65.5905 72.2106 65.6916 72.5394 65.7826L73.0495 65.9184C73.2003 65.9537 73.3333 65.9756 73.4547 65.9757C73.5598 65.9757 73.6067 65.9577 73.6243 65.9477C73.632 65.9432 73.6647 65.9253 73.701 65.8358L73.8343 65.5495C74.1671 64.9241 74.6554 64.5632 75.2315 64.4402C75.687 64.343 76.1406 64.4073 76.5277 64.5201L76.8898 64.6439L76.8912 64.6453L77.1241 64.7278C78.2811 65.0975 79.2687 64.7579 80.4273 64.1672L80.6763 64.0473C81.9198 63.4859 83.1644 63.4651 84.4668 63.8196C85.3316 64.0537 86.1154 64.134 86.8615 64.0234C87.6024 63.9134 88.3413 63.61 89.1081 63.0272L89.5725 62.6983C90.6535 61.9851 91.7354 61.6512 92.842 61.7168C94.0945 61.7912 95.2816 62.3723 96.4468 63.2963L96.6702 63.4561C96.9039 63.6091 97.1716 63.7445 97.4671 63.8835L97.6475 63.9594C97.8145 64.021 97.9425 64.0416 98.0378 64.034C98.1296 64.0266 98.2395 63.9917 98.3717 63.8143L98.373 63.813L98.4322 63.7197C98.4751 63.6357 98.4734 63.5781 98.4659 63.5386C98.4554 63.483 98.4203 63.403 98.338 63.3069L98.2492 63.2257C97.1569 62.2142 96.7329 60.8324 97.1764 59.4876C97.4266 58.7251 97.4626 57.9424 97.4617 57.0878C97.4609 56.2581 97.4225 55.3235 97.5761 54.4031L97.6098 54.174C97.6731 53.6503 97.6387 53.1897 97.4954 52.7997C97.3372 52.3693 97.0296 51.9764 96.4603 51.6611C95.9079 51.3571 95.5335 50.9454 95.3228 50.4359C95.1195 49.9437 95.0877 49.4072 95.125 48.8778L95.1923 47.7299C95.328 45.0284 95.3289 42.192 95.7495 39.4773L95.8532 38.6782C96.0294 36.9679 95.8931 35.3792 95.3955 33.7469L95.2744 33.3687C94.758 31.8397 93.9335 30.4999 93.1261 29.0087C92.7525 28.3165 92.3012 27.4909 92.3561 26.4904V26.4877L92.3776 25.9164C92.4121 23.4479 91.742 21.1235 90.827 18.7758L90.3895 17.6905C90.2092 17.2555 90.0474 16.8126 89.8915 16.384C89.734 15.9513 89.582 15.5323 89.4136 15.1256C89.1192 14.4142 88.7857 13.7667 88.3314 13.2066L88.1295 12.9722C87.3596 12.1337 87.0636 11.2041 86.8978 10.3194C86.8168 9.88661 86.7628 9.441 86.7067 9.03699C86.6634 8.72575 86.6172 8.42929 86.5546 8.14342L86.4859 7.86109C86.1911 6.76873 86.1828 5.80248 86.5182 4.93532C86.8487 4.08102 87.4831 3.39987 88.3246 2.80991C88.3273 2.80586 88.3314 2.80094 88.3354 2.79393C88.3564 2.75702 88.3788 2.70477 88.4068 2.63146L88.6585 1.88837C88.7366 1.64923 88.825 1.39306 88.9358 1.13861Z" fill="var(--fill-0, white)"/>
</svg>
