<svg preserveAspectRatio="none" width="100%" height="100%" overflow="visible" style="display: block;" viewBox="0 0 24 24" fill="none" xmlns="http://www.w3.org/2000/svg">
<g id="Group 39697">
<path id="Union" d="M12.0004 0C18.6277 0.000140303 24 5.34846 24 11.9456C23.9999 17.9798 19.505 22.9675 13.6663 23.775C13.6663 23.775 12.6564 24 11.9997 24C11.3426 24 10.3323 23.775 10.3323 23.775C4.49438 22.9669 0.000128917 17.9793 0 11.9456C0 5.34837 5.37288 0 12.0004 0Z" fill="var(--fill-0, #2EBE0A)"/>
<path id="Exclude" d="M18.2154 10.3235H17.9106V17.2403H13.4321V14.3473C13.4321 13.5588 12.7896 12.9193 11.9975 12.9193C11.2055 12.9194 10.5636 13.5589 10.5636 14.3473V17.2403H5.94872V10.3235H5.78442L11.9996 5.6844L18.2154 10.3235Z" fill="var(--fill-0, white)"/>
</g>
</svg>
