<svg preserveAspectRatio="none" width="100%" height="100%" overflow="visible" style="display: block;" viewBox="0 0 97.9437 47.0268" fill="none" xmlns="http://www.w3.org/2000/svg">
<g id="Group">
<path id="Vector" d="M96.8928 4.37038e-05H8.71696C7.9447 4.37038e-05 7.28593 0.562585 7.16257 1.32498L0.00990386 46.0371C-0.135666 46.955 1.36444 47.4188 1.82089 46.6095C6.69625 37.9864 13.5627 32.5115 25.2058 32.5115H92.1013C92.7601 32.5115 93.256 31.9094 93.1302 31.263L90.2262 16.2545L97.8254 1.52976C98.1857 0.831519 97.6799 4.37038e-05 96.8928 4.37038e-05ZM25.9904 26.4814C20.3428 26.4814 15.766 21.9021 15.766 16.257C15.766 10.6118 20.3453 6.03256 25.9904 6.03256C31.6356 6.03256 36.2149 10.6118 36.2149 16.257C36.2149 21.9021 31.6356 26.4814 25.9904 26.4814ZM57.4532 12.0601H51.1617L51.1691 16.2595C51.7489 17.2217 52.9356 18.2333 54.0533 18.9414C54.7392 19.3756 56.0272 20.2046 57.4532 20.4489V25.6919H57.1004C54.569 25.6919 50.1698 23.0914 48.0134 20.9646C45.857 23.0889 41.4578 25.6919 38.9264 25.6919H38.5736V20.4489C39.9997 20.2046 41.2876 19.3756 41.9735 18.9414C43.0912 18.2333 44.2779 17.2192 44.8578 16.2595L44.8652 12.0601H38.5736V6.81715H57.4508V12.0601H57.4532ZM79.4762 12.0601H66.8906V20.4514H79.4762V25.6944H60.599V6.81715H79.4762V12.0601Z" fill="var(--fill-0, white)"/>
<path id="Vector_2" d="M25.9904 21.2359C28.7414 21.2359 30.9719 19.0055 30.9719 16.2544C30.9719 13.5034 28.7414 11.273 25.9904 11.273C23.2394 11.273 21.009 13.5034 21.009 16.2544C21.009 19.0055 23.2394 21.2359 25.9904 21.2359Z" fill="var(--fill-0, white)"/>
</g>
</svg>
