<svg width="98" height="48" viewBox="0 0 98 48" fill="none" xmlns="http://www.w3.org/2000/svg">
<path d="M96.8928 0H8.71696C7.94469 0 7.28593 0.562541 7.16256 1.32493L0.00990365 46.0371C-0.135666 46.9549 1.36444 47.4188 1.82089 46.6095C6.69625 37.9863 13.5627 32.5114 25.2058 32.5114H92.1013C92.7601 32.5114 93.256 31.9094 93.1302 31.263L90.2262 16.2545L97.8254 1.52972C98.1857 0.831475 97.6799 0 96.8928 0ZM25.9904 26.4814C20.3428 26.4814 15.766 21.9021 15.766 16.2569C15.766 10.6118 20.3453 6.03251 25.9904 6.03251C31.6356 6.03251 36.2149 10.6118 36.2149 16.2569C36.2149 21.9021 31.6356 26.4814 25.9904 26.4814ZM57.4532 12.0601H51.1617L51.1691 16.2594C51.7489 17.2217 52.9356 18.2332 54.0533 18.9413C54.7392 19.3756 56.0272 20.2046 57.4532 20.4489V25.6918H57.1004C54.569 25.6918 50.1698 23.0913 48.0134 20.9645C45.857 23.0889 41.4578 25.6918 38.9264 25.6918H38.5736V20.4489C39.9997 20.2046 41.2876 19.3756 41.9735 18.9413C43.0912 18.2332 44.2779 17.2192 44.8578 16.2594L44.8652 12.0601H38.5736V6.81711H57.4508V12.0601H57.4532ZM79.4762 12.0601H66.8906V20.4513H79.4762V25.6943H60.599V6.81711H79.4762V12.0601Z" fill="white"/>
<path d="M25.9905 21.2363C28.7415 21.2363 30.9719 19.0059 30.9719 16.2549C30.9719 13.5039 28.7415 11.2734 25.9905 11.2734C23.2395 11.2734 21.009 13.5039 21.009 16.2549C21.009 19.0059 23.2395 21.2363 25.9905 21.2363Z" fill="white"/>
</svg>
