<svg preserveAspectRatio="none" width="100%" height="100%" overflow="visible" style="display: block;" viewBox="0 0 222 61.5629" fill="none" xmlns="http://www.w3.org/2000/svg">
<g id="Group 2776">
<path id="Star 1" d="M17.2791 28.3239C17.8698 26.4647 20.5006 26.4647 21.0913 28.3239L23.0495 34.4869C23.3133 35.3173 24.0843 35.8813 24.9556 35.8813H31.3859C33.3125 35.8813 34.1252 38.3377 32.5787 39.4867L27.3001 43.4086C26.6147 43.9177 26.3282 44.8059 26.5867 45.6196L28.5847 51.9079C29.1727 53.7584 27.0445 55.2769 25.4859 54.1189L20.378 50.3239C19.6698 49.7977 18.7006 49.7977 17.9924 50.3239L12.8845 54.1189C11.3259 55.2769 9.19766 53.7584 9.78563 51.9079L11.7836 45.6196C12.0422 44.8059 11.7557 43.9177 11.0703 43.4085L5.79167 39.4867C4.24519 38.3377 5.05784 35.8813 6.98444 35.8813H13.4148C14.286 35.8813 15.0571 35.3173 15.3209 34.4869L17.2791 28.3239Z" fill="var(--fill-0, #FFD700)"/>
<path id="Star 2" d="M62.847 15.3554C63.4441 13.5093 66.0559 13.5093 66.6529 15.3554L68.6864 21.6432C68.9534 22.4686 69.7219 23.0278 70.5894 23.0278H77.1898C79.125 23.0278 79.932 25.5022 78.3689 26.6432L73.0131 30.5526C72.3154 31.0619 72.0235 31.9615 72.2893 32.7834L74.3313 39.0973C74.9277 40.9415 72.8147 42.4709 71.2491 41.3281L65.9291 37.4448C65.2266 36.9321 64.2733 36.9321 63.5708 37.4448L58.2508 41.3281C56.6852 42.4709 54.5722 40.9415 55.1687 39.0973L57.2106 32.7834C57.4764 31.9615 57.1845 31.0619 56.4868 30.5526L51.131 26.6432C49.5679 25.5022 50.375 23.0278 52.3102 23.0278H58.9105C59.778 23.0278 60.5466 22.4686 60.8135 21.6432L62.847 15.3554Z" fill="var(--fill-0, #FFD700)"/>
<path id="Star 3" d="M109.1 5.77293C109.703 3.93984 112.297 3.93985 112.9 5.77293L115.009 12.1816C115.279 13.002 116.045 13.5564 116.909 13.5564H123.679C125.622 13.5564 126.424 16.0486 124.844 17.1815L119.411 21.079C118.701 21.5882 118.404 22.4993 118.677 23.3292L120.763 29.6668C121.368 31.5049 119.27 33.045 117.697 31.9171L112.166 27.949C111.469 27.4492 110.531 27.4492 109.834 27.949L104.303 31.9171C102.73 33.045 100.632 31.5049 101.237 29.6668L103.323 23.3292C103.596 22.4993 103.299 21.5882 102.589 21.079L97.1556 17.1815C95.5763 16.0486 96.3778 13.5564 98.3214 13.5564H105.091C105.955 13.5564 106.721 13.002 106.991 12.1816L109.1 5.77293Z" fill="var(--fill-0, #FFD700)"/>
<path id="Star 4" d="M155.347 15.3554C155.944 13.5093 158.556 13.5093 159.153 15.3554L161.187 21.6432C161.453 22.4686 162.222 23.0278 163.089 23.0278H169.69C171.625 23.0278 172.432 25.5022 170.869 26.6432L165.513 30.5526C164.815 31.0619 164.524 31.9615 164.789 32.7834L166.831 39.0973C167.428 40.9415 165.315 42.4709 163.749 41.3281L158.429 37.4448C157.727 36.9321 156.773 36.9321 156.071 37.4448L150.751 41.3281C149.185 42.4709 147.072 40.9415 147.669 39.0973L149.711 32.7834C149.977 31.9615 149.685 31.0619 148.987 30.5526L143.631 26.6432C142.068 25.5022 142.875 23.0278 144.81 23.0278H151.411C152.278 23.0278 153.047 22.4686 153.314 21.6432L155.347 15.3554Z" fill="var(--fill-0, #FFD700)"/>
<path id="Star 5" d="M200.909 28.3239C201.5 26.4647 204.13 26.4647 204.721 28.3239L206.679 34.4869C206.943 35.3173 207.714 35.8813 208.585 35.8813H215.016C216.942 35.8813 217.755 38.3377 216.208 39.4867L210.93 43.4086C210.244 43.9177 209.958 44.8059 210.216 45.6196L212.214 51.9079C212.802 53.7584 210.674 55.2769 209.116 54.1189L204.008 50.3239C203.3 49.7977 202.33 49.7977 201.622 50.3239L196.514 54.1189C194.956 55.2769 192.827 53.7584 193.415 51.9079L195.413 45.6196C195.672 44.8059 195.385 43.9177 194.7 43.4085L189.421 39.4867C187.875 38.3377 188.688 35.8813 190.614 35.8813H197.045C197.916 35.8813 198.687 35.3173 198.951 34.4869L200.909 28.3239Z" fill="var(--fill-0, #FFD700)"/>
</g>
</svg>
