<svg width="13" height="17" viewBox="0 0 13 17" fill="none" xmlns="http://www.w3.org/2000/svg">
<path d="M6.46768 0C9.87315 0.225362 12.463 3.10138 12.2627 6.54262C12.0981 9.37931 9.40805 13.257 7.65882 15.4462C7.36549 15.8146 7.03285 16.2511 6.71806 16.5909C6.26734 17.0738 6.03484 17.0989 5.57338 16.6088C5.25144 16.2654 4.91512 15.8218 4.61464 15.4462C2.8654 13.257 0.175416 9.37931 0.0108661 6.54262C-0.189456 3.13 2.40398 0.203899 5.80587 0H6.46768ZM5.9311 3.05846C3.57375 3.22301 2.23586 5.89872 3.58088 7.87331C4.79711 9.66548 7.45138 9.6798 8.68193 7.89122C10.1414 5.76995 8.48878 2.87602 5.93468 3.05487L5.9311 3.05846Z" fill="#00418B"/>
</svg>
