<svg preserveAspectRatio="none" width="100%" height="100%" overflow="visible" style="display: block;" viewBox="0 0 36.9381 36.9379" fill="none" xmlns="http://www.w3.org/2000/svg">
<g id="Group">
<path id="Vector" d="M29.4862 3.08993L33.8059 7.40957" stroke="var(--stroke-0, #282D33)" stroke-width="2.07754"/>
<g id="Vector_2">
<path d="M4.37115 28.2062L30.9369 1.64043C31.7391 0.838215 33.0453 0.838215 33.8475 1.64043L35.2977 3.0906C36.0999 3.89281 36.0999 5.19899 35.2977 6.00121L8.73192 32.567" fill="var(--fill-0, #00418B)"/>
<path d="M4.37115 28.2062L30.9369 1.64043C31.7391 0.838215 33.0453 0.838215 33.8475 1.64043L35.2977 3.0906C36.0999 3.89281 36.0999 5.19899 35.2977 6.00121L8.73192 32.567" stroke="var(--stroke-0, #00418B)" stroke-width="2.07754"/>
</g>
<path id="Vector_3" d="M29.682 2.89518L34.0428 7.25596L35.2975 6.00121C36.0998 5.19899 36.0998 3.89281 35.2975 3.0906L33.8474 1.64043C33.0452 0.838215 31.739 0.838215 30.9368 1.64043L29.682 2.89518Z" fill="var(--fill-0, #CACACA)" stroke="var(--stroke-0, #CACACA)" stroke-width="2.07754"/>
<path id="Vector_4" d="M3.79511 27.4655L0 36.9379L9.47234 33.1427L3.79511 27.4655Z" fill="var(--fill-0, #CACACA)"/>
<path id="Vector_5" d="M4.63847 35.0761L1.85127 32.2992L0 36.9377L4.63847 35.0761Z" fill="var(--fill-0, #00418B)"/>
</g>
</svg>
