<svg preserveAspectRatio="none" width="100%" height="100%" overflow="visible" style="display: block;" viewBox="0 0 38.6567 52.6331" fill="none" xmlns="http://www.w3.org/2000/svg">
<g id="Group 3439">
<path id="Vector" d="M33.6821 48.7034C33.8629 48.9673 34.1623 49.1251 34.4823 49.1251H37.6867C38.2224 49.1251 38.6567 48.6908 38.6567 48.1551V0.970004C38.6567 0.434285 38.2224 0 37.6867 0H4.48438C3.94866 0 3.51437 0.434286 3.51437 0.970004V4.37812C3.51437 4.57384 3.57358 4.76498 3.68421 4.92643L33.6821 48.7034Z" fill="var(--fill-0, #CACED7)"/>
<path id="Vector_2" d="M37.6865 0C38.2222 0 38.6565 0.459055 38.6565 0.994774C38.6549 48.2046 38.5401 46.7858 38.6565 46.7858C37.3679 46.7858 36.3137 45.7331 36.3137 44.4465V13.4672C36.3137 13.2096 36.2113 12.9627 36.029 12.7807L25.8558 2.62288C25.674 2.44129 25.4275 2.33929 25.1705 2.33929H8.19979C7.4627 2.33929 6.45699 1.89461 6.04481 0.944945C5.83152 0.453518 6.29125 0 6.82697 0H37.6865Z" fill="var(--fill-0, #D1D5DD)"/>
<path id="Vector_3" d="M34.8577 12.5807C35.0399 12.7627 35.1423 13.0096 35.1423 13.2671V51.6628C35.1423 52.1985 34.708 52.6328 34.1723 52.6328H0.970005C0.434287 52.6328 0 52.1985 0 51.6628V4.47774C0 3.94202 0.434286 3.50774 0.970004 3.50774H25.3697C25.6267 3.50774 25.8732 3.60974 26.0551 3.79133L34.8577 12.5807Z" fill="var(--fill-0, #E6EAF1)"/>
<path id="Vector_4" d="M34.8575 12.5807C35.0397 12.7627 35.1421 13.0096 35.1421 13.2671V49.3235C35.1421 49.8592 34.7078 50.2935 34.1721 50.2935H9.37106C5.49369 50.2935 2.3426 47.1472 2.3426 43.2757V4.47774C2.3426 3.94203 2.77688 3.50774 3.3126 3.50774H25.3695C25.6265 3.50774 25.873 3.60974 26.0548 3.79133L34.8575 12.5807Z" fill="var(--fill-0, #E6EAF1)"/>
<path id="Vector_5" d="M35.1418 12.8649H25.7705V3.50774L35.1418 12.8649Z" fill="var(--fill-0, #C0C5CD)"/>
</g>
</svg>
