<svg preserveAspectRatio="none" width="100%" height="100%" overflow="visible" style="display: block;" viewBox="0 0 42.4609 42.4609" fill="none" xmlns="http://www.w3.org/2000/svg">
<g id="_?&#235;&#141;&#137;&#236;&#148;&#160;??1" clip-path="url(#clip0_3423_199)">
<path id="Vector" d="M13.6869 25.4809C14.2025 25.4288 21.5181 24.1068 21.5181 23.9527C21.5181 23.7985 32.4568 14.2405 32.4568 14.2405C32.4568 14.2405 37.6624 19.5264 42.2656 24.1166C42.3936 23.1733 42.4609 22.2095 42.4609 21.2316C42.4609 20.9428 42.4533 20.6563 42.4425 20.3708C41.9899 9.04357 32.6674 0 21.2305 0C9.79358 0 0 9.50487 0 21.2305C0 32.9561 9.50487 42.4609 21.2305 42.4609C23.1495 42.4609 25.0088 42.2048 26.7769 41.7272C27.4129 41.5557 28.037 41.3538 28.647 41.1259L9.92817 23.3557C9.92817 23.3557 13.1714 25.5319 13.6869 25.4798V25.4809Z" fill="var(--fill-0, #00418B)"/>
<path id="Vector_2" d="M42.2656 24.1155C37.6635 19.5253 32.4568 14.2394 32.4568 14.2394C32.4568 14.2394 21.5659 26.5337 21.5659 26.689C21.5659 26.8442 14.2025 25.4288 13.6869 25.4798C13.1714 25.5319 9.92817 23.3557 9.92817 23.3557L28.6481 41.1259C35.8487 38.4406 41.1997 31.9597 42.2656 24.1155Z" fill="var(--fill-0, #00418B)"/>
<path id="Vector_3" d="M19.1465 30.9068C18.3813 30.9068 17.6172 30.6246 17.0202 30.0602L9.43106 22.8857C8.97736 22.457 8.95674 21.7406 9.38656 21.2869L12.086 18.4312C12.5147 17.9775 13.2311 17.9569 13.6848 18.3867L19.1226 23.5272L30.0179 12.9879C30.3685 12.6482 30.9285 12.658 31.2683 13.0085L34.3443 16.1877C34.684 16.5383 34.6743 17.0983 34.3237 17.4381L21.301 30.0363C20.7008 30.617 19.9247 30.9068 19.1487 30.9068H19.1465Z" fill="var(--fill-0, white)"/>
</g>
<defs>
<clipPath id="clip0_3423_199">
<rect width="42.4609" height="42.4609" fill="white"/>
</clipPath>
</defs>
</svg>
