<svg preserveAspectRatio="none" width="100%" height="100%" overflow="visible" style="display: block;" viewBox="0 0 42.3178 56.0414" fill="none" xmlns="http://www.w3.org/2000/svg">
<g id="Group 39733">
<path id="Union" d="M23.4943 27.7471C24.0185 27.7471 24.4103 28.1441 24.4103 28.5781V31.1494C24.4102 31.6246 24.0184 32.0175 23.4943 32.0176H22.6193L23.9162 41.5137L29.7268 28.3008L29.7316 28.2969C29.7441 28.2996 29.7563 28.3029 29.7687 28.3057L29.7717 28.3008C31.588 28.7027 33.2798 29.4055 34.7746 30.3496C34.8347 30.3874 34.8939 30.4263 34.9533 30.4648C35.0398 30.5212 35.126 30.5778 35.2111 30.6357C35.2824 30.6841 35.3528 30.7337 35.423 30.7832C35.4854 30.8273 35.548 30.871 35.6096 30.916C35.7131 30.9914 35.815 31.0686 35.9162 31.1465C35.9456 31.1692 35.9749 31.192 36.0041 31.2148C36.9381 31.9446 37.7693 32.7776 38.4758 33.6973C38.4885 33.7138 38.5012 33.7305 38.5139 33.7471C38.5937 33.852 38.6717 33.9583 38.7482 34.0654C38.7824 34.1131 38.8163 34.1609 38.8498 34.209C38.9077 34.2924 38.9648 34.3763 39.0207 34.4609C39.074 34.5412 39.1255 34.6227 39.177 34.7041C39.2081 34.7537 39.2402 34.8026 39.2707 34.8525C40.0851 36.1796 40.6611 37.6485 40.9396 39.2178C40.932 39.2227 40.9239 39.2275 40.9162 39.2324C40.9419 39.3839 40.9664 39.5361 40.9865 39.6895L42.2951 51.1602C42.5549 53.6114 40.549 55.7485 37.8459 55.8271C33.6481 55.977 27.4031 56.0474 21.1584 56.041C14.914 56.0474 8.66952 55.977 4.47187 55.8271C1.76868 55.7486 -0.237181 53.6114 0.0226536 51.1602L1.33125 39.6895C1.35139 39.5362 1.37486 39.3839 1.40058 39.2324C1.39307 39.2276 1.38564 39.2226 1.37812 39.2178C1.65851 37.6383 2.2389 36.16 3.06172 34.8262C3.07578 34.8032 3.09047 34.7807 3.10468 34.7578C3.17262 34.6492 3.24156 34.5412 3.31269 34.4346C3.35608 34.3692 3.40092 34.3048 3.44551 34.2402C3.48757 34.1795 3.52936 34.1186 3.57246 34.0586C3.64273 33.9604 3.71427 33.863 3.7873 33.7666C3.80849 33.7387 3.83034 33.7113 3.85176 33.6836C4.55925 32.7651 5.39073 31.9326 6.32539 31.2041C6.34293 31.1904 6.36051 31.1767 6.37812 31.1631C6.48781 31.0784 6.59869 30.9949 6.71113 30.9131C6.76595 30.8731 6.82169 30.8342 6.87715 30.7949C6.95287 30.7414 7.02876 30.688 7.10566 30.6357C7.20224 30.5699 7.30027 30.5061 7.39863 30.4424C7.44169 30.4146 7.48413 30.3858 7.52754 30.3584C9.02608 29.4096 10.7237 28.704 12.5461 28.3008L12.548 28.3057C12.5606 28.3029 12.5735 28.2996 12.5861 28.2969L12.59 28.3008L18.3996 41.5127L19.6984 32.0176H18.8234C18.2993 32.0176 17.9066 31.6247 17.9064 31.1494V28.5781C17.9064 28.1441 18.2992 27.7471 18.8234 27.7471H23.4943Z" fill="var(--fill-0, #203A72)"/>
<path id="Vector" d="M25.9617 24.4666C27.4457 23.1581 28.5578 21.2693 29.2755 19.1485C29.7104 19.73 30.3692 19.1447 30.4504 18.6014C30.4426 17.7711 32.0209 14.0179 30.25 14.1441C30.2422 14.1786 30.2369 14.1977 30.2369 14.1977L29.0922 15.1019C29.0922 15.1019 28.7307 12.6456 28.4451 10.1154C27.9972 6.153 25.5125 5.75 25.5125 5.75C25.0305 6.17978 21.2072 6.72307 17.304 6.88631C13.41 7.04827 13.3445 15.0917 13.3445 15.0917L12.15 14.1518C12.15 14.1518 12.1303 14.1123 12.0963 14.0357C12.1002 14.0893 12.1028 14.1429 12.1067 14.1977C12.0897 14.1645 12.0805 14.1441 12.0805 14.1441C10.2874 14.0039 11.8749 17.7622 11.867 18.6014C11.9482 19.1447 12.6097 19.7313 13.0432 19.1459C13.761 21.2681 14.873 23.1581 16.3583 24.4666C17.7637 25.5276 19.4062 26.1372 21.1587 26.1372C22.9112 26.1372 24.5537 25.5276 25.9604 24.4666H25.9617Z" fill="var(--fill-0, #E6EAF1)"/>
<path id="Vector_2" d="M29.8652 14.6357C29.879 14.6059 29.8879 14.5891 29.8879 14.5891C29.8917 14.5891 29.8954 14.5891 29.9005 14.5891C30.1074 13.7183 32.6986 2.30781 26.0376 3.26138C26.0376 3.26138 24.8795 -2.20387 16.6201 1.01524C8.3406 4.24212 11.9284 13.3418 12.4154 14.4791C11.3759 -1.61646 31.0346 -1.58412 29.8652 14.637V14.6357Z" fill="var(--fill-0, #203A72)"/>
<path id="Vector_3" d="M13.5298 15.6726C13.5298 15.6726 13.5937 7.22184 17.3942 7.0503C21.2038 6.87877 24.9353 6.30789 25.4058 5.85627C25.4058 5.85627 27.8308 6.27974 28.268 10.4435C28.5467 13.1009 28.8995 15.6833 28.8995 15.6833L30.0168 14.7331C30.0168 14.7331 30.0219 14.713 30.0296 14.6769C30.0258 14.6769 30.0219 14.6769 30.0168 14.6769C30.0168 14.6769 30.0079 14.6943 29.9938 14.7251C31.1776 -2.07448 11.2581 -2.10933 12.3115 14.5616C12.3447 14.6407 12.3639 14.6836 12.3639 14.6836L13.5298 15.6712V15.6726Z" fill="var(--fill-0, #203A72)"/>
</g>
</svg>
