<svg preserveAspectRatio="none" width="100%" height="100%" overflow="visible" style="display: block;" viewBox="0 0 52.996 50.4008" fill="none" xmlns="http://www.w3.org/2000/svg">
<g id="Group 39731">
<path id="Vector" d="M46.7635 41.0046C46.8862 43.8086 44.8015 46.3622 42.2795 46.4452C39.7855 46.5264 37.2883 46.479 34.7928 46.4604C34.7348 46.4604 34.6635 46.4299 34.5972 46.3825V48.5655C34.7082 48.5114 34.8441 48.4962 35.0148 48.4978C37.2585 48.5131 39.5038 48.5131 41.7475 48.5046C45.6284 48.4894 48.5366 45.4146 48.6642 41.1823C48.6725 40.8895 48.7338 40.7186 48.9227 40.5934C48.2068 40.7727 47.3899 40.9132 46.7652 41.0063L46.7635 41.0046Z" fill="var(--fill-0, #C6CEDA)"/>
<path id="Vector_2" d="M3.34948 21.4138C3.48049 19.5717 3.76769 15.9236 4.16069 14.7744C6.79587 7.0579 12.0847 2.23486 19.8777 0.435652C20.9089 0.197244 22.0947 0.0686065 23.3997 0.0514549C23.8766 0.0463094 24.3536 0.0377336 24.8306 0.0291578C25.4957 0.0171516 26.1692 0.00514549 26.8393 0C27.4994 0.00514549 28.1729 0.0171516 28.8296 0.0291578C29.3149 0.0377336 29.7919 0.0463094 30.2689 0.0514549C31.5756 0.0686065 32.7596 0.197244 33.7909 0.435652C41.5856 2.23486 46.8727 7.05961 49.5079 14.7744C49.9009 15.9236 50.1881 19.5717 50.3191 21.4138L46.8055 21.0605C47.0054 16.9235 45.3107 12.2343 42.39 8.94286C39.5836 5.7801 35.8953 4.10953 31.7251 4.10953C30.7711 4.10953 28.5944 3.99119 27.5481 3.93459C27.009 3.90543 26.888 3.89857 26.8343 3.89857C26.7805 3.89857 26.6579 3.90543 26.1171 3.93459C25.0708 3.99119 22.8958 4.10953 21.9418 4.10953C17.7716 4.10953 14.0833 5.78182 11.2768 8.94286C8.35615 12.2343 6.66151 16.9235 6.86137 21.0605L3.3478 21.4138H3.34948Z" fill="var(--fill-0, #C6CEDA)"/>
<path id="Vector_3" d="M10.4269 30.3971C10.4269 33.2891 10.4286 36.1812 10.4269 39.0716C10.4253 40.9466 9.64977 41.8925 8.07388 41.8553C6.78633 41.8265 5.46729 41.9027 4.21785 41.6031C1.80679 41.0278 0.0801112 38.4403 0.0386841 35.5161C-0.00937126 32.0978 -0.0159996 28.6761 0.0386841 25.2594C0.095025 21.8174 2.47625 19.0472 5.37118 18.9508C6.36211 18.9169 7.35471 18.9304 8.3473 18.9406C9.56691 18.9524 10.3706 19.8815 10.4203 21.3453C10.4435 22.0205 10.4253 22.6957 10.4269 23.3709C10.4269 25.7147 10.4269 28.0567 10.4269 30.4005V30.3971Z" fill="var(--fill-0, #00418B)"/>
<path id="Vector_4" d="M42.5692 30.3971C42.5692 33.2891 42.5675 36.1812 42.5692 39.0715C42.5708 40.9466 43.3463 41.8925 44.9222 41.8553C46.2098 41.8265 47.5288 41.9027 48.7782 41.6031C51.1893 41.0278 52.916 38.4403 52.9574 35.5161C53.0055 32.0978 53.0121 28.6761 52.9574 25.2594C52.9011 21.8174 50.5198 19.0472 47.6249 18.9508C46.634 18.9169 45.6414 18.9304 44.6488 18.9406C43.4292 18.9524 42.6255 19.8815 42.5758 21.3453C42.5526 22.0205 42.5708 22.6957 42.5692 23.3709C42.5692 25.7147 42.5692 28.0567 42.5692 30.4005V30.3971Z" fill="var(--fill-0, #00418B)"/>
<path id="Vector_5" d="M32.7002 44.5795H25.0809C23.5068 44.5795 22.2307 45.8826 22.2307 47.4901C22.2307 49.0977 23.5068 50.4008 25.0809 50.4008H32.7002C34.2743 50.4008 35.5504 49.0977 35.5504 47.4901C35.5504 45.8826 34.2743 44.5795 32.7002 44.5795Z" fill="var(--fill-0, #C6CEDA)"/>
</g>
</svg>
