<svg width="74" height="42" viewBox="0 0 74 42" fill="none" xmlns="http://www.w3.org/2000/svg">
<path d="M21.3504 24.9256C17.5694 24.9345 14.5128 28.0075 14.5218 31.7885C14.5308 35.5696 17.6037 38.6261 21.3848 38.6171C25.1658 38.6082 28.2224 35.5352 28.2134 31.7542C28.2044 27.9731 25.1315 24.9166 21.3504 24.9256ZM21.3758 35.0572C19.5607 35.0617 18.0863 33.5947 18.0818 31.7796C18.0773 29.9645 19.5443 28.49 21.3594 28.4855C23.1745 28.481 24.6489 29.948 24.6534 31.7631C24.6579 33.5782 23.1909 35.0527 21.3758 35.0572Z" fill="#145CE6"/>
<path d="M48.9878 34.9857L48.9729 28.6396L58.0677 28.6172L58.0587 25.1274L44.8392 25.1603L44.8721 38.3813L58.0916 38.347L58.0841 34.9633L48.9878 34.9857Z" fill="#145CE6"/>
<path d="M42.8539 25.1274L29.6344 25.1603L29.6419 28.6501L33.4364 28.6411L34.0309 28.6396V28.6411H34.007L34.0175 32.6776L31.7154 34.9917L29.6344 34.9961L29.6419 38.3813L33.7665 38.3709L36.088 36.0374L38.4544 38.3589L42.8629 38.347L42.8539 34.9633L40.7385 34.9678L38.4589 32.7329L38.4499 28.6411H38.4738V28.6291L42.8629 28.6172L42.8539 25.1274Z" fill="#145CE6"/>
<path d="M62.5172 18.967L73.1442 25.3987L73.2408 25.4573V30.4211L72.9371 30.2375L36.8073 8.37134L0.517212 30.3342L0.345337 30.4387L0.241821 30.2668L0.228149 30.2444L0.199829 30.1965V25.5618L0.296509 25.5032L36.4879 3.60083L36.7037 3.46997L36.8082 3.40649L36.9117 3.46997L37.1276 3.60083L58.0338 16.2532V4.91919L58.3356 5.09888L62.4196 7.52954L62.5172 7.58716V18.967Z" fill="#145CE6" stroke="#145CE6" stroke-width="0.4"/>
<path d="M52.4474 5.47066C52.4474 3.96033 53.6724 2.73533 55.1828 2.73533C53.6724 2.73533 52.4474 1.51033 52.4474 0C52.4474 1.51033 51.2224 2.73533 49.7121 2.73533C51.2224 2.73533 52.4474 3.96033 52.4474 5.47066Z" fill="#145CE6"/>
<path d="M3.40127 19.9031C3.40127 18.2449 4.74578 16.9019 6.40251 16.9019C4.74428 16.9019 3.40127 15.5574 3.40127 13.9006C3.40127 15.5589 2.05676 16.9019 0.400024 16.9019C2.05825 16.9019 3.40127 18.2464 3.40127 19.9031Z" fill="#145CE6"/>
<path d="M66.0302 35.8821C66.0302 37.3924 64.8052 38.6174 63.2949 38.6174C64.8052 38.6174 66.0302 39.8424 66.0302 41.3527C66.0302 39.8424 67.2552 38.6174 68.7655 38.6174C67.2552 38.6174 66.0302 37.3924 66.0302 35.8821Z" fill="#145CE6"/>
</svg>
