<svg preserveAspectRatio="none" width="100%" height="100%" overflow="visible" style="display: block;" viewBox="0 0 71.2349 54.4342" fill="none" xmlns="http://www.w3.org/2000/svg">
<g id="Group 427319010">
<path id="Vector" d="M32.5354 22.693C29.8945 23.1679 29.1254 25.3745 29.0035 27.7588C28.9037 29.7034 28.8674 32.4632 29.0085 34.3877C29.07 35.232 29.2615 36.1315 29.8169 36.7951C30.8793 38.0661 33.7924 37.8613 33.737 40.0006C33.6724 42.4994 30.1818 41.5768 29.3059 43.9209C28.9027 44.9991 29.1164 46.2289 29.1144 47.3343C29.1103 49.4897 29.1103 51.6601 29.1083 53.8146C25.6046 51.2616 22.0988 48.6715 18.7805 45.8806C8.95777 37.6213 -5.34649 22.5686 2.04201 8.73656C4.31703 4.47793 10.1351 -0.0376993 15.1548 0.294598C15.2052 0.29761 15.1498 0.119916 15.3423 0.095822C21.0727 -0.601902 27.1004 2.58956 30.4005 7.10017C30.5376 7.2879 30.8501 7.98864 31.0719 7.93443C31.1807 7.90732 32.1574 6.39241 32.3832 6.12637C40.4783 -3.43296 55.971 -1.27654 60.7589 10.3438C61.8052 13.5202 62.3253 16.8683 61.7608 20.2345C61.6923 20.644 61.3304 22.3638 61.029 22.4842C52.0086 22.43 42.9811 22.3989 33.9466 22.3909C33.6926 22.4943 33.3902 22.5334 33.0394 22.5083C32.6725 22.5244 32.5052 22.5856 32.5354 22.692V22.693Z" fill="var(--fill-0, white)"/>
<path id="Vector_2" d="M70.8393 44.9805C70.8866 44.9955 70.9743 44.9584 71.0368 44.9825C71.0005 45.3088 71.1255 45.613 71.1457 45.9302C71.2596 47.7081 71.2697 50.3906 71.1457 52.1625C71.059 53.3994 70.7274 54.1292 69.4281 54.4173C57.4019 54.4254 45.3726 54.3922 33.3424 54.3169C32.7174 54.3772 32.4352 54.068 32.1328 53.6142L33.1347 54.1724L34.1488 54.2165H66.9081C68.3899 54.2015 70.7637 54.7075 70.9441 52.6645C71.1538 50.2942 70.8615 47.4561 70.8393 45.0809C70.7516 45.0528 70.7526 45.0186 70.8393 44.9805Z" fill="var(--fill-0, white)"/>
<path id="Vector_3" d="M33.0398 25.5044H69.8311C70.4914 25.5576 70.8059 26.162 71.0407 26.7091C71.0014 26.9832 70.9409 26.9551 70.8391 26.7091C70.6496 26.0294 70.2232 25.6208 69.4824 25.6008L33.0106 25.6259C32.3877 25.8578 32.0107 26.415 31.9311 27.0605L31.925 34.7856C32.3484 34.8288 32.1952 34.9985 32.2345 35.0416L31.8242 34.88L31.8303 26.8597C31.8948 26.1981 32.3887 25.661 33.0398 25.5044Z" fill="var(--fill-0, white)"/>
<path id="Vector_4" d="M61.061 22.5925C52.4831 22.5303 43.7973 22.5002 35.0037 22.5012L33.9463 22.3918L60.9965 22.3777C61.1698 22.3195 61.1628 22.1257 61.2132 21.9912C62.4348 18.7375 61.9077 13.991 60.7828 10.7714C60.7435 10.6579 60.5792 10.41 60.7586 10.3447C62.1778 13.7882 62.5941 18.7385 61.2938 22.2723C61.2454 22.4038 61.2293 22.5514 61.061 22.5925Z" fill="var(--fill-0, white)"/>
<path id="Vector_5" d="M69.4275 54.4173C57.4073 54.351 45.3317 54.5508 33.3418 54.3169L69.4275 54.4173Z" fill="var(--fill-0, white)"/>
<path id="Vector_6" d="M71.0402 26.709L71.0352 34.9371C66.5265 35.3407 64.7927 41.0429 68.3711 43.874C69.1593 44.4974 69.9123 44.6812 70.8386 44.9803V45.0807C70.1693 45.0235 69.498 44.7585 68.9214 44.4302C64.9601 42.1734 65.5901 36.452 69.8528 35.0134C70.0897 34.9331 70.8618 34.8678 70.9263 34.6771C70.8043 32.2717 71.134 29.6334 70.9434 27.2561C70.9273 27.0563 70.892 26.8977 70.8386 26.709H71.0402Z" fill="var(--fill-0, white)"/>
<path id="Vector_7" d="M33.9465 22.3915C42.7684 22.5863 51.6588 22.3805 60.5078 22.4899C60.6782 22.4919 60.9564 22.4256 61.0612 22.5923L33.1855 22.5873C32.9567 22.5592 32.7501 22.6535 32.5354 22.6927C32.3418 22.3935 32.4628 22.5321 32.6825 22.4899C33.1412 22.4016 33.4798 22.3815 33.9465 22.3915Z" fill="var(--fill-0, white)"/>
<path id="Vector_8" d="M70.8386 45.081C64.8714 43.8713 64.8905 35.8369 70.9193 34.849C70.9959 32.6695 71.0241 30.4258 71.017 28.2192C71.017 28.0445 71.0059 26.7976 70.9485 26.7474C70.9213 26.7243 70.882 26.7143 70.8396 26.7093C70.893 26.1079 70.2086 25.5086 69.5645 25.5548L32.999 25.5728C32.3781 25.7706 31.9346 26.3318 31.8862 26.9793L31.8741 34.7737C31.9971 34.839 32.117 34.9284 32.234 35.0428C32.2894 35.103 33.4667 35.3992 33.7792 35.5618C34.7358 36.0618 35.8496 37.3398 36.2135 38.3577C37.3454 41.5201 35.1107 44.6553 31.8318 44.8822L31.8267 52.8664C31.7743 53.2499 31.9789 53.3844 32.1332 53.6153C32.6775 54.2408 33.3941 54.3723 34.1491 54.2177H66.9085C67.3742 54.3723 68.1856 54.3703 68.746 54.3381C70.2762 54.2508 70.9757 53.9034 71.0604 52.2209C71.1793 49.8606 71.1823 47.399 70.8406 45.082L70.8386 45.081ZM61.6418 31.9557C61.3233 33.9636 58.0332 35.9393 56.9335 37.5968L59.902 46.9914L57.8861 48.8939L53.0961 41.4669C52.949 41.4277 52.9288 41.506 52.8441 41.5643C52.2232 41.9909 50.1145 44.1775 49.5682 44.827C49.4714 44.9414 49.2588 45.1663 49.2184 45.2858C49.0924 45.6542 49.8938 47.385 49.8484 47.8267C49.8242 48.0596 48.3425 49.5294 48.2135 49.4972L45.6099 45.5117L41.9116 43.3231C42.2724 43.0661 43.2421 41.8112 43.5778 41.764C44.1735 41.7681 45.8961 42.524 46.3417 42.3192L49.7758 38.8105L49.8676 38.4581L42.3238 33.6233L42.3621 33.3341L44.0747 31.4548L53.8531 34.5991C55.733 33.3793 58.0494 29.4229 60.5824 29.8445C61.671 30.0252 61.788 31.0251 61.6408 31.9537L61.6418 31.9557Z" fill="var(--fill-0, white)"/>
<path id="Vector_9" d="M66.9078 54.2163C55.9924 54.3297 45.0649 54.131 34.1484 54.2163H66.9078Z" fill="var(--fill-0, white)"/>
</g>
</svg>
