<svg preserveAspectRatio="none" width="100%" height="100%" overflow="visible" style="display: block;" viewBox="0 0 80 80" fill="none" xmlns="http://www.w3.org/2000/svg">
<g id="Frame 427318951">
<path id="Vector" d="M29.4284 10.0871L50.3367 10.0769C52.3952 10.3074 53.8236 12.3689 53.116 14.3706C51.932 16.5495 50.4774 18.5768 49.0936 20.6339L30.9428 20.6448L30.7261 20.4967C29.6684 18.6942 28.1781 16.9551 27.1984 15.1249C26.0188 12.9197 27.0051 10.6444 29.4277 10.0878L29.4284 10.0871Z" fill="var(--fill-0, white)"/>
<path id="Vector_2" d="M49.143 23.6448C49.4048 23.8279 49.5894 24.0687 49.7995 24.3014C50.316 24.8733 50.6253 25.1052 51.1855 25.6144C51.5218 25.9201 51.8107 26.2513 52.1338 26.5627C52.1097 26.6948 52.1477 26.7327 52.2797 26.7086C52.4285 26.8531 52.5708 27.0026 52.7174 27.1463C52.6933 27.2784 52.7313 27.3163 52.8633 27.2922C53.3046 27.7284 53.7394 28.1654 54.1763 28.6053C54.2901 28.9058 54.6235 29.2633 54.8693 29.4836C54.9321 29.5397 55.0357 29.5383 55.0517 29.5536C55.2326 29.7206 55.3887 29.8979 55.5624 30.0642C55.655 30.3546 55.9118 30.7062 56.2189 30.7937C56.2853 30.8645 56.3597 30.9287 56.4377 31.0126C56.7062 31.5276 57.219 31.9397 57.6042 32.3832C58.0513 32.8975 58.4321 33.4038 58.9179 33.8575C58.9697 33.9057 59.0266 33.9713 59.0638 34.0034C59.0069 34.3193 59.2608 34.2908 59.3556 34.3681C59.3826 34.39 59.403 34.4177 59.4286 34.4411C59.4089 34.6672 59.5708 34.6869 59.6482 34.7861C59.7816 34.9568 59.7744 34.9298 59.8663 35.0247C59.8903 35.0495 59.9151 35.0728 59.9392 35.0976C59.8984 35.2909 60.01 35.3165 60.0939 35.4171C60.2514 35.6068 60.4353 35.7877 60.5957 35.973C60.6184 35.9985 60.6468 36.0197 60.6687 36.0459L62.4194 38.5262C62.4669 38.5998 62.5143 38.6626 62.5653 38.745C62.6069 38.9835 62.8447 39.3767 63.076 39.4745C63.0855 39.4942 63.0665 39.5277 63.076 39.5474C63.5013 40.444 64.1118 41.3434 64.5276 42.159C65.6466 44.3525 66.3805 46.662 66.7584 49.1072C66.7773 49.2312 66.7467 49.4464 66.9415 49.3954C66.9415 49.4443 66.9429 49.4931 66.9415 49.5413C66.9415 49.5478 66.8817 49.5311 66.8707 49.6492C66.8525 49.8462 66.7963 50.1978 67.0144 50.1249C67.0195 50.1723 67.0108 50.2226 67.0144 50.2707C66.8014 50.475 67.0144 50.9244 67.0144 51.1096V52.6415C67.0144 53.1639 66.9035 53.8474 66.8685 54.3558C66.8649 54.404 66.8685 54.4536 66.8685 54.5017C66.6431 54.4587 66.7445 54.6126 66.7139 54.7446C66.3134 56.4808 65.7203 58.2009 64.8026 59.6963C64.6538 59.9385 64.3139 60.1668 64.3153 60.4834C64.2942 60.5097 64.2643 60.5301 64.2424 60.5564C64.0148 60.8292 63.6486 61.0444 63.5859 61.4317C63.5611 61.4551 63.5399 61.4835 63.5129 61.5047C63.4356 61.5645 63.2365 61.5076 63.2941 61.7965C63.1584 61.946 63.0774 62.0255 62.9293 62.1612C62.4917 62.5624 62.1597 62.8615 61.7622 63.3284C61.6776 63.4276 61.6156 63.4714 61.5433 63.5472C61.2567 63.4801 61.299 63.7157 61.2515 63.7661C61.2282 63.7916 61.2019 63.8142 61.1786 63.839C60.881 63.815 60.8773 64.063 60.8139 64.1308C60.7905 64.1563 60.7657 64.1797 60.7409 64.2038C60.5848 64.1549 60.3849 64.33 60.3762 64.4956C60.3309 64.524 60.2755 64.5401 60.2303 64.5685C59.8918 64.7808 59.5147 65.0098 59.1426 65.198L58.7713 65.5898C58.6955 65.6233 58.6014 65.6379 58.5525 65.6627C57.8544 66.0158 57.0301 66.4535 56.2831 66.7854C55.4026 67.1757 54.4674 67.4492 53.5716 67.7979C53.4571 67.8424 53.336 67.8176 53.3739 67.9978C53.328 68.0058 53.274 67.9905 53.228 67.9978C53.2229 67.9985 53.1879 67.9431 53.1339 67.9489C52.864 67.9773 52.8108 68.0218 52.6444 68.2166C52.5985 68.2232 52.5438 68.2086 52.4985 68.2166C52.2046 68.267 51.9529 68.2677 51.6057 68.3851C51.4875 68.4252 51.3671 68.3975 51.4043 68.5814C45.0652 70.1643 37.6916 70.3306 31.2708 69.1649C31.4188 68.9403 31.3043 69.0511 31.1643 69.0176C30.4078 68.8352 29.5879 68.7316 28.8635 68.5814C28.819 68.5719 28.7621 68.5901 28.7176 68.5814C28.7621 68.3654 28.6096 68.453 28.4856 68.4158C25.9157 67.6425 23.3165 66.8335 21.0501 65.4329C20.8057 65.2819 20.6379 65.0368 20.3293 65.0062C20.2681 64.961 20.2053 64.934 20.1105 64.8603C20.1448 64.6655 20.0645 64.7115 19.8916 64.7144C19.8654 64.6925 19.8442 64.6641 19.8187 64.6414C19.6568 64.4999 19.5342 64.2395 19.3081 64.2767C19.2833 64.2534 19.2606 64.2271 19.2351 64.2038C19.0513 64.036 18.9236 63.7836 18.6515 63.7661C18.5888 63.7128 18.5494 63.6588 18.5056 63.6202C18.4932 63.3926 18.2686 63.2824 18.068 63.2554C18.0081 63.1891 17.9264 63.1212 17.8491 63.0366C17.5471 62.7047 17.4647 62.6142 17.1196 62.3071C16.9402 62.1474 16.8417 62.0445 16.6819 61.8694C16.741 61.5791 16.5361 61.6353 16.4631 61.5776C16.3493 61.4879 16.3296 61.45 16.2443 61.3588C16.2574 61.2005 16.28 61.102 16.0984 61.14C16.0758 61.1144 16.0466 61.0955 16.0254 61.067C16.005 60.8671 15.8175 60.7344 15.6607 60.6293C15.6505 60.6096 15.6716 60.5732 15.6607 60.5564C15.4725 60.2558 15.2682 59.8422 15.0435 59.4994C14.9801 59.4023 14.9108 59.2061 14.7853 59.2433C14.7758 59.2229 14.7948 59.1908 14.7853 59.1704C13.435 56.2335 12.7895 53.5899 13.0353 50.308C13.0681 49.8681 13.2738 49.2969 13.1075 48.8847C13.1148 48.8381 13.1002 48.7848 13.1075 48.7388C13.3088 48.7819 13.249 48.6396 13.276 48.5098C13.5569 47.1792 13.9194 45.8253 14.2747 44.5808C14.2856 44.5422 14.2674 44.4809 14.2747 44.4349C14.5431 44.3284 14.5139 44.0629 14.611 43.8594C15.7446 41.4681 16.9205 39.2111 18.5691 37.1679L18.9433 36.4836C18.9638 36.4566 18.9958 36.4369 19.0163 36.4107C19.1184 36.3749 19.1629 36.2998 19.1622 36.1918C19.1833 36.1648 19.2147 36.1452 19.2351 36.1189C19.3372 36.0831 19.3817 36.008 19.381 35.9C19.4029 35.8723 19.4335 35.8519 19.454 35.8271C19.6356 35.865 19.613 35.7666 19.5999 35.6083C19.6217 35.5813 19.6516 35.5608 19.6728 35.5353C19.8544 35.5732 19.8318 35.4748 19.8187 35.3165C19.8712 35.2588 19.9084 35.2231 19.9646 35.1706C20.0536 35.0867 20.1929 35.0611 20.1834 34.8788C20.2053 34.8518 20.2345 34.8314 20.2564 34.8058C20.438 34.8438 20.4154 34.7453 20.4023 34.587C20.4256 34.5615 20.4512 34.5388 20.4752 34.514C20.5555 34.4323 20.7072 34.4061 20.6941 34.2222C20.7189 34.1982 20.7422 34.1734 20.767 34.1493C20.8991 34.0202 21.1252 33.9356 21.1318 33.7116C21.1821 33.6627 21.212 33.6226 21.2777 33.5657C21.3185 33.53 21.5125 33.5767 21.4965 33.2739C21.5395 33.2367 21.5702 33.1849 21.6424 33.128C21.7146 33.0711 21.9203 33.1266 21.8612 32.8362C21.9407 32.756 21.9874 32.7013 22.0801 32.6174C22.1931 32.5153 22.5251 32.427 22.4448 32.1797C22.5061 32.1265 22.582 32.0353 22.6637 31.9609C22.6731 31.9521 22.7855 31.9434 22.8825 31.8544C22.9795 31.7654 23.14 31.5122 23.1743 31.3773C23.2275 31.3182 23.2764 31.2781 23.3202 31.2314C23.6412 31.1358 23.903 30.7178 24.0497 30.429C24.073 30.4042 24.0993 30.3808 24.1226 30.356C24.4261 30.2794 24.6624 29.9008 24.7791 29.6265C24.9491 29.4646 25.1191 29.283 25.2898 29.1159C25.7661 28.6498 26.1506 28.2157 26.6028 27.7299C27.3564 26.9209 28.1552 26.1739 28.9372 25.3956C29.0692 25.4196 29.1071 25.3817 29.0831 25.2497C29.2042 25.1286 29.326 25.006 29.4478 24.8849C29.7666 24.7609 30.0343 24.5231 30.2539 24.2656C30.3093 24.2007 30.3057 24.1044 30.3232 24.0825C30.4341 23.9461 30.4632 23.8987 30.615 23.7907C30.6449 23.7696 30.7951 23.8345 30.7609 23.6448H49.1437H49.143ZM29.2282 44.2161H27.441C27.2528 44.2161 26.8815 44.5794 26.8363 44.7785C26.7706 45.0696 26.7845 46.8458 26.8691 47.1223C27.1375 47.9948 29.0962 47.3353 29.7768 47.6432C30.5683 51.2278 31.1883 54.8562 32.0579 58.4197C32.257 58.732 32.5415 58.9676 32.9179 59.0186C33.3607 59.0785 35.3376 59.0887 35.722 58.9909C36.1065 58.8932 36.4311 58.5634 36.5252 58.1892C37.4319 54.6717 38.1869 51.1031 39.1455 47.606L40.8349 47.6147L43.4399 58.3453C43.6697 58.794 43.9257 58.9836 44.4349 59.0281C44.9441 59.0726 46.8787 59.0923 47.2864 58.9559C47.9568 58.7312 48.0261 57.9368 48.1611 57.3503C48.9 54.137 49.3574 50.8521 50.127 47.6446C50.2766 47.4652 52.392 47.6366 52.8232 47.5688C53.0617 47.5308 53.2565 47.3499 53.3258 47.1231C53.4221 46.8094 53.4199 45.1338 53.3571 44.7814C53.3156 44.548 53.069 44.2168 52.8275 44.2168H50.6026L51.9755 36.6857C51.896 36.4814 51.7829 36.2239 51.5546 36.1524C51.3131 36.0766 49.5544 36.0766 49.2575 36.124C48.8482 36.1889 48.6571 36.6179 48.5791 36.9775L47.3922 44.2168L43.3881 44.2103L41.6447 36.5799C41.5177 36.3757 41.3259 36.1641 41.0786 36.1247C40.7737 36.0766 39.0309 36.0773 38.7807 36.1532C38.5057 36.2371 38.3357 36.6098 38.2519 36.8644L36.5923 44.2139L32.5058 44.1854C32.3861 44.1016 32.4554 43.7711 32.4284 43.6062C32.0841 41.5156 31.8945 38.8216 31.3838 36.8454C31.3196 36.5967 31.1592 36.2473 30.9016 36.1605C30.6748 36.0839 28.6731 36.0758 28.4039 36.1357C28.1347 36.1955 27.9407 36.488 27.9174 36.7499L29.2275 44.2175L29.2282 44.2161Z" fill="var(--fill-0, white)"/>
<path id="Vector_3" d="M36.388 49.4702L34.1739 56.474L32.3918 49.4702H36.388Z" fill="var(--fill-0, white)"/>
<path id="Vector_4" d="M47.2942 49.4702L45.5131 56.3273L43.4059 49.4702H47.2942Z" fill="var(--fill-0, white)"/>
</g>
</svg>
