<svg preserveAspectRatio="none" width="100%" height="100%" overflow="visible" style="display: block;" viewBox="0 0 62.4528 24.0113" fill="none" xmlns="http://www.w3.org/2000/svg">
<path id="Vector" d="M46.7475 18.3762C47.6864 21.2356 50.3598 23.5983 53.4046 23.9055C59.2402 24.4938 63.5994 20.1068 62.1842 14.2303C61.1327 9.86285 59.0578 5.42729 57.8531 1.07048C57.5417 0.395719 57.1576 0.0768104 56.3991 0L5.61526 0.0418082C5.16809 0.13612 4.75099 0.520172 4.57541 0.944087C3.34253 5.27853 1.5325 9.48074 0.356851 13.8278C-2.20979 23.3154 9.7378 27.6352 14.8197 20.3518C15.2203 19.7782 15.6122 19.0937 15.6131 18.3752L16.2504 19.7286C17.1302 21.0548 18.1837 22.3188 19.6212 23.0587C24.0338 25.329 29.7966 23.0655 31.1808 18.277C33.469 25.3669 43.3253 25.9133 46.4768 19.2201L46.7484 18.3762H46.7475Z" fill="var(--fill-0, white)"/>
</svg>
