<svg preserveAspectRatio="none" width="100%" height="100%" overflow="visible" style="display: block;" viewBox="0 0 120 120" fill="none" xmlns="http://www.w3.org/2000/svg">
<g id="Frame 1171285643">
<rect width="120" height="120" fill="white"/>
<path id="Vector 18" d="M53.8955 57.3584L62.7969 64.0098L76.1986 50.6086" stroke="var(--stroke-0, white)" stroke-width="19"/>
<g id="Group 427319034">
<path id="Vector 17" d="M58.0681 33.8643C59.4203 32.589 61.5219 32.5709 62.9021 33.7794L63.0378 33.9044L63.4675 34.3077C65.6908 36.3283 68.9934 38.391 72.5261 40.0381C76.3099 41.8023 80.0563 42.9487 82.6853 43.1436C84.3632 43.2682 85.876 44.5982 85.9822 46.4688C87.5259 73.6864 71.629 90.3979 62.0603 95.1622C60.9967 95.6917 59.8059 95.6059 58.8669 95.0948C47.0898 88.6829 40.4141 78.7974 36.9958 69.2911C33.6042 59.8586 33.3502 50.6088 34.6121 45.1797L34.699 44.8712C35.1949 43.369 36.6084 42.5241 37.9851 42.5118L38.4607 42.503C48.3952 42.2492 55.1564 36.9003 57.9353 33.9962L58.0681 33.8643Z" fill="var(--fill-0, #4D91FF)" stroke="var(--stroke-0, #D9D9D9)" stroke-width="5"/>
<path id="Vector 19" d="M51.2201 62.6952L58.113 69.7973C58.5169 70.2135 59.189 70.1999 59.5758 69.7677L71.3828 56.575" stroke="var(--stroke-0, white)" stroke-width="5" stroke-linecap="round"/>
</g>
</g>
</svg>
