<svg preserveAspectRatio="none" width="100%" height="100%" overflow="visible" style="display: block;" viewBox="0 0 41.6854 42.4358" fill="none" xmlns="http://www.w3.org/2000/svg">
<path id="Vector" d="M41.6854 17.6199L35.0435 0L25.721 12.6289L30.0268 13.9742C29.8409 15.1572 29.1307 18.2885 28.8743 19.4281C28.4119 21.4568 27.8128 23.3982 27.0569 25.2333C26.2962 27.0625 25.3552 28.7618 24.2485 30.316C23.1441 31.8729 21.8544 33.2561 20.4335 34.4629C19.0135 35.6725 17.4649 36.7056 15.8408 37.5842C14.2172 38.4687 12.5107 39.1674 10.772 39.7655C9.90427 40.0788 9.01957 40.3151 8.13457 40.5756L6.79688 40.9054C6.35058 41.0224 5.90125 41.1135 5.45069 41.2031C3.65121 41.5958 1.82956 41.8388 0 42.0676C1.82986 42.2464 3.67066 42.4111 5.52027 42.4224C5.98297 42.4338 6.44628 42.4435 6.9096 42.4271L8.30258 42.397C9.23072 42.3352 10.1643 42.2957 11.0958 42.1752C14.8218 41.7668 18.6045 40.8002 22.2281 38.7738C24.0352 37.763 25.7943 36.4764 27.4102 34.8772C29.0271 33.2851 30.5134 31.4085 31.7885 29.3212C33.0593 27.2315 34.1427 24.9602 35.0435 22.6166C35.6046 21.1477 36.5952 17.6862 37.0418 16.1817L41.6854 17.6199Z" fill="url(#paint0_linear_5260_334)"/>
<defs>
<linearGradient id="paint0_linear_5260_334" x1="36.6394" y1="4.55668" x2="2.41781" y2="39.2776" gradientUnits="userSpaceOnUse">
<stop stop-color="#4D91FF"/>
<stop offset="1" stop-color="#4D91FF" stop-opacity="0"/>
</linearGradient>
</defs>
</svg>
