<svg preserveAspectRatio="none" width="100%" height="100%" overflow="visible" style="display: block;" viewBox="0 0 100 61.445" fill="none" xmlns="http://www.w3.org/2000/svg">
<g id="Group 8">
<path id="Vector" d="M78.5109 27.1318C89.8435 27.1318 99.1333 33.2042 99.9947 45.329C100.071 46.3965 99.3239 47.3441 98.2817 47.5309C85.1018 49.8945 71.9209 49.8945 58.741 47.5309C57.6988 47.3441 56.952 46.3965 57.0281 45.329C57.8885 33.2032 67.1783 27.1318 78.5119 27.1318H78.5109Z" fill="var(--fill-0, #DDE1E6)"/>
<path id="Vector_2" d="M78.511 29.7403C70.949 29.7403 64.7957 23.5212 64.7957 15.876C64.7957 8.23087 70.948 2.0127 78.511 2.0127C86.074 2.0127 92.2263 8.23187 92.2263 15.877C92.2263 23.5222 86.074 29.7413 78.511 29.7413V29.7403Z" fill="var(--fill-0, white)"/>
<path id="Vector_3" d="M86.3641 23.814C90.701 19.43 90.701 12.322 86.3641 7.93795C82.0271 3.5539 74.9956 3.5539 70.6586 7.93795C66.3217 12.322 66.3217 19.43 70.6586 23.814C74.9956 28.1981 82.0271 28.1981 86.3641 23.814Z" fill="var(--fill-0, #DDE1E6)"/>
<path id="Vector_4" d="M21.4891 27.1318C10.1565 27.1318 0.866733 33.2042 0.00532666 45.33C-0.0707379 46.3975 0.676077 47.3451 1.71826 47.5319C14.8982 49.8955 28.0791 49.8955 41.259 47.5319C42.3012 47.3451 43.048 46.3975 42.9719 45.33C42.1115 33.2042 32.8217 27.1328 21.4881 27.1328L21.4891 27.1318Z" fill="var(--fill-0, #DDE1E6)"/>
<path id="Vector_5" d="M22.3626 61.4449V58.4282C22.3626 50.3047 25.2234 43.5573 30.6368 38.9139C35.5623 34.6879 42.2579 32.4551 49.9997 32.4551C57.7415 32.4551 64.4371 34.6889 69.3626 38.9139C74.775 43.5573 77.6368 50.3057 77.6368 58.4282V61.4449H22.3626Z" fill="var(--fill-0, white)"/>
<path id="Vector_6" d="M49.9987 35.4717C62.8191 35.4717 73.3535 42.264 74.5399 55.8278C74.6684 57.2967 73.6716 58.6248 72.2353 58.8775C57.4106 61.4907 42.5869 61.4907 27.7622 58.8775C26.3259 58.6238 25.3291 57.2957 25.4576 55.8278C26.644 42.264 37.1784 35.4717 49.9987 35.4717Z" fill="var(--fill-0, #DDE1E6)"/>
<path id="Vector_7" d="M49.9994 38.6894C41.2194 38.6894 34.0772 31.4686 34.0772 22.5942C34.0772 13.7198 41.2204 6.49805 49.9994 6.49805C58.7784 6.49805 65.9216 13.7188 65.9216 22.5932C65.9216 31.4676 58.7784 38.6884 49.9994 38.6884V38.6894Z" fill="var(--fill-0, white)"/>
<path id="Vector_8" d="M58.9835 31.6769C63.945 26.6615 63.945 18.5299 58.9835 13.5145C54.022 8.49908 45.9778 8.49908 41.0163 13.5145C36.0548 18.5299 36.0548 26.6615 41.0163 31.6769C45.9778 36.6923 54.022 36.6923 58.9835 31.6769Z" fill="var(--fill-0, #DDE1E6)"/>
<path id="Vector_9" d="M21.4892 29.7403C13.9272 29.7403 7.77386 23.5212 7.77386 15.876C7.77386 8.23087 13.9262 2.0127 21.4892 2.0127C29.0522 2.0127 35.2045 8.23187 35.2045 15.877C35.2045 23.5222 29.0522 29.7413 21.4892 29.7413V29.7403Z" fill="var(--fill-0, white)"/>
<path id="Vector_10" d="M29.3423 23.814C33.6792 19.43 33.6792 12.322 29.3423 7.93795C25.0053 3.5539 17.9738 3.5539 13.6368 7.93795C9.29988 12.322 9.29988 19.43 13.6368 23.814C17.9738 28.1981 25.0053 28.1981 29.3423 23.814Z" fill="var(--fill-0, #DDE1E6)"/>
</g>
</svg>
