<svg preserveAspectRatio="none" width="100%" height="100%" overflow="visible" style="display: block;" viewBox="0 0 75.5282 71.3619" fill="none" xmlns="http://www.w3.org/2000/svg">
<path id="Vector" d="M75.5282 29.6305L63.494 0L46.603 21.2372L54.4045 23.4996C54.0676 25.4889 52.7809 30.7548 52.3163 32.6711C51.4785 36.0826 50.393 39.3474 49.0234 42.4334C47.645 45.5094 45.9402 48.367 43.9349 50.9806C41.9339 53.5988 39.5972 55.9249 37.0227 57.9544C34.4498 59.9884 31.6441 61.7257 28.7013 63.2032C25.7596 64.6906 22.6676 65.8655 19.5173 66.8714C17.9452 67.3983 16.3422 67.7956 14.7387 68.2337L12.315 68.7883C11.5064 68.985 10.6923 69.1382 9.87591 69.2889C6.6155 69.9494 3.31491 70.3579 0 70.7427C3.31546 71.0433 6.65073 71.3203 10.002 71.3394C10.8403 71.3584 11.6798 71.3749 12.5192 71.3473L15.0431 71.2966C16.7248 71.1927 18.4164 71.1262 20.1041 70.9236C26.855 70.2368 33.7089 68.6113 40.2743 65.2037C43.5485 63.5039 46.7357 61.3403 49.6636 58.651C52.5932 55.9736 55.286 52.818 57.5963 49.3078C59.8989 45.7936 61.8619 41.9742 63.494 38.0331C64.5108 35.5629 66.3056 29.7419 67.1148 27.2118L75.5282 29.6305Z" fill="url(#paint0_linear_1756_184)"/>
<defs>
<linearGradient id="paint0_linear_1756_184" x1="66.3856" y1="7.66269" x2="9.05858" y2="70.3301" gradientUnits="userSpaceOnUse">
<stop stop-color="#145CE6"/>
<stop offset="1" stop-color="#145CE6" stop-opacity="0"/>
</linearGradient>
</defs>
</svg>
