<svg width="85" height="41" viewBox="0 0 85 41" fill="none" xmlns="http://www.w3.org/2000/svg">
<path d="M83.23 0H7.48956C6.8326 0 6.26042 0.487418 6.15446 1.14437L0.00876182 39.5444C-0.118391 40.3285 1.17432 40.7311 1.55578 40.0318C5.75181 32.6146 11.6432 27.9311 21.6458 27.9311H79.0975C79.6697 27.9311 80.0935 27.4225 79.9876 26.8503L77.4869 13.9656L84.0141 1.31391C84.3319 0.720531 83.9081 0 83.23 0ZM22.324 22.7391C17.471 22.7391 13.5505 18.7974 13.5505 13.9656C13.5505 9.11258 17.4922 5.19205 22.324 5.19205C27.177 5.19205 31.0975 9.13378 31.0975 13.9656C31.0975 18.8185 27.177 22.7391 22.324 22.7391ZM49.3439 10.3629H43.9399V13.9656C44.4485 14.7921 45.4657 15.6609 46.4194 16.2755C47.0127 16.657 48.1147 17.3563 49.3439 17.5682V22.0821H49.0472C46.8644 22.0821 43.0922 19.857 41.2485 18.0132C39.4048 19.8358 35.6114 22.0821 33.4498 22.0821H33.1531V17.5682C34.3823 17.3563 35.4843 16.657 36.0776 16.2755C37.0313 15.6609 38.0485 14.7921 38.5571 13.9656V10.3629H33.1531V5.84901H49.3651L49.3439 10.3629ZM68.2684 10.3629H57.4604V17.5682H68.2684V22.0821H52.0564V5.8702H68.2684V10.3629Z" fill="#145CE6"/>
<path d="M22.3238 18.2471C24.6761 18.2471 26.6046 16.3399 26.6046 13.9663C26.6046 11.614 24.6973 9.68555 22.3238 9.68555C19.9714 9.68555 18.043 11.5928 18.043 13.9663C18.043 16.3187 19.9503 18.2471 22.3238 18.2471Z" fill="#145CE6"/>
</svg>
